<svg xmlns="http://www.w3.org/2000/svg" xmlns:xlink="http://www.w3.org/1999/xlink" width="500" zoomAndPan="magnify" viewBox="0 0 375 374.999991" height="500" preserveAspectRatio="xMidYMid meet" version="1.0"><defs><clipPath id="c9ed6ee91e"><path d="M 8.539062 5.964844 L 366.460938 5.964844 L 366.460938 369.035156 L 8.539062 369.035156 Z M 8.539062 5.964844 " clip-rule="nonzero"/></clipPath><clipPath id="9472106c86"><path d="M 8.539062 5.96875 L 366.289062 5.96875 L 366.289062 368.964844 L 8.539062 368.964844 Z M 8.539062 5.96875 " clip-rule="nonzero"/></clipPath><clipPath id="092fbf267b"><path d="M 169 38.8125 L 205 38.8125 L 205 75 L 169 75 Z M 169 38.8125 " clip-rule="nonzero"/></clipPath><clipPath id="8a12d5c235"><path d="M 169 300 L 205 300 L 205 335.8125 L 169 335.8125 Z M 169 300 " clip-rule="nonzero"/></clipPath></defs><g clip-path="url(#c9ed6ee91e)"><path fill="#ffffff" d="M 8.539062 5.964844 L 366.460938 5.964844 L 366.460938 369.480469 L 8.539062 369.480469 Z M 8.539062 5.964844 " fill-opacity="1" fill-rule="nonzero"/></g><g clip-path="url(#9472106c86)"><path stroke-linecap="butt" transform="matrix(0.75, 0, 0, 0.75, 8.538334, 5.967779)" fill="none" stroke-linejoin="miter" d="M 0.000971734 0.00129482 L 477.219784 0.00129482 L 477.219784 484.084691 L 0.000971734 484.084691 Z M 0.000971734 0.00129482 " stroke="#000000" stroke-width="42" stroke-opacity="1" stroke-miterlimit="4"/></g><path fill="#000000" d="M 189.191406 113.105469 L 219.820312 130.851562 L 250.621094 148.601562 C 251.667969 149.296875 252.363281 150.515625 252.363281 151.730469 L 252.363281 222.894531 C 252.363281 224.285156 251.492188 225.503906 250.449219 226.027344 L 219.820312 243.773438 L 188.84375 261.519531 L 187.101562 258.5625 L 188.84375 261.519531 C 187.625 262.214844 186.234375 262.042969 185.1875 261.34375 L 154.558594 243.773438 L 123.757812 225.851562 C 122.539062 225.328125 122.015625 224.113281 122.015625 222.894531 L 122.015625 151.730469 C 122.015625 150.339844 122.714844 149.121094 123.933594 148.601562 L 154.558594 130.851562 L 185.363281 113.105469 L 187.101562 116.0625 L 185.363281 113.105469 C 186.582031 112.410156 187.972656 112.410156 189.191406 113.105469 Z M 216.339844 136.941406 L 187.101562 120.066406 L 158.039062 136.941406 L 128.980469 153.644531 L 128.980469 220.980469 L 158.039062 237.683594 L 187.101562 254.558594 L 216.339844 237.683594 L 245.402344 220.980469 L 245.402344 153.644531 Z M 216.339844 136.941406 " fill-opacity="1" fill-rule="nonzero"/><path fill="#000000" d="M 187.101562 133.984375 L 140.988281 160.605469 L 140.988281 214.019531 L 187.101562 240.640625 L 233.394531 214.019531 L 233.394531 160.605469 Z M 135.765625 155.558594 L 185.1875 127.027344 C 186.234375 126.328125 187.625 126.328125 188.84375 126.851562 L 187.101562 129.984375 L 188.84375 127.027344 L 238.265625 155.558594 C 239.484375 156.082031 240.355469 157.300781 240.355469 158.691406 L 240.355469 215.933594 C 240.355469 217.152344 239.660156 218.371094 238.613281 218.890625 L 189.191406 247.425781 C 187.972656 248.296875 186.582031 248.296875 185.363281 247.601562 L 187.101562 244.640625 L 185.363281 247.601562 L 135.941406 219.066406 C 134.894531 218.542969 134.023438 217.328125 134.023438 215.933594 L 134.023438 158.691406 C 134.023438 157.472656 134.722656 156.257812 135.765625 155.558594 Z M 135.765625 155.558594 " fill-opacity="1" fill-rule="nonzero"/><path fill="#000000" d="M 183.621094 116.0625 C 183.621094 117.976562 185.1875 119.542969 187.101562 119.542969 C 189.015625 119.542969 190.582031 117.976562 190.582031 116.0625 L 190.582031 70.828125 C 190.582031 68.914062 189.015625 67.347656 187.101562 67.347656 C 185.1875 67.347656 183.621094 68.914062 183.621094 70.828125 Z M 183.621094 116.0625 " fill-opacity="1" fill-rule="nonzero"/><path fill="#000000" d="M 247.140625 148.601562 C 245.402344 149.644531 244.878906 151.730469 245.925781 153.472656 C 246.792969 155.039062 248.882812 155.558594 250.621094 154.691406 L 289.777344 132.070312 C 291.34375 131.027344 292.039062 128.941406 290.996094 127.375 C 290.125 125.632812 288.039062 125.113281 286.296875 125.980469 Z M 247.140625 148.601562 " fill-opacity="1" fill-rule="nonzero"/><path fill="#000000" d="M 250.621094 219.9375 C 248.882812 218.890625 246.792969 219.414062 245.925781 221.152344 C 244.878906 222.894531 245.402344 224.980469 247.140625 225.851562 L 286.296875 248.46875 C 287.863281 249.515625 290.125 248.816406 290.996094 247.253906 C 292.039062 245.511719 291.34375 243.425781 289.777344 242.554688 Z M 250.621094 219.9375 " fill-opacity="1" fill-rule="nonzero"/><path fill="#000000" d="M 190.582031 258.5625 C 190.582031 256.648438 189.015625 255.082031 187.101562 255.082031 C 185.1875 255.082031 183.621094 256.648438 183.621094 258.5625 L 183.621094 303.800781 C 183.621094 305.710938 185.1875 307.277344 187.101562 307.277344 C 189.015625 307.277344 190.582031 305.710938 190.582031 303.800781 Z M 190.582031 258.5625 " fill-opacity="1" fill-rule="nonzero"/><path fill="#000000" d="M 127.238281 225.851562 C 128.804688 224.980469 129.5 222.894531 128.457031 221.152344 C 127.585938 219.589844 125.324219 218.890625 123.757812 219.9375 L 84.601562 242.554688 C 82.863281 243.425781 82.339844 245.511719 83.210938 247.253906 C 84.253906 248.816406 86.34375 249.515625 88.082031 248.46875 Z M 127.238281 225.851562 " fill-opacity="1" fill-rule="nonzero"/><path fill="#000000" d="M 123.757812 154.691406 C 125.324219 155.558594 127.585938 155.039062 128.457031 153.472656 C 129.5 151.730469 128.804688 149.644531 127.238281 148.601562 L 88.082031 125.980469 C 86.34375 125.113281 84.253906 125.632812 83.210938 127.375 C 82.339844 128.941406 82.863281 131.027344 84.601562 132.070312 Z M 123.757812 154.691406 " fill-opacity="1" fill-rule="nonzero"/><g clip-path="url(#092fbf267b)"><path fill="#000000" d="M 187.101562 38.8125 C 197.023438 38.8125 204.855469 46.816406 204.855469 56.558594 C 204.855469 61.433594 202.941406 65.957031 199.632812 69.085938 C 196.5 72.394531 192.148438 74.308594 187.101562 74.308594 C 182.230469 74.308594 177.878906 72.394531 174.574219 69.085938 C 171.441406 65.957031 169.351562 61.433594 169.351562 56.558594 C 169.351562 46.816406 177.359375 38.8125 187.101562 38.8125 Z M 187.101562 45.773438 C 181.1875 45.773438 176.3125 50.644531 176.3125 56.558594 C 176.3125 59.519531 177.53125 62.300781 179.445312 64.214844 C 181.535156 66.128906 184.144531 67.347656 187.101562 67.347656 C 190.0625 67.347656 192.847656 66.128906 194.761719 64.214844 C 196.675781 62.300781 197.894531 59.519531 197.894531 56.558594 C 197.894531 50.644531 193.195312 45.773438 187.101562 45.773438 Z M 187.101562 45.773438 " fill-opacity="1" fill-rule="nonzero"/></g><path fill="#000000" d="M 317.621094 126.503906 C 315.011719 135.898438 305.265625 141.640625 295.871094 139.03125 C 291.519531 137.988281 287.691406 135.203125 285.078125 131.027344 C 285.078125 130.851562 284.90625 130.679688 284.90625 130.503906 C 282.46875 126.328125 282.121094 121.632812 283.164062 117.28125 C 284.382812 113.105469 287.167969 109.277344 291.171875 106.667969 C 291.34375 106.667969 291.519531 106.496094 291.691406 106.496094 C 295.871094 104.058594 300.742188 103.710938 304.917969 104.753906 C 310.835938 106.320312 320.40625 115.714844 317.621094 126.503906 Z M 290.996094 127.375 C 295.871094 135.726562 308.574219 133.289062 310.835938 124.765625 C 311.53125 122.152344 311.183594 119.195312 309.792969 116.761719 C 309.792969 116.585938 309.617188 116.414062 309.617188 116.414062 C 308.226562 113.800781 305.789062 112.238281 303.179688 111.539062 C 300.566406 110.84375 297.785156 111.019531 295.171875 112.410156 L 295.171875 112.585938 C 292.5625 114.152344 290.824219 116.238281 289.953125 119.195312 C 289.257812 121.804688 289.605469 124.9375 290.996094 127.375 Z M 290.996094 127.375 " fill-opacity="1" fill-rule="nonzero"/><path fill="#000000" d="M 315.882812 261.34375 C 315.882812 261.519531 315.707031 261.519531 315.707031 261.695312 C 313.097656 265.871094 309.269531 268.652344 304.917969 269.871094 C 300.742188 270.914062 295.871094 270.394531 291.691406 268.132812 C 291.519531 268.132812 291.519531 267.957031 291.34375 267.957031 C 287.167969 265.347656 284.382812 261.519531 283.164062 257.167969 C 282.121094 252.820312 282.644531 247.949219 285.078125 243.773438 L 288.039062 245.511719 L 285.078125 243.773438 C 285.078125 243.597656 285.078125 243.597656 285.078125 243.597656 C 287.691406 239.421875 291.519531 236.640625 295.871094 235.421875 C 300.21875 234.378906 305.09375 234.898438 309.269531 237.335938 L 307.53125 240.292969 L 309.269531 237.335938 C 309.269531 237.335938 309.445312 237.335938 309.445312 237.335938 C 313.621094 239.945312 316.40625 243.773438 317.621094 248.121094 C 318.667969 252.296875 318.144531 256.996094 315.882812 261.34375 Z M 303.179688 263.085938 C 305.789062 262.390625 308.226562 260.648438 309.617188 258.214844 C 309.617188 258.214844 309.792969 258.039062 309.792969 258.039062 L 312.402344 259.605469 L 312.75 259.78125 L 309.792969 258.039062 C 311.183594 255.429688 311.53125 252.472656 310.835938 249.863281 C 310.140625 247.253906 308.398438 244.816406 305.964844 243.425781 L 305.789062 243.25 C 303.179688 241.859375 300.21875 241.511719 297.609375 242.207031 C 295 242.902344 292.5625 244.640625 291.171875 247.078125 C 290.996094 247.253906 290.996094 247.425781 290.824219 247.425781 C 289.605469 250.035156 289.257812 252.820312 289.953125 255.429688 C 290.648438 258.039062 292.390625 260.476562 294.824219 261.867188 C 295 261.867188 295 262.042969 295.171875 262.042969 C 297.785156 263.433594 300.566406 263.78125 303.179688 263.085938 Z M 303.179688 263.085938 " fill-opacity="1" fill-rule="nonzero"/><g clip-path="url(#8a12d5c235)"><path fill="#000000" d="M 187.101562 335.8125 C 182.230469 335.8125 177.878906 333.726562 174.574219 330.59375 C 174.574219 330.417969 174.398438 330.417969 174.398438 330.417969 C 171.265625 327.113281 169.351562 322.765625 169.351562 318.066406 C 169.351562 313.019531 171.441406 308.671875 174.574219 305.363281 C 177.878906 302.234375 182.230469 300.320312 187.101562 300.320312 C 192.148438 300.320312 196.5 302.234375 199.632812 305.363281 C 202.941406 308.671875 204.855469 313.019531 204.855469 318.066406 C 204.855469 322.9375 202.941406 327.289062 199.632812 330.59375 C 196.5 333.726562 191.976562 335.8125 187.101562 335.8125 Z M 179.445312 325.546875 C 181.535156 327.636719 184.144531 328.851562 187.101562 328.851562 C 190.0625 328.851562 192.847656 327.636719 194.761719 325.722656 L 194.761719 325.546875 L 197.195312 328.15625 L 194.761719 325.546875 C 196.675781 323.632812 197.894531 321.023438 197.894531 318.066406 C 197.894531 314.933594 196.675781 312.324219 194.761719 310.410156 C 192.847656 308.496094 190.0625 307.277344 187.101562 307.277344 C 184.144531 307.277344 181.535156 308.496094 179.445312 310.410156 C 177.53125 312.324219 176.3125 314.933594 176.3125 318.066406 C 176.3125 320.851562 177.53125 323.632812 179.445312 325.546875 Z M 199.632812 330.59375 C 198.242188 331.984375 196.152344 331.8125 194.761719 330.59375 Z M 199.632812 330.59375 " fill-opacity="1" fill-rule="nonzero"/></g><path fill="#000000" d="M 56.757812 248.121094 C 59.367188 238.554688 69.113281 232.984375 78.511719 235.421875 C 82.863281 236.640625 86.691406 239.421875 89.125 243.597656 C 89.300781 243.597656 89.300781 243.773438 89.476562 243.945312 C 91.738281 248.121094 92.257812 252.992188 91.039062 257.167969 C 89.996094 261.519531 87.210938 265.347656 83.210938 267.78125 C 82.863281 267.957031 82.6875 268.132812 82.511719 268.132812 C 78.335938 270.394531 73.636719 270.914062 69.289062 269.871094 C 59.890625 267.261719 54.320312 257.519531 56.757812 248.121094 Z M 84.429688 255.429688 C 85.125 252.820312 84.777344 250.035156 83.382812 247.425781 C 81.992188 244.816406 79.554688 242.902344 76.769531 242.207031 C 71.027344 240.640625 65.109375 244.121094 63.542969 249.863281 C 62.847656 252.472656 63.023438 255.257812 64.414062 257.867188 C 64.589844 258.039062 64.589844 258.039062 64.761719 258.214844 C 66.15625 260.648438 68.589844 262.390625 71.203125 263.085938 C 73.8125 263.78125 76.597656 263.433594 79.207031 262.042969 L 79.382812 262.042969 C 79.382812 261.867188 79.554688 261.867188 79.554688 261.867188 C 81.992188 260.300781 83.730469 258.039062 84.429688 255.429688 Z M 79.382812 262.042969 Z M 79.382812 262.042969 " fill-opacity="1" fill-rule="nonzero"/><path fill="#000000" d="M 69.289062 104.753906 C 78.859375 102.320312 88.605469 107.886719 91.039062 117.28125 C 93.652344 126.851562 87.910156 136.59375 78.511719 139.03125 C 69.113281 141.640625 59.367188 135.898438 56.757812 126.503906 C 54.320312 117.109375 59.890625 107.363281 69.289062 104.753906 Z M 63.542969 124.765625 C 65.109375 130.503906 71.027344 133.8125 76.769531 132.417969 C 79.382812 131.722656 81.644531 129.984375 83.210938 127.546875 C 83.210938 127.375 83.382812 127.199219 83.382812 127.027344 C 84.777344 124.589844 85.125 121.632812 84.429688 119.195312 C 82.863281 113.453125 76.945312 109.976562 71.203125 111.539062 C 65.460938 113.105469 61.980469 119.023438 63.542969 124.765625 Z M 63.542969 124.765625 " fill-opacity="1" fill-rule="nonzero"/></svg>