<svg xmlns="http://www.w3.org/2000/svg" xmlns:xlink="http://www.w3.org/1999/xlink" width="500" zoomAndPan="magnify" viewBox="0 0 375 374.999991" height="500" preserveAspectRatio="xMidYMid meet" version="1.0"><defs><clipPath id="1ed3048816"><path d="M 8.539062 5.964844 L 366.460938 5.964844 L 366.460938 369.035156 L 8.539062 369.035156 Z M 8.539062 5.964844 " clip-rule="nonzero"/></clipPath><clipPath id="9dc364e1fc"><path d="M 8.539062 5.96875 L 366.289062 5.96875 L 366.289062 368.964844 L 8.539062 368.964844 Z M 8.539062 5.96875 " clip-rule="nonzero"/></clipPath><clipPath id="32e106da16"><path d="M 37.5 54.1875 L 336 54.1875 L 336 255 L 37.5 255 Z M 37.5 54.1875 " clip-rule="nonzero"/></clipPath><clipPath id="5525291d21"><path d="M 204 209 L 260 209 L 260 321.1875 L 204 321.1875 Z M 204 209 " clip-rule="nonzero"/></clipPath><clipPath id="27b9217d84"><path d="M 281 176 L 337.5 176 L 337.5 321.1875 L 281 321.1875 Z M 281 176 " clip-rule="nonzero"/></clipPath><clipPath id="6af002c646"><path d="M 126 243 L 182 243 L 182 321.1875 L 126 321.1875 Z M 126 243 " clip-rule="nonzero"/></clipPath><clipPath id="5e07997b7d"><path d="M 48 265 L 105 265 L 105 321.1875 L 48 321.1875 Z M 48 265 " clip-rule="nonzero"/></clipPath></defs><g clip-path="url(#1ed3048816)"><path fill="#ffffff" d="M 8.539062 5.964844 L 366.460938 5.964844 L 366.460938 369.480469 L 8.539062 369.480469 Z M 8.539062 5.964844 " fill-opacity="1" fill-rule="nonzero"/></g><g clip-path="url(#9dc364e1fc)"><path stroke-linecap="butt" transform="matrix(0.75, 0, 0, 0.75, 8.538334, 5.967779)" fill="none" stroke-linejoin="miter" d="M 0.000971734 0.00129482 L 477.219784 0.00129482 L 477.219784 484.084691 L 0.000971734 484.084691 Z M 0.000971734 0.00129482 " stroke="#000000" stroke-width="42" stroke-opacity="1" stroke-miterlimit="4"/></g><g clip-path="url(#32e106da16)"><path fill="#040606" d="M 259.796875 132.0625 L 220.699219 132.0625 L 180.339844 187.6875 L 135.25 187.6875 L 98.234375 243.3125 L 37.523438 243.3125 L 37.523438 254.4375 L 104.179688 254.4375 L 141.195312 198.8125 L 185.980469 198.8125 L 226.382812 143.1875 L 265.265625 143.1875 L 318.554688 73.828125 L 335.21875 86.691406 L 326.628906 54.1875 L 293.039062 54.1875 L 309.746094 67.050781 L 259.796875 132.0625 " fill-opacity="1" fill-rule="nonzero"/></g><g clip-path="url(#5525291d21)"><path fill="#040606" d="M 215.273438 221.0625 L 248.601562 221.0625 L 248.601562 310.0625 L 215.273438 310.0625 Z M 204.164062 209.9375 L 204.164062 321.1875 L 259.710938 321.1875 L 259.710938 209.9375 L 204.164062 209.9375 " fill-opacity="1" fill-rule="nonzero"/></g><g clip-path="url(#27b9217d84)"><path fill="#040606" d="M 293.039062 187.6875 L 326.367188 187.6875 L 326.367188 310.0625 L 293.039062 310.0625 Z M 281.929688 176.5625 L 281.929688 321.1875 L 337.476562 321.1875 L 337.476562 176.5625 L 281.929688 176.5625 " fill-opacity="1" fill-rule="nonzero"/></g><g clip-path="url(#6af002c646)"><path fill="#040606" d="M 137.507812 254.4375 L 170.835938 254.4375 L 170.835938 310.0625 L 137.507812 310.0625 Z M 126.398438 243.3125 L 126.398438 321.1875 L 181.945312 321.1875 L 181.945312 243.3125 L 126.398438 243.3125 " fill-opacity="1" fill-rule="nonzero"/></g><g clip-path="url(#5e07997b7d)"><path fill="#040606" d="M 59.742188 276.6875 L 93.070312 276.6875 L 93.070312 310.0625 L 59.742188 310.0625 Z M 48.632812 265.5625 L 48.632812 321.1875 L 104.179688 321.1875 L 104.179688 265.5625 L 48.632812 265.5625 " fill-opacity="1" fill-rule="nonzero"/></g></svg>