<svg xmlns="http://www.w3.org/2000/svg" xmlns:xlink="http://www.w3.org/1999/xlink" width="500" zoomAndPan="magnify" viewBox="0 0 375 374.999991" height="500" preserveAspectRatio="xMidYMid meet" version="1.0"><defs><filter x="0%" y="0%" width="100%" height="100%" id="f41a795e62"><feColorMatrix values="0 0 0 0 1 0 0 0 0 1 0 0 0 0 1 0 0 0 1 0" color-interpolation-filters="sRGB"/></filter><clipPath id="714211b198"><path d="M 8.539062 5.964844 L 366.460938 5.964844 L 366.460938 369.035156 L 8.539062 369.035156 Z M 8.539062 5.964844 " clip-rule="nonzero"/></clipPath><clipPath id="7012ebd9e9"><path d="M 8.539062 5.96875 L 366.289062 5.96875 L 366.289062 368.964844 L 8.539062 368.964844 Z M 8.539062 5.96875 " clip-rule="nonzero"/></clipPath><mask id="34579f75e4"><g filter="url(#f41a795e62)"><rect x="-37.5" width="450" fill="#000000" y="-37.499999" height="449.999989" fill-opacity="0.85"/></g></mask><clipPath id="7f5d6fbef3"><rect x="0" width="312" y="0" height="312"/></clipPath></defs><g clip-path="url(#714211b198)"><path fill="#ffffff" d="M 8.539062 5.964844 L 366.460938 5.964844 L 366.460938 369.480469 L 8.539062 369.480469 Z M 8.539062 5.964844 " fill-opacity="1" fill-rule="nonzero"/></g><g clip-path="url(#7012ebd9e9)"><path stroke-linecap="butt" transform="matrix(0.75, 0, 0, 0.75, 8.538334, 5.967779)" fill="none" stroke-linejoin="miter" d="M 0.000971734 0.00129482 L 477.219784 0.00129482 L 477.219784 484.084691 L 0.000971734 484.084691 Z M 0.000971734 0.00129482 " stroke="#000000" stroke-width="30" stroke-opacity="1" stroke-miterlimit="4"/></g><g mask="url(#34579f75e4)"><g transform="matrix(1, 0, 0, 1, 32, 32)"><g clip-path="url(#7f5d6fbef3)"><path fill="#040606" d="M 70.542969 11.863281 C 71.347656 11.84375 72.167969 11.824219 72.972656 11.824219 C 89.003906 11.824219 104.113281 17.882812 115.710938 29.058594 C 127.890625 40.777344 134.59375 56.550781 134.59375 73.464844 L 134.59375 129.96875 C 134.59375 132.800781 132.285156 135.109375 129.457031 135.109375 L 72.953125 135.109375 C 56.035156 135.109375 40.265625 128.40625 28.546875 116.226562 C 16.828125 104.046875 10.707031 87.992188 11.351562 71.058594 C 12.554688 39.613281 39.101562 13.066406 70.542969 11.863281 Z M 72.953125 145.382812 L 129.457031 145.382812 C 137.964844 145.382812 144.867188 138.476562 144.867188 129.96875 L 144.867188 73.464844 C 144.867188 53.742188 137.042969 35.339844 122.835938 21.65625 C 108.628906 7.972656 89.925781 0.886719 70.164062 1.609375 C 32.839844 3.015625 2.5 33.355469 1.097656 70.675781 C 0.335938 90.421875 7.457031 109.140625 21.140625 123.347656 C 34.828125 137.554688 53.226562 145.382812 72.953125 145.382812 " fill-opacity="1" fill-rule="nonzero"/><path fill="#040606" d="M 175.6875 73.464844 C 175.6875 56.550781 182.390625 40.777344 194.570312 29.058594 C 206.167969 17.882812 221.277344 11.824219 237.308594 11.824219 C 238.113281 11.824219 238.933594 11.84375 239.738281 11.863281 C 271.179688 13.066406 297.726562 39.613281 298.933594 71.058594 C 299.574219 87.992188 293.453125 104.046875 281.734375 116.226562 C 270.015625 128.40625 254.246094 135.109375 237.332031 135.109375 L 180.824219 135.109375 C 177.996094 135.109375 175.6875 132.800781 175.6875 129.96875 Z M 180.824219 145.382812 L 237.332031 145.382812 C 257.054688 145.382812 275.453125 137.554688 289.140625 123.347656 C 302.824219 109.140625 309.949219 90.421875 309.183594 70.675781 C 307.78125 33.355469 277.441406 3.015625 240.121094 1.609375 C 220.335938 0.847656 201.671875 7.972656 187.445312 21.65625 C 173.242188 35.339844 165.414062 53.742188 165.414062 73.464844 L 165.414062 129.96875 C 165.414062 138.476562 172.316406 145.382812 180.824219 145.382812 " fill-opacity="1" fill-rule="nonzero"/><path fill="#040606" d="M 28.546875 195.082031 C 40.265625 182.902344 56.035156 176.203125 72.953125 176.203125 L 129.457031 176.203125 C 132.285156 176.203125 134.59375 178.507812 134.59375 181.339844 L 134.59375 237.84375 C 134.59375 254.757812 127.890625 270.53125 115.710938 282.25 C 103.53125 293.96875 87.539062 300.085938 70.542969 299.445312 C 39.101562 298.242188 12.554688 271.695312 11.351562 240.25 C 10.707031 223.316406 16.828125 207.261719 28.546875 195.082031 Z M 70.164062 309.699219 C 71.105469 309.738281 72.050781 309.757812 72.992188 309.757812 C 91.691406 309.757812 109.289062 302.675781 122.835938 289.652344 C 137.042969 275.96875 144.867188 257.566406 144.867188 237.84375 L 144.867188 181.339844 C 144.867188 172.832031 137.964844 165.929688 129.457031 165.929688 L 72.953125 165.929688 C 53.226562 165.929688 34.828125 173.753906 21.140625 187.960938 C 7.457031 202.167969 0.335938 220.886719 1.097656 240.632812 C 2.5 277.953125 32.839844 308.292969 70.164062 309.699219 " fill-opacity="1" fill-rule="nonzero"/><path fill="#040606" d="M 175.6875 181.339844 C 175.6875 178.507812 177.996094 176.203125 180.824219 176.203125 L 237.332031 176.203125 C 254.246094 176.203125 270.015625 182.902344 281.734375 195.082031 C 293.453125 207.261719 299.574219 223.316406 298.933594 240.25 C 297.726562 271.695312 271.179688 298.242188 239.738281 299.445312 C 222.824219 300.085938 206.75 293.96875 194.570312 282.25 C 182.390625 270.53125 175.6875 254.757812 175.6875 237.84375 Z M 165.414062 237.84375 C 165.414062 257.566406 173.242188 275.96875 187.445312 289.652344 C 200.992188 302.675781 218.589844 309.757812 237.289062 309.757812 C 238.234375 309.757812 239.175781 309.738281 240.121094 309.699219 C 277.441406 308.292969 307.78125 277.953125 309.183594 240.632812 C 309.949219 220.886719 302.824219 202.167969 289.140625 187.960938 C 275.453125 173.753906 257.054688 165.929688 237.332031 165.929688 L 180.824219 165.929688 C 172.316406 165.929688 165.414062 172.832031 165.414062 181.339844 L 165.414062 237.84375 " fill-opacity="1" fill-rule="nonzero"/><path fill="#040606" d="M 72.953125 99.148438 C 67.292969 99.148438 62.679688 94.535156 62.679688 88.875 C 62.679688 86.046875 60.371094 83.738281 57.542969 83.738281 C 54.710938 83.738281 52.40625 86.046875 52.40625 88.875 C 52.40625 100.214844 61.613281 109.421875 72.953125 109.421875 C 84.289062 109.421875 93.5 100.214844 93.5 88.875 C 93.5 77.539062 84.289062 68.328125 72.953125 68.328125 C 67.292969 68.328125 62.679688 63.714844 62.679688 58.054688 C 62.679688 52.398438 67.292969 47.78125 72.953125 47.78125 C 78.609375 47.78125 83.226562 52.398438 83.226562 58.054688 C 83.226562 60.882812 85.53125 63.191406 88.363281 63.191406 C 91.191406 63.191406 93.5 60.882812 93.5 58.054688 C 93.5 46.71875 84.289062 37.507812 72.953125 37.507812 C 61.613281 37.507812 52.40625 46.71875 52.40625 58.054688 C 52.40625 69.390625 61.613281 78.601562 72.953125 78.601562 C 78.609375 78.601562 83.226562 83.21875 83.226562 88.875 C 83.226562 94.535156 78.609375 99.148438 72.953125 99.148438 " fill-opacity="1" fill-rule="nonzero"/><path fill="#040606" d="M 220.734375 109.28125 C 223.042969 109.824219 225.453125 108.722656 226.515625 106.59375 L 237.332031 84.941406 L 248.144531 106.59375 C 249.027344 108.359375 250.835938 109.421875 252.742188 109.421875 C 253.140625 109.421875 253.523438 109.382812 253.925781 109.28125 C 256.230469 108.742188 257.878906 106.675781 257.878906 104.285156 L 257.878906 42.644531 C 257.878906 39.816406 255.570312 37.507812 252.742188 37.507812 C 249.910156 37.507812 247.605469 39.816406 247.605469 42.644531 L 247.605469 82.535156 L 241.925781 71.15625 C 240.179688 67.6875 234.480469 67.6875 232.734375 71.15625 L 227.054688 82.535156 L 227.054688 42.644531 C 227.054688 39.816406 224.75 37.507812 221.917969 37.507812 C 219.089844 37.507812 216.78125 39.816406 216.78125 42.644531 L 216.78125 104.285156 C 216.78125 106.675781 218.429688 108.742188 220.734375 109.28125 " fill-opacity="1" fill-rule="nonzero"/><path fill="#040606" d="M 62.679688 222.433594 C 62.679688 216.773438 67.292969 212.160156 72.953125 212.160156 C 78.609375 212.160156 83.226562 216.773438 83.226562 222.433594 L 83.226562 253.253906 C 83.226562 258.914062 78.609375 263.527344 72.953125 263.527344 C 67.292969 263.527344 62.679688 258.914062 62.679688 253.253906 Z M 72.953125 273.800781 C 84.289062 273.800781 93.5 264.589844 93.5 253.253906 L 93.5 222.433594 C 93.5 211.097656 84.289062 201.886719 72.953125 201.886719 C 61.613281 201.886719 52.40625 211.097656 52.40625 222.433594 L 52.40625 253.253906 C 52.40625 264.589844 61.613281 273.800781 72.953125 273.800781 " fill-opacity="1" fill-rule="nonzero"/><path fill="#040606" d="M 221.917969 212.160156 L 232.191406 212.160156 L 232.191406 268.664062 C 232.191406 271.492188 234.5 273.800781 237.332031 273.800781 C 240.160156 273.800781 242.46875 271.492188 242.46875 268.664062 L 242.46875 212.160156 L 252.742188 212.160156 C 255.570312 212.160156 257.878906 209.851562 257.878906 207.023438 C 257.878906 204.195312 255.570312 201.886719 252.742188 201.886719 L 221.917969 201.886719 C 219.089844 201.886719 216.78125 204.195312 216.78125 207.023438 C 216.78125 209.851562 219.089844 212.160156 221.917969 212.160156 " fill-opacity="1" fill-rule="nonzero"/></g></g></g></svg>