<svg xmlns="http://www.w3.org/2000/svg" xmlns:xlink="http://www.w3.org/1999/xlink" width="500" zoomAndPan="magnify" viewBox="0 0 375 374.999991" height="500" preserveAspectRatio="xMidYMid meet" version="1.0"><defs><clipPath id="7f89f095e5"><path d="M 8.539062 5.964844 L 366.460938 5.964844 L 366.460938 369.035156 L 8.539062 369.035156 Z M 8.539062 5.964844 " clip-rule="nonzero"/></clipPath><clipPath id="8edb491055"><path d="M 8.539062 5.96875 L 366.289062 5.96875 L 366.289062 368.964844 L 8.539062 368.964844 Z M 8.539062 5.96875 " clip-rule="nonzero"/></clipPath><clipPath id="123cdebf8c"><path d="M 42.375 42.375 L 332.625 42.375 L 332.625 332.625 L 42.375 332.625 Z M 42.375 42.375 " clip-rule="nonzero"/></clipPath></defs><g clip-path="url(#7f89f095e5)"><path fill="#ffffff" d="M 8.539062 5.964844 L 366.460938 5.964844 L 366.460938 369.480469 L 8.539062 369.480469 Z M 8.539062 5.964844 " fill-opacity="1" fill-rule="nonzero"/></g><g clip-path="url(#8edb491055)"><path stroke-linecap="butt" transform="matrix(0.75, 0, 0, 0.75, 8.538334, 5.967779)" fill="none" stroke-linejoin="miter" d="M 0.000971734 0.00129482 L 477.219784 0.00129482 L 477.219784 484.084691 L 0.000971734 484.084691 Z M 0.000971734 0.00129482 " stroke="#000000" stroke-width="42" stroke-opacity="1" stroke-miterlimit="4"/></g><g clip-path="url(#123cdebf8c)"><path fill="#000000" d="M 42.375 42.375 L 83.839844 42.375 L 83.839844 83.839844 L 42.375 83.839844 Z M 125.304688 42.375 L 332.625 42.375 L 332.625 83.839844 L 125.304688 83.839844 Z M 42.375 125.304688 L 83.839844 125.304688 L 83.839844 166.769531 L 42.375 166.769531 Z M 125.304688 125.304688 L 332.625 125.304688 L 332.625 166.769531 L 125.304688 166.769531 Z M 42.375 208.230469 L 83.839844 208.230469 L 83.839844 249.695312 L 42.375 249.695312 Z M 125.304688 208.230469 L 332.625 208.230469 L 332.625 249.695312 L 125.304688 249.695312 Z M 42.375 291.160156 L 83.839844 291.160156 L 83.839844 332.625 L 42.375 332.625 Z M 125.304688 291.160156 L 332.625 291.160156 L 332.625 332.625 L 125.304688 332.625 Z M 125.304688 291.160156 " fill-opacity="1" fill-rule="nonzero"/></g></svg>