<svg width="4715" height="2122" viewBox="0 0 4715 2122" fill="none" xmlns="http://www.w3.org/2000/svg">
<rect x="559" y="240" width="579" height="262" fill="#D0E4FF" fill-opacity="0.2"/>
<rect x="1340" y="240" width="2551" height="1642" fill="#D0E4FF" fill-opacity="0.2"/>
<rect x="559" y="930" width="579" height="261" fill="#D0E4FF" fill-opacity="0.2"/>
<rect x="559" y="584" width="579" height="263" fill="#D0E4FF" fill-opacity="0.2"/>
<rect x="559" y="1620" width="579" height="262" fill="#D0E4FF" fill-opacity="0.2"/>
<rect x="559" y="1274" width="579" height="263" fill="#D0E4FF" fill-opacity="0.2"/>
<rect x="3" y="3" width="4709" height="2116" rx="137" fill="#004FBA" fill-opacity="0.1" stroke="#B5B5B5" stroke-width="6" stroke-dasharray="80 60"/>
<g filter="url(#filter0_d_2780_558)">
<ellipse cx="2471.5" cy="1060.5" rx="201.5" ry="195.5" fill="#004FBA"/>
<ellipse cx="2471.5" cy="1060.5" rx="201.5" ry="195.5" fill="#004FBA"/>
<ellipse cx="2471.5" cy="1060.5" rx="201.5" ry="195.5" fill="#004FBA"/>
</g>
<path d="M2407.59 1051.04C2402.29 1051.04 2398 1055.28 2398 1060.5C2398 1065.72 2402.29 1069.96 2407.59 1069.96V1051.04ZM2471.5 1069.96C2476.79 1069.96 2481.09 1065.72 2481.09 1060.5C2481.09 1055.28 2476.79 1051.04 2471.5 1051.04V1069.96ZM2471.5 1051.04C2466.21 1051.04 2461.91 1055.28 2461.91 1060.5C2461.91 1065.72 2466.21 1069.96 2471.5 1069.96V1051.04ZM2535.41 1069.96C2540.71 1069.96 2545 1065.72 2545 1060.5C2545 1055.28 2540.71 1051.04 2535.41 1051.04V1069.96ZM2481.09 1060.5C2481.09 1055.28 2476.79 1051.04 2471.5 1051.04C2466.21 1051.04 2461.91 1055.28 2461.91 1060.5H2481.09ZM2461.91 1123.54C2461.91 1128.77 2466.21 1133 2471.5 1133C2476.79 1133 2481.09 1128.77 2481.09 1123.54H2461.91ZM2461.91 1060.5C2461.91 1065.72 2466.21 1069.96 2471.5 1069.96C2476.79 1069.96 2481.09 1065.72 2481.09 1060.5H2461.91ZM2481.09 997.457C2481.09 992.234 2476.79 988 2471.5 988C2466.21 988 2461.91 992.234 2461.91 997.457H2481.09ZM2407.59 1069.96H2471.5V1051.04H2407.59V1069.96ZM2471.5 1069.96H2535.41V1051.04H2471.5V1069.96ZM2471.5 1060.5H2461.91V1060.51C2461.91 1060.51 2461.91 1060.53 2461.91 1060.53C2461.91 1060.53 2461.91 1060.53 2461.91 1060.53C2461.91 1060.53 2461.91 1060.54 2461.91 1060.54C2461.91 1060.54 2461.91 1060.54 2461.91 1060.54C2461.91 1060.54 2461.91 1060.55 2461.91 1060.56C2461.91 1060.56 2461.91 1060.57 2461.91 1060.57C2461.91 1060.57 2461.91 1060.58 2461.91 1060.58C2461.91 1060.58 2461.91 1060.59 2461.91 1060.6C2461.91 1060.6 2461.91 1060.61 2461.91 1060.61C2461.91 1060.61 2461.91 1060.63 2461.91 1060.63C2461.91 1060.63 2461.91 1060.63 2461.91 1060.63C2461.91 1060.63 2461.91 1060.64 2461.91 1060.64C2461.91 1060.64 2461.91 1060.64 2461.91 1060.64C2461.91 1060.64 2461.91 1060.65 2461.91 1060.65C2461.91 1060.65 2461.91 1060.66 2461.91 1060.65C2461.91 1060.66 2461.91 1060.67 2461.91 1060.67C2461.91 1060.67 2461.91 1060.67 2461.91 1060.67C2461.91 1060.67 2461.91 1060.68 2461.91 1060.68C2461.91 1060.68 2461.91 1060.69 2461.91 1060.68C2461.91 1060.69 2461.91 1060.7 2461.91 1060.7C2461.91 1060.69 2461.91 1060.7 2461.91 1060.7C2461.91 1060.7 2461.91 1060.71 2461.91 1060.71C2461.91 1060.71 2461.91 1060.72 2461.91 1060.71C2461.91 1060.72 2461.91 1060.73 2461.91 1060.73C2461.91 1060.73 2461.91 1060.73 2461.91 1060.73C2461.91 1060.73 2461.91 1060.75 2461.91 1060.75C2461.91 1060.75 2461.91 1060.75 2461.91 1060.75C2461.91 1060.75 2461.91 1060.76 2461.91 1060.77C2461.91 1060.76 2461.91 1060.77 2461.91 1060.77C2461.91 1060.77 2461.91 1060.78 2461.91 1060.79C2461.91 1060.78 2461.91 1060.79 2461.91 1060.79C2461.91 1060.79 2461.91 1060.81 2461.91 1060.81C2461.91 1060.81 2461.91 1060.81 2461.91 1060.81C2461.91 1060.81 2461.91 1060.83 2461.91 1060.83C2461.91 1060.83 2461.91 1060.84 2461.91 1060.83C2461.91 1060.84 2461.91 1060.85 2461.91 1060.85C2461.91 1060.85 2461.91 1060.86 2461.91 1060.85C2461.91 1060.86 2461.91 1060.87 2461.91 1060.88C2461.91 1060.87 2461.91 1060.88 2461.91 1060.88C2461.91 1060.88 2461.91 1060.9 2461.91 1060.9C2461.91 1060.91 2461.91 1060.91 2461.91 1060.92C2461.91 1060.92 2461.91 1060.92 2461.91 1060.93C2461.91 1060.93 2461.91 1060.94 2461.91 1060.94C2461.91 1060.95 2461.91 1060.95 2461.91 1060.96C2461.91 1060.96 2461.91 1060.97 2461.91 1060.97C2461.91 1060.97 2461.91 1060.98 2461.91 1060.98C2461.91 1060.99 2461.91 1060.99 2461.91 1061C2461.91 1061 2461.91 1061.01 2461.91 1061.01C2461.91 1061.02 2461.91 1061.02 2461.91 1061.03C2461.91 1061.03 2461.91 1061.04 2461.91 1061.04C2461.91 1061.05 2461.91 1061.05 2461.91 1061.06C2461.91 1061.06 2461.91 1061.07 2461.91 1061.07C2461.91 1061.08 2461.91 1061.09 2461.91 1061.09C2461.91 1061.1 2461.91 1061.1 2461.91 1061.11C2461.91 1061.11 2461.91 1061.12 2461.91 1061.13C2461.91 1061.13 2461.91 1061.14 2461.91 1061.14C2461.91 1061.15 2461.91 1061.15 2461.91 1061.16C2461.91 1061.17 2461.91 1061.17 2461.91 1061.18C2461.91 1061.18 2461.91 1061.19 2461.91 1061.2C2461.91 1061.2 2461.91 1061.21 2461.91 1061.21C2461.91 1061.22 2461.91 1061.23 2461.91 1061.23C2461.91 1061.24 2461.91 1061.25 2461.91 1061.25C2461.91 1061.26 2461.91 1061.27 2461.91 1061.27C2461.91 1061.28 2461.91 1061.28 2461.91 1061.29C2461.91 1061.3 2461.91 1061.3 2461.91 1061.31C2461.91 1061.32 2461.91 1061.33 2461.91 1061.33C2461.91 1061.34 2461.91 1061.35 2461.91 1061.35C2461.91 1061.36 2461.91 1061.37 2461.91 1061.37C2461.91 1061.38 2461.91 1061.39 2461.91 1061.4C2461.91 1061.4 2461.91 1061.41 2461.91 1061.42C2461.91 1061.42 2461.91 1061.43 2461.91 1061.44C2461.91 1061.45 2461.91 1061.45 2461.91 1061.46C2461.91 1061.47 2461.91 1061.48 2461.91 1061.48C2461.91 1061.49 2461.91 1061.5 2461.91 1061.51C2461.91 1061.52 2461.91 1061.52 2461.91 1061.53C2461.91 1061.54 2461.91 1061.55 2461.91 1061.56C2461.91 1061.56 2461.91 1061.57 2461.91 1061.58C2461.91 1061.59 2461.91 1061.6 2461.91 1061.6C2461.91 1061.61 2461.91 1061.62 2461.91 1061.63C2461.91 1061.64 2461.91 1061.65 2461.91 1061.66C2461.91 1061.66 2461.91 1061.67 2461.91 1061.68C2461.91 1061.69 2461.91 1061.7 2461.91 1061.71C2461.91 1061.72 2461.91 1061.73 2461.91 1061.73C2461.91 1061.74 2461.91 1061.75 2461.91 1061.76C2461.91 1061.77 2461.91 1061.78 2461.91 1061.79C2461.91 1061.8 2461.91 1061.81 2461.91 1061.82C2461.91 1061.83 2461.91 1061.84 2461.91 1061.85C2461.91 1061.85 2461.91 1061.86 2461.91 1061.87C2461.91 1061.88 2461.91 1061.89 2461.91 1061.9C2461.91 1061.91 2461.91 1061.92 2461.91 1061.93C2461.91 1061.94 2461.91 1061.95 2461.91 1061.96C2461.91 1061.97 2461.91 1061.98 2461.91 1061.99C2461.91 1062 2461.91 1062.01 2461.91 1062.02C2461.91 1062.03 2461.91 1062.04 2461.91 1062.05C2461.91 1062.06 2461.91 1062.07 2461.91 1062.08C2461.91 1062.1 2461.91 1062.11 2461.91 1062.12C2461.91 1062.13 2461.91 1062.14 2461.91 1062.15C2461.91 1062.16 2461.91 1062.17 2461.91 1062.18C2461.91 1062.19 2461.91 1062.2 2461.91 1062.22C2461.91 1062.23 2461.91 1062.24 2461.91 1062.25C2461.91 1062.26 2461.91 1062.27 2461.91 1062.28C2461.91 1062.29 2461.91 1062.31 2461.91 1062.32C2461.91 1062.33 2461.91 1062.34 2461.91 1062.35C2461.91 1062.36 2461.91 1062.38 2461.91 1062.39C2461.91 1062.4 2461.91 1062.41 2461.91 1062.42C2461.91 1062.44 2461.91 1062.45 2461.91 1062.46C2461.91 1062.47 2461.91 1062.48 2461.91 1062.5C2461.91 1062.51 2461.91 1062.52 2461.91 1062.53C2461.91 1062.55 2461.91 1062.56 2461.91 1062.57C2461.91 1062.58 2461.91 1062.6 2461.91 1062.61C2461.91 1062.62 2461.91 1062.64 2461.91 1062.65C2461.91 1062.66 2461.91 1062.68 2461.91 1062.69C2461.91 1062.7 2461.91 1062.71 2461.91 1062.73C2461.91 1062.74 2461.91 1062.75 2461.91 1062.77C2461.91 1062.78 2461.91 1062.79 2461.91 1062.81C2461.91 1062.82 2461.91 1062.84 2461.91 1062.85C2461.91 1062.86 2461.91 1062.88 2461.91 1062.89C2461.91 1062.9 2461.91 1062.92 2461.91 1062.93C2461.91 1062.95 2461.91 1062.96 2461.91 1062.97C2461.91 1062.99 2461.91 1063 2461.91 1063.02C2461.91 1063.03 2461.91 1063.05 2461.91 1063.06C2461.91 1063.07 2461.91 1063.09 2461.91 1063.1C2461.91 1063.12 2461.91 1063.13 2461.91 1063.15C2461.91 1063.16 2461.91 1063.18 2461.91 1063.19C2461.91 1063.21 2461.91 1063.22 2461.91 1063.24C2461.91 1063.26 2461.91 1063.27 2461.91 1063.29C2461.91 1063.3 2461.91 1063.32 2461.91 1063.33C2461.91 1063.35 2461.91 1063.36 2461.91 1063.38C2461.91 1063.39 2461.91 1063.41 2461.91 1063.43C2461.91 1063.44 2461.91 1063.46 2461.91 1063.47C2461.91 1063.49 2461.91 1063.51 2461.91 1063.52C2461.91 1063.54 2461.91 1063.56 2461.91 1063.57C2461.91 1063.59 2461.91 1063.6 2461.91 1063.62C2461.91 1063.64 2461.91 1063.65 2461.91 1063.67C2461.91 1063.69 2461.91 1063.71 2461.91 1063.72C2461.91 1063.74 2461.91 1063.76 2461.91 1063.77C2461.91 1063.79 2461.91 1063.81 2461.91 1063.82C2461.91 1063.84 2461.91 1063.86 2461.91 1063.88C2461.91 1063.89 2461.91 1063.91 2461.91 1063.93C2461.91 1063.95 2461.91 1063.96 2461.91 1063.98C2461.91 1064 2461.91 1064.02 2461.91 1064.04C2461.91 1064.05 2461.91 1064.07 2461.91 1064.09C2461.91 1064.11 2461.91 1064.13 2461.91 1064.15C2461.91 1064.16 2461.91 1064.18 2461.91 1064.2C2461.91 1064.22 2461.91 1064.24 2461.91 1064.26C2461.91 1064.28 2461.91 1064.3 2461.91 1064.31C2461.91 1064.33 2461.91 1064.35 2461.91 1064.37C2461.91 1064.39 2461.91 1064.41 2461.91 1064.43C2461.91 1064.45 2461.91 1064.47 2461.91 1064.49C2461.91 1064.51 2461.91 1064.53 2461.91 1064.55C2461.91 1064.57 2461.91 1064.59 2461.91 1064.61C2461.91 1064.63 2461.91 1064.65 2461.91 1064.67C2461.91 1064.69 2461.91 1064.71 2461.91 1064.73C2461.91 1064.75 2461.91 1064.77 2461.91 1064.79C2461.91 1064.81 2461.91 1064.83 2461.91 1064.85C2461.91 1064.87 2461.91 1064.89 2461.91 1064.91C2461.91 1064.93 2461.91 1064.95 2461.91 1064.98C2461.91 1065 2461.91 1065.02 2461.91 1065.04C2461.91 1065.06 2461.91 1065.08 2461.91 1065.1C2461.91 1065.12 2461.91 1065.15 2461.91 1065.17C2461.91 1065.19 2461.91 1065.21 2461.91 1065.23C2461.91 1065.26 2461.91 1065.28 2461.91 1065.3C2461.91 1065.32 2461.91 1065.34 2461.91 1065.37C2461.91 1065.39 2461.91 1065.41 2461.91 1065.43C2461.91 1065.46 2461.91 1065.48 2461.91 1065.5C2461.91 1065.52 2461.91 1065.55 2461.91 1065.57C2461.91 1065.59 2461.91 1065.62 2461.91 1065.64C2461.91 1065.66 2461.91 1065.69 2461.91 1065.71C2461.91 1065.73 2461.91 1065.76 2461.91 1065.78C2461.91 1065.8 2461.91 1065.83 2461.91 1065.85C2461.91 1065.87 2461.91 1065.9 2461.91 1065.92C2461.91 1065.95 2461.91 1065.97 2461.91 1065.99C2461.91 1066.02 2461.91 1066.04 2461.91 1066.07C2461.91 1066.09 2461.91 1066.12 2461.91 1066.14C2461.91 1066.17 2461.91 1066.19 2461.91 1066.22C2461.91 1066.24 2461.91 1066.26 2461.91 1066.29C2461.91 1066.32 2461.91 1066.34 2461.91 1066.37C2461.91 1066.39 2461.91 1066.42 2461.91 1066.44C2461.91 1066.47 2461.91 1066.49 2461.91 1066.52C2461.91 1066.54 2461.91 1066.57 2461.91 1066.6C2461.91 1066.62 2461.91 1066.65 2461.91 1066.67C2461.91 1066.7 2461.91 1066.73 2461.91 1066.75C2461.91 1066.78 2461.91 1066.81 2461.91 1066.83C2461.91 1066.86 2461.91 1066.89 2461.91 1066.91C2461.91 1066.94 2461.91 1066.97 2461.91 1066.99C2461.91 1067.02 2461.91 1067.05 2461.91 1067.07C2461.91 1067.1 2461.91 1067.13 2461.91 1067.16C2461.91 1067.18 2461.91 1067.21 2461.91 1067.24C2461.91 1067.27 2461.91 1067.29 2461.91 1067.32C2461.91 1067.35 2461.91 1067.38 2461.91 1067.41C2461.91 1067.44 2461.91 1067.46 2461.91 1067.49C2461.91 1067.52 2461.91 1067.55 2461.91 1067.58C2461.91 1067.61 2461.91 1067.64 2461.91 1067.66C2461.91 1067.69 2461.91 1067.72 2461.91 1067.75C2461.91 1067.78 2461.91 1067.81 2461.91 1067.84C2461.91 1067.87 2461.91 1067.9 2461.91 1067.93C2461.91 1067.96 2461.91 1067.99 2461.91 1068.02C2461.91 1068.05 2461.91 1068.08 2461.91 1068.11C2461.91 1068.14 2461.91 1068.17 2461.91 1068.2C2461.91 1068.23 2461.91 1068.26 2461.91 1068.29C2461.91 1068.32 2461.91 1068.35 2461.91 1068.38C2461.91 1068.41 2461.91 1068.44 2461.91 1068.47C2461.91 1068.5 2461.91 1068.54 2461.91 1068.57C2461.91 1068.6 2461.91 1068.63 2461.91 1068.66C2461.91 1068.69 2461.91 1068.72 2461.91 1068.76C2461.91 1068.79 2461.91 1068.82 2461.91 1068.85C2461.91 1068.88 2461.91 1068.92 2461.91 1068.95C2461.91 1068.98 2461.91 1069.01 2461.91 1069.04C2461.91 1069.08 2461.91 1069.11 2461.91 1069.14C2461.91 1069.17 2461.91 1069.21 2461.91 1069.24C2461.91 1069.27 2461.91 1069.31 2461.91 1069.34C2461.91 1069.37 2461.91 1069.41 2461.91 1069.44C2461.91 1069.47 2461.91 1069.51 2461.91 1069.54C2461.91 1069.58 2461.91 1069.61 2461.91 1069.64C2461.91 1069.68 2461.91 1069.71 2461.91 1069.74C2461.91 1069.78 2461.91 1069.81 2461.91 1069.85C2461.91 1069.88 2461.91 1069.92 2461.91 1069.95C2461.91 1069.99 2461.91 1070.02 2461.91 1070.06C2461.91 1070.09 2461.91 1070.13 2461.91 1070.16C2461.91 1070.2 2461.91 1070.23 2461.91 1070.27C2461.91 1070.3 2461.91 1070.34 2461.91 1070.38C2461.91 1070.41 2461.91 1070.45 2461.91 1070.48C2461.91 1070.52 2461.91 1070.56 2461.91 1070.59C2461.91 1070.63 2461.91 1070.66 2461.91 1070.7C2461.91 1070.74 2461.91 1070.77 2461.91 1070.81C2461.91 1070.85 2461.91 1070.88 2461.91 1070.92C2461.91 1070.96 2461.91 1071 2461.91 1071.03C2461.91 1071.07 2461.91 1071.11 2461.91 1071.15C2461.91 1071.18 2461.91 1071.22 2461.91 1071.26C2461.91 1071.3 2461.91 1071.33 2461.91 1071.37C2461.91 1071.41 2461.91 1071.45 2461.91 1071.49C2461.91 1071.53 2461.91 1071.57 2461.91 1071.6C2461.91 1071.64 2461.91 1071.68 2461.91 1071.72C2461.91 1071.76 2461.91 1071.8 2461.91 1071.84C2461.91 1071.88 2461.91 1071.92 2461.91 1071.96C2461.91 1072 2461.91 1072.03 2461.91 1072.07C2461.91 1072.11 2461.91 1072.15 2461.91 1072.19C2461.91 1072.23 2461.91 1072.28 2461.91 1072.32C2461.91 1072.35 2461.91 1072.4 2461.91 1072.44C2461.91 1072.48 2461.91 1072.52 2461.91 1072.56C2461.91 1072.6 2461.91 1072.64 2461.91 1072.68C2461.91 1072.72 2461.91 1072.76 2461.91 1072.81C2461.91 1072.85 2461.91 1072.89 2461.91 1072.93C2461.91 1072.97 2461.91 1073.01 2461.91 1073.06C2461.91 1073.1 2461.91 1073.14 2461.91 1073.18C2461.91 1073.22 2461.91 1073.27 2461.91 1073.31C2461.91 1073.35 2461.91 1073.39 2461.91 1073.44C2461.91 1073.48 2461.91 1073.52 2461.91 1073.57C2461.91 1073.61 2461.91 1073.65 2461.91 1073.7C2461.91 1073.74 2461.91 1073.78 2461.91 1073.83C2461.91 1073.87 2461.91 1073.91 2461.91 1073.96C2461.91 1074 2461.91 1074.05 2461.91 1074.09C2461.91 1074.14 2461.91 1074.18 2461.91 1074.22C2461.91 1074.27 2461.91 1074.31 2461.91 1074.36C2461.91 1074.4 2461.91 1074.45 2461.91 1074.49C2461.91 1074.54 2461.91 1074.58 2461.91 1074.63C2461.91 1074.67 2461.91 1074.72 2461.91 1074.77C2461.91 1074.81 2461.91 1074.86 2461.91 1074.9C2461.91 1074.95 2461.91 1074.99 2461.91 1075.04C2461.91 1075.09 2461.91 1075.13 2461.91 1075.18C2461.91 1075.23 2461.91 1075.27 2461.91 1075.32C2461.91 1075.37 2461.91 1075.41 2461.91 1075.46C2461.91 1075.51 2461.91 1075.56 2461.91 1075.61C2461.91 1075.65 2461.91 1075.7 2461.91 1075.75C2461.91 1075.8 2461.91 1075.84 2461.91 1075.89C2461.91 1075.94 2461.91 1075.99 2461.91 1076.04C2461.91 1076.08 2461.91 1076.13 2461.91 1076.18C2461.91 1076.23 2461.91 1076.28 2461.91 1076.33C2461.91 1076.38 2461.91 1076.43 2461.91 1076.48C2461.91 1076.53 2461.91 1076.57 2461.91 1076.62C2461.91 1076.67 2461.91 1076.72 2461.91 1076.77C2461.91 1076.82 2461.91 1076.87 2461.91 1076.92C2461.91 1076.97 2461.91 1077.02 2461.91 1077.08C2461.91 1077.13 2461.91 1077.18 2461.91 1077.23C2461.91 1077.28 2461.91 1077.33 2461.91 1077.38C2461.91 1077.43 2461.91 1077.48 2461.91 1077.53C2461.91 1077.58 2461.91 1077.64 2461.91 1077.69C2461.91 1077.74 2461.91 1077.79 2461.91 1077.84C2461.91 1077.9 2461.91 1077.95 2461.91 1078C2461.91 1078.05 2461.91 1078.11 2461.91 1078.16C2461.91 1078.21 2461.91 1078.26 2461.91 1078.32C2461.91 1078.37 2461.91 1078.42 2461.91 1078.48C2461.91 1078.53 2461.91 1078.58 2461.91 1078.64C2461.91 1078.69 2461.91 1078.74 2461.91 1078.8C2461.91 1078.85 2461.91 1078.91 2461.91 1078.96C2461.91 1079.02 2461.91 1079.07 2461.91 1079.12C2461.91 1079.18 2461.91 1079.23 2461.91 1079.29C2461.91 1079.34 2461.91 1079.4 2461.91 1079.45C2461.91 1079.51 2461.91 1079.57 2461.91 1079.62C2461.91 1079.68 2461.91 1079.73 2461.91 1079.79C2461.91 1079.84 2461.91 1079.9 2461.91 1079.96C2461.91 1080.01 2461.91 1080.07 2461.91 1080.13C2461.91 1080.18 2461.91 1080.24 2461.91 1080.3C2461.91 1080.35 2461.91 1080.41 2461.91 1080.47C2461.91 1080.52 2461.91 1080.58 2461.91 1080.64C2461.91 1080.7 2461.91 1080.75 2461.91 1080.81C2461.91 1080.87 2461.91 1080.93 2461.91 1080.99C2461.91 1081.04 2461.91 1081.1 2461.91 1081.16C2461.91 1081.22 2461.91 1081.28 2461.91 1081.34C2461.91 1081.4 2461.91 1081.46 2461.91 1081.51C2461.91 1081.57 2461.91 1081.63 2461.91 1081.69C2461.91 1081.75 2461.91 1081.81 2461.91 1081.87C2461.91 1081.93 2461.91 1081.99 2461.91 1082.05C2461.91 1082.11 2461.91 1082.17 2461.91 1082.23C2461.91 1082.29 2461.91 1082.35 2461.91 1082.42C2461.91 1082.48 2461.91 1082.54 2461.91 1082.6C2461.91 1082.66 2461.91 1082.72 2461.91 1082.78C2461.91 1082.84 2461.91 1082.91 2461.91 1082.97C2461.91 1083.03 2461.91 1083.09 2461.91 1083.15C2461.91 1083.22 2461.91 1083.28 2461.91 1083.34C2461.91 1083.4 2461.91 1083.47 2461.91 1083.53C2461.91 1083.59 2461.91 1083.65 2461.91 1083.72C2461.91 1083.78 2461.91 1083.84 2461.91 1083.91C2461.91 1083.97 2461.91 1084.04 2461.91 1084.1C2461.91 1084.16 2461.91 1084.23 2461.91 1084.29C2461.91 1084.36 2461.91 1084.42 2461.91 1084.49C2461.91 1084.55 2461.91 1084.62 2461.91 1084.68C2461.91 1084.75 2461.91 1084.81 2461.91 1084.88C2461.91 1084.94 2461.91 1085.01 2461.91 1085.07C2461.91 1085.14 2461.91 1085.2 2461.91 1085.27C2461.91 1085.34 2461.91 1085.4 2461.91 1085.47C2461.91 1085.53 2461.91 1085.6 2461.91 1085.67C2461.91 1085.74 2461.91 1085.8 2461.91 1085.87C2461.91 1085.94 2461.91 1086 2461.91 1086.07C2461.91 1086.14 2461.91 1086.21 2461.91 1086.27C2461.91 1086.34 2461.91 1086.41 2461.91 1086.48C2461.91 1086.55 2461.91 1086.62 2461.91 1086.68C2461.91 1086.75 2461.91 1086.82 2461.91 1086.89C2461.91 1086.96 2461.91 1087.03 2461.91 1087.1C2461.91 1087.17 2461.91 1087.24 2461.91 1087.3C2461.91 1087.37 2461.91 1087.44 2461.91 1087.51C2461.91 1087.58 2461.91 1087.65 2461.91 1087.72C2461.91 1087.8 2461.91 1087.87 2461.91 1087.94C2461.91 1088.01 2461.91 1088.08 2461.91 1088.15C2461.91 1088.22 2461.91 1088.29 2461.91 1088.36C2461.91 1088.43 2461.91 1088.51 2461.91 1088.58C2461.91 1088.65 2461.91 1088.72 2461.91 1088.79C2461.91 1088.87 2461.91 1088.94 2461.91 1089.01C2461.91 1089.08 2461.91 1089.16 2461.91 1089.23C2461.91 1089.3 2461.91 1089.38 2461.91 1089.45C2461.91 1089.52 2461.91 1089.59 2461.91 1089.67C2461.91 1089.74 2461.91 1089.82 2461.91 1089.89C2461.91 1089.96 2461.91 1090.04 2461.91 1090.11C2461.91 1090.19 2461.91 1090.26 2461.91 1090.34C2461.91 1090.41 2461.91 1090.49 2461.91 1090.56C2461.91 1090.64 2461.91 1090.71 2461.91 1090.79C2461.91 1090.86 2461.91 1090.94 2461.91 1091.01C2461.91 1091.09 2461.91 1091.17 2461.91 1091.24C2461.91 1091.32 2461.91 1091.4 2461.91 1091.47C2461.91 1091.55 2461.91 1091.63 2461.91 1091.7C2461.91 1091.78 2461.91 1091.86 2461.91 1091.93C2461.91 1092.01 2461.91 1092.09 2461.91 1092.17C2461.91 1092.24 2461.91 1092.32 2461.91 1092.4C2461.91 1092.48 2461.91 1092.56 2461.91 1092.64C2461.91 1092.72 2461.91 1092.79 2461.91 1092.87C2461.91 1092.95 2461.91 1093.03 2461.91 1093.11C2461.91 1093.19 2461.91 1093.27 2461.91 1093.35C2461.91 1093.43 2461.91 1093.51 2461.91 1093.59C2461.91 1093.67 2461.91 1093.75 2461.91 1093.83C2461.91 1093.91 2461.91 1093.99 2461.91 1094.07C2461.91 1094.15 2461.91 1094.23 2461.91 1094.32C2461.91 1094.4 2461.91 1094.48 2461.91 1094.56C2461.91 1094.64 2461.91 1094.72 2461.91 1094.81C2461.91 1094.89 2461.91 1094.97 2461.91 1095.05C2461.91 1095.13 2461.91 1095.22 2461.91 1095.3C2461.91 1095.38 2461.91 1095.47 2461.91 1095.55C2461.91 1095.63 2461.91 1095.72 2461.91 1095.8C2461.91 1095.88 2461.91 1095.97 2461.91 1096.05C2461.91 1096.13 2461.91 1096.22 2461.91 1096.3C2461.91 1096.39 2461.91 1096.47 2461.91 1096.56C2461.91 1096.64 2461.91 1096.73 2461.91 1096.81C2461.91 1096.9 2461.91 1096.98 2461.91 1097.07C2461.91 1097.15 2461.91 1097.24 2461.91 1097.33C2461.91 1097.41 2461.91 1097.5 2461.91 1097.59C2461.91 1097.67 2461.91 1097.76 2461.91 1097.85C2461.91 1097.93 2461.91 1098.02 2461.91 1098.11C2461.91 1098.19 2461.91 1098.28 2461.91 1098.37C2461.91 1098.46 2461.91 1098.54 2461.91 1098.63C2461.91 1098.72 2461.91 1098.81 2461.91 1098.9C2461.91 1098.99 2461.91 1099.07 2461.91 1099.16C2461.91 1099.25 2461.91 1099.34 2461.91 1099.43C2461.91 1099.52 2461.91 1099.61 2461.91 1099.7C2461.91 1099.79 2461.91 1099.88 2461.91 1099.97C2461.91 1100.06 2461.91 1100.15 2461.91 1100.24C2461.91 1100.33 2461.91 1100.42 2461.91 1100.51C2461.91 1100.6 2461.91 1100.69 2461.91 1100.78C2461.91 1100.88 2461.91 1100.97 2461.91 1101.06C2461.91 1101.15 2461.91 1101.24 2461.91 1101.34C2461.91 1101.43 2461.91 1101.52 2461.91 1101.61C2461.91 1101.71 2461.91 1101.8 2461.91 1101.89C2461.91 1101.98 2461.91 1102.08 2461.91 1102.17C2461.91 1102.27 2461.91 1102.36 2461.91 1102.45C2461.91 1102.55 2461.91 1102.64 2461.91 1102.73C2461.91 1102.83 2461.91 1102.92 2461.91 1103.02C2461.91 1103.11 2461.91 1103.21 2461.91 1103.3C2461.91 1103.4 2461.91 1103.49 2461.91 1103.59C2461.91 1103.68 2461.91 1103.78 2461.91 1103.88C2461.91 1103.97 2461.91 1104.07 2461.91 1104.16C2461.91 1104.26 2461.91 1104.36 2461.91 1104.45C2461.91 1104.55 2461.91 1104.65 2461.91 1104.75C2461.91 1104.84 2461.91 1104.94 2461.91 1105.04C2461.91 1105.13 2461.91 1105.23 2461.91 1105.33C2461.91 1105.43 2461.91 1105.53 2461.91 1105.63C2461.91 1105.72 2461.91 1105.82 2461.91 1105.92C2461.91 1106.02 2461.91 1106.12 2461.91 1106.22C2461.91 1106.32 2461.91 1106.42 2461.91 1106.52C2461.91 1106.62 2461.91 1106.72 2461.91 1106.82C2461.91 1106.92 2461.91 1107.02 2461.91 1107.12C2461.91 1107.22 2461.91 1107.32 2461.91 1107.42C2461.91 1107.52 2461.91 1107.62 2461.91 1107.73C2461.91 1107.83 2461.91 1107.93 2461.91 1108.03C2461.91 1108.13 2461.91 1108.24 2461.91 1108.34C2461.91 1108.44 2461.91 1108.54 2461.91 1108.65C2461.91 1108.75 2461.91 1108.85 2461.91 1108.96C2461.91 1109.06 2461.91 1109.16 2461.91 1109.27C2461.91 1109.37 2461.91 1109.47 2461.91 1109.58C2461.91 1109.68 2461.91 1109.79 2461.91 1109.89C2461.91 1110 2461.91 1110.1 2461.91 1110.21C2461.91 1110.31 2461.91 1110.42 2461.91 1110.52C2461.91 1110.63 2461.91 1110.73 2461.91 1110.84C2461.91 1110.95 2461.91 1111.05 2461.91 1111.16C2461.91 1111.27 2461.91 1111.37 2461.91 1111.48C2461.91 1111.59 2461.91 1111.69 2461.91 1111.8C2461.91 1111.91 2461.91 1112.01 2461.91 1112.12C2461.91 1112.23 2461.91 1112.34 2461.91 1112.45C2461.91 1112.56 2461.91 1112.66 2461.91 1112.77C2461.91 1112.88 2461.91 1112.99 2461.91 1113.1C2461.91 1113.21 2461.91 1113.32 2461.91 1113.43C2461.91 1113.54 2461.91 1113.65 2461.91 1113.76C2461.91 1113.87 2461.91 1113.98 2461.91 1114.09C2461.91 1114.2 2461.91 1114.31 2461.91 1114.42C2461.91 1114.53 2461.91 1114.64 2461.91 1114.75C2461.91 1114.86 2461.91 1114.97 2461.91 1115.09C2461.91 1115.2 2461.91 1115.31 2461.91 1115.42C2461.91 1115.54 2461.91 1115.65 2461.91 1115.76C2461.91 1115.87 2461.91 1115.99 2461.91 1116.1C2461.91 1116.21 2461.91 1116.33 2461.91 1116.44C2461.91 1116.55 2461.91 1116.67 2461.91 1116.78C2461.91 1116.9 2461.91 1117.01 2461.91 1117.13C2461.91 1117.24 2461.91 1117.36 2461.91 1117.47C2461.91 1117.58 2461.91 1117.7 2461.91 1117.82C2461.91 1117.93 2461.91 1118.05 2461.91 1118.16C2461.91 1118.28 2461.91 1118.4 2461.91 1118.51C2461.91 1118.63 2461.91 1118.75 2461.91 1118.86C2461.91 1118.98 2461.91 1119.1 2461.91 1119.21C2461.91 1119.33 2461.91 1119.45 2461.91 1119.57C2461.91 1119.69 2461.91 1119.8 2461.91 1119.92C2461.91 1120.04 2461.91 1120.16 2461.91 1120.28C2461.91 1120.4 2461.91 1120.51 2461.91 1120.63C2461.91 1120.75 2461.91 1120.87 2461.91 1120.99C2461.91 1121.11 2461.91 1121.23 2461.91 1121.35C2461.91 1121.47 2461.91 1121.59 2461.91 1121.71C2461.91 1121.84 2461.91 1121.96 2461.91 1122.08C2461.91 1122.2 2461.91 1122.32 2461.91 1122.44C2461.91 1122.56 2461.91 1122.68 2461.91 1122.81C2461.91 1122.93 2461.91 1123.05 2461.91 1123.18C2461.91 1123.3 2461.91 1123.42 2461.91 1123.54H2481.09C2481.09 1123.42 2481.09 1123.3 2481.09 1123.18C2481.09 1123.05 2481.09 1122.93 2481.09 1122.81C2481.09 1122.68 2481.09 1122.56 2481.09 1122.44C2481.09 1122.32 2481.09 1122.2 2481.09 1122.08C2481.09 1121.96 2481.09 1121.84 2481.09 1121.71C2481.09 1121.59 2481.09 1121.47 2481.09 1121.35C2481.09 1121.23 2481.09 1121.11 2481.09 1120.99C2481.09 1120.87 2481.09 1120.75 2481.09 1120.63C2481.09 1120.51 2481.09 1120.4 2481.09 1120.28C2481.09 1120.16 2481.09 1120.04 2481.09 1119.92C2481.09 1119.8 2481.09 1119.69 2481.09 1119.57C2481.09 1119.45 2481.09 1119.33 2481.09 1119.21C2481.09 1119.1 2481.09 1118.98 2481.09 1118.86C2481.09 1118.75 2481.09 1118.63 2481.09 1118.51C2481.09 1118.4 2481.09 1118.28 2481.09 1118.16C2481.09 1118.05 2481.09 1117.93 2481.09 1117.82C2481.09 1117.7 2481.09 1117.58 2481.09 1117.47C2481.09 1117.36 2481.09 1117.24 2481.09 1117.13C2481.09 1117.01 2481.09 1116.9 2481.09 1116.78C2481.09 1116.67 2481.09 1116.55 2481.09 1116.44C2481.09 1116.33 2481.09 1116.21 2481.09 1116.1C2481.09 1115.99 2481.09 1115.87 2481.09 1115.76C2481.09 1115.65 2481.09 1115.54 2481.09 1115.42C2481.09 1115.31 2481.09 1115.2 2481.09 1115.09C2481.09 1114.97 2481.09 1114.86 2481.09 1114.75C2481.09 1114.64 2481.09 1114.53 2481.09 1114.42C2481.09 1114.31 2481.09 1114.2 2481.09 1114.09C2481.09 1113.98 2481.09 1113.87 2481.09 1113.76C2481.09 1113.65 2481.09 1113.54 2481.09 1113.43C2481.09 1113.32 2481.09 1113.21 2481.09 1113.1C2481.09 1112.99 2481.09 1112.88 2481.09 1112.77C2481.09 1112.66 2481.09 1112.56 2481.09 1112.45C2481.09 1112.34 2481.09 1112.23 2481.09 1112.12C2481.09 1112.01 2481.09 1111.91 2481.09 1111.8C2481.09 1111.69 2481.09 1111.59 2481.09 1111.48C2481.09 1111.37 2481.09 1111.27 2481.09 1111.16C2481.09 1111.05 2481.09 1110.95 2481.09 1110.84C2481.09 1110.73 2481.09 1110.63 2481.09 1110.52C2481.09 1110.42 2481.09 1110.31 2481.09 1110.21C2481.09 1110.1 2481.09 1110 2481.09 1109.89C2481.09 1109.79 2481.09 1109.68 2481.09 1109.58C2481.09 1109.47 2481.09 1109.37 2481.09 1109.27C2481.09 1109.16 2481.09 1109.06 2481.09 1108.96C2481.09 1108.85 2481.09 1108.75 2481.09 1108.65C2481.09 1108.54 2481.09 1108.44 2481.09 1108.34C2481.09 1108.24 2481.09 1108.13 2481.09 1108.03C2481.09 1107.93 2481.09 1107.83 2481.09 1107.73C2481.09 1107.62 2481.09 1107.52 2481.09 1107.42C2481.09 1107.32 2481.09 1107.22 2481.09 1107.12C2481.09 1107.02 2481.09 1106.92 2481.09 1106.82C2481.09 1106.72 2481.09 1106.62 2481.09 1106.52C2481.09 1106.42 2481.09 1106.32 2481.09 1106.22C2481.09 1106.12 2481.09 1106.02 2481.09 1105.92C2481.09 1105.82 2481.09 1105.72 2481.09 1105.63C2481.09 1105.53 2481.09 1105.43 2481.09 1105.33C2481.09 1105.23 2481.09 1105.13 2481.09 1105.04C2481.09 1104.94 2481.09 1104.84 2481.09 1104.75C2481.09 1104.65 2481.09 1104.55 2481.09 1104.45C2481.09 1104.36 2481.09 1104.26 2481.09 1104.16C2481.09 1104.07 2481.09 1103.97 2481.09 1103.88C2481.09 1103.78 2481.09 1103.68 2481.09 1103.59C2481.09 1103.49 2481.09 1103.4 2481.09 1103.3C2481.09 1103.21 2481.09 1103.11 2481.09 1103.02C2481.09 1102.92 2481.09 1102.83 2481.09 1102.73C2481.09 1102.64 2481.09 1102.55 2481.09 1102.45C2481.09 1102.36 2481.09 1102.27 2481.09 1102.17C2481.09 1102.08 2481.09 1101.98 2481.09 1101.89C2481.09 1101.8 2481.09 1101.71 2481.09 1101.61C2481.09 1101.52 2481.09 1101.43 2481.09 1101.34C2481.09 1101.24 2481.09 1101.15 2481.09 1101.06C2481.09 1100.97 2481.09 1100.88 2481.09 1100.78C2481.09 1100.69 2481.09 1100.6 2481.09 1100.51C2481.09 1100.42 2481.09 1100.33 2481.09 1100.24C2481.09 1100.15 2481.09 1100.06 2481.09 1099.97C2481.09 1099.88 2481.09 1099.79 2481.09 1099.7C2481.09 1099.61 2481.09 1099.52 2481.09 1099.43C2481.09 1099.34 2481.09 1099.25 2481.09 1099.16C2481.09 1099.07 2481.09 1098.99 2481.09 1098.9C2481.09 1098.81 2481.09 1098.72 2481.09 1098.63C2481.09 1098.54 2481.09 1098.46 2481.09 1098.37C2481.09 1098.28 2481.09 1098.19 2481.09 1098.11C2481.09 1098.02 2481.09 1097.93 2481.09 1097.85C2481.09 1097.76 2481.09 1097.67 2481.09 1097.59C2481.09 1097.5 2481.09 1097.41 2481.09 1097.33C2481.09 1097.24 2481.09 1097.15 2481.09 1097.07C2481.09 1096.98 2481.09 1096.9 2481.09 1096.81C2481.09 1096.73 2481.09 1096.64 2481.09 1096.56C2481.09 1096.47 2481.09 1096.39 2481.09 1096.3C2481.09 1096.22 2481.09 1096.13 2481.09 1096.05C2481.09 1095.97 2481.09 1095.88 2481.09 1095.8C2481.09 1095.72 2481.09 1095.63 2481.09 1095.55C2481.09 1095.47 2481.09 1095.38 2481.09 1095.3C2481.09 1095.22 2481.09 1095.13 2481.09 1095.05C2481.09 1094.97 2481.09 1094.89 2481.09 1094.81C2481.09 1094.72 2481.09 1094.64 2481.09 1094.56C2481.09 1094.48 2481.09 1094.4 2481.09 1094.32C2481.09 1094.23 2481.09 1094.15 2481.09 1094.07C2481.09 1093.99 2481.09 1093.91 2481.09 1093.83C2481.09 1093.75 2481.09 1093.67 2481.09 1093.59C2481.09 1093.51 2481.09 1093.43 2481.09 1093.35C2481.09 1093.27 2481.09 1093.19 2481.09 1093.11C2481.09 1093.03 2481.09 1092.95 2481.09 1092.87C2481.09 1092.79 2481.09 1092.72 2481.09 1092.64C2481.09 1092.56 2481.09 1092.48 2481.09 1092.4C2481.09 1092.32 2481.09 1092.24 2481.09 1092.17C2481.09 1092.09 2481.09 1092.01 2481.09 1091.93C2481.09 1091.86 2481.09 1091.78 2481.09 1091.7C2481.09 1091.63 2481.09 1091.55 2481.09 1091.47C2481.09 1091.4 2481.09 1091.32 2481.09 1091.24C2481.09 1091.17 2481.09 1091.09 2481.09 1091.01C2481.09 1090.94 2481.09 1090.86 2481.09 1090.79C2481.09 1090.71 2481.09 1090.64 2481.09 1090.56C2481.09 1090.49 2481.09 1090.41 2481.09 1090.34C2481.09 1090.26 2481.09 1090.19 2481.09 1090.11C2481.09 1090.04 2481.09 1089.96 2481.09 1089.89C2481.09 1089.82 2481.09 1089.74 2481.09 1089.67C2481.09 1089.59 2481.09 1089.52 2481.09 1089.45C2481.09 1089.38 2481.09 1089.3 2481.09 1089.23C2481.09 1089.16 2481.09 1089.08 2481.09 1089.01C2481.09 1088.94 2481.09 1088.87 2481.09 1088.79C2481.09 1088.72 2481.09 1088.65 2481.09 1088.58C2481.09 1088.51 2481.09 1088.43 2481.09 1088.36C2481.09 1088.29 2481.09 1088.22 2481.09 1088.15C2481.09 1088.08 2481.09 1088.01 2481.09 1087.94C2481.09 1087.87 2481.09 1087.8 2481.09 1087.72C2481.09 1087.65 2481.09 1087.58 2481.09 1087.51C2481.09 1087.44 2481.09 1087.37 2481.09 1087.3C2481.09 1087.24 2481.09 1087.17 2481.09 1087.1C2481.09 1087.03 2481.09 1086.96 2481.09 1086.89C2481.09 1086.82 2481.09 1086.75 2481.09 1086.68C2481.09 1086.62 2481.09 1086.55 2481.09 1086.48C2481.09 1086.41 2481.09 1086.34 2481.09 1086.27C2481.09 1086.21 2481.09 1086.14 2481.09 1086.07C2481.09 1086 2481.09 1085.94 2481.09 1085.87C2481.09 1085.8 2481.09 1085.74 2481.09 1085.67C2481.09 1085.6 2481.09 1085.53 2481.09 1085.47C2481.09 1085.4 2481.09 1085.34 2481.09 1085.27C2481.09 1085.2 2481.09 1085.14 2481.09 1085.07C2481.09 1085.01 2481.09 1084.94 2481.09 1084.88C2481.09 1084.81 2481.09 1084.75 2481.09 1084.68C2481.09 1084.62 2481.09 1084.55 2481.09 1084.49C2481.09 1084.42 2481.09 1084.36 2481.09 1084.29C2481.09 1084.23 2481.09 1084.16 2481.09 1084.1C2481.09 1084.04 2481.09 1083.97 2481.09 1083.91C2481.09 1083.84 2481.09 1083.78 2481.09 1083.72C2481.09 1083.65 2481.09 1083.59 2481.09 1083.53C2481.09 1083.47 2481.09 1083.4 2481.09 1083.34C2481.09 1083.28 2481.09 1083.22 2481.09 1083.15C2481.09 1083.09 2481.09 1083.03 2481.09 1082.97C2481.09 1082.91 2481.09 1082.84 2481.09 1082.78C2481.09 1082.72 2481.09 1082.66 2481.09 1082.6C2481.09 1082.54 2481.09 1082.48 2481.09 1082.42C2481.09 1082.35 2481.09 1082.29 2481.09 1082.23C2481.09 1082.17 2481.09 1082.11 2481.09 1082.05C2481.09 1081.99 2481.09 1081.93 2481.09 1081.87C2481.09 1081.81 2481.09 1081.75 2481.09 1081.69C2481.09 1081.63 2481.09 1081.57 2481.09 1081.51C2481.09 1081.46 2481.09 1081.4 2481.09 1081.34C2481.09 1081.28 2481.09 1081.22 2481.09 1081.16C2481.09 1081.1 2481.09 1081.04 2481.09 1080.99C2481.09 1080.93 2481.09 1080.87 2481.09 1080.81C2481.09 1080.75 2481.09 1080.7 2481.09 1080.64C2481.09 1080.58 2481.09 1080.52 2481.09 1080.47C2481.09 1080.41 2481.09 1080.35 2481.09 1080.3C2481.09 1080.24 2481.09 1080.18 2481.09 1080.13C2481.09 1080.07 2481.09 1080.01 2481.09 1079.96C2481.09 1079.9 2481.09 1079.84 2481.09 1079.79C2481.09 1079.73 2481.09 1079.68 2481.09 1079.62C2481.09 1079.57 2481.09 1079.51 2481.09 1079.45C2481.09 1079.4 2481.09 1079.34 2481.09 1079.29C2481.09 1079.23 2481.09 1079.18 2481.09 1079.12C2481.09 1079.07 2481.09 1079.02 2481.09 1078.96C2481.09 1078.91 2481.09 1078.85 2481.09 1078.8C2481.09 1078.74 2481.09 1078.69 2481.09 1078.64C2481.09 1078.58 2481.09 1078.53 2481.09 1078.48C2481.09 1078.42 2481.09 1078.37 2481.09 1078.32C2481.09 1078.26 2481.09 1078.21 2481.09 1078.16C2481.09 1078.11 2481.09 1078.05 2481.09 1078C2481.09 1077.95 2481.09 1077.9 2481.09 1077.84C2481.09 1077.79 2481.09 1077.74 2481.09 1077.69C2481.09 1077.64 2481.09 1077.58 2481.09 1077.53C2481.09 1077.48 2481.09 1077.43 2481.09 1077.38C2481.09 1077.33 2481.09 1077.28 2481.09 1077.23C2481.09 1077.18 2481.09 1077.13 2481.09 1077.08C2481.09 1077.02 2481.09 1076.97 2481.09 1076.92C2481.09 1076.87 2481.09 1076.82 2481.09 1076.77C2481.09 1076.72 2481.09 1076.67 2481.09 1076.62C2481.09 1076.57 2481.09 1076.53 2481.09 1076.48C2481.09 1076.43 2481.09 1076.38 2481.09 1076.33C2481.09 1076.28 2481.09 1076.23 2481.09 1076.18C2481.09 1076.13 2481.09 1076.08 2481.09 1076.04C2481.09 1075.99 2481.09 1075.94 2481.09 1075.89C2481.09 1075.84 2481.09 1075.8 2481.09 1075.75C2481.09 1075.7 2481.09 1075.65 2481.09 1075.61C2481.09 1075.56 2481.09 1075.51 2481.09 1075.46C2481.09 1075.41 2481.09 1075.37 2481.09 1075.32C2481.09 1075.27 2481.09 1075.23 2481.09 1075.18C2481.09 1075.13 2481.09 1075.09 2481.09 1075.04C2481.09 1074.99 2481.09 1074.95 2481.09 1074.9C2481.09 1074.86 2481.09 1074.81 2481.09 1074.77C2481.09 1074.72 2481.09 1074.67 2481.09 1074.63C2481.09 1074.58 2481.09 1074.54 2481.09 1074.49C2481.09 1074.45 2481.09 1074.4 2481.09 1074.36C2481.09 1074.31 2481.09 1074.27 2481.09 1074.22C2481.09 1074.18 2481.09 1074.14 2481.09 1074.09C2481.09 1074.05 2481.09 1074 2481.09 1073.96C2481.09 1073.91 2481.09 1073.87 2481.09 1073.83C2481.09 1073.78 2481.09 1073.74 2481.09 1073.7C2481.09 1073.65 2481.09 1073.61 2481.09 1073.57C2481.09 1073.52 2481.09 1073.48 2481.09 1073.44C2481.09 1073.39 2481.09 1073.35 2481.09 1073.31C2481.09 1073.27 2481.09 1073.22 2481.09 1073.18C2481.09 1073.14 2481.09 1073.1 2481.09 1073.06C2481.09 1073.01 2481.09 1072.97 2481.09 1072.93C2481.09 1072.89 2481.09 1072.85 2481.09 1072.81C2481.09 1072.76 2481.09 1072.72 2481.09 1072.68C2481.09 1072.64 2481.09 1072.6 2481.09 1072.56C2481.09 1072.52 2481.09 1072.48 2481.09 1072.44C2481.09 1072.4 2481.09 1072.35 2481.09 1072.32C2481.09 1072.28 2481.09 1072.23 2481.09 1072.19C2481.09 1072.15 2481.09 1072.11 2481.09 1072.07C2481.09 1072.03 2481.09 1072 2481.09 1071.96C2481.09 1071.92 2481.09 1071.88 2481.09 1071.84C2481.09 1071.8 2481.09 1071.76 2481.09 1071.72C2481.09 1071.68 2481.09 1071.64 2481.09 1071.6C2481.09 1071.57 2481.09 1071.53 2481.09 1071.49C2481.09 1071.45 2481.09 1071.41 2481.09 1071.37C2481.09 1071.33 2481.09 1071.3 2481.09 1071.26C2481.09 1071.22 2481.09 1071.18 2481.09 1071.15C2481.09 1071.11 2481.09 1071.07 2481.09 1071.03C2481.09 1071 2481.09 1070.96 2481.09 1070.92C2481.09 1070.88 2481.09 1070.85 2481.09 1070.81C2481.09 1070.77 2481.09 1070.74 2481.09 1070.7C2481.09 1070.66 2481.09 1070.63 2481.09 1070.59C2481.09 1070.56 2481.09 1070.52 2481.09 1070.48C2481.09 1070.45 2481.09 1070.41 2481.09 1070.38C2481.09 1070.34 2481.09 1070.3 2481.09 1070.27C2481.09 1070.23 2481.09 1070.2 2481.09 1070.16C2481.09 1070.13 2481.09 1070.09 2481.09 1070.06C2481.09 1070.02 2481.09 1069.99 2481.09 1069.95C2481.09 1069.92 2481.09 1069.88 2481.09 1069.85C2481.09 1069.81 2481.09 1069.78 2481.09 1069.74C2481.09 1069.71 2481.09 1069.68 2481.09 1069.64C2481.09 1069.61 2481.09 1069.58 2481.09 1069.54C2481.09 1069.51 2481.09 1069.47 2481.09 1069.44C2481.09 1069.41 2481.09 1069.37 2481.09 1069.34C2481.09 1069.31 2481.09 1069.27 2481.09 1069.24C2481.09 1069.21 2481.09 1069.17 2481.09 1069.14C2481.09 1069.11 2481.09 1069.08 2481.09 1069.04C2481.09 1069.01 2481.09 1068.98 2481.09 1068.95C2481.09 1068.92 2481.09 1068.88 2481.09 1068.85C2481.09 1068.82 2481.09 1068.79 2481.09 1068.76C2481.09 1068.72 2481.09 1068.69 2481.09 1068.66C2481.09 1068.63 2481.09 1068.6 2481.09 1068.57C2481.09 1068.54 2481.09 1068.5 2481.09 1068.47C2481.09 1068.44 2481.09 1068.41 2481.09 1068.38C2481.09 1068.35 2481.09 1068.32 2481.09 1068.29C2481.09 1068.26 2481.09 1068.23 2481.09 1068.2C2481.09 1068.17 2481.09 1068.14 2481.09 1068.11C2481.09 1068.08 2481.09 1068.05 2481.09 1068.02C2481.09 1067.99 2481.09 1067.96 2481.09 1067.93C2481.09 1067.9 2481.09 1067.87 2481.09 1067.84C2481.09 1067.81 2481.09 1067.78 2481.09 1067.75C2481.09 1067.72 2481.09 1067.69 2481.09 1067.66C2481.09 1067.64 2481.09 1067.61 2481.09 1067.58C2481.09 1067.55 2481.09 1067.52 2481.09 1067.49C2481.09 1067.46 2481.09 1067.44 2481.09 1067.41C2481.09 1067.38 2481.09 1067.35 2481.09 1067.32C2481.09 1067.29 2481.09 1067.27 2481.09 1067.24C2481.09 1067.21 2481.09 1067.18 2481.09 1067.16C2481.09 1067.13 2481.09 1067.1 2481.09 1067.07C2481.09 1067.05 2481.09 1067.02 2481.09 1066.99C2481.09 1066.97 2481.09 1066.94 2481.09 1066.91C2481.09 1066.89 2481.09 1066.86 2481.09 1066.83C2481.09 1066.81 2481.09 1066.78 2481.09 1066.75C2481.09 1066.73 2481.09 1066.7 2481.09 1066.67C2481.09 1066.65 2481.09 1066.62 2481.09 1066.6C2481.09 1066.57 2481.09 1066.54 2481.09 1066.52C2481.09 1066.49 2481.09 1066.47 2481.09 1066.44C2481.09 1066.42 2481.09 1066.39 2481.09 1066.37C2481.09 1066.34 2481.09 1066.32 2481.09 1066.29C2481.09 1066.26 2481.09 1066.24 2481.09 1066.22C2481.09 1066.19 2481.09 1066.17 2481.09 1066.14C2481.09 1066.12 2481.09 1066.09 2481.09 1066.07C2481.09 1066.04 2481.09 1066.02 2481.09 1065.99C2481.09 1065.97 2481.09 1065.95 2481.09 1065.92C2481.09 1065.9 2481.09 1065.87 2481.09 1065.85C2481.09 1065.83 2481.09 1065.8 2481.09 1065.78C2481.09 1065.76 2481.09 1065.73 2481.09 1065.71C2481.09 1065.69 2481.09 1065.66 2481.09 1065.64C2481.09 1065.62 2481.09 1065.59 2481.09 1065.57C2481.09 1065.55 2481.09 1065.52 2481.09 1065.5C2481.09 1065.48 2481.09 1065.46 2481.09 1065.43C2481.09 1065.41 2481.09 1065.39 2481.09 1065.37C2481.09 1065.34 2481.09 1065.32 2481.09 1065.3C2481.09 1065.28 2481.09 1065.26 2481.09 1065.23C2481.09 1065.21 2481.09 1065.19 2481.09 1065.17C2481.09 1065.15 2481.09 1065.12 2481.09 1065.1C2481.09 1065.08 2481.09 1065.06 2481.09 1065.04C2481.09 1065.02 2481.09 1065 2481.09 1064.98C2481.09 1064.95 2481.09 1064.93 2481.09 1064.91C2481.09 1064.89 2481.09 1064.87 2481.09 1064.85C2481.09 1064.83 2481.09 1064.81 2481.09 1064.79C2481.09 1064.77 2481.09 1064.75 2481.09 1064.73C2481.09 1064.71 2481.09 1064.69 2481.09 1064.67C2481.09 1064.65 2481.09 1064.63 2481.09 1064.61C2481.09 1064.59 2481.09 1064.57 2481.09 1064.55C2481.09 1064.53 2481.09 1064.51 2481.09 1064.49C2481.09 1064.47 2481.09 1064.45 2481.09 1064.43C2481.09 1064.41 2481.09 1064.39 2481.09 1064.37C2481.09 1064.35 2481.09 1064.33 2481.09 1064.31C2481.09 1064.3 2481.09 1064.28 2481.09 1064.26C2481.09 1064.24 2481.09 1064.22 2481.09 1064.2C2481.09 1064.18 2481.09 1064.16 2481.09 1064.15C2481.09 1064.13 2481.09 1064.11 2481.09 1064.09C2481.09 1064.07 2481.09 1064.05 2481.09 1064.04C2481.09 1064.02 2481.09 1064 2481.09 1063.98C2481.09 1063.96 2481.09 1063.95 2481.09 1063.93C2481.09 1063.91 2481.09 1063.89 2481.09 1063.88C2481.09 1063.86 2481.09 1063.84 2481.09 1063.82C2481.09 1063.81 2481.09 1063.79 2481.09 1063.77C2481.09 1063.76 2481.09 1063.74 2481.09 1063.72C2481.09 1063.71 2481.09 1063.69 2481.09 1063.67C2481.09 1063.65 2481.09 1063.64 2481.09 1063.62C2481.09 1063.6 2481.09 1063.59 2481.09 1063.57C2481.09 1063.56 2481.09 1063.54 2481.09 1063.52C2481.09 1063.51 2481.09 1063.49 2481.09 1063.47C2481.09 1063.46 2481.09 1063.44 2481.09 1063.43C2481.09 1063.41 2481.09 1063.39 2481.09 1063.38C2481.09 1063.36 2481.09 1063.35 2481.09 1063.33C2481.09 1063.32 2481.09 1063.3 2481.09 1063.29C2481.09 1063.27 2481.09 1063.26 2481.09 1063.24C2481.09 1063.22 2481.09 1063.21 2481.09 1063.19C2481.09 1063.18 2481.09 1063.16 2481.09 1063.15C2481.09 1063.13 2481.09 1063.12 2481.09 1063.1C2481.09 1063.09 2481.09 1063.07 2481.09 1063.06C2481.09 1063.05 2481.09 1063.03 2481.09 1063.02C2481.09 1063 2481.09 1062.99 2481.09 1062.97C2481.09 1062.96 2481.09 1062.95 2481.09 1062.93C2481.09 1062.92 2481.09 1062.9 2481.09 1062.89C2481.09 1062.88 2481.09 1062.86 2481.09 1062.85C2481.09 1062.84 2481.09 1062.82 2481.09 1062.81C2481.09 1062.79 2481.09 1062.78 2481.09 1062.77C2481.09 1062.75 2481.09 1062.74 2481.09 1062.73C2481.09 1062.71 2481.09 1062.7 2481.09 1062.69C2481.09 1062.68 2481.09 1062.66 2481.09 1062.65C2481.09 1062.64 2481.09 1062.62 2481.09 1062.61C2481.09 1062.6 2481.09 1062.58 2481.09 1062.57C2481.09 1062.56 2481.09 1062.55 2481.09 1062.53C2481.09 1062.52 2481.09 1062.51 2481.09 1062.5C2481.09 1062.48 2481.09 1062.47 2481.09 1062.46C2481.09 1062.45 2481.09 1062.44 2481.09 1062.42C2481.09 1062.41 2481.09 1062.4 2481.09 1062.39C2481.09 1062.38 2481.09 1062.36 2481.09 1062.35C2481.09 1062.34 2481.09 1062.33 2481.09 1062.32C2481.09 1062.31 2481.09 1062.29 2481.09 1062.28C2481.09 1062.27 2481.09 1062.26 2481.09 1062.25C2481.09 1062.24 2481.09 1062.23 2481.09 1062.22C2481.09 1062.2 2481.09 1062.19 2481.09 1062.18C2481.09 1062.17 2481.09 1062.16 2481.09 1062.15C2481.09 1062.14 2481.09 1062.13 2481.09 1062.12C2481.09 1062.11 2481.09 1062.1 2481.09 1062.08C2481.09 1062.07 2481.09 1062.06 2481.09 1062.05C2481.09 1062.04 2481.09 1062.03 2481.09 1062.02C2481.09 1062.01 2481.09 1062 2481.09 1061.99C2481.09 1061.98 2481.09 1061.97 2481.09 1061.96C2481.09 1061.95 2481.09 1061.94 2481.09 1061.93C2481.09 1061.92 2481.09 1061.91 2481.09 1061.9C2481.09 1061.89 2481.09 1061.88 2481.09 1061.87C2481.09 1061.86 2481.09 1061.85 2481.09 1061.85C2481.09 1061.84 2481.09 1061.83 2481.09 1061.82C2481.09 1061.81 2481.09 1061.8 2481.09 1061.79C2481.09 1061.78 2481.09 1061.77 2481.09 1061.76C2481.09 1061.75 2481.09 1061.74 2481.09 1061.73C2481.09 1061.73 2481.09 1061.72 2481.09 1061.71C2481.09 1061.7 2481.09 1061.69 2481.09 1061.68C2481.09 1061.67 2481.09 1061.66 2481.09 1061.66C2481.09 1061.65 2481.09 1061.64 2481.09 1061.63C2481.09 1061.62 2481.09 1061.61 2481.09 1061.6C2481.09 1061.6 2481.09 1061.59 2481.09 1061.58C2481.09 1061.57 2481.09 1061.56 2481.09 1061.56C2481.09 1061.55 2481.09 1061.54 2481.09 1061.53C2481.09 1061.52 2481.09 1061.52 2481.09 1061.51C2481.09 1061.5 2481.09 1061.49 2481.09 1061.48C2481.09 1061.48 2481.09 1061.47 2481.09 1061.46C2481.09 1061.45 2481.09 1061.45 2481.09 1061.44C2481.09 1061.43 2481.09 1061.42 2481.09 1061.42C2481.09 1061.41 2481.09 1061.4 2481.09 1061.4C2481.09 1061.39 2481.09 1061.38 2481.09 1061.37C2481.09 1061.37 2481.09 1061.36 2481.09 1061.35C2481.09 1061.35 2481.09 1061.34 2481.09 1061.33C2481.09 1061.33 2481.09 1061.32 2481.09 1061.31C2481.09 1061.3 2481.09 1061.3 2481.09 1061.29C2481.09 1061.28 2481.09 1061.28 2481.09 1061.27C2481.09 1061.27 2481.09 1061.26 2481.09 1061.25C2481.09 1061.25 2481.09 1061.24 2481.09 1061.23C2481.09 1061.23 2481.09 1061.22 2481.09 1061.21C2481.09 1061.21 2481.09 1061.2 2481.09 1061.2C2481.09 1061.19 2481.09 1061.18 2481.09 1061.18C2481.09 1061.17 2481.09 1061.17 2481.09 1061.16C2481.09 1061.15 2481.09 1061.15 2481.09 1061.14C2481.09 1061.14 2481.09 1061.13 2481.09 1061.13C2481.09 1061.12 2481.09 1061.11 2481.09 1061.11C2481.09 1061.1 2481.09 1061.1 2481.09 1061.09C2481.09 1061.09 2481.09 1061.08 2481.09 1061.07C2481.09 1061.07 2481.09 1061.06 2481.09 1061.06C2481.09 1061.05 2481.09 1061.05 2481.09 1061.04C2481.09 1061.04 2481.09 1061.03 2481.09 1061.03C2481.09 1061.02 2481.09 1061.02 2481.09 1061.01C2481.09 1061.01 2481.09 1061 2481.09 1061C2481.09 1060.99 2481.09 1060.99 2481.09 1060.98C2481.09 1060.98 2481.09 1060.97 2481.09 1060.97C2481.09 1060.97 2481.09 1060.96 2481.09 1060.96C2481.09 1060.95 2481.09 1060.95 2481.09 1060.94C2481.09 1060.94 2481.09 1060.93 2481.09 1060.93C2481.09 1060.92 2481.09 1060.92 2481.09 1060.92C2481.09 1060.91 2481.09 1060.91 2481.09 1060.9C2481.09 1060.9 2481.09 1060.89 2481.09 1060.89C2481.09 1060.89 2481.09 1060.89 2481.09 1060.89C2481.09 1060.88 2481.09 1060.87 2481.09 1060.87C2481.09 1060.87 2481.09 1060.86 2481.09 1060.87C2481.09 1060.86 2481.09 1060.85 2481.09 1060.84C2481.09 1060.85 2481.09 1060.84 2481.09 1060.84C2481.09 1060.84 2481.09 1060.82 2481.09 1060.82C2481.09 1060.82 2481.09 1060.82 2481.09 1060.82C2481.09 1060.82 2481.09 1060.8 2481.09 1060.8C2481.09 1060.8 2481.09 1060.8 2481.09 1060.8C2481.09 1060.8 2481.09 1060.78 2481.09 1060.78C2481.09 1060.78 2481.09 1060.77 2481.09 1060.78C2481.09 1060.77 2481.09 1060.76 2481.09 1060.76C2481.09 1060.76 2481.09 1060.76 2481.09 1060.76C2481.09 1060.76 2481.09 1060.74 2481.09 1060.74C2481.09 1060.74 2481.09 1060.74 2481.09 1060.74C2481.09 1060.74 2481.09 1060.73 2481.09 1060.72C2481.09 1060.73 2481.09 1060.72 2481.09 1060.72C2481.09 1060.72 2481.09 1060.71 2481.09 1060.71C2481.09 1060.71 2481.09 1060.7 2481.09 1060.71C2481.09 1060.7 2481.09 1060.69 2481.09 1060.69C2481.09 1060.69 2481.09 1060.69 2481.09 1060.69C2481.09 1060.69 2481.09 1060.68 2481.09 1060.68C2481.09 1060.68 2481.09 1060.67 2481.09 1060.68C2481.09 1060.67 2481.09 1060.66 2481.09 1060.66C2481.09 1060.66 2481.09 1060.66 2481.09 1060.66C2481.09 1060.66 2481.09 1060.65 2481.09 1060.65C2481.09 1060.64 2481.09 1060.63 2481.09 1060.63C2481.09 1060.63 2481.09 1060.61 2481.09 1060.61C2481.09 1060.61 2481.09 1060.6 2481.09 1060.6C2481.09 1060.6 2481.09 1060.58 2481.09 1060.58C2481.09 1060.58 2481.09 1060.57 2481.09 1060.57C2481.09 1060.57 2481.09 1060.56 2481.09 1060.56C2481.09 1060.56 2481.09 1060.55 2481.09 1060.56C2481.09 1060.55 2481.09 1060.54 2481.09 1060.54C2481.09 1060.54 2481.09 1060.53 2481.09 1060.53C2481.09 1060.53 2481.09 1060.52 2481.09 1060.52C2481.09 1060.51 2481.09 1060.5 2481.09 1060.5H2471.5ZM2481.09 1060.5V997.457H2461.91V1060.5H2481.09Z" fill="white"/>
<defs>
<filter id="filter0_d_2780_558" x="2266" y="865" width="411" height="399" filterUnits="userSpaceOnUse" color-interpolation-filters="sRGB">
<feFlood flood-opacity="0" result="BackgroundImageFix"/>
<feColorMatrix in="SourceAlpha" type="matrix" values="0 0 0 0 0 0 0 0 0 0 0 0 0 0 0 0 0 0 127 0" result="hardAlpha"/>
<feOffset dy="4"/>
<feGaussianBlur stdDeviation="2"/>
<feComposite in2="hardAlpha" operator="out"/>
<feColorMatrix type="matrix" values="0 0 0 0 0 0 0 0 0 0 0 0 0 0 0 0 0 0 0.25 0"/>
<feBlend mode="normal" in2="BackgroundImageFix" result="effect1_dropShadow_2780_558"/>
<feBlend mode="normal" in="SourceGraphic" in2="effect1_dropShadow_2780_558" result="shape"/>
</filter>
</defs>
</svg>
