<svg width="4715" height="2122" viewBox="0 0 4715 2122" fill="none" xmlns="http://www.w3.org/2000/svg">
<rect x="3" y="3" width="4709" height="2116" rx="97" fill="#F5F5FF" stroke="#B5B5B5" stroke-width="6" stroke-dasharray="80 60"/>
<path d="M2448.25 725.857C2498.16 725.857 2539 761.215 2539 804.429C2539 847.643 2498.16 883 2448.25 883C2398.34 883 2357.5 847.643 2357.5 804.429C2357.5 761.215 2398.34 725.857 2448.25 725.857ZM2414.22 814.25H2436.91V833.893C2436.91 839.786 2441.44 843.715 2448.25 843.715C2455.06 843.715 2459.59 839.786 2459.59 833.893V814.25H2482.28C2489.09 814.25 2493.62 810.322 2493.62 804.429C2493.62 798.536 2489.09 794.607 2482.28 794.607H2459.59V774.965C2459.59 769.072 2455.06 765.143 2448.25 765.143C2441.44 765.143 2436.91 769.072 2436.91 774.965V794.607H2414.22C2407.41 794.607 2402.88 798.536 2402.88 804.429C2402.88 810.322 2407.41 814.25 2414.22 814.25Z" fill="#004FBA"/>
<path d="M2210.03 647.286H2310.99L2337.08 612.911C2338.22 609.964 2342.75 608 2346.16 608H2459.59C2478.88 608 2493.62 620.768 2493.62 637.464V714.071C2480.01 709.161 2464.13 706.214 2448.25 706.214C2385.86 706.214 2334.81 750.411 2334.81 804.429C2334.81 818.179 2338.22 831.929 2343.89 843.714H2210.03C2190.75 843.714 2176 830.946 2176 814.25V676.75C2176 660.054 2190.75 647.286 2210.03 647.286ZM2198.69 800.5L2296.24 666.929H2210.03C2203.23 666.929 2198.69 670.857 2198.69 676.75V800.5Z" fill="#004FBA"/>
<path d="M1151.86 1207.41C1145.38 1207.41 1139.32 1206.26 1133.69 1203.95C1128.06 1201.56 1123.11 1198.28 1118.84 1194.1C1114.66 1189.83 1111.37 1184.92 1108.98 1179.38C1106.68 1173.74 1105.53 1167.69 1105.53 1161.2C1105.53 1154.71 1106.68 1148.7 1108.98 1143.15C1111.37 1137.52 1114.66 1132.61 1118.84 1128.43C1123.11 1124.17 1128.06 1120.88 1133.69 1118.58C1139.32 1116.19 1145.38 1114.99 1151.86 1114.99C1156.47 1114.99 1160.91 1115.63 1165.18 1116.91C1169.44 1118.19 1173.41 1120.03 1177.08 1122.42C1180.83 1124.72 1184.08 1127.58 1186.81 1130.99L1176.57 1140.98C1173.41 1136.97 1169.7 1133.94 1165.43 1131.89C1161.17 1129.84 1156.64 1128.82 1151.86 1128.82C1147.51 1128.82 1143.46 1129.63 1139.7 1131.25C1136.03 1132.87 1132.79 1135.17 1129.98 1138.16C1127.25 1141.06 1125.11 1144.47 1123.58 1148.4C1122.04 1152.33 1121.27 1156.59 1121.27 1161.2C1121.27 1165.81 1122.04 1170.07 1123.58 1174C1125.11 1177.93 1127.25 1181.38 1129.98 1184.37C1132.79 1187.27 1136.03 1189.53 1139.7 1191.15C1143.46 1192.77 1147.51 1193.58 1151.86 1193.58C1156.64 1193.58 1161.17 1192.56 1165.43 1190.51C1169.7 1188.38 1173.41 1185.35 1176.57 1181.42L1186.81 1191.41C1184.08 1194.74 1180.83 1197.59 1177.08 1199.98C1173.41 1202.37 1169.44 1204.21 1165.18 1205.49C1160.91 1206.77 1156.47 1207.41 1151.86 1207.41ZM1203.02 1206V1114.22L1217.48 1111.66V1206H1203.02ZM1237.7 1206V1141.87H1252.17V1206H1237.7ZM1245 1128.82C1242.52 1128.82 1240.39 1127.96 1238.6 1126.26C1236.89 1124.46 1236.04 1122.37 1236.04 1119.98C1236.04 1117.51 1236.89 1115.42 1238.6 1113.71C1240.39 1111.92 1242.52 1111.02 1245 1111.02C1247.47 1111.02 1249.56 1111.92 1251.27 1113.71C1253.06 1115.42 1253.96 1117.47 1253.96 1119.86C1253.96 1122.33 1253.06 1124.46 1251.27 1126.26C1249.56 1127.96 1247.47 1128.82 1245 1128.82ZM1302.08 1207.15C1296.02 1207.15 1290.52 1205.7 1285.57 1202.8C1280.7 1199.81 1276.82 1195.8 1273.92 1190.77C1271.1 1185.73 1269.7 1180.14 1269.7 1174C1269.7 1167.77 1271.1 1162.18 1273.92 1157.23C1276.82 1152.2 1280.7 1148.23 1285.57 1145.33C1290.52 1142.34 1296.02 1140.85 1302.08 1140.85C1307.03 1140.85 1311.72 1141.79 1316.16 1143.66C1320.68 1145.54 1324.52 1148.23 1327.68 1151.73L1318.72 1161.07C1316.5 1158.6 1314.03 1156.72 1311.3 1155.44C1308.57 1154.16 1305.66 1153.52 1302.59 1153.52C1299.09 1153.52 1295.94 1154.46 1293.12 1156.34C1290.39 1158.13 1288.21 1160.56 1286.59 1163.63C1284.97 1166.7 1284.16 1170.16 1284.16 1174C1284.16 1177.84 1284.97 1181.34 1286.59 1184.5C1288.21 1187.57 1290.39 1190 1293.12 1191.79C1295.94 1193.58 1299.09 1194.48 1302.59 1194.48C1305.66 1194.48 1308.57 1193.84 1311.3 1192.56C1314.03 1191.28 1316.5 1189.45 1318.72 1187.06L1327.68 1196.27C1324.52 1199.77 1320.68 1202.46 1316.16 1204.34C1311.72 1206.21 1307.03 1207.15 1302.08 1207.15ZM1342.2 1206V1113.97L1356.66 1111.54V1169.14L1383.29 1141.87H1399.93L1370.36 1171.57L1401.46 1206H1383.03L1356.66 1176.43V1206H1342.2ZM1472.97 1207.28C1466.48 1207.28 1461.58 1205.79 1458.25 1202.8C1454.92 1199.73 1453.26 1195.25 1453.26 1189.36V1153.39H1440.46V1141.87H1453.26V1124.21L1467.72 1121.14V1141.87H1485.64V1153.39H1467.72V1186.16C1467.72 1189.32 1468.4 1191.58 1469.77 1192.94C1471.22 1194.22 1473.52 1194.86 1476.68 1194.86C1478.13 1194.86 1479.45 1194.78 1480.65 1194.61C1481.93 1194.35 1483.51 1193.93 1485.38 1193.33V1205.49C1483.59 1206.09 1481.54 1206.51 1479.24 1206.77C1477.02 1207.11 1474.93 1207.28 1472.97 1207.28ZM1529.19 1207.15C1523.13 1207.15 1517.63 1205.7 1512.68 1202.8C1507.82 1199.9 1503.98 1195.97 1501.16 1191.02C1498.34 1185.99 1496.94 1180.31 1496.94 1174C1496.94 1167.69 1498.34 1162.05 1501.16 1157.1C1503.98 1152.07 1507.82 1148.1 1512.68 1145.2C1517.54 1142.3 1523.05 1140.85 1529.19 1140.85C1535.34 1140.85 1540.8 1142.3 1545.58 1145.2C1550.44 1148.1 1554.28 1152.07 1557.1 1157.1C1559.91 1162.05 1561.32 1167.69 1561.32 1174C1561.32 1180.31 1559.91 1185.99 1557.1 1191.02C1554.28 1195.97 1550.44 1199.9 1545.58 1202.8C1540.8 1205.7 1535.34 1207.15 1529.19 1207.15ZM1529.19 1194.86C1532.69 1194.86 1535.76 1193.97 1538.41 1192.18C1541.14 1190.38 1543.27 1187.91 1544.81 1184.75C1546.34 1181.51 1547.11 1177.93 1547.11 1174C1547.11 1169.99 1546.34 1166.45 1544.81 1163.38C1543.27 1160.22 1541.14 1157.74 1538.41 1155.95C1535.76 1154.07 1532.69 1153.14 1529.19 1153.14C1525.69 1153.14 1522.58 1154.07 1519.85 1155.95C1517.12 1157.74 1514.98 1160.22 1513.45 1163.38C1511.91 1166.45 1511.14 1169.99 1511.14 1174C1511.14 1178.01 1511.91 1181.59 1513.45 1184.75C1514.98 1187.91 1517.12 1190.38 1519.85 1192.18C1522.58 1193.97 1525.69 1194.86 1529.19 1194.86ZM1647.76 1207.41C1640.16 1207.41 1633.51 1205.79 1627.79 1202.54C1622.16 1199.3 1617.81 1194.69 1614.73 1188.72C1611.66 1182.75 1610.13 1175.71 1610.13 1167.6V1116.4H1625.49V1167.6C1625.49 1172.89 1626.38 1177.46 1628.17 1181.3C1630.05 1185.14 1632.65 1188.12 1635.98 1190.26C1639.31 1192.39 1643.23 1193.46 1647.76 1193.46C1652.28 1193.46 1656.21 1192.39 1659.53 1190.26C1662.95 1188.12 1665.55 1185.14 1667.34 1181.3C1669.13 1177.46 1670.03 1172.89 1670.03 1167.6V1116.4H1685.39V1167.6C1685.39 1175.71 1683.85 1182.75 1680.78 1188.72C1677.79 1194.69 1673.49 1199.3 1667.85 1202.54C1662.22 1205.79 1655.52 1207.41 1647.76 1207.41ZM1705.81 1232.75V1141.87H1720.02V1150.96C1722.41 1147.89 1725.31 1145.54 1728.72 1143.92C1732.22 1142.21 1735.98 1141.36 1739.99 1141.36C1745.45 1141.36 1750.35 1142.81 1754.71 1145.71C1759.06 1148.61 1762.51 1152.54 1765.07 1157.49C1767.72 1162.44 1769.04 1167.94 1769.04 1174C1769.04 1180.06 1767.68 1185.56 1764.95 1190.51C1762.3 1195.46 1758.72 1199.39 1754.19 1202.29C1749.67 1205.19 1744.64 1206.64 1739.09 1206.64C1735.25 1206.64 1731.75 1205.96 1728.59 1204.59C1725.44 1203.14 1722.66 1201.09 1720.27 1198.45V1232.75H1705.81ZM1735.63 1194.48C1739.3 1194.48 1742.55 1193.63 1745.36 1191.92C1748.26 1190.13 1750.52 1187.7 1752.15 1184.62C1753.85 1181.47 1754.71 1177.93 1754.71 1174C1754.71 1170.07 1753.85 1166.58 1752.15 1163.5C1750.52 1160.43 1748.26 1158 1745.36 1156.21C1742.55 1154.42 1739.3 1153.52 1735.63 1153.52C1732.48 1153.52 1729.58 1154.16 1726.93 1155.44C1724.37 1156.63 1722.15 1158.38 1720.27 1160.69V1187.44C1722.15 1189.66 1724.41 1191.41 1727.06 1192.69C1729.7 1193.88 1732.56 1194.48 1735.63 1194.48ZM1786.62 1206V1114.22L1801.08 1111.66V1206H1786.62ZM1850.74 1207.15C1844.68 1207.15 1839.18 1205.7 1834.23 1202.8C1829.37 1199.9 1825.53 1195.97 1822.71 1191.02C1819.89 1185.99 1818.49 1180.31 1818.49 1174C1818.49 1167.69 1819.89 1162.05 1822.71 1157.1C1825.53 1152.07 1829.37 1148.1 1834.23 1145.2C1839.09 1142.3 1844.6 1140.85 1850.74 1140.85C1856.89 1140.85 1862.35 1142.3 1867.13 1145.2C1871.99 1148.1 1875.83 1152.07 1878.65 1157.1C1881.46 1162.05 1882.87 1167.69 1882.87 1174C1882.87 1180.31 1881.46 1185.99 1878.65 1191.02C1875.83 1195.97 1871.99 1199.9 1867.13 1202.8C1862.35 1205.7 1856.89 1207.15 1850.74 1207.15ZM1850.74 1194.86C1854.24 1194.86 1857.31 1193.97 1859.96 1192.18C1862.69 1190.38 1864.82 1187.91 1866.36 1184.75C1867.89 1181.51 1868.66 1177.93 1868.66 1174C1868.66 1169.99 1867.89 1166.45 1866.36 1163.38C1864.82 1160.22 1862.69 1157.74 1859.96 1155.95C1857.31 1154.07 1854.24 1153.14 1850.74 1153.14C1847.24 1153.14 1844.13 1154.07 1841.4 1155.95C1838.67 1157.74 1836.53 1160.22 1835 1163.38C1833.46 1166.45 1832.69 1169.99 1832.69 1174C1832.69 1178.01 1833.46 1181.59 1835 1184.75C1836.53 1187.91 1838.67 1190.38 1841.4 1192.18C1844.13 1193.97 1847.24 1194.86 1850.74 1194.86ZM1920.45 1207.15C1916.01 1207.15 1912.04 1206.34 1908.54 1204.72C1905.13 1203.01 1902.44 1200.71 1900.48 1197.81C1898.6 1194.82 1897.66 1191.41 1897.66 1187.57C1897.66 1183.73 1898.64 1180.4 1900.61 1177.58C1902.65 1174.77 1905.51 1172.59 1909.18 1171.06C1912.85 1169.52 1917.2 1168.75 1922.24 1168.75C1925.22 1168.75 1928.17 1169.09 1931.07 1169.78C1933.97 1170.37 1936.79 1171.4 1939.52 1172.85V1165.68C1939.52 1161.41 1938.28 1158.21 1935.81 1156.08C1933.42 1153.95 1929.75 1152.88 1924.8 1152.88C1922.15 1152.88 1919.29 1153.31 1916.22 1154.16C1913.24 1154.93 1909.86 1156.17 1906.11 1157.87L1900.99 1147.38C1910.38 1143.02 1919.25 1140.85 1927.61 1140.85C1935.98 1140.85 1942.42 1142.9 1946.94 1146.99C1951.55 1151 1953.85 1156.72 1953.85 1164.14V1206H1939.52V1199.34C1936.79 1201.99 1933.84 1203.95 1930.69 1205.23C1927.53 1206.51 1924.12 1207.15 1920.45 1207.15ZM1911.23 1187.31C1911.23 1190.3 1912.42 1192.65 1914.81 1194.35C1917.2 1196.06 1920.4 1196.91 1924.41 1196.91C1927.32 1196.91 1930 1196.49 1932.48 1195.63C1935.04 1194.69 1937.38 1193.33 1939.52 1191.54V1181.17C1937.3 1180.14 1935 1179.38 1932.61 1178.86C1930.22 1178.35 1927.61 1178.1 1924.8 1178.1C1920.62 1178.1 1917.29 1178.91 1914.81 1180.53C1912.42 1182.15 1911.23 1184.41 1911.23 1187.31ZM1999.91 1206.64C1994.53 1206.64 1989.67 1205.19 1985.32 1202.29C1980.97 1199.3 1977.47 1195.38 1974.82 1190.51C1972.26 1185.56 1970.98 1180.06 1970.98 1174C1970.98 1167.86 1972.3 1162.35 1974.95 1157.49C1977.59 1152.54 1981.18 1148.61 1985.7 1145.71C1990.31 1142.81 1995.39 1141.36 2000.93 1141.36C2004.6 1141.36 2008.02 1142.09 2011.17 1143.54C2014.42 1144.9 2017.23 1146.95 2019.62 1149.68V1114.22L2034.09 1111.66V1206H2019.75V1197.55C2017.45 1200.45 2014.59 1202.71 2011.17 1204.34C2007.76 1205.87 2004.01 1206.64 1999.91 1206.64ZM2004.39 1194.35C2007.46 1194.35 2010.32 1193.75 2012.97 1192.56C2015.61 1191.37 2017.83 1189.66 2019.62 1187.44V1160.43C2017.74 1158.21 2015.48 1156.51 2012.84 1155.31C2010.19 1154.12 2007.38 1153.52 2004.39 1153.52C2000.72 1153.52 1997.43 1154.42 1994.53 1156.21C1991.72 1157.91 1989.46 1160.3 1987.75 1163.38C1986.13 1166.45 1985.32 1169.99 1985.32 1174C1985.32 1177.84 1986.13 1181.34 1987.75 1184.5C1989.46 1187.57 1991.72 1190 1994.53 1191.79C1997.43 1193.5 2000.72 1194.35 2004.39 1194.35ZM2115.23 1207.15C2109.17 1207.15 2103.67 1205.7 2098.72 1202.8C2093.86 1199.9 2090.02 1195.97 2087.2 1191.02C2084.38 1185.99 2082.98 1180.31 2082.98 1174C2082.98 1167.69 2084.38 1162.05 2087.2 1157.1C2090.02 1152.07 2093.86 1148.1 2098.72 1145.2C2103.58 1142.3 2109.09 1140.85 2115.23 1140.85C2121.38 1140.85 2126.84 1142.3 2131.62 1145.2C2136.48 1148.1 2140.32 1152.07 2143.14 1157.1C2145.95 1162.05 2147.36 1167.69 2147.36 1174C2147.36 1180.31 2145.95 1185.99 2143.14 1191.02C2140.32 1195.97 2136.48 1199.9 2131.62 1202.8C2126.84 1205.7 2121.38 1207.15 2115.23 1207.15ZM2115.23 1194.86C2118.73 1194.86 2121.8 1193.97 2124.45 1192.18C2127.18 1190.38 2129.31 1187.91 2130.85 1184.75C2132.38 1181.51 2133.15 1177.93 2133.15 1174C2133.15 1169.99 2132.38 1166.45 2130.85 1163.38C2129.31 1160.22 2127.18 1157.74 2124.45 1155.95C2121.8 1154.07 2118.73 1153.14 2115.23 1153.14C2111.73 1153.14 2108.62 1154.07 2105.89 1155.95C2103.16 1157.74 2101.02 1160.22 2099.49 1163.38C2097.95 1166.45 2097.18 1169.99 2097.18 1174C2097.18 1178.01 2097.95 1181.59 2099.49 1184.75C2101.02 1187.91 2103.16 1190.38 2105.89 1192.18C2108.62 1193.97 2111.73 1194.86 2115.23 1194.86ZM2164.86 1206V1141.87H2179.32V1155.7C2181.2 1150.83 2183.63 1147.12 2186.62 1144.56C2189.6 1142 2193.06 1140.72 2196.98 1140.72C2198.26 1140.81 2199.37 1140.93 2200.31 1141.1C2201.25 1141.19 2202.23 1141.49 2203.26 1142V1154.67C2202.15 1154.16 2200.87 1153.78 2199.42 1153.52C2198.05 1153.26 2196.68 1153.14 2195.32 1153.14C2191.82 1153.14 2188.66 1154.07 2185.85 1155.95C2183.12 1157.83 2180.94 1160.43 2179.32 1163.76V1206H2164.86ZM2266.13 1192.69H2283.92C2289.3 1192.69 2294.16 1191.32 2298.51 1188.59C2302.86 1185.78 2306.32 1181.98 2308.88 1177.2C2311.44 1172.42 2312.72 1167.09 2312.72 1161.2C2312.72 1155.23 2311.44 1149.89 2308.88 1145.2C2306.32 1140.42 2302.86 1136.67 2298.51 1133.94C2294.16 1131.12 2289.3 1129.71 2283.92 1129.71H2266.13V1192.69ZM2250.77 1206V1116.4H2283.54C2290.02 1116.4 2295.99 1117.55 2301.46 1119.86C2306.92 1122.16 2311.65 1125.36 2315.66 1129.46C2319.76 1133.47 2322.92 1138.2 2325.14 1143.66C2327.35 1149.04 2328.46 1154.89 2328.46 1161.2C2328.46 1167.51 2327.35 1173.4 2325.14 1178.86C2322.92 1184.24 2319.76 1188.98 2315.66 1193.07C2311.65 1197.08 2306.92 1200.24 2301.46 1202.54C2295.99 1204.85 2290.02 1206 2283.54 1206H2250.77ZM2346.53 1206V1141.87H2361V1155.7C2362.88 1150.83 2365.31 1147.12 2368.29 1144.56C2371.28 1142 2374.74 1140.72 2378.66 1140.72C2379.94 1140.81 2381.05 1140.93 2381.99 1141.1C2382.93 1141.19 2383.91 1141.49 2384.93 1142V1154.67C2383.83 1154.16 2382.55 1153.78 2381.09 1153.52C2379.73 1153.26 2378.36 1153.14 2377 1153.14C2373.5 1153.14 2370.34 1154.07 2367.53 1155.95C2364.8 1157.83 2362.62 1160.43 2361 1163.76V1206H2346.53ZM2425.66 1207.15C2419.6 1207.15 2414.09 1205.7 2409.15 1202.8C2404.28 1199.9 2400.44 1195.97 2397.63 1191.02C2394.81 1185.99 2393.4 1180.31 2393.4 1174C2393.4 1167.69 2394.81 1162.05 2397.63 1157.1C2400.44 1152.07 2404.28 1148.1 2409.15 1145.2C2414.01 1142.3 2419.51 1140.85 2425.66 1140.85C2431.8 1140.85 2437.26 1142.3 2442.04 1145.2C2446.91 1148.1 2450.75 1152.07 2453.56 1157.1C2456.38 1162.05 2457.79 1167.69 2457.79 1174C2457.79 1180.31 2456.38 1185.99 2453.56 1191.02C2450.75 1195.97 2446.91 1199.9 2442.04 1202.8C2437.26 1205.7 2431.8 1207.15 2425.66 1207.15ZM2425.66 1194.86C2429.16 1194.86 2432.23 1193.97 2434.87 1192.18C2437.6 1190.38 2439.74 1187.91 2441.27 1184.75C2442.81 1181.51 2443.58 1177.93 2443.58 1174C2443.58 1169.99 2442.81 1166.45 2441.27 1163.38C2439.74 1160.22 2437.6 1157.74 2434.87 1155.95C2432.23 1154.07 2429.16 1153.14 2425.66 1153.14C2422.16 1153.14 2419.04 1154.07 2416.31 1155.95C2413.58 1157.74 2411.45 1160.22 2409.91 1163.38C2408.38 1166.45 2407.61 1169.99 2407.61 1174C2407.61 1178.01 2408.38 1181.59 2409.91 1184.75C2411.45 1187.91 2413.58 1190.38 2416.31 1192.18C2419.04 1193.97 2422.16 1194.86 2425.66 1194.86ZM2475.28 1232.75V1141.87H2489.49V1150.96C2491.88 1147.89 2494.78 1145.54 2498.19 1143.92C2501.69 1142.21 2505.45 1141.36 2509.46 1141.36C2514.92 1141.36 2519.82 1142.81 2524.18 1145.71C2528.53 1148.61 2531.98 1152.54 2534.54 1157.49C2537.19 1162.44 2538.51 1167.94 2538.51 1174C2538.51 1180.06 2537.15 1185.56 2534.42 1190.51C2531.77 1195.46 2528.19 1199.39 2523.66 1202.29C2519.14 1205.19 2514.11 1206.64 2508.56 1206.64C2504.72 1206.64 2501.22 1205.96 2498.06 1204.59C2494.91 1203.14 2492.13 1201.09 2489.74 1198.45V1232.75H2475.28ZM2505.1 1194.48C2508.77 1194.48 2512.02 1193.63 2514.83 1191.92C2517.73 1190.13 2519.99 1187.7 2521.62 1184.62C2523.32 1181.47 2524.18 1177.93 2524.18 1174C2524.18 1170.07 2523.32 1166.58 2521.62 1163.5C2519.99 1160.43 2517.73 1158 2514.83 1156.21C2512.02 1154.42 2508.77 1153.52 2505.1 1153.52C2501.95 1153.52 2499.05 1154.16 2496.4 1155.44C2493.84 1156.63 2491.62 1158.38 2489.74 1160.69V1187.44C2491.62 1189.66 2493.88 1191.41 2496.53 1192.69C2499.17 1193.88 2502.03 1194.48 2505.1 1194.48ZM2604.55 1192.69H2622.34C2627.72 1192.69 2632.58 1191.32 2636.94 1188.59C2641.29 1185.78 2644.74 1181.98 2647.3 1177.2C2649.86 1172.42 2651.14 1167.09 2651.14 1161.2C2651.14 1155.23 2649.86 1149.89 2647.3 1145.2C2644.74 1140.42 2641.29 1136.67 2636.94 1133.94C2632.58 1131.12 2627.72 1129.71 2622.34 1129.71H2604.55V1192.69ZM2589.19 1206V1116.4H2621.96C2628.45 1116.4 2634.42 1117.55 2639.88 1119.86C2645.34 1122.16 2650.08 1125.36 2654.09 1129.46C2658.18 1133.47 2661.34 1138.2 2663.56 1143.66C2665.78 1149.04 2666.89 1154.89 2666.89 1161.2C2666.89 1167.51 2665.78 1173.4 2663.56 1178.86C2661.34 1184.24 2658.18 1188.98 2654.09 1193.07C2650.08 1197.08 2645.34 1200.24 2639.88 1202.54C2634.42 1204.85 2628.45 1206 2621.96 1206H2589.19ZM2714.27 1207.15C2708.21 1207.15 2702.71 1205.7 2697.76 1202.8C2692.9 1199.9 2689.06 1195.97 2686.24 1191.02C2683.42 1185.99 2682.02 1180.31 2682.02 1174C2682.02 1167.69 2683.42 1162.05 2686.24 1157.1C2689.06 1152.07 2692.9 1148.1 2697.76 1145.2C2702.62 1142.3 2708.13 1140.85 2714.27 1140.85C2720.42 1140.85 2725.88 1142.3 2730.66 1145.2C2735.52 1148.1 2739.36 1152.07 2742.18 1157.1C2744.99 1162.05 2746.4 1167.69 2746.4 1174C2746.4 1180.31 2744.99 1185.99 2742.18 1191.02C2739.36 1195.97 2735.52 1199.9 2730.66 1202.8C2725.88 1205.7 2720.42 1207.15 2714.27 1207.15ZM2714.27 1194.86C2717.77 1194.86 2720.84 1193.97 2723.49 1192.18C2726.22 1190.38 2728.35 1187.91 2729.89 1184.75C2731.42 1181.51 2732.19 1177.93 2732.19 1174C2732.19 1169.99 2731.42 1166.45 2729.89 1163.38C2728.35 1160.22 2726.22 1157.74 2723.49 1155.95C2720.84 1154.07 2717.77 1153.14 2714.27 1153.14C2710.77 1153.14 2707.66 1154.07 2704.93 1155.95C2702.2 1157.74 2700.06 1160.22 2698.53 1163.38C2696.99 1166.45 2696.22 1169.99 2696.22 1174C2696.22 1178.01 2696.99 1181.59 2698.53 1184.75C2700.06 1187.91 2702.2 1190.38 2704.93 1192.18C2707.66 1193.97 2710.77 1194.86 2714.27 1194.86ZM2793.34 1207.15C2787.28 1207.15 2781.77 1205.7 2776.82 1202.8C2771.96 1199.81 2768.08 1195.8 2765.18 1190.77C2762.36 1185.73 2760.95 1180.14 2760.95 1174C2760.95 1167.77 2762.36 1162.18 2765.18 1157.23C2768.08 1152.2 2771.96 1148.23 2776.82 1145.33C2781.77 1142.34 2787.28 1140.85 2793.34 1140.85C2798.28 1140.85 2802.98 1141.79 2807.42 1143.66C2811.94 1145.54 2815.78 1148.23 2818.94 1151.73L2809.98 1161.07C2807.76 1158.6 2805.28 1156.72 2802.55 1155.44C2799.82 1154.16 2796.92 1153.52 2793.85 1153.52C2790.35 1153.52 2787.19 1154.46 2784.38 1156.34C2781.64 1158.13 2779.47 1160.56 2777.85 1163.63C2776.23 1166.7 2775.42 1170.16 2775.42 1174C2775.42 1177.84 2776.23 1181.34 2777.85 1184.5C2779.47 1187.57 2781.64 1190 2784.38 1191.79C2787.19 1193.58 2790.35 1194.48 2793.85 1194.48C2796.92 1194.48 2799.82 1193.84 2802.55 1192.56C2805.28 1191.28 2807.76 1189.45 2809.98 1187.06L2818.94 1196.27C2815.78 1199.77 2811.94 1202.46 2807.42 1204.34C2802.98 1206.21 2798.28 1207.15 2793.34 1207.15ZM2826.03 1206L2850.22 1172.98L2827.05 1141.87H2844.08L2859.05 1162.99L2874.03 1141.87H2890.29L2866.86 1173.36L2891.31 1206H2874.41L2858.29 1183.6L2842.16 1206H2826.03ZM2920.34 1232.75L2971.54 1116.4H2985.62L2934.29 1232.75H2920.34ZM3050.35 1192.69H3068.14C3073.51 1192.69 3078.38 1191.32 3082.73 1188.59C3087.08 1185.78 3090.54 1181.98 3093.1 1177.2C3095.66 1172.42 3096.94 1167.09 3096.94 1161.2C3096.94 1155.23 3095.66 1149.89 3093.1 1145.2C3090.54 1140.42 3087.08 1136.67 3082.73 1133.94C3078.38 1131.12 3073.51 1129.71 3068.14 1129.71H3050.35V1192.69ZM3034.99 1206V1116.4H3067.75C3074.24 1116.4 3080.21 1117.55 3085.67 1119.86C3091.14 1122.16 3095.87 1125.36 3099.88 1129.46C3103.98 1133.47 3107.14 1138.2 3109.35 1143.66C3111.57 1149.04 3112.68 1154.89 3112.68 1161.2C3112.68 1167.51 3111.57 1173.4 3109.35 1178.86C3107.14 1184.24 3103.98 1188.98 3099.88 1193.07C3095.87 1197.08 3091.14 1200.24 3085.67 1202.54C3080.21 1204.85 3074.24 1206 3067.75 1206H3034.99ZM3160.07 1207.15C3154.01 1207.15 3148.5 1205.7 3143.56 1202.8C3138.69 1199.9 3134.85 1195.97 3132.04 1191.02C3129.22 1185.99 3127.81 1180.31 3127.81 1174C3127.81 1167.69 3129.22 1162.05 3132.04 1157.1C3134.85 1152.07 3138.69 1148.1 3143.56 1145.2C3148.42 1142.3 3153.92 1140.85 3160.07 1140.85C3166.21 1140.85 3171.67 1142.3 3176.45 1145.2C3181.32 1148.1 3185.16 1152.07 3187.97 1157.1C3190.79 1162.05 3192.2 1167.69 3192.2 1174C3192.2 1180.31 3190.79 1185.99 3187.97 1191.02C3185.16 1195.97 3181.32 1199.9 3176.45 1202.8C3171.67 1205.7 3166.21 1207.15 3160.07 1207.15ZM3160.07 1194.86C3163.57 1194.86 3166.64 1193.97 3169.28 1192.18C3172.01 1190.38 3174.15 1187.91 3175.68 1184.75C3177.22 1181.51 3177.99 1177.93 3177.99 1174C3177.99 1169.99 3177.22 1166.45 3175.68 1163.38C3174.15 1160.22 3172.01 1157.74 3169.28 1155.95C3166.64 1154.07 3163.57 1153.14 3160.07 1153.14C3156.57 1153.14 3153.45 1154.07 3150.72 1155.95C3147.99 1157.74 3145.86 1160.22 3144.32 1163.38C3142.79 1166.45 3142.02 1169.99 3142.02 1174C3142.02 1178.01 3142.79 1181.59 3144.32 1184.75C3145.86 1187.91 3147.99 1190.38 3150.72 1192.18C3153.45 1193.97 3156.57 1194.86 3160.07 1194.86ZM3239.13 1207.15C3233.07 1207.15 3227.57 1205.7 3222.62 1202.8C3217.75 1199.81 3213.87 1195.8 3210.97 1190.77C3208.15 1185.73 3206.75 1180.14 3206.75 1174C3206.75 1167.77 3208.15 1162.18 3210.97 1157.23C3213.87 1152.2 3217.75 1148.23 3222.62 1145.33C3227.57 1142.34 3233.07 1140.85 3239.13 1140.85C3244.08 1140.85 3248.77 1141.79 3253.21 1143.66C3257.73 1145.54 3261.57 1148.23 3264.73 1151.73L3255.77 1161.07C3253.55 1158.6 3251.08 1156.72 3248.35 1155.44C3245.62 1154.16 3242.71 1153.52 3239.64 1153.52C3236.14 1153.52 3232.99 1154.46 3230.17 1156.34C3227.44 1158.13 3225.26 1160.56 3223.64 1163.63C3222.02 1166.7 3221.21 1170.16 3221.21 1174C3221.21 1177.84 3222.02 1181.34 3223.64 1184.5C3225.26 1187.57 3227.44 1190 3230.17 1191.79C3232.99 1193.58 3236.14 1194.48 3239.64 1194.48C3242.71 1194.48 3245.62 1193.84 3248.35 1192.56C3251.08 1191.28 3253.55 1189.45 3255.77 1187.06L3264.73 1196.27C3261.57 1199.77 3257.73 1202.46 3253.21 1204.34C3248.77 1206.21 3244.08 1207.15 3239.13 1207.15ZM3310.56 1206V1114.22L3325.02 1111.66V1152.37C3327.5 1148.53 3330.44 1145.67 3333.86 1143.79C3337.27 1141.83 3341.11 1140.85 3345.38 1140.85C3349.73 1140.85 3353.57 1141.83 3356.9 1143.79C3360.22 1145.67 3362.83 1148.31 3364.7 1151.73C3366.67 1155.14 3367.65 1159.15 3367.65 1163.76V1206H3353.06V1167.86C3353.06 1163.16 3351.78 1159.45 3349.22 1156.72C3346.66 1153.9 3343.24 1152.5 3338.98 1152.5C3336.07 1152.5 3333.43 1153.18 3331.04 1154.54C3328.74 1155.82 3326.73 1157.74 3325.02 1160.3V1206H3310.56ZM3417.44 1207.28C3411.3 1207.28 3405.75 1205.83 3400.8 1202.93C3395.85 1199.94 3391.93 1195.97 3389.03 1191.02C3386.13 1185.99 3384.68 1180.31 3384.68 1174C3384.68 1167.69 3386.04 1162.05 3388.77 1157.1C3391.5 1152.15 3395.21 1148.23 3399.91 1145.33C3404.69 1142.34 3409.98 1140.85 3415.78 1140.85C3421.75 1140.85 3427 1142.3 3431.52 1145.2C3436.13 1148.1 3439.72 1152.03 3442.28 1156.98C3444.92 1161.93 3446.24 1167.6 3446.24 1174V1177.46H3398.88C3399.4 1180.95 3400.51 1184.07 3402.21 1186.8C3404 1189.45 3406.27 1191.54 3409 1193.07C3411.81 1194.61 3414.84 1195.38 3418.08 1195.38C3421.07 1195.38 3423.89 1194.86 3426.53 1193.84C3429.26 1192.73 3431.52 1191.24 3433.32 1189.36L3442.79 1197.94C3438.86 1201.18 3434.85 1203.57 3430.76 1205.1C3426.75 1206.55 3422.31 1207.28 3417.44 1207.28ZM3399.01 1168.5H3432.55C3432.04 1165.42 3430.97 1162.69 3429.35 1160.3C3427.81 1157.91 3425.85 1156.04 3423.46 1154.67C3421.16 1153.31 3418.6 1152.62 3415.78 1152.62C3412.96 1152.62 3410.36 1153.31 3407.97 1154.67C3405.67 1155.95 3403.75 1157.79 3402.21 1160.18C3400.68 1162.57 3399.61 1165.34 3399.01 1168.5ZM3463.55 1206V1141.87H3478.02V1155.7C3479.9 1150.83 3482.33 1147.12 3485.31 1144.56C3488.3 1142 3491.76 1140.72 3495.68 1140.72C3496.96 1140.81 3498.07 1140.93 3499.01 1141.1C3499.95 1141.19 3500.93 1141.49 3501.95 1142V1154.67C3500.85 1154.16 3499.57 1153.78 3498.11 1153.52C3496.75 1153.26 3495.38 1153.14 3494.02 1153.14C3490.52 1153.14 3487.36 1154.07 3484.55 1155.95C3481.82 1157.83 3479.64 1160.43 3478.02 1163.76V1206H3463.55ZM3543.19 1207.28C3537.05 1207.28 3531.5 1205.83 3526.55 1202.93C3521.6 1199.94 3517.67 1195.97 3514.77 1191.02C3511.87 1185.99 3510.42 1180.31 3510.42 1174C3510.42 1167.69 3511.79 1162.05 3514.52 1157.1C3517.25 1152.15 3520.96 1148.23 3525.65 1145.33C3530.43 1142.34 3535.72 1140.85 3541.53 1140.85C3547.5 1140.85 3552.75 1142.3 3557.27 1145.2C3561.88 1148.1 3565.46 1152.03 3568.02 1156.98C3570.67 1161.93 3571.99 1167.6 3571.99 1174V1177.46H3524.63C3525.14 1180.95 3526.25 1184.07 3527.96 1186.8C3529.75 1189.45 3532.01 1191.54 3534.74 1193.07C3537.56 1194.61 3540.59 1195.38 3543.83 1195.38C3546.82 1195.38 3549.63 1194.86 3552.28 1193.84C3555.01 1192.73 3557.27 1191.24 3559.06 1189.36L3568.53 1197.94C3564.61 1201.18 3560.6 1203.57 3556.5 1205.1C3552.49 1206.55 3548.05 1207.28 3543.19 1207.28ZM3524.76 1168.5H3558.29C3557.78 1165.42 3556.71 1162.69 3555.09 1160.3C3553.56 1157.91 3551.59 1156.04 3549.21 1154.67C3546.9 1153.31 3544.34 1152.62 3541.53 1152.62C3538.71 1152.62 3536.11 1153.31 3533.72 1154.67C3531.41 1155.95 3529.49 1157.79 3527.96 1160.18C3526.42 1162.57 3525.35 1165.34 3524.76 1168.5Z" fill="black"/>
<path d="M1344.55 1486.21C1339.2 1486.21 1334.21 1485.22 1329.59 1483.24C1324.97 1481.19 1320.9 1478.36 1317.38 1474.77C1313.93 1471.1 1311.22 1466.89 1309.24 1462.12C1307.26 1457.28 1306.27 1452.07 1306.27 1446.5C1306.27 1440.93 1307.26 1435.76 1309.24 1430.99C1311.22 1426.15 1313.93 1421.93 1317.38 1418.34C1320.9 1414.67 1324.97 1411.85 1329.59 1409.87C1334.21 1407.82 1339.2 1406.79 1344.55 1406.79C1349.9 1406.79 1354.89 1407.82 1359.51 1409.87C1364.13 1411.85 1368.16 1414.67 1371.61 1418.34C1375.13 1421.93 1377.88 1426.15 1379.86 1430.99C1381.84 1435.76 1382.83 1440.93 1382.83 1446.5C1382.83 1452.07 1381.84 1457.28 1379.86 1462.12C1377.88 1466.89 1375.13 1471.1 1371.61 1474.77C1368.16 1478.36 1364.13 1481.19 1359.51 1483.24C1354.89 1485.22 1349.9 1486.21 1344.55 1486.21ZM1344.55 1478.51C1348.73 1478.51 1352.62 1477.7 1356.21 1476.09C1359.8 1474.48 1362.96 1472.2 1365.67 1469.27C1368.38 1466.34 1370.47 1462.93 1371.94 1459.04C1373.48 1455.15 1374.25 1450.97 1374.25 1446.5C1374.25 1441.95 1373.48 1437.77 1371.94 1433.96C1370.47 1430.07 1368.38 1426.66 1365.67 1423.73C1362.96 1420.8 1359.8 1418.52 1356.21 1416.91C1352.62 1415.3 1348.73 1414.49 1344.55 1414.49C1340.37 1414.49 1336.48 1415.3 1332.89 1416.91C1329.3 1418.52 1326.14 1420.8 1323.43 1423.73C1320.72 1426.66 1318.59 1430.07 1317.05 1433.96C1315.58 1437.77 1314.85 1441.92 1314.85 1446.39C1314.85 1450.94 1315.58 1455.15 1317.05 1459.04C1318.59 1462.93 1320.72 1466.34 1323.43 1469.27C1326.14 1472.2 1329.3 1474.48 1332.89 1476.09C1336.48 1477.7 1340.37 1478.51 1344.55 1478.51ZM1399.5 1485V1431.32H1407.53V1440.01C1409.59 1436.78 1412.04 1434.4 1414.9 1432.86C1417.76 1431.25 1420.99 1430.44 1424.58 1430.44C1428.47 1430.44 1431.84 1431.28 1434.7 1432.97C1437.64 1434.58 1439.91 1436.89 1441.52 1439.9C1443.21 1442.83 1444.05 1446.28 1444.05 1450.24V1485H1436.02V1452.55C1436.02 1447.78 1434.7 1444.04 1432.06 1441.33C1429.5 1438.54 1426.01 1437.15 1421.61 1437.15C1418.68 1437.15 1416 1437.85 1413.58 1439.24C1411.16 1440.63 1409.15 1442.69 1407.53 1445.4V1485H1399.5ZM1462.4 1485V1405.58L1470.43 1403.93V1485H1462.4ZM1491.4 1509.09C1489.71 1509.09 1487.99 1508.83 1486.23 1508.32V1501.17C1486.96 1501.32 1487.73 1501.43 1488.54 1501.5C1489.34 1501.57 1490.04 1501.61 1490.63 1501.61C1492.68 1501.61 1494.37 1501.06 1495.69 1499.96C1497.08 1498.86 1498.25 1497.14 1499.21 1494.79L1503.17 1485L1482.49 1431.32H1491.4L1507.68 1475.43L1524.95 1431.32H1533.86L1506.8 1497.21C1505.62 1500.07 1504.34 1502.38 1502.95 1504.14C1501.55 1505.9 1499.94 1507.15 1498.11 1507.88C1496.27 1508.69 1494.04 1509.09 1491.4 1509.09ZM1590.56 1486.1C1586.16 1486.1 1582.09 1485.44 1578.35 1484.12C1574.61 1482.73 1571.42 1480.75 1568.78 1478.18L1573.07 1472.9C1576.29 1475.25 1579.26 1476.97 1581.98 1478.07C1584.69 1479.1 1587.48 1479.61 1590.34 1479.61C1594.22 1479.61 1597.45 1478.69 1600.02 1476.86C1602.58 1475.03 1603.87 1472.68 1603.87 1469.82C1603.87 1467.62 1603.1 1465.9 1601.56 1464.65C1600.09 1463.4 1597.63 1462.45 1594.19 1461.79L1585.39 1460.25C1580.18 1459.3 1576.33 1457.68 1573.84 1455.41C1571.42 1453.14 1570.21 1450.06 1570.21 1446.17C1570.21 1443.09 1571.01 1440.38 1572.63 1438.03C1574.31 1435.68 1576.62 1433.85 1579.56 1432.53C1582.49 1431.14 1585.83 1430.44 1589.57 1430.44C1593.23 1430.44 1596.72 1430.99 1600.02 1432.09C1603.32 1433.12 1606.65 1434.8 1610.03 1437.15L1606.07 1442.76C1603.28 1440.78 1600.49 1439.35 1597.71 1438.47C1594.92 1437.52 1592.1 1437.04 1589.24 1437.04C1585.72 1437.04 1582.89 1437.81 1580.77 1439.35C1578.64 1440.89 1577.58 1442.98 1577.58 1445.62C1577.58 1447.82 1578.24 1449.51 1579.56 1450.68C1580.95 1451.85 1583.37 1452.73 1586.82 1453.32L1595.84 1454.97C1601.26 1455.92 1605.22 1457.57 1607.72 1459.92C1610.21 1462.27 1611.46 1465.42 1611.46 1469.38C1611.46 1472.53 1610.54 1475.39 1608.71 1477.96C1606.87 1480.45 1604.38 1482.43 1601.23 1483.9C1598.07 1485.37 1594.52 1486.1 1590.56 1486.1ZM1625.77 1485V1431.32H1633.8V1485H1625.77ZM1629.84 1418.01C1628.23 1418.01 1626.84 1417.46 1625.66 1416.36C1624.56 1415.19 1624.01 1413.83 1624.01 1412.29C1624.01 1410.75 1624.56 1409.43 1625.66 1408.33C1626.84 1407.16 1628.23 1406.57 1629.84 1406.57C1631.46 1406.57 1632.81 1407.16 1633.91 1408.33C1635.09 1409.43 1635.67 1410.75 1635.67 1412.29C1635.67 1413.83 1635.09 1415.19 1633.91 1416.36C1632.81 1417.46 1631.46 1418.01 1629.84 1418.01ZM1652.47 1485V1431.32H1660.5V1440.01C1662.55 1436.78 1665.01 1434.4 1667.87 1432.86C1670.73 1431.25 1673.96 1430.44 1677.55 1430.44C1681.44 1430.44 1684.81 1431.28 1687.67 1432.97C1690.6 1434.58 1692.88 1436.89 1694.49 1439.9C1696.18 1442.83 1697.02 1446.28 1697.02 1450.24V1485H1688.99V1452.55C1688.99 1447.78 1687.67 1444.04 1685.03 1441.33C1682.46 1438.54 1678.98 1437.15 1674.58 1437.15C1671.65 1437.15 1668.97 1437.85 1666.55 1439.24C1664.13 1440.63 1662.11 1442.69 1660.5 1445.4V1485H1652.47ZM1740.22 1509.09C1736.63 1509.09 1733 1508.58 1729.33 1507.55C1725.74 1506.6 1722.4 1505.24 1719.32 1503.48L1722.73 1497.32C1726.03 1499.01 1729.04 1500.25 1731.75 1501.06C1734.47 1501.87 1737.18 1502.27 1739.89 1502.27C1744.81 1502.27 1748.51 1501.1 1751 1498.75C1753.57 1496.4 1754.85 1492.99 1754.85 1488.52V1477.74C1752.8 1480.31 1750.31 1482.29 1747.37 1483.68C1744.44 1485 1741.21 1485.66 1737.69 1485.66C1733.07 1485.66 1728.89 1484.45 1725.15 1482.03C1721.41 1479.54 1718.44 1476.24 1716.24 1472.13C1714.04 1467.95 1712.94 1463.29 1712.94 1458.16C1712.94 1453.03 1714.04 1448.41 1716.24 1444.3C1718.52 1440.12 1721.56 1436.82 1725.37 1434.4C1729.19 1431.91 1733.44 1430.66 1738.13 1430.66C1741.51 1430.66 1744.62 1431.32 1747.48 1432.64C1750.34 1433.89 1752.84 1435.76 1754.96 1438.25V1431.32H1762.88V1488.41C1762.88 1495.08 1760.94 1500.18 1757.05 1503.7C1753.17 1507.29 1747.56 1509.09 1740.22 1509.09ZM1739.67 1478.73C1742.83 1478.73 1745.72 1478.11 1748.36 1476.86C1751 1475.54 1753.17 1473.74 1754.85 1471.47V1444.96C1753.09 1442.69 1750.86 1440.93 1748.14 1439.68C1745.5 1438.36 1742.68 1437.7 1739.67 1437.7C1736.08 1437.7 1732.85 1438.58 1729.99 1440.34C1727.21 1442.1 1724.97 1444.52 1723.28 1447.6C1721.67 1450.68 1720.86 1454.2 1720.86 1458.16C1720.86 1462.05 1721.67 1465.57 1723.28 1468.72C1724.97 1471.8 1727.21 1474.26 1729.99 1476.09C1732.85 1477.85 1736.08 1478.73 1739.67 1478.73ZM1781.59 1485V1405.58L1789.62 1403.93V1485H1781.59ZM1832.48 1486.1C1827.49 1486.1 1822.98 1484.89 1818.95 1482.47C1814.91 1479.98 1811.72 1476.64 1809.38 1472.46C1807.03 1468.21 1805.86 1463.44 1805.86 1458.16C1805.86 1452.88 1806.96 1448.15 1809.16 1443.97C1811.43 1439.79 1814.47 1436.49 1818.29 1434.07C1822.1 1431.65 1826.35 1430.44 1831.05 1430.44C1835.81 1430.44 1840.03 1431.65 1843.7 1434.07C1847.44 1436.42 1850.37 1439.64 1852.5 1443.75C1854.7 1447.78 1855.8 1452.37 1855.8 1457.5V1459.92H1813.67C1813.96 1463.59 1814.95 1466.89 1816.64 1469.82C1818.4 1472.68 1820.67 1474.95 1823.46 1476.64C1826.32 1478.25 1829.43 1479.06 1832.81 1479.06C1835.59 1479.06 1838.27 1478.58 1840.84 1477.63C1843.48 1476.6 1845.71 1475.25 1847.55 1473.56L1852.61 1478.95C1849.53 1481.37 1846.34 1483.17 1843.04 1484.34C1839.74 1485.51 1836.22 1486.1 1832.48 1486.1ZM1813.89 1454.2H1847.88C1847.51 1450.97 1846.52 1448.11 1844.91 1445.62C1843.37 1443.05 1841.39 1441.04 1838.97 1439.57C1836.62 1438.1 1833.98 1437.37 1831.05 1437.37C1828.11 1437.37 1825.44 1438.1 1823.02 1439.57C1820.6 1440.96 1818.58 1442.94 1816.97 1445.51C1815.43 1448 1814.4 1450.9 1813.89 1454.2ZM1906.4 1485V1437.92H1894.41V1431.32H1906.4V1420.1C1906.4 1414.82 1907.79 1410.75 1910.58 1407.89C1913.37 1405.03 1917.33 1403.6 1922.46 1403.6C1923.93 1403.6 1925.25 1403.67 1926.42 1403.82C1927.67 1403.97 1928.77 1404.22 1929.72 1404.59V1411.85C1928.55 1411.48 1927.48 1411.23 1926.53 1411.08C1925.58 1410.93 1924.48 1410.86 1923.23 1410.86C1920.15 1410.86 1917.91 1411.63 1916.52 1413.17C1915.13 1414.64 1914.43 1416.98 1914.43 1420.21V1431.32H1929.72V1437.92H1914.43V1485H1906.4ZM1942.38 1485V1431.32H1950.41V1485H1942.38ZM1946.45 1418.01C1944.84 1418.01 1943.45 1417.46 1942.27 1416.36C1941.17 1415.19 1940.62 1413.83 1940.62 1412.29C1940.62 1410.75 1941.17 1409.43 1942.27 1408.33C1943.45 1407.16 1944.84 1406.57 1946.45 1406.57C1948.07 1406.57 1949.42 1407.16 1950.52 1408.33C1951.7 1409.43 1952.28 1410.75 1952.28 1412.29C1952.28 1413.83 1951.7 1415.19 1950.52 1416.36C1949.42 1417.46 1948.07 1418.01 1946.45 1418.01ZM1969.08 1485V1405.58L1977.11 1403.93V1485H1969.08ZM2019.97 1486.1C2014.98 1486.1 2010.47 1484.89 2006.44 1482.47C2002.41 1479.98 1999.22 1476.64 1996.87 1472.46C1994.52 1468.21 1993.35 1463.44 1993.35 1458.16C1993.35 1452.88 1994.45 1448.15 1996.65 1443.97C1998.92 1439.79 2001.97 1436.49 2005.78 1434.07C2009.59 1431.65 2013.85 1430.44 2018.54 1430.44C2023.31 1430.44 2027.52 1431.65 2031.19 1434.07C2034.93 1436.42 2037.86 1439.64 2039.99 1443.75C2042.19 1447.78 2043.29 1452.37 2043.29 1457.5V1459.92H2001.16C2001.45 1463.59 2002.44 1466.89 2004.13 1469.82C2005.89 1472.68 2008.16 1474.95 2010.95 1476.64C2013.81 1478.25 2016.93 1479.06 2020.3 1479.06C2023.09 1479.06 2025.76 1478.58 2028.33 1477.63C2030.97 1476.6 2033.21 1475.25 2035.04 1473.56L2040.1 1478.95C2037.02 1481.37 2033.83 1483.17 2030.53 1484.34C2027.23 1485.51 2023.71 1486.1 2019.97 1486.1ZM2001.38 1454.2H2035.37C2035 1450.97 2034.01 1448.11 2032.4 1445.62C2030.86 1443.05 2028.88 1441.04 2026.46 1439.57C2024.11 1438.1 2021.47 1437.37 2018.54 1437.37C2015.61 1437.37 2012.93 1438.1 2010.51 1439.57C2008.09 1440.96 2006.07 1442.94 2004.46 1445.51C2002.92 1448 2001.89 1450.9 2001.38 1454.2ZM2111.17 1485.88C2106.18 1485.88 2101.67 1484.67 2097.64 1482.25C2093.68 1479.76 2090.52 1476.42 2088.18 1472.24C2085.83 1467.99 2084.66 1463.29 2084.66 1458.16C2084.66 1452.95 2085.83 1448.26 2088.18 1444.08C2090.52 1439.9 2093.68 1436.6 2097.64 1434.18C2101.67 1431.69 2106.18 1430.44 2111.17 1430.44C2115.13 1430.44 2118.9 1431.17 2122.5 1432.64C2126.09 1434.11 2129.21 1436.16 2131.85 1438.8L2126.68 1444.41C2124.77 1442.28 2122.46 1440.63 2119.75 1439.46C2117.03 1438.29 2114.28 1437.7 2111.5 1437.7C2107.98 1437.7 2104.79 1438.62 2101.93 1440.45C2099.14 1442.28 2096.9 1444.74 2095.22 1447.82C2093.53 1450.9 2092.69 1454.35 2092.69 1458.16C2092.69 1461.97 2093.53 1465.42 2095.22 1468.5C2096.9 1471.58 2099.14 1474.04 2101.93 1475.87C2104.79 1477.7 2107.98 1478.62 2111.5 1478.62C2114.28 1478.62 2117.03 1478.03 2119.75 1476.86C2122.46 1475.61 2124.77 1473.96 2126.68 1471.91L2131.85 1477.52C2129.21 1480.16 2126.09 1482.21 2122.5 1483.68C2118.9 1485.15 2115.13 1485.88 2111.17 1485.88ZM2161.85 1485.99C2158.04 1485.99 2154.67 1485.29 2151.73 1483.9C2148.8 1482.51 2146.49 1480.6 2144.8 1478.18C2143.19 1475.69 2142.38 1472.83 2142.38 1469.6C2142.38 1466.37 2143.23 1463.59 2144.91 1461.24C2146.6 1458.82 2148.95 1456.95 2151.95 1455.63C2154.96 1454.31 2158.48 1453.65 2162.51 1453.65C2165.59 1453.65 2168.49 1453.98 2171.2 1454.64C2173.99 1455.3 2176.56 1456.36 2178.9 1457.83V1450.46C2178.9 1446.06 2177.73 1442.76 2175.38 1440.56C2173.04 1438.29 2169.59 1437.15 2165.04 1437.15C2162.55 1437.15 2159.98 1437.52 2157.34 1438.25C2154.78 1438.98 2151.92 1440.16 2148.76 1441.77L2145.79 1435.61C2152.98 1432.16 2159.73 1430.44 2166.03 1430.44C2172.71 1430.44 2177.84 1432.09 2181.43 1435.39C2185.03 1438.62 2186.82 1443.27 2186.82 1449.36V1485H2178.9V1478.73C2176.56 1481.15 2173.95 1482.98 2171.09 1484.23C2168.23 1485.4 2165.15 1485.99 2161.85 1485.99ZM2150.08 1469.38C2150.08 1472.53 2151.29 1475.06 2153.71 1476.97C2156.21 1478.88 2159.47 1479.83 2163.5 1479.83C2166.51 1479.83 2169.26 1479.32 2171.75 1478.29C2174.32 1477.26 2176.7 1475.72 2178.9 1473.67V1463.33C2176.63 1462.01 2174.28 1461.06 2171.86 1460.47C2169.44 1459.81 2166.73 1459.48 2163.72 1459.48C2159.62 1459.48 2156.32 1460.4 2153.82 1462.23C2151.33 1463.99 2150.08 1466.37 2150.08 1469.38ZM2205.34 1485V1431.32H2213.37V1440.01C2215.43 1436.78 2217.88 1434.4 2220.74 1432.86C2223.6 1431.25 2226.83 1430.44 2230.42 1430.44C2234.31 1430.44 2237.68 1431.28 2240.54 1432.97C2243.48 1434.58 2245.75 1436.89 2247.36 1439.9C2249.05 1442.83 2249.89 1446.28 2249.89 1450.24V1485H2241.86V1452.55C2241.86 1447.78 2240.54 1444.04 2237.9 1441.33C2235.34 1438.54 2231.85 1437.15 2227.45 1437.15C2224.52 1437.15 2221.84 1437.85 2219.42 1439.24C2217 1440.63 2214.99 1442.69 2213.37 1445.4V1485H2205.34ZM2296.11 1485V1406.35L2304.14 1404.7V1438.69C2306.19 1436.12 2308.69 1434.14 2311.62 1432.75C2314.55 1431.36 2317.82 1430.66 2321.41 1430.66C2326.1 1430.66 2330.28 1431.91 2333.95 1434.4C2337.69 1436.82 2340.66 1440.12 2342.86 1444.3C2345.06 1448.41 2346.16 1453.03 2346.16 1458.16C2346.16 1463.29 2345.02 1467.95 2342.75 1472.13C2340.55 1476.31 2337.54 1479.65 2333.73 1482.14C2329.99 1484.56 2325.74 1485.77 2320.97 1485.77C2317.6 1485.77 2314.44 1485.11 2311.51 1483.79C2308.65 1482.4 2306.16 1480.45 2304.03 1477.96V1485H2296.11ZM2319.43 1478.84C2323.02 1478.84 2326.21 1477.96 2329 1476.2C2331.86 1474.37 2334.1 1471.91 2335.71 1468.83C2337.4 1465.68 2338.24 1462.16 2338.24 1458.27C2338.24 1454.31 2337.4 1450.79 2335.71 1447.71C2334.1 1444.63 2331.86 1442.21 2329 1440.45C2326.21 1438.62 2323.02 1437.7 2319.43 1437.7C2316.28 1437.7 2313.34 1438.36 2310.63 1439.68C2307.99 1440.93 2305.83 1442.72 2304.14 1445.07V1471.36C2305.9 1473.71 2308.1 1475.54 2310.74 1476.86C2313.45 1478.18 2316.35 1478.84 2319.43 1478.84ZM2386.64 1486.1C2381.65 1486.1 2377.14 1484.89 2373.11 1482.47C2369.08 1479.98 2365.89 1476.64 2363.54 1472.46C2361.19 1468.21 2360.02 1463.44 2360.02 1458.16C2360.02 1452.88 2361.12 1448.15 2363.32 1443.97C2365.59 1439.79 2368.64 1436.49 2372.45 1434.07C2376.26 1431.65 2380.52 1430.44 2385.21 1430.44C2389.98 1430.44 2394.19 1431.65 2397.86 1434.07C2401.6 1436.42 2404.53 1439.64 2406.66 1443.75C2408.86 1447.78 2409.96 1452.37 2409.96 1457.5V1459.92H2367.83C2368.12 1463.59 2369.11 1466.89 2370.8 1469.82C2372.56 1472.68 2374.83 1474.95 2377.62 1476.64C2380.48 1478.25 2383.6 1479.06 2386.97 1479.06C2389.76 1479.06 2392.43 1478.58 2395 1477.63C2397.64 1476.6 2399.88 1475.25 2401.71 1473.56L2406.77 1478.95C2403.69 1481.37 2400.5 1483.17 2397.2 1484.34C2393.9 1485.51 2390.38 1486.1 2386.64 1486.1ZM2368.05 1454.2H2402.04C2401.67 1450.97 2400.68 1448.11 2399.07 1445.62C2397.53 1443.05 2395.55 1441.04 2393.13 1439.57C2390.78 1438.1 2388.14 1437.37 2385.21 1437.37C2382.28 1437.37 2379.6 1438.1 2377.18 1439.57C2374.76 1440.96 2372.74 1442.94 2371.13 1445.51C2369.59 1448 2368.56 1450.9 2368.05 1454.2ZM2472.89 1485.88C2469.07 1485.88 2465.7 1485.04 2462.77 1483.35C2459.83 1481.66 2457.52 1479.32 2455.84 1476.31C2454.22 1473.3 2453.42 1469.86 2453.42 1465.97V1431.32H2461.56V1463.66C2461.56 1468.43 2462.84 1472.2 2465.41 1474.99C2467.97 1477.78 2471.46 1479.17 2475.86 1479.17C2478.86 1479.17 2481.54 1478.47 2483.89 1477.08C2486.31 1475.69 2488.32 1473.67 2489.94 1471.03V1431.32H2497.97V1485H2489.94V1476.31C2487.88 1479.46 2485.43 1481.85 2482.57 1483.46C2479.78 1485.07 2476.55 1485.88 2472.89 1485.88ZM2516.64 1507.99V1431.32H2524.56V1439.02C2526.61 1436.31 2529.11 1434.25 2532.04 1432.86C2535.05 1431.39 2538.35 1430.66 2541.94 1430.66C2546.63 1430.66 2550.81 1431.91 2554.48 1434.4C2558.22 1436.82 2561.19 1440.12 2563.39 1444.3C2565.59 1448.41 2566.69 1453.03 2566.69 1458.16C2566.69 1463.29 2565.55 1467.95 2563.28 1472.13C2561.08 1476.31 2558.07 1479.65 2554.26 1482.14C2550.52 1484.56 2546.27 1485.77 2541.5 1485.77C2538.13 1485.77 2535.01 1485.15 2532.15 1483.9C2529.29 1482.58 2526.8 1480.71 2524.67 1478.29V1507.99H2516.64ZM2539.96 1478.84C2543.55 1478.84 2546.74 1477.96 2549.53 1476.2C2552.39 1474.37 2554.63 1471.91 2556.24 1468.83C2557.93 1465.68 2558.77 1462.16 2558.77 1458.27C2558.77 1454.31 2557.93 1450.79 2556.24 1447.71C2554.63 1444.63 2552.39 1442.21 2549.53 1440.45C2546.74 1438.62 2543.55 1437.7 2539.96 1437.7C2536.81 1437.7 2533.87 1438.36 2531.16 1439.68C2528.52 1440.93 2526.36 1442.72 2524.67 1445.07V1471.36C2526.43 1473.71 2528.63 1475.54 2531.27 1476.86C2533.98 1478.18 2536.88 1478.84 2539.96 1478.84ZM2582.97 1485V1405.58L2591 1403.93V1485H2582.97ZM2633.42 1485.88C2628.44 1485.88 2623.96 1484.67 2620 1482.25C2616.04 1479.83 2612.93 1476.53 2610.65 1472.35C2608.38 1468.17 2607.24 1463.44 2607.24 1458.16C2607.24 1452.88 2608.38 1448.15 2610.65 1443.97C2612.93 1439.79 2616.04 1436.49 2620 1434.07C2623.96 1431.65 2628.44 1430.44 2633.42 1430.44C2638.34 1430.44 2642.74 1431.65 2646.62 1434.07C2650.58 1436.49 2653.7 1439.79 2655.97 1443.97C2658.25 1448.15 2659.38 1452.88 2659.38 1458.16C2659.38 1463.44 2658.25 1468.17 2655.97 1472.35C2653.7 1476.53 2650.58 1479.83 2646.62 1482.25C2642.74 1484.67 2638.34 1485.88 2633.42 1485.88ZM2633.31 1478.84C2636.83 1478.84 2639.95 1477.96 2642.66 1476.2C2645.38 1474.37 2647.5 1471.87 2649.04 1468.72C2650.66 1465.57 2651.46 1462.05 2651.46 1458.16C2651.46 1454.2 2650.66 1450.68 2649.04 1447.6C2647.5 1444.45 2645.38 1441.99 2642.66 1440.23C2639.95 1438.4 2636.83 1437.48 2633.31 1437.48C2629.79 1437.48 2626.68 1438.4 2623.96 1440.23C2621.25 1441.99 2619.09 1444.45 2617.47 1447.6C2615.93 1450.68 2615.16 1454.2 2615.16 1458.16C2615.16 1462.05 2615.93 1465.57 2617.47 1468.72C2619.09 1471.87 2621.25 1474.37 2623.96 1476.2C2626.68 1477.96 2629.79 1478.84 2633.31 1478.84ZM2692.82 1485.99C2689 1485.99 2685.63 1485.29 2682.7 1483.9C2679.76 1482.51 2677.45 1480.6 2675.77 1478.18C2674.15 1475.69 2673.35 1472.83 2673.35 1469.6C2673.35 1466.37 2674.19 1463.59 2675.88 1461.24C2677.56 1458.82 2679.91 1456.95 2682.92 1455.63C2685.92 1454.31 2689.44 1453.65 2693.48 1453.65C2696.56 1453.65 2699.45 1453.98 2702.17 1454.64C2704.95 1455.3 2707.52 1456.36 2709.87 1457.83V1450.46C2709.87 1446.06 2708.69 1442.76 2706.35 1440.56C2704 1438.29 2700.55 1437.15 2696.01 1437.15C2693.51 1437.15 2690.95 1437.52 2688.31 1438.25C2685.74 1438.98 2682.88 1440.16 2679.73 1441.77L2676.76 1435.61C2683.94 1432.16 2690.69 1430.44 2697 1430.44C2703.67 1430.44 2708.8 1432.09 2712.4 1435.39C2715.99 1438.62 2717.79 1443.27 2717.79 1449.36V1485H2709.87V1478.73C2707.52 1481.15 2704.92 1482.98 2702.06 1484.23C2699.2 1485.4 2696.12 1485.99 2692.82 1485.99ZM2681.05 1469.38C2681.05 1472.53 2682.26 1475.06 2684.68 1476.97C2687.17 1478.88 2690.43 1479.83 2694.47 1479.83C2697.47 1479.83 2700.22 1479.32 2702.72 1478.29C2705.28 1477.26 2707.67 1475.72 2709.87 1473.67V1463.33C2707.59 1462.01 2705.25 1461.06 2702.83 1460.47C2700.41 1459.81 2697.69 1459.48 2694.69 1459.48C2690.58 1459.48 2687.28 1460.4 2684.79 1462.23C2682.29 1463.99 2681.05 1466.37 2681.05 1469.38ZM2758.64 1485.77C2754.02 1485.77 2749.84 1484.56 2746.1 1482.14C2742.36 1479.65 2739.39 1476.35 2737.19 1472.24C2734.99 1468.06 2733.89 1463.4 2733.89 1458.27C2733.89 1453.06 2734.99 1448.41 2737.19 1444.3C2739.46 1440.12 2742.5 1436.82 2746.32 1434.4C2750.13 1431.91 2754.38 1430.66 2759.08 1430.66C2762.38 1430.66 2765.46 1431.32 2768.32 1432.64C2771.18 1433.89 2773.67 1435.72 2775.8 1438.14V1405.58L2783.83 1403.93V1485H2775.8V1477.85C2773.74 1480.42 2771.25 1482.4 2768.32 1483.79C2765.38 1485.11 2762.16 1485.77 2758.64 1485.77ZM2760.62 1478.73C2763.77 1478.73 2766.67 1478.11 2769.31 1476.86C2771.95 1475.61 2774.11 1473.85 2775.8 1471.58V1444.96C2774.04 1442.69 2771.8 1440.93 2769.09 1439.68C2766.45 1438.36 2763.62 1437.7 2760.62 1437.7C2757.02 1437.7 2753.8 1438.58 2750.94 1440.34C2748.15 1442.1 2745.91 1444.52 2744.23 1447.6C2742.61 1450.68 2741.81 1454.2 2741.81 1458.16C2741.81 1462.05 2742.61 1465.57 2744.23 1468.72C2745.91 1471.8 2748.15 1474.26 2750.94 1476.09C2753.8 1477.85 2757.02 1478.73 2760.62 1478.73ZM2826.73 1486.1C2821.74 1486.1 2817.23 1484.89 2813.2 1482.47C2809.17 1479.98 2805.98 1476.64 2803.63 1472.46C2801.28 1468.21 2800.11 1463.44 2800.11 1458.16C2800.11 1452.88 2801.21 1448.15 2803.41 1443.97C2805.68 1439.79 2808.73 1436.49 2812.54 1434.07C2816.35 1431.65 2820.61 1430.44 2825.3 1430.44C2830.07 1430.44 2834.28 1431.65 2837.95 1434.07C2841.69 1436.42 2844.62 1439.64 2846.75 1443.75C2848.95 1447.78 2850.05 1452.37 2850.05 1457.5V1459.92H2807.92C2808.21 1463.59 2809.2 1466.89 2810.89 1469.82C2812.65 1472.68 2814.92 1474.95 2817.71 1476.64C2820.57 1478.25 2823.69 1479.06 2827.06 1479.06C2829.85 1479.06 2832.52 1478.58 2835.09 1477.63C2837.73 1476.6 2839.97 1475.25 2841.8 1473.56L2846.86 1478.95C2843.78 1481.37 2840.59 1483.17 2837.29 1484.34C2833.99 1485.51 2830.47 1486.1 2826.73 1486.1ZM2808.14 1454.2H2842.13C2841.76 1450.97 2840.77 1448.11 2839.16 1445.62C2837.62 1443.05 2835.64 1441.04 2833.22 1439.57C2830.87 1438.1 2828.23 1437.37 2825.3 1437.37C2822.37 1437.37 2819.69 1438.1 2817.27 1439.57C2814.85 1440.96 2812.83 1442.94 2811.22 1445.51C2809.68 1448 2808.65 1450.9 2808.14 1454.2ZM2888.29 1485.77C2883.67 1485.77 2879.49 1484.56 2875.75 1482.14C2872.01 1479.65 2869.04 1476.35 2866.84 1472.24C2864.64 1468.06 2863.54 1463.4 2863.54 1458.27C2863.54 1453.06 2864.64 1448.41 2866.84 1444.3C2869.12 1440.12 2872.16 1436.82 2875.97 1434.4C2879.79 1431.91 2884.04 1430.66 2888.73 1430.66C2892.03 1430.66 2895.11 1431.32 2897.97 1432.64C2900.83 1433.89 2903.33 1435.72 2905.45 1438.14V1405.58L2913.48 1403.93V1485H2905.45V1477.85C2903.4 1480.42 2900.91 1482.4 2897.97 1483.79C2895.04 1485.11 2891.81 1485.77 2888.29 1485.77ZM2890.27 1478.73C2893.43 1478.73 2896.32 1478.11 2898.96 1476.86C2901.6 1475.61 2903.77 1473.85 2905.45 1471.58V1444.96C2903.69 1442.69 2901.46 1440.93 2898.74 1439.68C2896.1 1438.36 2893.28 1437.7 2890.27 1437.7C2886.68 1437.7 2883.45 1438.58 2880.59 1440.34C2877.81 1442.1 2875.57 1444.52 2873.88 1447.6C2872.27 1450.68 2871.46 1454.2 2871.46 1458.16C2871.46 1462.05 2872.27 1465.57 2873.88 1468.72C2875.57 1471.8 2877.81 1474.26 2880.59 1476.09C2883.45 1477.85 2886.68 1478.73 2890.27 1478.73ZM2976.67 1485.99C2972.86 1485.99 2969.48 1485.29 2966.55 1483.9C2963.62 1482.51 2961.31 1480.6 2959.62 1478.18C2958.01 1475.69 2957.2 1472.83 2957.2 1469.6C2957.2 1466.37 2958.04 1463.59 2959.73 1461.24C2961.42 1458.82 2963.76 1456.95 2966.77 1455.63C2969.78 1454.31 2973.3 1453.65 2977.33 1453.65C2980.41 1453.65 2983.31 1453.98 2986.02 1454.64C2988.81 1455.3 2991.37 1456.36 2993.72 1457.83V1450.46C2993.72 1446.06 2992.55 1442.76 2990.2 1440.56C2987.85 1438.29 2984.41 1437.15 2979.86 1437.15C2977.37 1437.15 2974.8 1437.52 2972.16 1438.25C2969.59 1438.98 2966.73 1440.16 2963.58 1441.77L2960.61 1435.61C2967.8 1432.16 2974.54 1430.44 2980.85 1430.44C2987.52 1430.44 2992.66 1432.09 2996.25 1435.39C2999.84 1438.62 3001.64 1443.27 3001.64 1449.36V1485H2993.72V1478.73C2991.37 1481.15 2988.77 1482.98 2985.91 1484.23C2983.05 1485.4 2979.97 1485.99 2976.67 1485.99ZM2964.9 1469.38C2964.9 1472.53 2966.11 1475.06 2968.53 1476.97C2971.02 1478.88 2974.29 1479.83 2978.32 1479.83C2981.33 1479.83 2984.08 1479.32 2986.57 1478.29C2989.14 1477.26 2991.52 1475.72 2993.72 1473.67V1463.33C2991.45 1462.01 2989.1 1461.06 2986.68 1460.47C2984.26 1459.81 2981.55 1459.48 2978.54 1459.48C2974.43 1459.48 2971.13 1460.4 2968.64 1462.23C2966.15 1463.99 2964.9 1466.37 2964.9 1469.38ZM3039.01 1486.1C3034.39 1486.1 3030.87 1485 3028.45 1482.8C3026.1 1480.53 3024.93 1477.26 3024.93 1473.01V1437.92H3013.82V1431.32H3024.93V1416.58L3032.96 1414.71V1431.32H3048.36V1437.92H3032.96V1470.92C3032.96 1473.78 3033.54 1475.83 3034.72 1477.08C3035.96 1478.33 3037.98 1478.95 3040.77 1478.95C3042.16 1478.95 3043.41 1478.84 3044.51 1478.62C3045.61 1478.4 3046.89 1478.03 3048.36 1477.52V1484.67C3046.89 1485.18 3045.35 1485.55 3043.74 1485.77C3042.12 1485.99 3040.55 1486.1 3039.01 1486.1ZM3106.8 1485.99C3102.99 1485.99 3099.62 1485.29 3096.68 1483.9C3093.75 1482.51 3091.44 1480.6 3089.75 1478.18C3088.14 1475.69 3087.33 1472.83 3087.33 1469.6C3087.33 1466.37 3088.18 1463.59 3089.86 1461.24C3091.55 1458.82 3093.9 1456.95 3096.9 1455.63C3099.91 1454.31 3103.43 1453.65 3107.46 1453.65C3110.54 1453.65 3113.44 1453.98 3116.15 1454.64C3118.94 1455.3 3121.51 1456.36 3123.85 1457.83V1450.46C3123.85 1446.06 3122.68 1442.76 3120.33 1440.56C3117.99 1438.29 3114.54 1437.15 3109.99 1437.15C3107.5 1437.15 3104.93 1437.52 3102.29 1438.25C3099.73 1438.98 3096.87 1440.16 3093.71 1441.77L3090.74 1435.61C3097.93 1432.16 3104.68 1430.44 3110.98 1430.44C3117.66 1430.44 3122.79 1432.09 3126.38 1435.39C3129.98 1438.62 3131.77 1443.27 3131.77 1449.36V1485H3123.85V1478.73C3121.51 1481.15 3118.9 1482.98 3116.04 1484.23C3113.18 1485.4 3110.1 1485.99 3106.8 1485.99ZM3095.03 1469.38C3095.03 1472.53 3096.24 1475.06 3098.66 1476.97C3101.16 1478.88 3104.42 1479.83 3108.45 1479.83C3111.46 1479.83 3114.21 1479.32 3116.7 1478.29C3119.27 1477.26 3121.65 1475.72 3123.85 1473.67V1463.33C3121.58 1462.01 3119.23 1461.06 3116.81 1460.47C3114.39 1459.81 3111.68 1459.48 3108.67 1459.48C3104.57 1459.48 3101.27 1460.4 3098.77 1462.23C3096.28 1463.99 3095.03 1466.37 3095.03 1469.38ZM3198.63 1486.1C3194.01 1486.1 3190.49 1485 3188.07 1482.8C3185.72 1480.53 3184.55 1477.26 3184.55 1473.01V1437.92H3173.44V1431.32H3184.55V1416.58L3192.58 1414.71V1431.32H3207.98V1437.92H3192.58V1470.92C3192.58 1473.78 3193.17 1475.83 3194.34 1477.08C3195.59 1478.33 3197.6 1478.95 3200.39 1478.95C3201.78 1478.95 3203.03 1478.84 3204.13 1478.62C3205.23 1478.4 3206.51 1478.03 3207.98 1477.52V1484.67C3206.51 1485.18 3204.97 1485.55 3203.36 1485.77C3201.75 1485.99 3200.17 1486.1 3198.63 1486.1ZM3221.83 1485V1431.32H3229.86V1485H3221.83ZM3225.9 1418.01C3224.29 1418.01 3222.89 1417.46 3221.72 1416.36C3220.62 1415.19 3220.07 1413.83 3220.07 1412.29C3220.07 1410.75 3220.62 1409.43 3221.72 1408.33C3222.89 1407.16 3224.29 1406.57 3225.9 1406.57C3227.51 1406.57 3228.87 1407.16 3229.97 1408.33C3231.14 1409.43 3231.73 1410.75 3231.73 1412.29C3231.73 1413.83 3231.14 1415.19 3229.97 1416.36C3228.87 1417.46 3227.51 1418.01 3225.9 1418.01ZM3248.53 1485V1431.32H3256.56V1439.68C3258.61 1436.6 3260.96 1434.29 3263.6 1432.75C3266.24 1431.21 3269.21 1430.44 3272.51 1430.44C3276.32 1430.44 3279.66 1431.39 3282.52 1433.3C3285.38 1435.13 3287.54 1437.66 3289.01 1440.89C3291.13 1437.44 3293.66 1434.84 3296.6 1433.08C3299.6 1431.32 3303.05 1430.44 3306.94 1430.44C3310.53 1430.44 3313.68 1431.28 3316.4 1432.97C3319.18 1434.66 3321.35 1437 3322.89 1440.01C3324.43 1442.94 3325.2 1446.39 3325.2 1450.35V1485H3317.17V1452.33C3317.17 1447.64 3315.99 1443.93 3313.65 1441.22C3311.3 1438.51 3308.07 1437.15 3303.97 1437.15C3301.18 1437.15 3298.65 1437.85 3296.38 1439.24C3294.18 1440.63 3292.23 1442.76 3290.55 1445.62C3290.69 1446.35 3290.8 1447.12 3290.88 1447.93C3290.95 1448.74 3290.99 1449.54 3290.99 1450.35V1485H3282.96V1452.33C3282.96 1447.64 3281.75 1443.93 3279.33 1441.22C3276.98 1438.51 3273.75 1437.15 3269.65 1437.15C3264.15 1437.15 3259.78 1439.79 3256.56 1445.07V1485H3248.53ZM3367.85 1486.1C3362.86 1486.1 3358.35 1484.89 3354.32 1482.47C3350.28 1479.98 3347.09 1476.64 3344.75 1472.46C3342.4 1468.21 3341.23 1463.44 3341.23 1458.16C3341.23 1452.88 3342.33 1448.15 3344.53 1443.97C3346.8 1439.79 3349.84 1436.49 3353.66 1434.07C3357.47 1431.65 3361.72 1430.44 3366.42 1430.44C3371.18 1430.44 3375.4 1431.65 3379.07 1434.07C3382.81 1436.42 3385.74 1439.64 3387.87 1443.75C3390.07 1447.78 3391.17 1452.37 3391.17 1457.5V1459.92H3349.04C3349.33 1463.59 3350.32 1466.89 3352.01 1469.82C3353.77 1472.68 3356.04 1474.95 3358.83 1476.64C3361.69 1478.25 3364.8 1479.06 3368.18 1479.06C3370.96 1479.06 3373.64 1478.58 3376.21 1477.63C3378.85 1476.6 3381.08 1475.25 3382.92 1473.56L3387.98 1478.95C3384.9 1481.37 3381.71 1483.17 3378.41 1484.34C3375.11 1485.51 3371.59 1486.1 3367.85 1486.1ZM3349.26 1454.2H3383.25C3382.88 1450.97 3381.89 1448.11 3380.28 1445.62C3378.74 1443.05 3376.76 1441.04 3374.34 1439.57C3371.99 1438.1 3369.35 1437.37 3366.42 1437.37C3363.48 1437.37 3360.81 1438.1 3358.39 1439.57C3355.97 1440.96 3353.95 1442.94 3352.34 1445.51C3350.8 1448 3349.77 1450.9 3349.26 1454.2Z" fill="black"/>
</svg>
