<svg width="14" height="19" viewBox="0 0 19 24" fill="none" xmlns="http://www.w3.org/2000/svg">
<path d="M0.0227273 24V0.727272H9.20455C10.9621 0.727272 12.4621 1.04167 13.7045 1.67045C14.9545 2.29167 15.9053 3.17424 16.5568 4.31818C17.2159 5.45454 17.5455 6.79167 17.5455 8.32955C17.5455 9.875 17.2121 11.2045 16.5455 12.3182C15.8788 13.4242 14.9129 14.2727 13.6477 14.8636C12.3902 15.4545 10.8674 15.75 9.07955 15.75H2.93182V11.7955H8.28409C9.22348 11.7955 10.0038 11.6667 10.625 11.4091C11.2462 11.1515 11.7083 10.7652 12.0114 10.25C12.322 9.73485 12.4773 9.0947 12.4773 8.32955C12.4773 7.55682 12.322 6.9053 12.0114 6.375C11.7083 5.8447 11.2424 5.44318 10.6136 5.17045C9.99242 4.89015 9.20833 4.75 8.26136 4.75H4.94318V24H0.0227273ZM12.5909 13.4091L18.375 24H12.9432L7.28409 13.4091H12.5909Z" fill="url(#paint0_linear_2854_522)"/>
<defs>
<linearGradient id="paint0_linear_2854_522" x1="-8" y1="30.5" x2="20.5" y2="4" gradientUnits="userSpaceOnUse">
<stop stop-color="#004FBA"/>
<stop offset="0.963203" stop-color="#002454"/>
</linearGradient>
</defs>
</svg>
