<svg width="667" height="667" viewBox="0 0 667 667" fill="none" xmlns="http://www.w3.org/2000/svg">
<path fill-rule="evenodd" clip-rule="evenodd" d="M17.3067 194.091C1.98682e-06 225.709 0 263.85 0 340.13V390.833C0 520.86 3.97364e-06 585.877 39.0523 626.27C78.105 666.667 140.959 666.667 266.667 666.667H400C525.707 666.667 588.563 666.667 627.613 626.27C666.667 585.877 666.667 520.86 666.667 390.833V340.13C666.667 263.85 666.667 225.709 649.36 194.091C632.053 162.474 600.437 142.85 537.2 103.604L470.533 62.229C403.687 20.743 370.263 0 333.333 0C296.403 0 262.98 20.743 196.134 62.229L129.468 103.604C66.2317 142.85 34.6133 162.474 17.3067 194.091ZM233.333 508.333C219.526 508.333 208.333 519.527 208.333 533.333C208.333 547.14 219.526 558.333 233.333 558.333H433.333C447.14 558.333 458.333 547.14 458.333 533.333C458.333 519.527 447.14 508.333 433.333 508.333H233.333Z" fill="url(#paint0_linear_2887_524)"/>
<defs>
<linearGradient id="paint0_linear_2887_524" x1="83" y1="568" x2="667" y2="173.5" gradientUnits="userSpaceOnUse">
<stop stop-color="#004FBA"/>
<stop offset="1" stop-color="#002454"/>
</linearGradient>
</defs>
</svg>
