<?xml version="1.0" encoding="utf-8"?>
<!-- Generator: Adobe Illustrator 27.5.0, SVG Export Plug-In . SVG Version: 6.00 Build 0)  -->
<svg version="1.1" xmlns="http://www.w3.org/2000/svg" xmlns:xlink="http://www.w3.org/1999/xlink" x="0px" y="0px"
	 viewBox="0 0 750 500" style="enable-background:new 0 0 750 500;" xml:space="preserve">
<g id="BACKGROUND">
	<rect style="fill:#CFDFF6;" width="750" height="500"/>
	<rect y="406.09" style="fill:#FFFFFF;" width="750" height="93.91"/>
</g>
<g id="OBJECTS">
	<g>
		<rect x="409.998" y="286.761" style="fill:#4E5A72;" width="10.187" height="154.522"/>
		<g>
			<path style="fill:#21304F;" d="M414.46,441.283c0.216-8.966-0.031-17.974,0.01-26.94c0.051-10.505,0.072-21.01,0.092-31.505
				c0.041-21.011,0.123-42.011,0.133-63.011c0-5.899,0.031-11.788,0-17.676c-0.031-5.099,0.174-10.28-0.133-15.389h-1.21
				c-0.246,4.432-0.082,8.915-0.113,13.337c-0.041,5.294-0.021,10.587-0.021,15.881c0,10.505,0.01,21,0.072,31.505
				c0.133,21,0.031,42.011,0.144,63.011c0.021,5.889,0.041,11.777,0.031,17.676c-0.01,4.37-0.061,8.741,0.01,13.111H414.46z"/>
		</g>
	</g>
	<g>
		<rect x="458.218" y="286.761" style="fill:#4E5A72;" width="10.187" height="154.522"/>
		<g>
			<path style="fill:#21304F;" d="M462.681,441.283c0.215-8.966-0.031-17.974,0.01-26.94c0.051-10.505,0.072-21.01,0.092-31.505
				c0.041-21.011,0.123-42.011,0.133-63.011c0-5.899,0.031-11.788,0-17.676c-0.031-5.099,0.174-10.28-0.133-15.389h-1.211
				c-0.246,4.432-0.082,8.915-0.113,13.337c-0.041,5.294-0.021,10.587-0.021,15.881c0,10.505,0.01,21,0.072,31.505
				c0.133,21,0.031,42.011,0.144,63.011c0.02,5.889,0.041,11.777,0.031,17.676c-0.01,4.37-0.062,8.741,0.01,13.111H462.681z"/>
		</g>
	</g>
	<g>
		<rect x="375.224" y="58.159" style="fill:#FFFFFF;" width="254.708" height="166.975"/>
		<g>
			<path style="fill:#8FB4EA;" d="M601.783,183.108H401.834c0,0,2.883-21.729,14.609-29.833c0.154-0.102,0.308-0.205,0.462-0.308
				c2.052-1.324,3.939-2.37,5.694-3.211c11.193-5.365,17.246-2.596,26.776-12.495c11.039-11.459,16.137-42.452,44.576-52.219
				c28.448-9.756,42.452,12.311,44.155,19.102c1.641,6.597,0.492,24.037,10.557,29.679c0.287,0.164,0.595,0.318,0.903,0.462
				c1.539,0.708,3.314,1.334,5.253,1.898c7.653,2.236,17.912,3.724,26.899,7.386c2.144,0.872,4.217,1.867,6.156,3.026
				c2.647,1.58,5.068,3.457,7.12,5.735C608.144,166.98,601.783,183.108,601.783,183.108z"/>
			<rect x="416.443" y="84.231" style="fill:#F05C37;" width="6.155" height="98.877"/>
			<rect x="449.498" y="154.701" style="fill:#F05C37;" width="6.155" height="28.407"/>
			<rect x="482.552" y="100.646" style="fill:#F05C37;" width="6.155" height="82.462"/>
			<rect x="515.607" y="111.684" style="fill:#F05C37;" width="6.155" height="71.424"/>
			<rect x="548.662" y="103.477" style="fill:#F05C37;" width="6.155" height="79.631"/>
			<rect x="581.716" y="92.151" style="fill:#F05C37;" width="6.156" height="90.957"/>
		</g>
		<rect x="402.573" y="192.871" style="fill:#B8BDC7;" width="47.545" height="2.335"/>
		<rect x="402.573" y="199.84" style="fill:#B8BDC7;" width="35.234" height="2.335"/>
	</g>
	<g>
		<g>
			<g>
				<path style="fill:#4E5A72;" d="M323.431,415.168c-0.01,0-0.031,0-0.082,0.01c-0.349,0.041-1.857,0.236-3.991,0.523
					c-1.323,0.174-2.893,0.39-4.576,0.616c-5.796,0.8-12.978,1.826-16.322,2.503l-0.215,0.041c-4.329,0.862-7.181,1.672-7.263,4.863
					c-0.051,1.59,0.021,4.555,0.082,6.473c0.031,1.057,0.062,1.795,0.062,1.816l-4.104,0.154c0-0.092-0.041-1.005-0.072-2.237
					c-0.051-1.96-0.113-4.729-0.072-6.32c0.185-6.699,6.679-8.002,10.557-8.771l0.215-0.041c3.775-0.759,11.972-1.918,18.025-2.739
					c1.364-0.185,2.616-0.349,3.683-0.492c2-0.267,3.355-0.441,3.55-0.472l0.123,0.964L323.431,415.168z"/>
			</g>
			<g>
				<path style="fill:#21304F;" d="M294.589,435.628c0,3.282-2.661,5.943-5.943,5.943c-3.282,0-5.943-2.661-5.943-5.943
					s2.661-5.943,5.943-5.943C291.928,429.685,294.589,432.346,294.589,435.628z"/>
			</g>
			<g>
				<path style="fill:#4E5A72;" d="M351.756,429.931c-0.031,1.231-0.072,2.144-0.072,2.237l-4.093-0.154
					c0-0.02,0.021-0.759,0.051-1.816c0.062-1.918,0.133-4.883,0.082-6.473c-0.082-3.191-2.934-4.001-7.253-4.863l-0.226-0.041
					c-3.693-0.739-12.034-1.918-18.066-2.739c-1.016-0.144-1.97-0.267-2.821-0.38c-1.457-0.195-2.616-0.349-3.324-0.431
					c-0.472-0.061-0.739-0.103-0.759-0.103l0.4-3.108c1.364-0.185,2.616-0.349,3.683-0.492c0.616,0.082,1.293,0.174,2.021,0.267
					c0.103,0.021,0.215,0.031,0.328,0.051c0.431,0.051,0.872,0.113,1.323,0.174c6.043,0.821,14.25,1.98,18.025,2.739l0.215,0.041
					c3.878,0.769,10.372,2.072,10.556,8.771C351.869,425.201,351.807,427.971,351.756,429.931z"/>
			</g>
			<g>
				<circle style="fill:#21304F;" cx="350.061" cy="435.628" r="5.943"/>
			</g>
			<g>
				<path style="fill:#4E5A72;" d="M310.403,434.962c-0.009-0.232-0.213-5.766,0-11.194c0.252-6.415,10.097-11.494,11.219-12.052
					l1.829,3.674c-2.866,1.431-8.824,5.401-8.947,8.539c-0.207,5.267-0.002,10.823,0,10.879L310.403,434.962z"/>
			</g>
			<g>
				<circle style="fill:#21304F;" cx="312.243" cy="435.628" r="5.943"/>
			</g>
		</g>
		<path style="fill:#21304F;" d="M320.816,414.402L320.816,414.402c-1.531,0-2.773-1.242-2.773-2.773v-57.932h5.546v57.932
			C323.589,413.161,322.348,414.402,320.816,414.402z"/>
		<path style="fill:#4E5A72;" d="M358.688,346.15c-11.821,0.242-23.655,0.123-35.478,0.139c-0.605,0.001-1.21,0.004-1.815,0.006
			c-0.605-0.002-1.21-0.005-1.815-0.006c-11.823-0.017-23.657,0.102-35.478-0.139c-0.06,1.13-0.184,6.131,2.137,7.794
			c2.618,1.875,9.353,1.784,13.705,1.967c11.518,0.484,22.995,0.809,34.52,0.353c2.794-0.111,5.587-0.236,8.381-0.353
			c4.352-0.183,11.087-0.092,13.705-1.967C358.873,352.281,358.748,347.281,358.688,346.15z"/>
		<g>
			<g>
				<path style="fill:#77A4E5;" d="M408.612,347.93c-0.708,1.652-67.228,0.472-69.115,0c-0.01,0-0.02,0-0.031-0.01
					c-0.123-0.021-0.421-0.041-0.872-0.051c-8.341-0.308-69.423,0.472-73.896-0.646c-4.74-1.19-4.032-6.155-5.448-16.096
					c-1.426-9.941-5.212-66.284-0.944-79.067c4.258-12.783,9.705-12.547,14.434-13.255c1.354-0.205,6.002-0.503,12.239-0.739
					c1.621-0.061,3.355-0.123,5.16-0.185c15.543-0.441,36.83-0.4,44.853,1.867c12.547,3.56,10.895,9.951,10.895,10.895l1.877,81.108
					l0.01,0.554c0,0,0.523,0,1.467,0c8.433-0.031,50.475-0.072,55.584,1.416C410.51,335.383,409.32,346.268,408.612,347.93z"/>
				<g>
					<path style="fill:#21304F;" d="M290.14,237.881c-2.585,0.718-5.119,1.467-7.54,2.78c-3.211,1.734-6.002,4.165-8.053,7.202
						c-4.165,6.145-3.591,13.47-3.457,20.559c0.133,7.284,0.492,14.558,0.862,21.831c0.759,14.691,2.185,29.331,3.16,44.001
						c0,0.041,0.01,0.082,0.01,0.123c0.01,0.215-0.133,0.369-0.318,0.41h-0.01c-0.236,0.082-0.513-0.01-0.554-0.287
						c-1.18-8.505-1.929-17.071-2.565-25.637c-1.128-15.358-1.795-30.757-1.795-46.156c0-3.57,0.113-7.212,1.323-10.608
						c1.026-2.883,2.698-5.499,4.801-7.715c2.401-2.534,5.55-4.801,8.977-6.32C286.601,238.004,288.335,237.943,290.14,237.881z"/>
				</g>
				<g>
					<path style="fill:#21304F;" d="M275.023,334.87c3.096-0.283,6.223-0.336,9.328-0.452c5.573-0.208,11.148-0.389,16.722-0.573
						c12.285-0.405,24.571-0.768,36.86-1.044c2.356-0.053,4.712-0.102,7.069-0.138c0.798-0.012,1.599-0.001,2.396-0.028
						c0.537-0.018,1.111-0.215,1.634-0.207c0.31,0.005,0.31-0.476,0-0.481c-0.344-0.005-0.866-0.176-1.28-0.197
						c-0.68-0.034-1.366-0.002-2.046,0.008c-1.94,0.03-3.879,0.072-5.818,0.117c-5.598,0.13-11.195,0.288-16.793,0.454
						c-12.332,0.367-24.665,0.741-36.99,1.304c-3.689,0.168-7.407,0.254-11.083,0.626C274.638,334.3,274.631,334.906,275.023,334.87
						L275.023,334.87z"/>
				</g>
			</g>
			<g>
				<path style="fill:#21304F;" d="M334.365,332.766c1.179,0.377,2.474,0.759,3.231,1.821c0.839,1.178,0.683,2.887,0.73,4.259
					c0.054,1.585,0.087,3.167,0.076,4.752c-0.011,1.423-0.331,3.183,0.284,4.504c0.127,0.273,0.592,0.272,0.72,0
					c0.355-0.755,0.321-1.537,0.299-2.357c-0.025-0.971-0.067-1.943-0.111-2.914c-0.083-1.875-0.119-3.751-0.225-5.625
					c-0.078-1.382-0.314-2.759-1.341-3.77c-0.926-0.912-2.278-1.421-3.569-1.364C334.061,332.091,333.981,332.643,334.365,332.766
					L334.365,332.766z"/>
			</g>
		</g>
	</g>
	<g>
		<g>
			<g>
				<path style="fill:#4E5A72;" d="M155.172,415.168c-0.01,0-0.031,0-0.082,0.01c-0.349,0.041-1.857,0.236-3.991,0.523
					c-1.323,0.174-2.893,0.39-4.576,0.616c-5.796,0.8-12.978,1.826-16.322,2.503l-0.215,0.041c-4.329,0.862-7.181,1.672-7.263,4.863
					c-0.051,1.59,0.021,4.555,0.082,6.473c0.031,1.057,0.062,1.795,0.062,1.816l-4.104,0.154c0-0.092-0.041-1.005-0.072-2.237
					c-0.051-1.96-0.113-4.729-0.072-6.32c0.185-6.699,6.679-8.002,10.557-8.771l0.215-0.041c3.775-0.759,11.972-1.918,18.025-2.739
					c1.365-0.185,2.616-0.349,3.683-0.492c2.001-0.267,3.355-0.441,3.55-0.472l0.123,0.964L155.172,415.168z"/>
			</g>
			<g>
				<circle style="fill:#21304F;" cx="120.387" cy="435.628" r="5.943"/>
			</g>
			<g>
				<path style="fill:#4E5A72;" d="M183.497,429.931c-0.031,1.231-0.072,2.144-0.072,2.237l-4.093-0.154
					c0-0.02,0.02-0.759,0.051-1.816c0.062-1.918,0.133-4.883,0.082-6.473c-0.082-3.191-2.934-4.001-7.253-4.863l-0.226-0.041
					c-3.693-0.739-12.034-1.918-18.066-2.739c-1.016-0.144-1.97-0.267-2.821-0.38c-1.457-0.195-2.616-0.349-3.324-0.431
					c-0.472-0.061-0.739-0.103-0.759-0.103l0.4-3.108c1.365-0.185,2.616-0.349,3.683-0.492c0.616,0.082,1.293,0.174,2.021,0.267
					c0.102,0.021,0.215,0.031,0.328,0.051c0.431,0.051,0.872,0.113,1.323,0.174c6.043,0.821,14.25,1.98,18.025,2.739l0.215,0.041
					c3.878,0.769,10.372,2.072,10.557,8.771C183.61,425.201,183.548,427.971,183.497,429.931z"/>
			</g>
			<g>
				<circle style="fill:#21304F;" cx="181.801" cy="435.628" r="5.943"/>
			</g>
			<g>
				<path style="fill:#4E5A72;" d="M142.144,434.962c-0.009-0.232-0.213-5.766,0-11.194c0.252-6.415,10.097-11.494,11.219-12.052
					l1.829,3.674c-2.866,1.431-8.824,5.401-8.947,8.539c-0.207,5.267-0.002,10.823,0,10.879L142.144,434.962z"/>
			</g>
			<g>
				<circle style="fill:#21304F;" cx="143.984" cy="435.628" r="5.943"/>
			</g>
		</g>
		<path style="fill:#21304F;" d="M152.557,414.402L152.557,414.402c-1.531,0-2.773-1.242-2.773-2.773v-57.932h5.546v57.932
			C155.33,413.161,154.088,414.402,152.557,414.402z"/>
		<path style="fill:#4E5A72;" d="M190.429,346.15c-11.821,0.242-23.655,0.123-35.478,0.139c-0.605,0.001-1.21,0.004-1.815,0.006
			c-0.605-0.002-1.21-0.005-1.815-0.006c-11.823-0.017-23.657,0.102-35.478-0.139c-0.059,1.13-0.184,6.131,2.137,7.794
			c2.618,1.875,9.353,1.784,13.705,1.967c11.519,0.484,22.995,0.809,34.52,0.353c2.794-0.111,5.587-0.236,8.381-0.353
			c4.352-0.183,11.087-0.092,13.705-1.967C190.614,352.281,190.489,347.281,190.429,346.15z"/>
		<g>
			<g>
				<path style="fill:#77A4E5;" d="M240.353,347.93c-0.708,1.652-67.228,0.472-69.115,0c-0.01,0-0.02,0-0.031-0.01
					c-0.123-0.021-0.421-0.041-0.872-0.051c-8.341-0.308-69.423,0.472-73.896-0.646c-4.74-1.19-4.032-6.155-5.448-16.096
					c-1.426-9.941-5.212-66.284-0.944-79.067c4.258-12.783,9.705-12.547,14.435-13.255c1.354-0.205,6.002-0.503,12.239-0.739
					c1.621-0.061,3.355-0.123,5.16-0.185c15.542-0.441,36.83-0.4,44.853,1.867c12.547,3.56,10.895,9.951,10.895,10.895l1.877,81.108
					l0.01,0.554c0,0,0.523,0,1.467,0c8.433-0.031,50.475-0.072,55.584,1.416C242.251,335.383,241.061,346.268,240.353,347.93z"/>
				<g>
					<path style="fill:#21304F;" d="M121.881,237.881c-2.585,0.718-5.119,1.467-7.54,2.78c-3.211,1.734-6.001,4.165-8.053,7.202
						c-4.165,6.145-3.591,13.47-3.457,20.559c0.133,7.284,0.493,14.558,0.862,21.831c0.759,14.691,2.185,29.331,3.16,44.001
						c0,0.041,0.01,0.082,0.01,0.123c0.01,0.215-0.133,0.369-0.318,0.41h-0.01c-0.236,0.082-0.513-0.01-0.554-0.287
						c-1.18-8.505-1.929-17.071-2.565-25.637c-1.129-15.358-1.795-30.757-1.795-46.156c0-3.57,0.113-7.212,1.323-10.608
						c1.026-2.883,2.698-5.499,4.801-7.715c2.401-2.534,5.55-4.801,8.977-6.32C118.342,238.004,120.075,237.943,121.881,237.881z"/>
				</g>
				<g>
					<path style="fill:#21304F;" d="M106.764,334.87c3.096-0.283,6.223-0.336,9.328-0.452c5.573-0.208,11.148-0.389,16.722-0.573
						c12.285-0.405,24.571-0.768,36.86-1.044c2.356-0.053,4.712-0.102,7.069-0.138c0.798-0.012,1.599-0.001,2.396-0.028
						c0.537-0.018,1.111-0.215,1.634-0.207c0.31,0.005,0.31-0.476,0-0.481c-0.344-0.005-0.866-0.176-1.28-0.197
						c-0.68-0.034-1.366-0.002-2.046,0.008c-1.939,0.03-3.879,0.072-5.818,0.117c-5.598,0.13-11.195,0.288-16.793,0.454
						c-12.332,0.367-24.666,0.741-36.99,1.304c-3.689,0.168-7.407,0.254-11.083,0.626C106.379,334.3,106.372,334.906,106.764,334.87
						L106.764,334.87z"/>
				</g>
			</g>
			<g>
				<path style="fill:#21304F;" d="M166.106,332.766c1.179,0.377,2.474,0.759,3.231,1.821c0.839,1.178,0.683,2.887,0.73,4.259
					c0.054,1.585,0.087,3.167,0.076,4.752c-0.011,1.423-0.331,3.183,0.284,4.504c0.127,0.273,0.592,0.272,0.72,0
					c0.355-0.755,0.321-1.537,0.3-2.357c-0.025-0.971-0.067-1.943-0.111-2.914c-0.083-1.875-0.119-3.751-0.225-5.625
					c-0.078-1.382-0.314-2.759-1.341-3.77c-0.926-0.912-2.278-1.421-3.569-1.364C165.802,332.091,165.722,332.643,166.106,332.766
					L166.106,332.766z"/>
			</g>
		</g>
	</g>
	<g>
		<path style="fill:#2A478B;" d="M217.706,416.808c0,0-2.972,5.448-3.538,8.349c-0.566,2.901,1.981,15.212,2.689,15.707
			c0.707,0.495,2.052,0.283,2.193-0.071c0.141-0.354,0.283-9.481,0.283-9.481s8.207,8.349,10.4,9.127
			c2.193,0.778,12.099,1.273,15.778-0.212c3.679-1.486,1.203-4.457-2.052-6.863c-2.746-2.03-11.25-9.41-13.018-11.179
			S218.343,415.393,217.706,416.808z"/>
		<path style="fill:#2A478B;" d="M184.43,414.96c0,0-4.201,4.567-5.452,7.245c-1.251,2.678-1.757,15.239-1.19,15.891
			c0.567,0.652,1.922,0.771,2.145,0.462c0.223-0.309,2.568-9.131,2.568-9.131s5.813,10.363,7.753,11.648
			c1.94,1.286,11.563,3.885,15.493,3.333c3.929-0.552,2.245-4.034-0.331-7.155c-2.174-2.633-8.64-11.851-9.928-13.995
			C194.199,421.114,185.391,413.741,184.43,414.96z"/>
		<path style="fill:#21304F;" d="M161.476,171.966c-2.694-2.168-6.007-3.48-9.489-3.419c-0.933,0.016-1.929,0.135-2.917,0.351
			c-1.542-1.656-3.485-2.82-5.79-3.265c-2.909-0.561-5.915,0.076-8.438,1.601c-2.615,1.58-4.611,4.057-5.575,6.958
			c-0.505,1.52-0.735,3.15-0.696,4.75c0.026,1.037,0.037,2.5,0.595,3.499c-5.253-1.056-11.333,1.787-14.854,5.515
			c-2.28,2.414-3.794,5.697-3.55,9.068c0.203,2.802,1.897,5.703,4.359,7.104c0.787,0.448,1.783,0.766,2.826,0.905
			c-2.047,3.074-2.59,7.033-0.622,10.544c1.559,2.783,4.503,4.169,7.552,4.676c3.188,0.53,6.277,0.644,9.426-0.199
			c1.231-0.329,2.449-0.774,3.585-1.364c0.102,0.884,0.347,1.757,0.79,2.576c1.661,3.07,5.204,2.589,8.112,1.913
			c6.662-1.549,12.373-6.003,16.137-11.63c4.004-5.985,6.208-13.79,6.203-20.978C169.128,183.636,167.065,176.465,161.476,171.966z"
			/>
		<path style="fill:#FFFFFF;" d="M172.283,200.731c0,0,8.632,8.632,12.735,17.122c4.104,8.49,5.377,12.877,2.406,24.905
			c-2.972,12.028-13.018,47.545-13.018,47.545l-51.79,0.991c0,0-0.707-17.971,4.528-41.178
			c5.236-23.207,17.688-38.772,23.914-45.281c6.226-6.509,14.434-8.349,16.414-7.5C169.453,198.184,172.283,200.731,172.283,200.731
			z"/>
		<g>
			<path style="fill:#F7A995;" d="M227.477,138.142c0,0.021-0.01,0.031-0.01,0.041c-0.062,0.585-0.185,1.252-0.349,1.949
				c-0.975,4.104-3.396,9.551-3.396,9.551s0.277,17.02,0.492,21.051c0.215,4.032-6.648,2.688-6.648,2.688
				c-1.847-0.215-5.314-2.975-5.314-2.975s2.072-19.985,2.144-21.472c0.072-1.488-1.857-7.038-2.247-9.623
				c-0.257-1.682,1.221-3.016,1.631-3.334l0.01-0.01c0.061-0.061,0.092-0.082,0.092-0.082s0-0.041,0.01-0.113
				c0.062-1.221,0.677-11.983,1.549-14.25c0.913-2.411,1.908-0.78,2.124,1.621c0.205,2.411,0.103,9.838,0.103,9.838
				s0.595-0.657,1.744-1.057h0.01l0.646-0.164c0.595-0.123,1.303-0.154,2.124-0.021c0.523,0.082,0.995,0.195,1.436,0.328
				c0.4,0.113,0.769,0.267,1.108,0.441c1.364,0.708,2.206,1.898,2.698,4.011C227.529,136.973,227.539,137.517,227.477,138.142z"/>
			<g>
				<path style="fill:#21304F;" d="M213.895,135.814c1.877-0.298,3.796-0.472,5.704-0.257c0.769,0.082,1.518,0.257,2.195,0.575
					c0.164,0.072,0.328,0.144,0.482,0.246c0.595,0.339,1.108,0.79,1.518,1.405c0.174,0.257,0.318,0.534,0.4,0.831
					c0.113,0.318,0.144,0.657,0.082,0.985c-0.021,0.092-0.041,0.174-0.072,0.267c-0.246,0.667-0.923,1.005-1.611,0.985
					c-0.954-0.041-1.631-0.821-2.452-1.19c-0.451-0.205-1.005-0.246-1.488-0.277c-0.472-0.031-0.913,0.082-1.375,0.092
					c-0.267,0-0.339-0.359-0.133-0.492c0.554-0.339,1.323-0.257,1.918-0.113c0.41,0.103,0.769,0.318,1.159,0.482
					c0.328,0.133,0.667,0.215,0.995,0.349c0.616,0.246,1.59,0.79,2.185,0.174c0.595-0.626-0.103-1.621-0.533-2.113
					c-1.046-1.2-2.575-1.621-4.114-1.703c-1.611-0.092-3.262-0.031-4.873,0.031c-0.051,0-0.092-0.031-0.103-0.072L213.895,135.814z"
					/>
			</g>
			<g>
				<path style="fill:#21304F;" d="M220.07,131.802c0.657,0.277,1.221,0.739,1.631,1.334c0.4,0.574,0.657,1.293,0.687,2.001
					c0.021,0.328-0.01,0.677-0.062,1.005c-0.02,0.072-0.031,0.154-0.051,0.236c-0.031,0.123-0.062,0.256-0.103,0.38
					c-0.164-0.113-0.328-0.215-0.472-0.287c-0.01-0.01-0.01-0.01-0.02-0.01c0.041-0.113,0.082-0.215,0.113-0.328
					c0-0.01,0.01-0.031,0.01-0.041c0.082-0.318,0.103-0.636,0.082-0.954c-0.051-0.626-0.215-1.221-0.554-1.744
					c-0.451-0.677-1.149-1.17-1.919-1.426L220.07,131.802z"/>
			</g>
			<g>
				<path style="fill:#21304F;" d="M225.415,137.414c-0.133,0.462-0.308,0.903-0.513,1.334c-0.144,0.277-0.308,0.698-0.626,0.852
					c-0.051,0.021-0.103,0.041-0.164,0.051c-0.082,0.01-0.164-0.021-0.185-0.113c-0.092-0.328,0.123-0.636,0.267-0.923
					c0.021-0.031,0.041-0.051,0.051-0.082c0.195-0.369,0.359-0.759,0.472-1.159c0.257-0.821,0.4-1.641,0.328-2.503
					c-0.092-1.139-0.646-2.031-1.416-2.76c0.4,0.113,0.769,0.267,1.108,0.441c0.441,0.575,0.739,1.252,0.841,2.042
					C225.703,135.516,225.662,136.511,225.415,137.414z"/>
			</g>
			<g>
				<path style="fill:#21304F;" d="M219.494,139.45c0.954,0.375,1.597,1.155,1.852,2.137c0.301,1.16,0.182,2.344,0.317,3.522
					c0.018,0.158,0.229,0.2,0.283,0.038c0.411-1.22,0.434-2.652,0.005-3.877c-0.393-1.121-1.19-1.905-2.354-2.192
					C219.351,139.019,219.268,139.362,219.494,139.45L219.494,139.45z"/>
			</g>
			<g>
				<path style="fill:#21304F;" d="M227.467,138.183c-0.062,0.585-0.185,1.252-0.349,1.949c-0.215,0.287-0.472,0.533-0.78,0.687
					c-0.523,0.267-1.262,0.195-1.518-0.4c-0.123-0.277,0.226-0.492,0.41-0.236c0.123,0.164,0.4,0.226,0.595,0.195
					c0.267-0.041,0.492-0.257,0.667-0.451c0.339-0.39,0.616-0.882,0.831-1.365C227.375,138.44,227.426,138.317,227.467,138.183z"/>
			</g>
		</g>
		<path style="fill:#FFFFFF;" d="M170.019,201.438c0,0,8.915-0.99,20.66-4.953c11.745-3.962,16.556-7.075,17.547-9.339
			c0.991-2.264,3.75-18.042,3.75-18.042s3.184,0.495,7.146,0.637c3.962,0.142,5.519-0.283,5.519-0.283s-0.318,11.886-0.743,19.952
			c-0.424,8.066-2.653,9.941-3.502,11.356c-0.849,1.415-12.028,11.568-20.235,16.238c-8.207,4.67-15.141,8.207-15.141,8.207
			L170.019,201.438z"/>
		<g>
			<g>
				<path style="fill:#99BBEB;" d="M212.488,174.742c2.117,0.924,4.437,1.474,6.745,1.611c1.063,0.063,2.128,0.017,3.18-0.15
					c0.574-0.091,1.142-0.221,1.695-0.398c0.415-0.133,0.891-0.257,1.084-0.679c0.059-0.129,0.012-0.262-0.126-0.31
					c-0.407-0.14-0.789,0.061-1.179,0.187c-0.483,0.156-0.979,0.276-1.479,0.364c-1.045,0.185-2.117,0.222-3.175,0.16
					c-2.237-0.13-4.356-0.809-6.524-1.31C212.41,174.148,212.177,174.606,212.488,174.742L212.488,174.742z"/>
			</g>
		</g>
		<path style="fill:#F7A995;" d="M226.975,298.51c0,0,13.16,2.547,18.042,14.221c4.882,11.674-0.637,37.357-5.519,60.493
			c-4.882,23.136-10.613,44.574-10.613,44.574s9.835,10.825,9.551,14.433c-0.218,2.783-5.872,2.123-12.028-2.972
			c-6.155-5.094-8.986-11.462-8.986-11.462s3.821-73.653,1.91-82.992c-1.91-9.339-13.16-32.9-9.976-35.447
			C212.541,296.812,226.975,298.51,226.975,298.51z"/>
		<path style="fill:#F7A995;" d="M182.082,151.523c0,0,3.608,3.821,6.049,13.372c2.441,9.551,4.033,18.254,3.078,22.181
			c-0.955,3.927-4.245,6.58-11.886,8.172c-7.641,1.592-12.311-0.212-14.646-3.29c-2.335-3.078-5.094-11.143-5.519-19.421
			C158.734,164.258,178.792,147.596,182.082,151.523z"/>
		<path style="fill:#F7A995;" d="M165.314,263.913c0,0,16.441,4.474,23.136,6.792c8.278,2.865,12.205,4.245,12.948,6.155
			c0.743,1.91-41.496,2.123-41.921,1.38c-0.424-0.743-1.592-4.351,0.425-8.809C161.918,264.974,165.314,263.913,165.314,263.913z"/>
		<path style="fill:#F7A995;" d="M186.434,333.957c0,0,4.882,2.123,5.094,2.972c0.212,0.849-7.005,80.657-7.005,80.657
			s1.273,7.535,5.306,12.629c4.033,5.094,7.315,6.945,9.127,5.413c2.759-2.335-3.608-15.601-3.608-15.601
			s18.466-56.566,23.136-69.514c4.67-12.948,6.368-24.409,4.245-33.324c-2.123-8.915-15.919-19.315-22.924-18.678
			C192.801,299.147,176.033,321.222,186.434,333.957z"/>
		<path style="fill:#21304F;" d="M161.918,177.524c0,0,9.339-7.004,15.601-14.327c6.262-7.323,7.429-11.143,7.429-11.143
			s-5.412-5.837-18.679-2.865c-13.266,2.972-16.98,15.866-16.556,22.977c0.425,7.111,1.963,12.205,6.474,15.707
			c4.786,3.717,6.686,1.221,6.686,1.221L161.918,177.524z"/>
		<path style="fill:#F7A995;" d="M164.387,180.182c-0.337-1.184-0.785-0.433-0.913-1.739c-0.102-1.039-0.934-1.093-0.955-1.097
			c-0.542-0.503-1.939-1.17-2.546-1.46c-1.082-0.517-2.333-0.901-3.543-0.846c-1.298,0.059-2.446,0.615-3.011,1.814
			c-0.271,0.576-0.499,1.087-0.584,1.725c-0.087,0.652-0.125,1.335-0.058,1.989c0.251,2.478,1.861,4.333,4.211,5.084
			c2.349,0.751,5.5,0.642,6.922-1.695C164.591,182.84,164.743,181.434,164.387,180.182z"/>
		<path style="fill:#F7A995;" d="M172.499,219.127c-6.863-3.755-13.45-17.266-13.45-17.83c0-0.564,2.76-17.471,2.76-17.471
			c4.032-4.391,14.722,7.776,14.722,7.776s-0.739,1.764-1.529,3.806c-0.103,0.246-0.195,0.503-0.287,0.759
			c-0.749,1.949-1.457,3.98-1.58,4.914c-0.287,2.052,0.708,2.267,2.893,5.099c2.195,2.831,5.027,6.371,5.242,10.475
			C181.476,220.759,179.363,222.872,172.499,219.127z"/>
		<g>
			<g>
				<path style="fill:#49556F;" d="M149.281,171.19c-0.401,0.972-0.5,2.049-0.43,3.091c0.036,0.544,0.128,1.072,0.251,1.602
					c0.119,0.514,0.249,1.039,0.571,1.466c0.1,0.132,0.384,0.163,0.414-0.054c0.069-0.491-0.023-0.944-0.117-1.427
					c-0.099-0.51-0.19-1.023-0.262-1.538c-0.14-1.002-0.096-1.997,0.265-2.949C150.14,170.943,149.454,170.771,149.281,171.19
					L149.281,171.19z"/>
			</g>
		</g>
		<g>
			<g>
				<path style="fill:#49556F;" d="M150.026,181.151c0.094,0.435,0.236,0.855,0.414,1.262c0.087,0.198,0.182,0.387,0.304,0.566
					c0.126,0.184,0.294,0.328,0.463,0.472c0.104,0.088,0.3,0.008,0.248-0.144c-0.071-0.208-0.122-0.419-0.208-0.621
					c-0.073-0.172-0.157-0.349-0.225-0.517c-0.157-0.385-0.272-0.787-0.348-1.195c-0.033-0.178-0.249-0.28-0.413-0.235
					C150.077,180.788,149.988,180.973,150.026,181.151L150.026,181.151z"/>
			</g>
		</g>
		<g>
			<g>
				<path style="fill:#21304F;" d="M183.941,165.952c-0.095,1.743,0.113,3.496,0.325,5.224c0.097,0.792,0.21,1.578,0.357,2.362
					c0.102,0.543,0.111,1.344,0.626,1.689c0.476,0.319,1.21,0.23,1.745,0.259c0.421,0.023,0.841,0.056,1.261,0.091
					c0.275,0.023,1.044-0.037,1.251,0.134c0.658,0.542-1.255,1.678-1.614,1.911c-0.671,0.435-1.413,0.73-2.092,1.141
					c-0.374,0.226-0.133,0.846,0.302,0.717c0.782-0.231,1.52-0.722,2.181-1.19c0.634-0.448,1.346-0.953,1.813-1.579
					c0.278-0.373,0.447-0.89,0.125-1.293c-0.396-0.495-1.287-0.422-1.84-0.454c-0.462-0.027-0.924-0.04-1.387-0.046
					c-0.481-0.007-1.085,0.124-1.421-0.249c-0.351-0.388-0.325-1.083-0.391-1.592c-0.058-0.452-0.121-0.903-0.183-1.354
					c-0.264-1.938-0.35-3.894-0.632-5.828C184.33,165.642,183.953,165.721,183.941,165.952L183.941,165.952z"/>
			</g>
		</g>
		<path style="fill:#21304F;" d="M181.279,173.396c-0.06-0.668-0.293-1.314-0.848-1.727c-0.896-0.667-2.111,0.014-2.466,0.949
			c-0.185,0.487-0.237,1.06-0.196,1.577c0.042,0.536,0.208,1.068,0.617,1.439c0.387,0.351,0.903,0.523,1.418,0.396
			C180.889,175.762,181.369,174.393,181.279,173.396z"/>
		<path style="fill:#21304F;" d="M189.153,170.964c-0.145-0.585-0.441-1.126-0.991-1.416c-0.887-0.469-1.872,0.303-2.058,1.182
			c-0.097,0.458-0.065,0.974,0.043,1.427c0.111,0.47,0.331,0.92,0.746,1.192c0.392,0.258,0.874,0.34,1.314,0.156
			C189.133,173.117,189.37,171.837,189.153,170.964z"/>
		<g>
			<g>
				<path style="fill:#21304F;" d="M179.429,168.552c-0.315-0.023-0.663-0.009-0.968,0.077c-0.316,0.089-0.632,0.25-0.904,0.432
					c-0.302,0.202-0.563,0.473-0.736,0.795c-0.09,0.168-0.172,0.365-0.188,0.558c-0.008,0.094,0.029-0.072-0.009,0.028
					c-0.013,0.035-0.02,0.071-0.026,0.107c-0.019,0.104,0.001,0.197,0.028,0.296c0.047,0.169,0.225,0.218,0.37,0.151
					c0.005-0.002,0.099-0.045,0.033-0.016c0.064-0.028,0.115-0.051,0.168-0.102c0.022-0.021,0.042-0.044,0.062-0.067
					c0.068-0.078-0.051,0.03,0.031-0.021c0.046-0.028,0.09-0.068,0.132-0.103c0.054-0.044-0.089,0.063,0.004-0.003
					c0.075-0.054,0.148-0.11,0.22-0.169c0.101-0.083-0.096,0.068,0.007-0.005c0.055-0.039,0.107-0.08,0.159-0.123
					c0.024-0.02,0.049-0.04,0.073-0.06c0.103-0.085-0.107,0.076,0,0c0.051-0.036,0.103-0.07,0.154-0.106
					c0.063-0.044,0.123-0.095,0.183-0.144c0.084-0.069-0.081,0.058-0.019,0.015c0.11-0.075,0.218-0.15,0.335-0.215
					c0.055-0.031,0.111-0.059,0.168-0.087c0.033-0.016,0.071-0.029,0.103-0.047c-0.024,0.01-0.047,0.02-0.071,0.03
					c0.035-0.014,0.07-0.028,0.105-0.044c0.069-0.029,0.177-0.061,0.238-0.109c-0.023,0.018-0.1,0.04-0.029,0.012
					c0.035-0.014,0.071-0.027,0.106-0.04c0.13-0.046,0.262-0.082,0.397-0.11c0.231-0.047,0.369-0.302,0.34-0.521
					C179.862,168.721,179.667,168.569,179.429,168.552L179.429,168.552z"/>
			</g>
		</g>
		<g>
			<g>
				<path style="fill:#21304F;" d="M186.927,167.779c0.044-0.012,0.089-0.023,0.134-0.033c0.02-0.004,0.151-0.025,0.071-0.014
					c-0.074,0.01,0.046-0.004,0.07-0.005c0.051-0.003,0.102-0.005,0.154-0.004c0.04,0,0.08,0.002,0.12,0.005
					c0.048,0.003,0.188,0.033,0.024-0.002c0.084,0.018,0.167,0.03,0.25,0.052c0.083,0.022,0.167,0.043,0.25,0.068
					c0.039,0.011,0.077,0.024,0.115,0.038c0.022,0.008,0.043,0.016,0.065,0.024c0.071,0.026-0.131-0.062-0.036-0.015
					c0.155,0.076,0.303,0.165,0.458,0.242c-0.048-0.024,0.207,0.103,0.234,0.09c-0.008,0.004-0.128-0.06-0.042-0.015
					c0.031,0.016,0.059,0.028,0.092,0.042c0.284,0.12,0.619-0.031,0.704-0.332c0.083-0.295-0.146-0.634-0.362-0.821
					c-0.197-0.171-0.43-0.273-0.674-0.359c-0.201-0.071-0.419-0.118-0.632-0.125c-0.468-0.014-0.941,0.101-1.35,0.329
					c-0.199,0.111-0.273,0.367-0.187,0.571C186.476,167.721,186.705,167.839,186.927,167.779L186.927,167.779z"/>
			</g>
		</g>
		<g>
			<g>
				<path style="fill:#21304F;" d="M177.791,183.88c1.637,0.473,3.31,0.802,5.01,0.93c0.859,0.065,1.722,0.085,2.583,0.056
					c0.768-0.026,1.748-0.017,2.439-0.378c0.345-0.18,0.282-0.778-0.112-0.856c-0.737-0.147-1.58,0.056-2.327,0.111
					c-0.829,0.061-1.66,0.083-2.491,0.06c-1.654-0.046-3.299-0.242-4.909-0.623C177.53,183.072,177.341,183.75,177.791,183.88
					L177.791,183.88z"/>
			</g>
		</g>
		<path style="fill:#21304F;" d="M189.83,338.202c0,0-3.608-3.184,1.91-12.735c5.519-9.551,12.948-16.061,25.046-19.103
			c11.789-2.965,23.56-0.212,25.895,1.273c2.335,1.486,2.122,3.821,2.122,3.821s2.123-4.245-5.519-9.764
			c-7.641-5.519-25.471-9.339-39.692-11.25c-14.221-1.91-75.988-1.273-77.049-0.212c-1.061,1.061-5.872,17.051-1.203,28.796
			c3.419,8.598,7.995,12.806,14.363,14.292C142.072,334.806,189.83,338.202,189.83,338.202z"/>
		<g>
			<g>
				<path style="fill:#21304F;" d="M211.473,303.16c5.219,3.404,10.137,8.763,11.875,14.837c1.972,6.893,0.041,13.676-1.686,20.389
					c-0.496,1.93-1.005,3.859-1.527,5.781c-0.544,2.002-1.365,4.015-1.728,6.055c-0.055,0.31,0.383,0.555,0.546,0.23
					c0.812-1.621,1.241-3.501,1.768-5.232c0.563-1.848,1.105-3.694,1.587-5.565c0.871-3.38,1.679-6.777,2.254-10.222
					c1.159-6.942-0.169-13.99-4.657-19.523c-2.243-2.765-4.954-5.581-8.209-7.134C211.441,302.653,211.231,303.002,211.473,303.16
					L211.473,303.16z"/>
			</g>
		</g>
		<g>
			<path style="fill:#21304F;" d="M175.003,195.408c-0.103,0.246-0.195,0.503-0.287,0.759c-0.677-0.092-1.334-0.246-1.98-0.462
				c-1.518-0.513-2.924-1.416-4.052-2.554c-0.205-0.195,0.092-0.482,0.308-0.308c1.17,1.026,2.524,1.723,4.011,2.175
				C173.648,195.214,174.325,195.347,175.003,195.408z"/>
		</g>
		<path style="fill:#FFFFFF;" d="M169.029,263.417c0,0-3.962,1.981-6.226,7.217c-2.264,5.236-2.123,9.339-2.123,9.339
			s-21.367,0.991-24.622,0.424c-3.255-0.566-7.358-1.84-7.641-11.037c-0.283-9.198,7.641-32.263,11.603-42.451
			c3.962-10.188,10.471-17.405,16.132-15.99c5.66,1.415,8.349,8.207,7.358,15.99c-0.99,7.783-7.358,32.546-7.358,32.546
			S168.321,262.568,169.029,263.417z"/>
		<g>
			<g>
				<path style="fill:#99BBEB;" d="M144.922,265.407c2.591-3.392,6.435-5.307,10.728-4.902c2.315,0.218,4.53,1.048,6.703,1.826
					c0.998,0.358,2.001,0.707,2.991,1.086c0.952,0.364,2.043,1.089,3.076,0.966c0.188-0.022,0.27-0.211,0.149-0.36
					c-0.665-0.816-2.046-1.066-2.997-1.432c-1.204-0.462-2.406-0.929-3.622-1.358c-2.373-0.839-4.845-1.67-7.392-1.661
					c-3.988,0.014-7.732,2.453-9.969,5.64C144.443,265.418,144.774,265.6,144.922,265.407L144.922,265.407z"/>
			</g>
		</g>
		<g>
			<g>
				<path style="fill:#99BBEB;" d="M162.436,262.123c-3.079,1.758-5.32,4.671-6.961,7.754c-0.826,1.552-1.428,3.187-1.799,4.907
					c-0.175,0.809-0.289,1.636-0.356,2.462c-0.061,0.746-0.245,1.82,0.215,2.468c0.084,0.118,0.253,0.131,0.334,0
					c0.359-0.58,0.249-1.415,0.295-2.074c0.061-0.882,0.19-1.755,0.368-2.62c0.344-1.675,0.886-3.355,1.612-4.905
					c1.461-3.12,3.851-5.586,6.514-7.707C162.821,262.277,162.61,262.024,162.436,262.123L162.436,262.123z"/>
			</g>
		</g>
		<g>
			<g>
				<path style="fill:#99BBEB;" d="M155.833,258.967c1.702-3.453,2.826-7.221,3.988-10.887c1.187-3.743,2.153-7.52,3.029-11.346
					c0.741-3.237,1.55-6.469,1.903-9.778c0.187-1.756,0.244-3.534,0.04-5.292c-0.165-1.425-0.402-3.156-1.253-4.346
					c-0.265-0.37-0.811-0.147-0.728,0.307c0.3,1.646,0.903,3.127,1.017,4.833c0.11,1.638,0.016,3.283-0.178,4.911
					c-0.396,3.321-1.249,6.564-1.977,9.822c-0.816,3.654-1.645,7.306-2.619,10.922c-0.983,3.645-2.313,7.186-3.275,10.831
					C155.771,258.975,155.818,258.998,155.833,258.967L155.833,258.967z"/>
			</g>
		</g>
		<g>
			<g>
				<path style="fill:#99BBEB;" d="M152.961,210.84c-4.485,1.472-7.277,5.912-9.393,9.851c-2.737,5.092-5.211,10.325-7.078,15.802
					c-2.09,6.132-3.563,12.435-5.227,18.689c-0.853,3.205-1.74,6.404-2.45,9.645c-0.572,2.61-1.133,5.317-0.876,8.003
					c0.235,2.458,1.254,4.772,3.38,6.153c1.115,0.724,2.38,1.098,3.693,1.23c1.531,0.153,3.085,0.36,4.622,0.245
					c0.426-0.032,0.433-0.646,0-0.668c-1.255-0.065-2.543,0.118-3.787-0.075c-1.275-0.197-2.671-0.623-3.776-1.288
					c-2.351-1.414-3.164-4.099-3.218-6.701c-0.057-2.715,0.551-5.415,1.142-8.048c0.657-2.926,1.451-5.816,2.211-8.716
					c1.464-5.585,2.864-11.202,4.645-16.697c1.71-5.276,3.982-10.237,6.482-15.177c2.36-4.663,5.015-9.256,9.911-11.582
					C153.611,211.327,153.35,210.712,152.961,210.84L152.961,210.84z"/>
			</g>
		</g>
		<g>
			<g>
				<path style="fill:#77A4E5;" d="M141.647,280.191c0.191,0.004,0.382,0.009,0.572,0.014c0.092,0.002,0.183,0.004,0.275,0.007
					c0.046,0.001,0.092,0.004,0.137,0.002c0.104-0.005,0.193-0.046,0.287-0.086c0.107-0.046,0.169-0.186,0.169-0.295
					c0-0.109-0.063-0.249-0.169-0.295c-0.077-0.034-0.152-0.068-0.236-0.08c-0.06-0.008-0.117-0.007-0.177-0.005
					c-0.095,0.002-0.191,0.005-0.286,0.007c-0.191,0.004-0.382,0.009-0.572,0.014c-0.188,0.005-0.368,0.162-0.359,0.359
					C141.297,280.03,141.446,280.186,141.647,280.191L141.647,280.191z"/>
			</g>
		</g>
		<g>
			<g>
				<path style="fill:#99BBEB;" d="M178.282,208.414c1.798,2.436,3.616,4.837,5.191,7.425c0.76,1.25,1.456,2.546,2.08,3.869
					c0.36,0.763,0.684,1.541,0.981,2.331c0.234,0.622,0.42,1.407,0.969,1.818c0.107,0.08,0.248-0.01,0.284-0.115
					c0.237-0.7-0.168-1.547-0.417-2.203c-0.268-0.708-0.561-1.408-0.877-2.096c-0.647-1.41-1.419-2.746-2.278-4.037
					c-1.688-2.537-3.688-4.88-5.584-7.261C178.475,207.948,178.131,208.21,178.282,208.414L178.282,208.414z"/>
			</g>
		</g>
	</g>
	<path style="fill:#21304F;" d="M159.831,280.256c0,0-0.283-2.689,1.557-2.83c1.84-0.141,38.914-0.707,38.914-0.707l11.745-39.338
		c0,0,0.424-1.84,2.547-1.84c2.122,0,54.055,0.142,54.055,0.142s1.273-0.283,0.708,1.698c-0.566,1.981-12.877,43.017-12.877,43.017
		L159.831,280.256z"/>
	<g>
		<g>
			<path style="fill:#21304F;" d="M375.602,424.113c0,0-1.849,13.914-1.321,15.76c0.528,1.847,18.47,2.048,29.947,1.784
				c11.477-0.264,12.796,0.923,13.192-1.451c0.396-2.375-1.055-3.562-2.506-3.957c-1.451-0.396-15.962-5.145-15.962-5.145
				s-0.264-6.464-0.923-8.443C397.368,420.683,376.393,422.266,375.602,424.113z"/>
			<g>
				<path style="fill:#4E5A72;" d="M402.385,431.562c-0.991,0.317-1.98,0.806-2.767,1.495c-0.395,0.346-0.784,0.731-1.076,1.169
					c-0.134,0.202-0.252,0.402-0.347,0.625c-0.064,0.15-0.08,0.281-0.096,0.432c-0.014,0.135-0.068,0.257-0.015,0.39
					c0.054,0.135,0.16,0.197,0.306,0.173c0.123-0.02,0.207-0.11,0.302-0.184c0.037-0.025,0.033-0.027-0.011-0.006
					c0.036-0.015,0.073-0.031,0.109-0.046c0.077-0.04,0.134-0.089,0.197-0.148c0.173-0.163,0.324-0.345,0.489-0.516
					c0.327-0.338,0.631-0.689,0.988-0.997c0.699-0.604,1.408-1.114,2.297-1.494c0.221-0.094,0.287-0.412,0.2-0.611
					C402.868,431.631,402.621,431.487,402.385,431.562L402.385,431.562z"/>
			</g>
			<g>
				<path style="fill:#4E5A72;" d="M399.887,430.355c-1.258-0.096-2.491-0.178-3.728,0.138c-0.529,0.135-1.036,0.338-1.488,0.648
					c-0.461,0.316-0.896,0.794-0.994,1.354c-0.049,0.277,0.178,0.601,0.493,0.493c0.431-0.148,0.829-0.382,1.234-0.595
					c0.412-0.217,0.783-0.387,1.23-0.528c1.043-0.327,2.169-0.418,3.253-0.501C400.535,431.315,400.537,430.404,399.887,430.355
					L399.887,430.355z"/>
			</g>
		</g>
		<g>
			<path style="fill:#21304F;" d="M422.038,422.468c0,0-0.242,15.682,0.477,17.464c0.718,1.781,18.583,0.1,29.969-1.366
				c11.386-1.466,12.822-0.424,12.967-2.827c0.145-2.403-1.423-3.431-2.908-3.673c-1.485-0.241-16.413-3.442-16.413-3.442
				s-0.94-6.4-1.804-8.299C443.462,418.426,422.632,420.548,422.038,422.468z"/>
			<g>
				<path style="fill:#4E5A72;" d="M449.592,428.719c-0.952,0.419-1.884,1.009-2.595,1.777c-0.356,0.385-0.703,0.809-0.947,1.275
					c-0.112,0.215-0.208,0.427-0.279,0.658c-0.048,0.156-0.05,0.288-0.05,0.44c0,0.136-0.04,0.263,0.026,0.39
					c0.068,0.129,0.18,0.179,0.322,0.141c0.121-0.033,0.194-0.131,0.281-0.215c0.034-0.029,0.03-0.03-0.012-0.005
					c0.035-0.019,0.069-0.038,0.104-0.057c0.072-0.047,0.124-0.103,0.18-0.168c0.155-0.18,0.286-0.377,0.432-0.564
					c0.289-0.37,0.555-0.751,0.878-1.095c0.632-0.674,1.284-1.256,2.127-1.727c0.21-0.117,0.242-0.44,0.135-0.628
					C450.08,428.737,449.819,428.619,449.592,428.719L449.592,428.719z"/>
			</g>
			<g>
				<path style="fill:#4E5A72;" d="M446.981,427.78c-1.261,0.036-2.496,0.084-3.693,0.528c-0.512,0.19-0.995,0.445-1.411,0.801
					c-0.425,0.363-0.808,0.884-0.847,1.451c-0.019,0.28,0.24,0.579,0.542,0.439c0.413-0.192,0.784-0.466,1.164-0.721
					c0.387-0.259,0.738-0.467,1.168-0.654c1.003-0.435,2.113-0.643,3.183-0.839C447.727,428.667,447.633,427.761,446.981,427.78
					L446.981,427.78z"/>
			</g>
		</g>
		<path style="fill:#2A478B;" d="M362.394,294.69l1.91,3.396c0,0,29.716,2.547,44.998,5.731c15.283,3.184,22.075,8.49,22.711,9.551
			c0.637,1.061,3.731,7.62,5.731,19.74c3.608,21.862,8.278,88.086,8.278,88.086l-25.046,3.396c0,0-22.287-81.507-22.075-83.204
			c0.212-1.698-61.979-20.164-64.951-23.561c-2.972-3.396-5.731-19.528-5.731-19.528L362.394,294.69z"/>
		<path style="fill:#2A478B;" d="M351.145,295.114l3.184,7.217c0,0,34.81,6.155,44.786,9.551
			c9.976,3.396,15.283,8.278,15.283,26.957c0,18.679-10.825,87.874-10.825,87.874l-30.14-0.212c0,0,0.212-33.961,2.972-52.427
			c2.759-18.466,5.306-32.9,5.306-32.9s-84.053-6.368-85.964-7.853c-1.91-1.486-3.821-7.854-4.033-18.466
			c-0.212-10.613,1.061-15.919,1.061-15.919L351.145,295.114z"/>
		<path style="fill:#FFFFFF;" d="M308.693,194.505c0,0-12.311,4.387-19.103,11.603c-7.133,7.579-6.368,48.253-5.519,55.47
			c0.849,7.217,2.547,35.022,4.033,40.541c1.486,5.519,1.486,5.519,1.486,5.519s43.937-7.217,56.036-8.915
			c12.099-1.698,18.466-2.972,18.466-2.972s-7.217-53.064-10.613-68.983c-3.396-15.919-5.943-22.075-9.127-25.258
			c-3.184-3.184-19.952-11.886-23.348-11.462C317.608,190.472,308.693,194.505,308.693,194.505z"/>
		<path style="fill:#FFFFFF;" d="M311.028,188.844c0,0-1.698,0.778-3.325,3.255c-1.627,2.476-2.335,4.387-2.406,7.57
			c-0.071,3.184,0.778,4.882,2.264,6.297c1.486,1.415,6.297,5.094,8.207,6.297c1.91,1.203,4.387,2.335,4.387,2.335
			s1.132-3.255,2.335-5.872c1.203-2.618,2.193-4.387,2.193-4.387s-8.49-2.759-11.108-4.457c-2.618-1.698-3.608-2.335-3.821-4.174
			c-0.212-1.839,1.698-3.255,1.698-3.255L311.028,188.844z"/>
		<path style="fill:#FFFFFF;" d="M343.786,201.863c0,0,3.679,1.981,8.349,10.471c4.67,8.49,14.858,40.753,14.858,40.753
			s-4.104,18.396-7.358,18.396c-3.255,0-9.764-21.65-10.047-22.075S343.786,201.863,343.786,201.863z"/>
		<path style="fill:#F7A995;" d="M331.084,195.778c0,0-0.523,11.039-7.746,11.459c-7.212,0.431-12.947-7.11-12.947-7.11
			l-0.534-24.088l18.682,9.654c0,0-0.051,1.724-0.123,3.591c-0.01,0.339-0.02,0.677-0.031,1.016
			c-0.061,1.58-0.123,3.068-0.164,3.457C328.119,194.721,331.084,195.778,331.084,195.778z"/>
		<path style="fill:#F05C37;" d="M324.542,210.636c0,0,1.557,59.573,1.698,60.564c0.142,0.991,10.754,18.962,14.009,18.82
			c3.255-0.141,5.236-27.31,5.236-27.31l-17.688-53.206L324.542,210.636z"/>
		<path style="fill:#F7A995;" d="M332.041,147.914c0,0,2.016,2.123,4.245,10.931c2.229,8.809,4.351,16.662,2.441,22.605
			c-1.91,5.943-9.021,8.172-14.964,8.809c-5.943,0.637-11.886-7.429-12.735-10.082c-0.849-2.653-4.351-13.266-5.731-17.405
			c-1.38-4.139,0.849-11.674,5.731-14.752C315.91,144.943,330.131,143.457,332.041,147.914z"/>
		<path style="fill:#F7A995;" d="M337.136,267.804c0,0,17.263,5.094,18.962,7.217c1.698,2.122,0.283,3.396,0.283,3.396
			l-23.773-1.274C332.607,277.143,328.787,270.917,337.136,267.804z"/>
		<path style="fill:#21304F;" d="M309.754,173.491c0,0,2.229-0.531,2.759-6.792c0.531-6.262-2.653-11.037-2.653-11.037
			s11.78-0.637,19.315-2.865c7.535-2.229,7.747-3.184,7.747-3.184s-2.229-8.278-8.278-11.78c-6.049-3.502-15.495,1.061-19.74,6.686
			c-4.245,5.625-4.245,7.747-4.245,7.747s-4.351-2.441-6.368,4.882c-2.016,7.323,4.882,13.903,6.474,15.176
			c1.592,1.274,3.821,2.547,3.821,2.547L309.754,173.491z"/>
		<path style="fill:#F7A995;" d="M310.462,172.642c0,0-2.335-4.457-5.306-2.83c-2.972,1.627-0.637,7.854,2.264,8.561
			c2.901,0.708,5.165-1.132,5.165-1.132L310.462,172.642z"/>
		<g>
			<path style="fill:#21304F;" d="M330.957,160.12c0.02,1.785,0.488,3.586,0.812,5.337c0.177,0.959,0.355,1.918,0.532,2.877
				c0.109,0.589,0.168,1.148,0.85,1.251c0.783,0.118,1.68-0.007,2.475-0.003c0.335,0.002,0.704-0.034,1.03,0.064
				c0.326,0.098,0.373,0.114,0.19,0.493c-0.073,0.15-0.183,0.292-0.279,0.427c-0.433,0.612-0.983,1.155-1.596,1.587
				c-0.561,0.395-1.275,0.581-1.673,1.158c-0.143,0.209-0.001,0.538,0.241,0.592c0.748,0.165,1.43-0.331,2.015-0.752
				c0.635-0.456,1.198-0.991,1.676-1.61c0.422-0.546,1.023-1.292,0.778-2.031c-0.195-0.588-0.815-0.828-1.382-0.886
				c-0.905-0.092-1.859,0.076-2.767,0.107c-0.23,0.008-0.469,0.082-0.646-0.098c-0.115-0.117-0.121-0.635-0.149-0.784
				c-0.1-0.522-0.199-1.045-0.299-1.567c-0.392-2.054-0.621-4.261-1.358-6.223C331.32,159.83,330.954,159.846,330.957,160.12
				L330.957,160.12z"/>
		</g>
		<g>
			<path style="fill:#21304F;" d="M328.973,180.387c0.868,0.046,1.749-0.093,2.606-0.234c0.407-0.067,0.813-0.137,1.218-0.21
				c0.474-0.086,0.935-0.13,1.291-0.489c0.277-0.279,0.114-0.674-0.212-0.805c-0.435-0.175-0.881-0.03-1.321,0.058
				c-0.419,0.083-0.839,0.163-1.259,0.239c-0.82,0.148-1.654,0.277-2.444,0.544C328.362,179.655,328.451,180.36,328.973,180.387
				L328.973,180.387z"/>
		</g>
		<path style="fill:#21304F;" d="M328.143,167.595c-0.145-0.655-0.457-1.266-1.061-1.605c-0.973-0.548-2.092,0.282-2.325,1.254
			c-0.121,0.507-0.101,1.082,0.005,1.589c0.11,0.527,0.342,1.033,0.795,1.349c0.429,0.299,0.962,0.404,1.457,0.213
			C328.056,169.992,328.359,168.574,328.143,167.595z"/>
		<path style="fill:#21304F;" d="M336.984,164.842c-0.129-0.586-0.409-1.132-0.949-1.436c-0.871-0.49-1.871,0.252-2.08,1.122
			c-0.108,0.453-0.09,0.967,0.005,1.421c0.098,0.471,0.306,0.924,0.711,1.206c0.384,0.267,0.86,0.362,1.303,0.19
			C336.907,166.985,337.177,165.717,336.984,164.842z"/>
		<g>
			<path style="fill:#21304F;" d="M327.641,160.927c-0.403-0.268-0.919-0.234-1.376-0.18c-0.45,0.053-0.903,0.163-1.338,0.29
				c-0.344,0.1-0.681,0.236-1.013,0.368c-0.249,0.099-0.495,0.203-0.741,0.308c-0.405,0.173-0.683,0.544-0.811,0.956
				c-0.079,0.256-0.041,0.541,0.06,0.781c0.092,0.217,0.266,0.476,0.491,0.574c0.238,0.104,0.421,0.171,0.676,0.189
				c0.23,0.017,0.44-0.032,0.647-0.119c0.194-0.082,0.386-0.169,0.58-0.251c-0.104,0.044-0.209,0.088-0.313,0.132
				c0.522-0.22,1.054-0.417,1.582-0.621c0.658-0.254,1.519-0.47,1.897-1.127C328.249,161.764,328.072,161.212,327.641,160.927
				L327.641,160.927z"/>
		</g>
		<g>
			<path style="fill:#21304F;" d="M333.694,161.241c0.224,0.01,0.429-0.01,0.653-0.041c-0.086,0.012-0.171,0.023-0.257,0.035
				c0.297-0.039,0.598-0.049,0.891-0.116c0.226-0.051,0.454-0.092,0.684-0.124c-0.096,0.013-0.192,0.026-0.288,0.039
				c0.259-0.035,0.518-0.058,0.779-0.068c0.395-0.014,0.846,0.024,1.181-0.226c0.268-0.2,0.444-0.409,0.49-0.75
				c0.04-0.295-0.036-0.662-0.282-0.862c-0.311-0.253-0.619-0.383-1.027-0.385c-0.14-0.001-0.283,0.014-0.422,0.027
				c-0.367,0.033-0.734,0.083-1.096,0.153c-0.698,0.136-1.386,0.387-1.891,0.907c-0.233,0.24-0.301,0.596-0.171,0.904
				C333.07,161.043,333.359,161.225,333.694,161.241L333.694,161.241z"/>
		</g>
		<g>
			<path style="fill:#21304F;" d="M328.416,189.284c-0.01,0.339-0.02,0.677-0.031,1.016c-0.164,0.01-0.328,0.01-0.472,0.01
				c-0.523,0.01-1.046,0-1.58-0.041c-0.934-0.072-1.857-0.226-2.77-0.451c-1.662-0.431-3.283-1.272-4.781-2.113
				c-0.339-0.185-0.041-0.698,0.308-0.513c1.518,0.79,3.057,1.334,4.719,1.724c0.913,0.215,1.847,0.349,2.78,0.38
				c0.503,0.031,1.005,0.021,1.508,0C328.211,189.284,328.314,189.284,328.416,189.284z"/>
		</g>
		<path style="fill:#FFFFFF;" d="M299.92,259.738c0,0,2.83-26.886,0.991-37.074c-1.84-10.188-4.811-18.113-9.198-17.547
			c-4.387,0.566-10.896,12.877-13.443,20.66c-2.547,7.783-6.368,29.433-5.66,38.772c0.708,9.339,4.67,14.575,13.443,15.141
			c8.773,0.566,28.725-2.264,36.791-2.547c8.066-0.283,13.867-0.142,13.867-0.142s-0.431-3.059,1.132-6.368
			c0.975-2.063,2.123-2.83,2.123-2.83s-6.792-2.971-17.971-5.236S299.92,259.738,299.92,259.738z"/>
		<path style="fill:#F05C37;" d="M323.851,204.999c0,0,1.89-1.236,3.417-0.073c2.123,1.618,2.702,4.63,1.467,6.951
			c-0.276,0.518-0.67,0.99-1.19,1.261c-2.276,1.187-4.306-0.84-4.792-2.888C322.392,208.732,322.329,205.994,323.851,204.999z"/>
		<path style="fill:#FFFFFF;" d="M313.575,199.882c-2.462-1.597-3.475-2.268-3.765-3.871c-1.244,0.058-2.49,0.107-3.721,0.263
			c-0.127,0.016-0.252,0.055-0.379,0.076c-0.249,0.982-0.385,2.047-0.413,3.319c-0.071,3.184,0.778,4.882,2.264,6.297
			c1.486,1.415,6.297,5.094,8.207,6.297c1.91,1.203,4.387,2.335,4.387,2.335s1.132-3.255,2.335-5.872
			c1.203-2.618,2.193-4.387,2.193-4.387S316.193,201.58,313.575,199.882z"/>
		<path style="fill:#FFFFFF;" d="M328.362,190.507c0,0,1.415,0.106,3.962,4.21c2.547,4.104,2.406,8.49,1.981,11.037
			c-0.424,2.547-2.901,5.802-2.901,5.802s-1.344-3.184-2.759-4.953s-2.406-2.547-2.406-2.547s2.052-3.113,2.618-6.156
			c0.566-3.042-0.531-5.483-0.531-5.483L328.362,190.507z"/>
		<g>
			<path style="fill:#21304F;" d="M352.889,299.574c0.03,0.25,0.043,0.511,0.103,0.755c0.052,0.213,0.106,0.426,0.159,0.639
				c0.053,0.213,0.127,0.42,0.196,0.628c0.037,0.112,0.07,0.226,0.11,0.337c0.062,0.171,0.136,0.307,0.253,0.447
				c0.126,0.151,0.375,0.174,0.542,0.103c0.189-0.08,0.292-0.252,0.305-0.454c0.016-0.25-0.084-0.489-0.16-0.723
				c-0.071-0.217-0.137-0.435-0.224-0.647c-0.084-0.204-0.167-0.409-0.251-0.613c-0.095-0.231-0.224-0.442-0.347-0.659
				c-0.081-0.142-0.26-0.212-0.416-0.169C353.017,299.258,352.871,299.416,352.889,299.574L352.889,299.574z"/>
		</g>
		<g>
			<path style="fill:#21304F;" d="M354.276,302.815c10.225,1.555,20.501,2.974,30.64,5.03c5.039,1.022,10.051,2.213,14.964,3.732
				c4.343,1.343,9.322,2.602,12.588,5.954c5.727,5.877,4.722,14.639,3.653,22.042c-1.04,7.203-2.205,14.389-3.333,21.579
				c-0.662,4.222-1.327,8.444-1.973,12.669c-0.443,2.896-1.005,5.814-1.18,8.741c-0.034,0.575,0.904,0.712,1.016,0.137
				c1.231-6.362,2.003-12.846,3.028-19.246c1.22-7.61,2.465-15.217,3.574-22.844c1.037-7.137,1.785-15.309-2.468-21.624
				c-2.418-3.59-6.06-5.343-10.004-6.803c-4.984-1.845-10.157-3.201-15.337-4.366c-11.582-2.605-23.332-4.055-35.094-5.546
				C354.043,302.233,353.968,302.769,354.276,302.815L354.276,302.815z"/>
		</g>
		<g>
			<path style="fill:#99BBEB;" d="M305.473,195.845c-2.03,3.894,0.78,8.997,3.465,11.818c1.533,1.611,3.387,2.886,5.26,4.065
				c1.016,0.639,2.07,1.19,3.149,1.716c1.108,0.54,2.195,1.233,3.338,1.685c0.371,0.147,0.691-0.421,0.392-0.673
				c-0.813-0.686-1.903-1.084-2.858-1.534c-0.957-0.451-1.922-0.896-2.84-1.426c-1.832-1.058-3.646-2.234-5.188-3.69
				c-3.2-3.021-5.254-7.324-4.191-11.738C306.074,195.76,305.629,195.545,305.473,195.845L305.473,195.845z"/>
		</g>
		<g>
			<path style="fill:#99BBEB;" d="M321.048,214.772c0.136-1.88,0.717-3.643,1.478-5.358c0.357-0.805,0.732-1.602,1.086-2.408
				c0.328-0.746,0.729-1.483,0.928-2.275c0.042-0.167-0.17-0.238-0.264-0.111c-0.519,0.704-0.896,1.518-1.326,2.279
				c-0.473,0.836-0.893,1.699-1.285,2.577c-0.348,0.778-0.675,1.569-0.92,2.386c-0.284,0.947-0.539,2.029-0.169,2.974
				C320.674,215.086,321.027,215.053,321.048,214.772L321.048,214.772z"/>
		</g>
		<g>
			<path style="fill:#99BBEB;" d="M326.115,204.322c1.094,1.092,2.113,2.276,3.024,3.525c0.454,0.623,0.871,1.273,1.239,1.951
				c0.173,0.319,0.341,0.639,0.491,0.97c0.161,0.355,0.232,0.752,0.559,0.989c0.228,0.165,0.559-0.011,0.627-0.255
				c0.107-0.383-0.131-0.778-0.282-1.125c-0.152-0.35-0.319-0.695-0.506-1.027c-0.398-0.706-0.869-1.371-1.365-2.01
				c-0.989-1.275-2.151-2.385-3.395-3.408C326.236,203.71,325.858,204.066,326.115,204.322L326.115,204.322z"/>
		</g>
		<g>
			<path style="fill:#99BBEB;" d="M331.982,211.576c1.655-2.684,2.511-5.811,2.605-8.958c0.046-1.526-0.096-3.062-0.434-4.551
				c-0.185-0.814-0.43-1.617-0.734-2.395c-0.246-0.628-0.471-1.276-1.115-1.587c-0.125-0.061-0.326-0.021-0.353,0.144
				c-0.101,0.61,0.119,1.059,0.356,1.609c0.313,0.724,0.567,1.475,0.77,2.237c0.384,1.437,0.583,2.917,0.595,4.404
				c0.025,3.087-0.785,6.077-2.127,8.842C331.405,211.611,331.809,211.856,331.982,211.576L331.982,211.576z"/>
		</g>
		<g>
			<path style="fill:#99BBEB;" d="M286.04,211.318c3.538-3.87,8.921-1.396,11.257,2.414c1.304,2.127,1.914,4.59,2.377,7.016
				c0.489,2.56,0.868,5.106,1.013,7.711c0.288,5.14-0.114,10.229-0.367,15.359c-0.117,2.358-0.227,4.717-0.339,7.076
				c-0.117,2.462-0.445,5.04-0.251,7.499c0.03,0.383,0.64,0.532,0.72,0.098c0.372-2.007,0.372-4.131,0.514-6.166
				c0.152-2.19,0.318-4.38,0.438-6.572c0.253-4.611,0.32-9.217,0.218-13.835c-0.097-4.394-0.379-8.924-1.402-13.21
				c-0.833-3.486-2.378-7.017-5.56-8.952c-2.837-1.724-6.856-1.504-8.816,1.408C285.762,211.284,285.943,211.424,286.04,211.318
				L286.04,211.318z"/>
		</g>
		<g>
			<path style="fill:#99BBEB;" d="M295.467,257.787c7.013,1.255,14.034,2.48,21.001,3.971c4.092,0.876,8.165,1.857,12.197,2.978
				c1.918,0.533,3.829,1.098,5.724,1.707c1.701,0.547,3.445,1.413,5.2,1.733c0.382,0.07,0.614-0.415,0.269-0.637
				c-1.096-0.703-2.479-1.06-3.705-1.477c-1.491-0.508-2.995-0.984-4.508-1.422c-3.103-0.898-6.237-1.684-9.384-2.41
				c-6.169-1.422-12.385-2.628-18.626-3.684c-2.696-0.456-5.397-0.852-8.107-1.215C295.272,257.296,295.21,257.741,295.467,257.787
				L295.467,257.787z"/>
		</g>
		<g>
			<path style="fill:#99BBEB;" d="M330.754,277.198c0.134-0.881,0.184-1.776,0.361-2.65c0.173-0.856,0.434-1.696,0.765-2.504
				c0.661-1.612,1.565-3.104,2.623-4.484c0.227-0.297,0.818-1.026,0.34-1.354c-0.499-0.342-1.171,0.493-1.427,0.82
				c-1.034,1.321-1.909,2.787-2.552,4.338c-0.734,1.768-1.375,3.926-0.91,5.835C330.046,277.573,330.691,277.612,330.754,277.198
				L330.754,277.198z"/>
		</g>
		<g>
			<path style="fill:#99BBEB;" d="M346.415,204.662c1.656,4.549,3.293,9.076,4.584,13.746c1.269,4.591,2.278,9.265,3.179,13.941
				c0.903,4.687,1.633,9.402,2.422,14.109c0.386,2.302,0.768,4.605,1.153,6.907c0.422,2.521,0.521,5.359,1.371,7.771
				c0.138,0.391,0.717,0.334,0.732-0.099c0.087-2.446-0.641-5.05-1.006-7.465c-0.351-2.321-0.69-4.644-1.034-6.967
				c-0.724-4.873-1.553-9.736-2.496-14.571c-1.822-9.337-4.087-19.044-8.389-27.59C346.789,204.162,346.304,204.359,346.415,204.662
				L346.415,204.662z"/>
		</g>
		<g>
			<path style="fill:#21304F;" d="M324.893,213.515c0.696,0.31,1.587,0.197,2.296-0.031c0.355-0.114,0.723-0.265,1.024-0.488
				c0.322-0.239,0.672-0.503,0.744-0.92c0.026-0.152-0.092-0.301-0.256-0.256c-0.331,0.09-0.569,0.314-0.859,0.486
				c-0.276,0.164-0.555,0.326-0.857,0.436c-0.293,0.106-0.6,0.184-0.911,0.212c-0.345,0.032-0.687-0.005-1.031,0.009
				C324.775,212.973,324.606,213.387,324.893,213.515L324.893,213.515z"/>
		</g>
	</g>
	<path style="fill:#21304F;" d="M313.726,280.256c0,0-0.283-2.689,1.557-2.83c1.84-0.141,38.914-0.707,38.914-0.707l11.745-39.338
		c0,0,0.424-1.84,2.547-1.84c2.122,0,54.055,0.142,54.055,0.142s1.273-0.283,0.707,1.698c-0.566,1.981-12.877,43.017-12.877,43.017
		L313.726,280.256z"/>
	<g>
		<g>
			<path style="fill:#F7A995;" d="M541.128,157.891c-1.364,0.472-2.636,1.18-3.888,1.908c-1.426,0.821-2.575,2.001-3.344,3.467
				c-0.339,0.616-0.615,1.293-0.81,1.97c-0.021-0.021-0.041-0.041-0.062-0.051c-0.441-0.359-0.872-0.646-1.221-1.098
				c-0.359-0.462-0.636-0.995-0.831-1.549c-0.39-1.077-0.451-2.319,0.041-3.375c1.539-1.416,3.098-1.949,3.098-1.949
				s-1.488-1.549-3.252-4.452c-1.775-2.903-4.463-8.279-2.052-8.566C530.951,143.949,539.363,155.429,541.128,157.891z"/>
			<path style="fill:#F7A995;" d="M553.5,173.064c0,0-1.703,3.119-4.678,5.171c-2.965,2.052-5.796,4.237-5.796,4.237
				s-12.455-10.751-13.942-12.803c-1.108-1.529-1.457-3.396-0.964-5.468c0-0.01-0.01-0.02,0-0.031
				c0.103-0.451,0.246-0.903,0.421-1.375l0.031-0.072v-0.01c0.092-0.236,0.195-0.451,0.308-0.687c0.4-0.841,0.903-1.559,1.436-2.154
				c0.226-0.257,0.462-0.492,0.698-0.708c-0.492,1.057-0.431,2.298-0.041,3.375c0.195,0.554,0.472,1.087,0.831,1.549
				c0.349,0.451,0.78,0.739,1.221,1.098c0.021,0.01,0.041,0.031,0.062,0.051c0.195-0.677,0.472-1.354,0.81-1.97
				c0.769-1.467,1.919-2.647,3.344-3.467c1.252-0.728,2.524-1.436,3.888-1.908c0.226,0.298,0.339,0.462,0.339,0.462
				s0.277-0.154,0.728-0.236c0.01,0,0.01,0,0.021,0c0.841-0.174,2.247-0.133,3.57,1.364C547.837,161.82,553.5,173.064,553.5,173.064
				z"/>
			<g>
				<path style="fill:#21304F;" d="M535.298,161.064c-0.376-0.263-0.716-0.602-0.973-0.982c-0.274-0.404-0.457-0.863-0.488-1.354
					c-0.032-0.51,0.057-1.095,0.244-1.571c0.003-0.007-0.003-0.012-0.001-0.019c-0.003,0-0.005,0-0.008,0
					c-0.166,0.052-0.331,0.107-0.491,0.178c-0.098,0.168-0.187,0.339-0.244,0.537c-0.081,0.279-0.102,0.586-0.089,0.875
					c0.027,0.583,0.211,1.145,0.526,1.636c0.288,0.45,0.661,0.832,1.088,1.151c0.174,0.13,0.365,0.237,0.557,0.34
					c0.195,0.085,0.322,0.014,0.354-0.021c0.114-0.124,0.121-0.207,0.248-0.318C535.825,161.412,535.481,161.192,535.298,161.064z"
					/>
			</g>
			<g>
				<path style="fill:#21304F;" d="M533.382,165.678c-0.072,0.215-0.297,0.164-0.451,0.113c-0.01,0-0.021-0.01-0.031-0.01
					c-0.503-0.164-0.913-0.595-1.241-0.995c-1.077-1.303-1.734-3.221-1.344-4.914c0.226-0.257,0.462-0.492,0.698-0.708
					c-0.492,1.057-0.431,2.298-0.041,3.375c0.195,0.554,0.472,1.087,0.831,1.549c0.349,0.451,0.78,0.739,1.221,1.098
					c0.021,0.01,0.041,0.031,0.062,0.051C533.228,165.339,533.444,165.493,533.382,165.678z"/>
			</g>
			<g>
				<path style="fill:#21304F;" d="M541.117,164.775c-1.016,0.215-1.857,0.739-2.493,1.559c-0.533,0.677-1.293,1.303-2.021,1.754
					c-0.769,0.472-2.011,0.821-2.893,0.421c-0.226-0.103-0.431-0.267-0.595-0.482c-0.041-0.062-0.082-0.123-0.123-0.185
					c-0.306-0.459-0.195-1.126-0.121-1.639c0.16-1.098,0.74-1.997,1.388-2.87c0.683-0.921,1.434-1.808,2.289-2.574
					c0.221-0.198,0.451-0.388,0.692-0.561c1.319-0.948,2.523-1.836,3.887-2.308c0.226,0.298,0.339,0.462,0.339,0.462
					s0.277-0.154,0.728-0.236c-0.882,0.38-1.918,0.831-2.637,1.221c-0.8,0.441-3.293,2.298-4.299,3.816
					c-0.482,0.739-1.036,1.467-1.344,2.298c-0.267,0.759-0.708,2.113,0.339,2.431c0.913,0.277,1.898-0.339,2.575-0.882
					c1.221-0.995,2.503-2.473,4.145-2.719C541.302,164.231,541.446,164.713,541.117,164.775z"/>
			</g>
			<g>
				<path style="fill:#21304F;" d="M528.571,162.713v0.01c-0.01,0.298,0.01,0.605,0.031,0.903c0.072,0.964,0.308,1.929,0.81,2.76
					c0.451,0.749,1.159,1.395,1.99,1.713c0.38,0.144,0.841,0.256,1.252,0.164c0.185-0.041,0.328-0.133,0.462-0.236
					c0.144-0.103,0.277-0.236,0.451-0.318c0.236-0.113,0.523,0.072,0.451,0.349c-0.051,0.195-0.154,0.349-0.308,0.451
					c-0.534,0.431-1.59,0.41-2.124,0.277c-1.016-0.236-1.847-0.903-2.442-1.744c-0.585-0.831-0.893-1.836-1.026-2.842
					c0-0.01-0.01-0.02,0-0.031L528.571,162.713z"/>
			</g>
			<g>
				<path style="fill:#21304F;" d="M537.923,166.176c-0.668,1.181-0.952,2.564-0.965,3.914c-0.013,1.318,0.262,2.708,1.088,3.761
					c0.126,0.161,0.342-0.02,0.311-0.181c-0.233-1.212-0.541-2.397-0.552-3.642c-0.01-1.247,0.287-2.435,0.721-3.597
					C538.66,166.076,538.105,165.856,537.923,166.176L537.923,166.176z"/>
			</g>
		</g>
		<path style="fill:#FFFFFF;" d="M545.89,189.623l-4.776-7.004c0,0,11.462-11.144,12.205-11.25c0.743-0.106,5.413,7.004,5.413,7.004
			L545.89,189.623z"/>
		<path style="fill:#2A478B;" d="M542.458,191.674c0,0,2.972-3.962,9.056-9.622c6.085-5.66,8.349-7.075,8.349-7.075l19.103,18.537
			c0,0,21.367-33.253,22.782-34.81c1.415-1.556,2.547,16.556,2.547,25.895c0,9.339-3.679,28.725-3.679,28.725
			s-9.622,15.848-23.207,15.424C565.206,228.367,542.458,191.674,542.458,191.674z"/>
		<g>
			<path style="fill:#2A478B;" d="M682.025,417.542c0,0,4.525,15.017,4.321,16.927c-0.203,1.91-17.847,5.182-29.199,6.888
				c-11.352,1.706-12.449,3.102-13.245,0.83c-0.797-2.272,0.43-3.69,1.792-4.328c1.362-0.638,16.689-11.004,16.689-11.004
				s-0.948-5.084-0.637-7.146C662.057,417.646,680.929,415.858,682.025,417.542z"/>
			<g>
				<path style="fill:#4E5A72;" d="M657.799,428.336c1.031,0.142,2.088,0.455,2.982,0.999c0.448,0.273,0.898,0.586,1.26,0.967
					c0.167,0.176,0.317,0.353,0.449,0.557c0.089,0.137,0.127,0.263,0.169,0.409c0.037,0.131,0.111,0.242,0.081,0.382
					c-0.03,0.143-0.123,0.221-0.271,0.223c-0.125,0.002-0.223-0.073-0.329-0.13c-0.041-0.018-0.037-0.021,0.01-0.008
					c-0.038-0.009-0.077-0.018-0.116-0.027c-0.082-0.026-0.148-0.065-0.22-0.112c-0.198-0.131-0.379-0.284-0.57-0.424
					c-0.38-0.277-0.74-0.571-1.144-0.813c-0.792-0.475-1.578-0.857-2.519-1.079c-0.234-0.055-0.354-0.357-0.302-0.567
					C657.336,428.487,657.554,428.302,657.799,428.336L657.799,428.336z"/>
			</g>
			<g>
				<path style="fill:#4E5A72;" d="M659.417,426.718c1.223-0.31,2.423-0.602,3.697-0.503c0.544,0.042,1.078,0.156,1.577,0.384
					c0.508,0.232,1.019,0.629,1.211,1.164c0.095,0.264-0.073,0.623-0.401,0.57c-0.45-0.072-0.882-0.234-1.317-0.375
					c-0.443-0.143-0.837-0.248-1.303-0.309c-1.083-0.144-2.208-0.04-3.291,0.064C658.943,427.775,658.785,426.879,659.417,426.718
					L659.417,426.718z"/>
			</g>
		</g>
		<g>
			<path style="fill:#2A478B;" d="M628.243,422.478c0,0,1.773,15.584,1.232,17.427s-18.485,1.915-29.959,1.569
				c-11.474-0.346-12.802,0.831-13.181-1.546c-0.379-2.377,1.081-3.554,2.535-3.939c1.454-0.385,18.385-7.85,18.385-7.85
				s-0.026-5.171,0.648-7.145C608.577,419.019,627.465,420.626,628.243,422.478z"/>
			<g>
				<path style="fill:#4E5A72;" d="M602.481,428.778c0.989,0.324,1.974,0.82,2.756,1.515c0.392,0.348,0.779,0.737,1.067,1.177
					c0.133,0.203,0.249,0.404,0.342,0.628c0.063,0.151,0.078,0.282,0.093,0.433c0.013,0.135,0.066,0.258,0.012,0.39
					c-0.055,0.135-0.161,0.196-0.307,0.171c-0.123-0.021-0.206-0.111-0.301-0.187c-0.036-0.025-0.033-0.027,0.011-0.006
					c-0.036-0.016-0.073-0.031-0.109-0.047c-0.077-0.04-0.134-0.09-0.196-0.15c-0.172-0.164-0.322-0.347-0.485-0.519
					c-0.324-0.34-0.626-0.693-0.981-1.004c-0.695-0.609-1.4-1.124-2.286-1.511c-0.22-0.096-0.284-0.414-0.196-0.612
					C601.998,428.844,602.245,428.701,602.481,428.778L602.481,428.778z"/>
			</g>
			<g>
				<path style="fill:#4E5A72;" d="M604.362,427.475c1.259-0.087,2.492-0.16,3.727,0.164c0.528,0.139,1.033,0.346,1.483,0.659
					c0.458,0.319,0.89,0.801,0.984,1.362c0.047,0.277-0.182,0.6-0.497,0.489c-0.43-0.151-0.826-0.388-1.229-0.604
					c-0.41-0.22-0.78-0.393-1.227-0.537c-1.04-0.335-2.166-0.433-3.25-0.524C603.706,428.43,603.711,427.52,604.362,427.475
					L604.362,427.475z"/>
			</g>
		</g>
		<path style="fill:#21304F;" d="M600.758,258.748c0,0-1.698,50.376-1.415,80.94c0.283,30.565,5.943,85.752,5.943,85.752
			s5.377,1.132,12.735,1.698c7.358,0.566,11.32,0,11.32,0s0-61.13,1.132-87.733c1.132-26.603,5.66-65.375,5.66-65.375l4.245-20.66
			l-39.055,1.132L600.758,258.748z"/>
		<path style="fill:#21304F;" d="M628.776,253.37c0,0,2.83,42.451,9.056,78.393c6.226,35.942,14.151,63.394,17.547,74.148
			c3.396,10.754,6.226,20.094,6.226,20.094l21.792-6.226c0,0-8.207-63.111-9.622-100.468c-1.415-37.357-1.698-64.526-1.698-64.526
			L628.776,253.37z"/>
		<path style="fill:#FFFFFF;" d="M625.115,142.183c0,0-2.653,1.857-3.874,4.776c-1.221,2.919-1.38,6.208-0.053,9.392
			c1.327,3.184,3.237,4.67,3.237,4.67l4.351-6.633c0,0-3.522-3.661-3.927-5.943C624.265,145.155,625.115,142.183,625.115,142.183z"
			/>
		<path style="fill:#FFFFFF;" d="M641.724,139.884c0,0,2.689,0.99,4.528,4.599c1.839,3.608,2.052,5.589,0.99,7.783
			s-6.721,7.358-9.198,8.844c-2.476,1.486-2.406,1.274-2.406,1.274l-5.448-8.136c0,0,6.014-3.042,8.986-4.882
			c2.972-1.84,3.325-3.042,3.538-3.962C642.926,144.483,641.724,139.884,641.724,139.884z"/>
		<path style="fill:#FFFFFF;" d="M652.407,148.374c0,0-7.5-2.547-8.349-2.264c-0.849,0.283-19.245,0.141-22.782,2.83
			c-3.538,2.688-10.613,9.198-10.613,9.198s-5.377,67.639-4.387,81.223c0.991,13.584,1.415,17.971,1.415,17.971l37.923-0.99
			L652.407,148.374z"/>
		<path style="fill:#F7A995;" d="M642.569,150.997c-0.841,1.693-8.915,7.212-12.516,6.474c-3.611-0.749-5.837-3.396-5.417-7.222
			c0.216-1.949,0.154-5.088,0.041-7.694c-0.01-0.298-0.02-0.585-0.041-0.862c-0.092-2.083-0.215-3.652-0.215-3.652
			s18.364-17.399,18.897-15.707C643.841,124.036,643.421,149.294,642.569,150.997z"/>
		<path style="fill:#F7A995;" d="M621.347,99.308c0,0-4.033,9.87-5.943,20.483c-1.91,10.613-2.865,14.646,2.229,18.254
			c5.094,3.608,9.021,4.988,15.813,3.396c6.792-1.592,8.703-9.233,9.552-12.629c0.849-3.396,3.927-19.634,1.91-23.773
			C642.891,100.9,626.759,94.956,621.347,99.308z"/>
		<path style="fill:#F7A995;" d="M700.303,273.559c-0.042-1.864-0.287-2.768-2.068-3.557c-3.522-1.56-7.596-1.544-11.177-0.185
			c-0.537,0.204-0.658,0.752-0.516,1.176c-0.355,2.531-1.399,4.733-2.494,7.03c-0.515,1.079-1.381,2.79-1.915,3.86
			c-0.438,0.878-1.128,1.864-1.255,2.854c-0.215,1.664,1.446,1.823,2.608,1.197c1.38-0.743,3.025-2.653,3.874-4.192
			c-0.487,4.351-1.927,10.159-3.179,14.327c-0.281,0.935-1.7,3.643-0.397,4.347c1.11,0.6,2.779-0.311,3.826-1.09
			c0.809,0.694,2.02,0.774,2.873,0.108c1.262,0.708,2.51-0.226,3.348-1.342c1.016,0.243,1.819-0.687,2.44-1.528
			c1.042-1.412,1.946-2.817,2.529-4.483c1.278-3.648,1.308-7.648,1.459-11.463C700.351,278.264,700.356,275.916,700.303,273.559z"/>
		<path style="fill:#21304F;" d="M631.606,120.494c0.495,0.192,1.029,0.086,1.457-0.213c0.453-0.316,0.685-0.822,0.795-1.349
			c0.106-0.507,0.127-1.083,0.005-1.589c-0.233-0.973-1.352-1.802-2.325-1.254c-0.603,0.34-0.916,0.951-1.061,1.605
			C630.261,118.673,630.564,120.091,631.606,120.494z"/>
		<g>
			<path style="fill:#21304F;" d="M631.094,111.801c0.34-0.373,0.876-0.488,1.357-0.566c0.474-0.077,0.966-0.1,1.446-0.103
				c0.378-0.002,0.76,0.032,1.135,0.065c0.281,0.024,0.56,0.054,0.84,0.085c0.461,0.051,0.844,0.329,1.086,0.689
				c0.15,0.224,0.188,0.509,0.149,0.77c-0.035,0.235-0.144,0.535-0.347,0.693c-0.216,0.168-0.384,0.284-0.639,0.376
				c-0.231,0.082-0.459,0.095-0.693,0.07c-0.221-0.023-0.44-0.052-0.661-0.076c0.119,0.013,0.237,0.025,0.356,0.038
				c-0.593-0.062-1.189-0.101-1.784-0.146c-0.74-0.057-1.679-0.019-2.242-0.543C630.698,112.781,630.731,112.2,631.094,111.801
				L631.094,111.801z"/>
		</g>
		<path style="fill:#21304F;" d="M623.009,117.235c-0.063-0.668-0.299-1.312-0.856-1.723c-0.899-0.663-2.111,0.023-2.461,0.96
			c-0.182,0.488-0.232,1.061-0.19,1.578c0.045,0.536,0.213,1.067,0.624,1.436c0.389,0.349,0.905,0.519,1.42,0.39
			C622.629,119.602,623.103,118.232,623.009,117.235z"/>
		<g>
			<path style="fill:#21304F;" d="M623.897,111.664c-0.292-0.412-0.809-0.591-1.277-0.728c-0.461-0.135-0.947-0.218-1.422-0.279
				c-0.375-0.048-0.758-0.061-1.134-0.075c-0.281-0.01-0.563-0.015-0.844-0.018c-0.464-0.006-0.878,0.223-1.162,0.551
				c-0.176,0.204-0.249,0.482-0.242,0.746c0.006,0.237,0.077,0.548,0.26,0.73c0.194,0.193,0.346,0.329,0.589,0.451
				c0.219,0.11,0.443,0.151,0.68,0.155c0.222,0.004,0.443,0.002,0.665,0.005c-0.119-0.002-0.238-0.004-0.357-0.006
				c0.596,0.011,1.192,0.046,1.788,0.073c0.742,0.035,1.668,0.187,2.292-0.264C624.17,112.685,624.209,112.104,623.897,111.664
				L623.897,111.664z"/>
		</g>
		<path style="fill:#21304F;" d="M653.583,104.533c-2.202-1.588-4.527-1.353-6.845-0.513c0.19-1.142-0.039-2.36-0.209-3.485
			c-0.21-1.386-0.527-2.763-1.036-4.071c-0.936-2.406-2.511-4.51-4.764-5.821c-2.007-1.168-4.546-1.557-6.732-0.668
			c-1.835,0.746-3.106,2.218-4.119,3.858c-0.034-0.033-0.071-0.069-0.103-0.1c-0.769-0.721-1.706-1.262-2.739-1.494
			c-2.121-0.477-4.434,0.141-6.165,1.42c-1.843,1.363-3.056,3.386-3.827,5.513c-0.886,2.444-1.324,5.115-0.771,7.682
			c0.036,0.167,0.142,0.25,0.264,0.278c0.093,0.09,0.223,0.138,0.356,0.093c2.161-0.729,4.105-1.679,6.386-2.073
			c2.42-0.418,4.896-0.455,7.342-0.313c2.391,0.139,4.774,0.442,7.127,0.885c1.122,0.211,2.244,0.449,3.334,0.795
			c0.555,0.176,1.088,0.441,1.627,0.685c-0.519,1.314-0.894,2.711-1.19,4.026c-0.495,2.201-0.81,4.468-0.869,6.724
			c-0.054,2.055,0.18,4.124,1.077,5.995c0.598,1.249,1.942,3.453,3.59,3.108c0.138-0.029,0.234-0.156,0.26-0.292
			c0.024-0.002,0.044,0.008,0.069-0.002c1.534-0.605,2.597-1.661,3.744-2.812c1.104-1.108,2.141-2.275,3.079-3.528
			c1.816-2.424,3.214-5.246,3.613-8.274C656.448,109.369,656.008,106.281,653.583,104.533z"/>
		<path style="fill:#F7A995;" d="M642.502,124.884c0,0,2.476-4.387,5.094-3.467c2.618,0.92,1.557,5.165,0.637,7.146
			c-0.92,1.981-2.406,3.113-5.023,2.264s-2.972-2.618-2.972-2.618L642.502,124.884z"/>
		<g>
			<path style="fill:#21304F;" d="M628.104,113.947c-0.331,1.78-0.381,3.616-0.656,5.408c-0.073,0.475-0.015,1.186-0.631,1.239
				c-0.421,0.036-0.984-0.133-1.405-0.207c-0.77-0.136-1.579-0.436-2.364-0.226c-1.541,0.41-1.32,2.08-0.572,3.126
				c0.385,0.538,0.878,0.971,1.439,1.316c0.53,0.326,1.144,0.69,1.78,0.714c0.3,0.011,0.461-0.471,0.162-0.597
				c-0.627-0.265-1.248-0.384-1.773-0.855c-0.455-0.409-0.808-0.894-1.087-1.437c-0.164-0.319-0.401-0.809-0.172-1.152
				c0.223-0.335,0.709-0.337,1.063-0.321c0.798,0.035,1.593,0.157,2.386,0.24c0.55,0.057,1.128,0.107,1.458-0.423
				c0.346-0.557,0.394-1.329,0.495-1.958c0.251-1.565,0.489-3.223,0.302-4.806C628.503,113.785,628.153,113.684,628.104,113.947
				L628.104,113.947z"/>
		</g>
		<path style="fill:#21304F;" d="M634.063,127.636c-0.882-0.124-1.756,0.119-2.623,0.252c-1.056,0.161-2.114,0.31-3.178,0.406
			c-1.01,0.092-2.025,0.152-3.039,0.127c-0.77-0.019-1.535-0.13-2.302-0.197c-0.581-0.132-1.178-0.246-1.737,0.009
			c-0.624,0.285-0.936,0.886-1.013,1.546c-0.405,3.464,3.21,5.721,6.094,6.445c1.683,0.423,3.427,0.482,5.138,0.211
			c1.501-0.238,3.066-0.717,4.067-1.929C637.125,132.502,637.336,128.095,634.063,127.636z"/>
		<path style="fill:#FFFFFF;" d="M622.75,129.417c1.486,1.098,3.655,1.251,5.419,0.946c0.816-0.141,1.663-0.381,2.352-0.855
			c0.471-0.324,0.859-0.796,1.162-1.274c0.089-0.14,0.155-0.283,0.218-0.426c-0.154,0.028-0.308,0.056-0.461,0.08
			c-1.056,0.161-2.114,0.31-3.178,0.406c-1.01,0.092-2.025,0.152-3.039,0.127c-0.77-0.019-1.535-0.13-2.302-0.197
			c-0.382-0.087-0.771-0.156-1.152-0.127C621.96,128.606,622.263,129.057,622.75,129.417z"/>
		<path style="fill:#F05C37;" d="M633.75,132.885c-1.089-0.002-2.172,0.25-3.186,0.636c-0.962,0.366-1.855,0.914-2.53,1.7
			c-0.308,0.359-0.562,0.77-0.756,1.202c1.364,0.223,2.753,0.229,4.124,0.012c1.501-0.238,3.066-0.717,4.067-1.929
			c0.314-0.38,0.575-0.846,0.771-1.355C635.425,132.949,634.542,132.886,633.75,132.885z"/>
		<g>
			<path style="fill:#21304F;" d="M631.641,142.9c-0.903,0.227-1.927,0.27-2.86,0.239c-1.375-0.041-2.77-0.215-4.104-0.585
				c-0.01-0.298-0.02-0.585-0.041-0.862c1.365,0.318,2.739,0.544,4.145,0.574c0.903,0.021,1.826-0.02,2.729-0.123
				c0.462-0.051,0.923-0.133,1.375-0.215c0.349-0.072,0.667-0.215,0.975,0C633.982,142.01,633.18,142.513,631.641,142.9z"/>
		</g>
		<path style="fill:#21304F;" d="M631.181,154.742c0,0-2.406-0.92-3.891-0.071c-1.486,0.849-1.84,6.438,0.849,7.429
			c2.689,0.99,4.811-1.84,5.377-3.679C634.082,156.581,631.181,154.742,631.181,154.742z"/>
		<path style="fill:#FFFFFF;" d="M646.059,144.964c-1.157,0.105-1.52-0.617-2.638-0.234c-0.159,1.592-1.625,3.012-4.245,4.634
			c-2.972,1.839-8.986,4.882-8.986,4.882l5.448,8.136c0,0-0.071,0.212,2.406-1.273c2.476-1.486,8.137-6.651,9.198-8.844
			c1.014-2.096,0.848-4.014-0.771-7.326C646.333,144.947,646.196,144.952,646.059,144.964z"/>
		<path style="fill:#FFFFFF;" d="M624.849,148.445c-0.058-0.328-0.099-0.651-0.131-0.97c-0.196-0.38-0.395-0.759-0.575-1.148
			c-0.364-0.785-0.678-1.581-0.928-2.401c-0.71,0.79-1.466,1.818-1.975,3.033c-1.221,2.919-1.38,6.208-0.053,9.392
			s3.237,4.67,3.237,4.67l4.351-6.633C628.776,154.388,625.254,150.727,624.849,148.445z"/>
		<path style="fill:#21304F;" d="M628.21,160.261c0,0-11.462,47.828-10.896,50.658c0.566,2.83,7.358,19.103,8.915,19.669
			c1.557,0.566,3.246-4.275,5.731-8.596c2.441-4.245,3.715-6.58,4.457-8.596c0.353-0.957-5.66-53.842-5.66-53.842L628.21,160.261z"
			/>
		<g>
			<path style="fill:#99BBEB;" d="M630.078,154.627c0.499,1.458,1.438,2.781,2.281,4.062c0.847,1.286,1.727,2.544,2.641,3.782
				c0.118,0.16,0.294,0.218,0.479,0.126c3.295-1.65,6.005-4.089,8.595-6.672c1.289-1.285,2.676-2.576,3.456-4.251
				c0.644-1.383,1.144-3.312,0.341-4.724c-0.192-0.337-0.751-0.195-0.739,0.2c0.024,0.853,0.159,1.656-0.003,2.509
				c-0.153,0.807-0.477,1.567-0.893,2.272c-0.909,1.539-2.095,2.792-3.353,4.045c-2.33,2.32-4.79,4.538-7.756,6.016
				c0.16,0.042,0.32,0.084,0.479,0.126c-0.794-1.256-1.643-2.474-2.457-3.717c-0.861-1.316-1.594-2.74-2.521-4.005
				C630.442,154.143,629.959,154.279,630.078,154.627L630.078,154.627z"/>
		</g>
		<polygon style="fill:#4E5A72;" points="601.324,250.54 672.076,251.672 672.501,260.304 601.182,260.163 		"/>
		<path style="fill:#2A478B;" d="M607.409,153.751c-3.962,2.83-5.802,4.953-6.085,5.802c-0.283,0.849-3.679,75.705-3.679,88.016
			c0,12.311,0.424,26.461,0.424,26.461s4.481-0.318,9.693-0.566c4.457-0.212,8.703-1.061,8.703-1.061s-1.627-39.763-1.486-57.734
			c0.141-17.971,3.932-58.029,4.67-61.767c0.991-5.023,1.557-6.014,1.557-6.014S611.371,150.921,607.409,153.751z"/>
		<g>
			<path style="fill:#99BBEB;" d="M620.751,147.014c-1.45,4.962-0.027,10.79,3.654,14.451c0.184,0.183,0.556,0.168,0.678-0.087
				c0.55-1.145,1.137-2.272,1.774-3.371c0.628-1.083,1.461-2.111,2.013-3.228c0.173-0.35-0.259-0.726-0.557-0.43
				c-0.86,0.857-1.501,2.077-2.117,3.118c-0.67,1.13-1.284,2.293-1.859,3.474c0.226-0.029,0.452-0.058,0.678-0.087
				c-3.539-3.557-4.559-8.862-3.638-13.667C621.455,146.781,620.87,146.608,620.751,147.014L620.751,147.014z"/>
		</g>
		<path style="fill:#2A478B;" d="M649.506,147.03c0,0-5.306,18.042-7.995,37.569c-2.689,19.528-3.679,37.782-4.104,50.234
			c-0.424,12.452,0.708,36.933,0.708,36.933s36.791,2.264,37.499,1.557c0.708-0.708,0-22.075-1.132-41.036
			c-1.132-18.962-3.255-41.461-3.255-41.461l-2.406-37.357c0,0-4.67-2.264-11.179-4.245
			C653.44,147.944,649.506,147.03,649.506,147.03z"/>
		<path style="fill:#2A478B;" d="M664.576,151.77c0,0,8.773,1.981,18.537,13.868c9.764,11.886,18.179,38.156,20.801,57.521
			c2.759,20.377,0.212,37.357-0.637,42.664c-0.849,5.306-2.335,8.702-2.335,8.702s-1.274-0.849-6.792-1.592
			c-4.856-0.654-8.702-0.212-8.702-0.212s0-21.756-4.67-42.345c-4.871-21.477-19.103-46.06-19.103-46.06s-4.033-18.254-1.273-23.985
			C663.161,154.6,664.576,151.77,664.576,151.77z"/>
		<g>
			<path style="fill:#21304F;" d="M662.714,186.281c1.87,3.258,3.671,6.559,5.262,9.964c0.828,1.772,1.606,3.567,2.33,5.384
				c0.351,0.882,0.69,1.767,1.053,2.644c0.276,0.666,0.524,1.5,1.032,2.014c0.204,0.207,0.488,0.031,0.52-0.215
				c0.099-0.755-0.28-1.69-0.508-2.404c-0.273-0.857-0.602-1.693-0.935-2.528c-0.724-1.816-1.498-3.612-2.32-5.385
				c-1.6-3.451-3.33-6.905-5.66-9.927C663.148,185.385,662.417,185.763,662.714,186.281L662.714,186.281z"/>
		</g>
		<g>
			<path style="fill:#21304F;" d="M650.675,148.035c3.269,4.95,7.145,9.674,8.554,15.589c0.456,1.914-0.376,2.749-1.648,3.979
				c-1.137,1.1-2.222,2.25-3.275,3.431c-1.888,2.117-3.647,4.383-5.245,6.726c-0.756,1.107-1.751,2.401-1.991,3.754
				c-0.217,1.223,0.387,2.222,1.085,3.166c0.956,1.291,1.944,2.56,2.915,3.839c0.46,0.606,0.921,1.213,1.381,1.819
				c0.307,0.404,0.614,0.809,0.921,1.212c0.249,0.327,0.772,0.775,0.87,1.158c0.356,1.389-1.319,2.988-2.064,4.043
				c-0.892,1.264-1.785,2.527-2.658,3.803c-1.621,2.371-3.184,4.784-4.612,7.277c-1.552,2.709-2.943,5.513-4.053,8.433
				c-1.145,3.01-2.151,6.195-2.135,9.443c0.003,0.507,0.742,0.609,0.882,0.119c0.835-2.932,1.449-5.902,2.525-8.763
				c1.053-2.801,2.373-5.498,3.838-8.105c1.443-2.568,3.033-5.051,4.685-7.488c0.827-1.219,1.668-2.43,2.524-3.629
				c0.832-1.166,2.046-2.403,2.574-3.739c0.457-1.157-0.092-1.984-0.781-2.9c-1.119-1.487-2.26-2.958-3.39-4.437
				c-0.934-1.222-2.16-2.456-2.848-3.837c-0.764-1.533,0.981-3.562,1.779-4.849c1.722-2.78,3.725-5.371,5.986-7.735
				c1.595-1.667,4.368-3.342,4.125-5.958c-0.273-2.937-1.875-6.026-3.268-8.572c-1.616-2.954-3.555-5.956-5.967-8.323
				C651.026,147.144,650.387,147.598,650.675,148.035L650.675,148.035z"/>
		</g>
		<g>
			<path style="fill:#21304F;" d="M619.326,147.697c-2.505,2.577-4.663,5.592-6.75,8.511c-2.197,3.073-4.269,6.242-6.14,9.525
				c-0.758,1.329-1.299,2.716-1.156,4.275c0.135,1.466,0.937,2.713,1.724,3.917c1.608,2.464,3.383,4.824,5.148,7.176
				c0-0.192,0-0.383,0-0.575c-1.954,4.302-4.246,8.429-6.307,12.678c-0.874,1.8-2.005,3.755-2.214,5.778
				c-0.183,1.769,0.236,3.258,1.064,4.795c3.603,6.688,7.299,13.368,8.865,20.889c0.126,0.608,1.044,0.348,0.927-0.256
				c-0.783-4.039-2.2-7.878-3.896-11.616c-1.236-2.724-2.501-5.49-4.015-8.072c-0.931-1.588-1.84-3.049-1.816-4.948
				c0.028-2.26,1.34-4.417,2.295-6.414c1.967-4.115,4.199-8.104,6.081-12.259c0.079-0.173,0.128-0.406,0-0.575
				c-1.603-2.131-3.198-4.272-4.695-6.48c-0.862-1.271-1.944-2.666-2.055-4.245c-0.129-1.823,0.918-3.357,1.803-4.855
				c1.738-2.94,3.628-5.79,5.621-8.563c1.996-2.776,4.212-5.38,6.233-8.133C620.354,147.828,619.681,147.332,619.326,147.697
				L619.326,147.697z"/>
		</g>
		<g>
			<path style="fill:#21304F;" d="M600.899,163.232c-0.615,8.912-1.083,17.836-1.747,26.744c-0.325,4.365-0.552,8.741-0.713,13.115
				c-0.08,2.188-0.129,4.378-0.166,6.568c-0.02,1.18-0.036,2.36-0.04,3.541c-0.004,0.937-0.048,1.86,0.373,2.713
				c0.116,0.235,0.507,0.236,0.623,0c0.82-1.674,0.39-4.177,0.419-6.001c0.036-2.274,0.101-4.547,0.17-6.82
				c0.132-4.373,0.325-8.743,0.483-13.115c0.324-8.921,1.103-17.822,1.447-26.744C601.77,162.682,600.937,162.691,600.899,163.232
				L600.899,163.232z"/>
		</g>
	</g>
	<g>
		<g>
			<rect x="62.194" y="286.761" style="fill:#4E5A72;" width="10.187" height="154.522"/>
			<g>
				<path style="fill:#21304F;" d="M66.657,441.283c0.215-8.966-0.031-17.974,0.01-26.94c0.051-10.505,0.072-21.01,0.092-31.505
					c0.041-21.011,0.123-42.011,0.133-63.011c0-5.899,0.031-11.788,0-17.676c-0.031-5.099,0.174-10.28-0.133-15.389h-1.211
					c-0.246,4.432-0.082,8.915-0.113,13.337c-0.041,5.294-0.021,10.587-0.021,15.881c0,10.505,0.01,21,0.072,31.505
					c0.133,21,0.031,42.011,0.144,63.011c0.021,5.889,0.041,11.777,0.031,17.676c-0.01,4.37-0.062,8.741,0.01,13.111H66.657z"/>
			</g>
		</g>
		<g>
			<rect x="110.414" y="286.761" style="fill:#4E5A72;" width="10.187" height="154.522"/>
			<g>
				<path style="fill:#21304F;" d="M114.877,441.283c0.215-8.966-0.031-17.974,0.01-26.94c0.051-10.505,0.072-21.01,0.092-31.505
					c0.041-21.011,0.123-42.011,0.133-63.011c0-5.899,0.031-11.788,0-17.676c-0.031-5.099,0.174-10.28-0.133-15.389h-1.211
					c-0.246,4.432-0.082,8.915-0.113,13.337c-0.041,5.294-0.021,10.587-0.021,15.881c0,10.505,0.01,21,0.072,31.505
					c0.133,21,0.031,42.011,0.144,63.011c0.021,5.889,0.041,11.777,0.031,17.676c-0.01,4.37-0.062,8.741,0.01,13.111H114.877z"/>
			</g>
		</g>
		<g>
			<rect x="49.739" y="279.41" style="fill:#2A478B;" width="434.276" height="13.162"/>
			<g>
				<path style="fill:#21304F;" d="M98.952,292.572h-1.642c-0.021-1.99,0.031-3.98,0.031-5.96v-5.961c0-0.41,0-0.831,0.01-1.241
					h1.57c0.01,0.41,0.01,0.831,0.01,1.241v5.961C98.932,288.591,98.983,290.582,98.952,292.572z"/>
			</g>
		</g>
	</g>
</g>
</svg>
