
<svg xmlns="http://www.w3.org/2000/svg" xmlns:xlink="http://www.w3.org/1999/xlink" width="500" zoomAndPan="magnify" viewBox="0 0 375 374.999991" height="500" preserveAspectRatio="xMidYMid meet" version="1.0"><defs><g/></defs><g fill="#000000" fill-opacity="1"><g transform="translate(120.754163, 136.488836)"><g><path d="M 1.5 0 L 1.5 -12.078125 L 2.78125 -12.078125 L 2.78125 -7.390625 L 2.9375 -7.359375 C 3.550781 -8.304688 4.441406 -8.78125 5.609375 -8.78125 C 6.640625 -8.78125 7.390625 -8.515625 7.859375 -7.984375 C 8.328125 -7.460938 8.5625 -6.648438 8.5625 -5.546875 L 8.5625 0 L 7.28125 0 L 7.28125 -5.515625 C 7.28125 -6.035156 7.210938 -6.453125 7.078125 -6.765625 C 6.953125 -7.085938 6.75 -7.316406 6.46875 -7.453125 C 6.1875 -7.597656 5.820312 -7.671875 5.375 -7.671875 C 4.59375 -7.671875 3.960938 -7.414062 3.484375 -6.90625 C 3.015625 -6.40625 2.78125 -5.578125 2.78125 -4.421875 L 2.78125 0 Z M 1.5 0 "/></g></g></g><path fill="#406098" d="M 320.953125 120.441406 C 320.953125 123.542969 318.816406 126.226562 315.816406 126.929688 C 315.296875 127.0625 314.800781 127.113281 314.28125 127.113281 C 311.804688 127.113281 309.457031 125.730469 308.308594 123.4375 L 294.261719 95.3125 L 280.210938 123.4375 C 278.832031 126.199219 275.703125 127.632812 272.707031 126.929688 C 269.707031 126.226562 267.570312 123.542969 267.570312 120.441406 L 267.570312 40.371094 C 267.570312 36.695312 270.570312 33.695312 274.242188 33.695312 C 277.917969 33.695312 280.917969 36.695312 280.917969 40.371094 L 280.917969 92.1875 L 288.292969 77.40625 C 290.558594 72.898438 297.960938 72.898438 300.230469 77.40625 L 307.605469 92.1875 L 307.605469 40.371094 C 307.605469 36.695312 310.605469 33.695312 314.28125 33.695312 C 317.953125 33.695312 320.953125 36.695312 320.953125 40.371094 Z M 297.390625 0.386719 C 296.347656 0.359375 295.277344 0.332031 294.234375 0.332031 C 273.410156 0.332031 253.78125 8.207031 238.71875 22.722656 C 222.894531 37.945312 214.191406 58.433594 214.191406 80.40625 L 214.191406 153.804688 C 214.191406 157.476562 217.1875 160.476562 220.863281 160.476562 L 294.261719 160.476562 C 316.234375 160.476562 336.722656 151.769531 351.941406 135.949219 C 367.164062 120.128906 375.113281 99.277344 374.28125 77.277344 C 372.714844 36.433594 338.234375 1.949219 297.390625 0.386719 " fill-opacity="1" fill-rule="nonzero"/><path fill="#406098" d="M 80.738281 327.289062 C 88.089844 327.289062 94.082031 321.296875 94.082031 313.945312 L 94.082031 273.910156 C 94.082031 266.558594 88.089844 260.566406 80.738281 260.566406 C 73.386719 260.566406 67.394531 266.558594 67.394531 273.910156 L 67.394531 313.945312 C 67.394531 321.296875 73.386719 327.289062 80.738281 327.289062 " fill-opacity="1" fill-rule="nonzero"/><path fill="#406098" d="M 54.046875 273.910156 C 54.046875 259.183594 66.011719 247.21875 80.738281 247.21875 C 95.464844 247.21875 107.429688 259.183594 107.429688 273.910156 L 107.429688 313.945312 C 107.429688 328.671875 95.464844 340.636719 80.738281 340.636719 C 66.011719 340.636719 54.046875 328.671875 54.046875 313.945312 Z M 77.609375 373.945312 C 99.6875 374.78125 120.460938 366.832031 136.28125 351.609375 C 152.105469 336.386719 160.808594 315.902344 160.808594 293.929688 L 160.808594 220.53125 C 160.808594 216.855469 157.8125 213.855469 154.136719 213.855469 L 80.738281 213.855469 C 58.765625 213.855469 38.277344 222.5625 23.058594 238.382812 C 7.835938 254.207031 -0.113281 275.058594 0.71875 297.054688 C 2.285156 337.898438 36.765625 372.382812 77.609375 373.945312 " fill-opacity="1" fill-rule="nonzero"/><path fill="#406098" d="M 314.28125 260.566406 L 300.933594 260.566406 L 300.933594 333.964844 C 300.933594 337.636719 297.9375 340.636719 294.261719 340.636719 C 290.585938 340.636719 287.589844 337.636719 287.589844 333.964844 L 287.589844 260.566406 L 274.242188 260.566406 C 270.570312 260.566406 267.570312 257.566406 267.570312 253.890625 C 267.570312 250.21875 270.570312 247.21875 274.242188 247.21875 L 314.28125 247.21875 C 317.953125 247.21875 320.953125 250.21875 320.953125 253.890625 C 320.953125 257.566406 317.953125 260.566406 314.28125 260.566406 Z M 351.941406 238.382812 C 336.722656 222.5625 316.234375 213.855469 294.261719 213.855469 L 220.863281 213.855469 C 217.1875 213.855469 214.191406 216.855469 214.191406 220.53125 L 214.191406 293.929688 C 214.191406 315.902344 222.894531 336.386719 238.71875 351.609375 C 254.539062 366.832031 275.417969 374.78125 297.390625 373.945312 C 338.234375 372.382812 372.714844 337.898438 374.28125 297.054688 C 375.113281 275.058594 367.164062 254.207031 351.941406 238.382812 " fill-opacity="1" fill-rule="nonzero"/><path fill="#406098" d="M 80.738281 87.078125 C 66.011719 87.078125 54.046875 75.113281 54.046875 60.386719 C 54.046875 45.660156 66.011719 33.695312 80.738281 33.695312 C 95.464844 33.695312 107.429688 45.660156 107.429688 60.386719 C 107.429688 64.0625 104.429688 67.058594 100.757812 67.058594 C 97.082031 67.058594 94.082031 64.0625 94.082031 60.386719 C 94.082031 53.035156 88.089844 47.042969 80.738281 47.042969 C 73.386719 47.042969 67.394531 53.035156 67.394531 60.386719 C 67.394531 67.738281 73.386719 73.730469 80.738281 73.730469 C 95.464844 73.730469 107.429688 85.695312 107.429688 100.421875 C 107.429688 115.148438 95.464844 127.113281 80.738281 127.113281 C 66.011719 127.113281 54.046875 115.148438 54.046875 100.421875 C 54.046875 96.746094 57.046875 93.75 60.71875 93.75 C 64.394531 93.75 67.394531 96.746094 67.394531 100.421875 C 67.394531 107.773438 73.386719 113.769531 80.738281 113.769531 C 88.089844 113.769531 94.082031 107.773438 94.082031 100.421875 C 94.082031 93.074219 88.089844 87.078125 80.738281 87.078125 Z M 23.058594 135.949219 C 38.277344 151.769531 58.765625 160.476562 80.738281 160.476562 L 154.136719 160.476562 C 157.8125 160.476562 160.808594 157.476562 160.808594 153.804688 L 160.808594 80.40625 C 160.808594 58.433594 152.105469 37.945312 136.28125 22.722656 C 121.21875 8.207031 101.589844 0.332031 80.765625 0.332031 C 79.722656 0.332031 78.652344 0.359375 77.609375 0.386719 C 36.765625 1.949219 2.285156 36.433594 0.71875 77.277344 C -0.113281 99.277344 7.835938 120.128906 23.058594 135.949219 " fill-opacity="1" fill-rule="nonzero"/></svg>

