<svg width="40" height="44" viewBox="0 0 49 44" fill="none" xmlns="http://www.w3.org/2000/svg">
<path d="M34.7071 5.50023H42.8738C43.4153 5.50023 43.9346 5.69339 44.3175 6.0372C44.7003 6.38102 44.9154 6.84734 44.9154 7.33357V36.6669C44.9154 37.1531 44.7003 37.6194 44.3175 37.9633C43.9346 38.3071 43.4153 38.5002 42.8738 38.5002H34.7071V5.50023ZM5.83591 5.27473L31.4997 1.9839C31.6445 1.96524 31.7921 1.97476 31.9325 2.01181C32.0729 2.04886 32.2027 2.11258 32.3133 2.19864C32.4239 2.2847 32.5125 2.3911 32.5733 2.51063C32.634 2.63015 32.6655 2.76001 32.6655 2.8914V41.1091C32.6654 41.2403 32.634 41.37 32.5734 41.4893C32.5128 41.6087 32.4243 41.715 32.314 41.801C32.2036 41.8871 32.074 41.9508 31.9339 41.988C31.7938 42.0252 31.6464 42.0349 31.5017 42.0166L5.83387 38.7257C5.34717 38.6635 4.90183 38.4456 4.57965 38.1122C4.25747 37.7788 4.08008 37.3522 4.08008 36.9107V7.08973C4.08008 6.64829 4.25747 6.22167 4.57965 5.88824C4.90183 5.55482 5.34922 5.33698 5.83591 5.27473ZM10.2071 14.6669V29.3336H14.2905V25.6669H26.5405V14.6669H10.2071ZM14.2905 18.3336H22.4571V22.0002H14.2905V18.3336Z" fill="#004FBA"/>
</svg>
