<svg width="39" height="39" viewBox="0 0 39 39" fill="none" xmlns="http://www.w3.org/2000/svg">
<circle cx="19.5" cy="19.5" r="19.5" fill="#EA8F8F"/>
<path d="M13.1174 28.8268C12.6365 28.8268 12.2248 28.6884 11.8824 28.4117C11.54 28.135 11.3687 27.8024 11.3687 27.4138V13.9899H10.1738V12.5768H15.6529V11.0225H19.4999H23.3469V12.5768H28.826V13.9899H27.6311V27.4138C27.6311 27.7906 27.4562 28.1203 27.1065 28.4029C26.7568 28.6855 26.3488 28.8268 25.8825 28.8268H13.1174ZM25.8825 13.9899H13.1174V27.4138H25.8825V13.9899ZM16.2066 25.3884H17.9553V15.9917H16.2066V25.3884ZM21.0445 25.3884H22.7932V15.9917H21.0445V25.3884Z" fill="#FDFDFD"/>
</svg>
