<svg xmlns="http://www.w3.org/2000/svg" xmlns:xlink="http://www.w3.org/1999/xlink" width="200" zoomAndPan="magnify" viewBox="0 0 375 374.999991" height="200" preserveAspectRatio="xMidYMid meet" version="1.0"><defs><g/><clipPath id="fce3c30b30"><path d="M 10.222656 62.078125 L 364.972656 62.078125 L 364.972656 312.578125 L 10.222656 312.578125 Z M 10.222656 62.078125 " clip-rule="nonzero"/></clipPath></defs><g fill="#000000" fill-opacity="1"><g transform="translate(201.417764, 129.623847)"><g><path d="M 1.5 0 L 1.5 -12.078125 L 2.78125 -12.078125 L 2.78125 -7.390625 L 2.9375 -7.359375 C 3.550781 -8.304688 4.441406 -8.78125 5.609375 -8.78125 C 6.640625 -8.78125 7.390625 -8.515625 7.859375 -7.984375 C 8.328125 -7.460938 8.5625 -6.648438 8.5625 -5.546875 L 8.5625 0 L 7.28125 0 L 7.28125 -5.515625 C 7.28125 -6.035156 7.210938 -6.453125 7.078125 -6.765625 C 6.953125 -7.085938 6.75 -7.316406 6.46875 -7.453125 C 6.1875 -7.597656 5.820312 -7.671875 5.375 -7.671875 C 4.59375 -7.671875 3.960938 -7.414062 3.484375 -6.90625 C 3.015625 -6.40625 2.78125 -5.578125 2.78125 -4.421875 L 2.78125 0 Z M 1.5 0 "/></g></g></g><g clip-path="url(#fce3c30b30)"><path fill="#004fba" d="M 326.65625 163.207031 C 327.222656 159.097656 327.648438 154.921875 327.648438 150.601562 C 327.648438 101.734375 287.992188 62.078125 239.125 62.078125 C 206.054688 62.078125 177.230469 80.277344 162.074219 107.117188 C 153.292969 101.949219 143.097656 98.902344 132.191406 98.902344 C 101.382812 98.902344 76.101562 122.554688 73.410156 152.652344 C 37.363281 161.011719 10.453125 193.164062 10.453125 231.757812 C 10.453125 276.585938 46.78125 312.917969 91.609375 312.917969 L 283.386719 312.917969 C 328.214844 312.917969 364.546875 276.585938 364.546875 231.757812 C 364.546875 202.863281 349.390625 177.582031 326.65625 163.207031 Z M 138.492188 184.875 C 139.910156 186.292969 139.910156 188.628906 138.492188 190.117188 C 137.785156 190.824219 136.863281 191.179688 135.871094 191.179688 C 134.953125 191.179688 133.960938 190.824219 133.253906 190.117188 L 128.507812 185.371094 L 123.761719 190.117188 C 123.054688 190.824219 122.132812 191.179688 121.140625 191.179688 C 120.152344 191.179688 119.230469 190.824219 118.523438 190.117188 C 117.105469 188.699219 117.105469 186.363281 118.523438 184.875 L 123.265625 180.132812 L 118.523438 175.386719 C 117.105469 173.96875 117.105469 171.632812 118.523438 170.144531 C 119.9375 168.730469 122.273438 168.730469 123.761719 170.144531 L 128.507812 174.890625 L 133.253906 170.144531 C 134.667969 168.730469 137.003906 168.730469 138.492188 170.144531 C 139.910156 171.5625 139.910156 173.898438 138.492188 175.386719 L 133.746094 180.132812 Z M 227.300781 259.875 C 226.023438 261.503906 223.6875 261.714844 222.128906 260.441406 C 201.804688 244.152344 173.335938 244.152344 152.941406 260.441406 C 152.230469 261.007812 151.453125 261.21875 150.601562 261.21875 C 149.539062 261.21875 148.476562 260.722656 147.699219 259.804688 C 146.425781 258.246094 146.707031 255.90625 148.265625 254.632812 C 171.351562 236.148438 203.574219 236.148438 226.660156 254.632812 C 228.289062 255.980469 228.503906 258.246094 227.300781 259.875 Z M 256.476562 184.875 C 257.894531 186.292969 257.894531 188.628906 256.476562 190.117188 C 255.769531 190.824219 254.847656 191.179688 253.855469 191.179688 C 252.863281 191.179688 251.945312 190.824219 251.234375 190.117188 L 246.492188 185.371094 L 241.746094 190.117188 C 241.039062 190.824219 240.117188 191.179688 239.125 191.179688 C 238.207031 191.179688 237.214844 190.824219 236.503906 190.117188 C 235.089844 188.699219 235.089844 186.363281 236.503906 184.875 L 241.25 180.132812 L 236.503906 175.386719 C 235.089844 173.96875 235.089844 171.632812 236.503906 170.144531 C 237.921875 168.730469 240.257812 168.730469 241.746094 170.144531 L 246.492188 174.890625 L 251.234375 170.144531 C 252.652344 168.730469 254.988281 168.730469 256.476562 170.144531 C 257.894531 171.5625 257.894531 173.898438 256.476562 175.386719 L 251.730469 180.132812 Z M 256.476562 184.875 " fill-opacity="1" fill-rule="nonzero"/></g></svg>