<svg width="50px" height="50px" viewBox="0 0 0.938 0.938" fill="none" xmlns="http://www.w3.org/2000/svg"><path fill-rule="evenodd" clip-rule="evenodd" d="M0.156 0.063h0.625a0.094 0.094 0 0 1 0.094 0.093v0.625a0.094 0.094 0 0 1 -0.094 0.094H0.156a0.094 0.094 0 0 1 -0.093 -0.094V0.156A0.094 0.094 0 0 1 0.156 0.063Zm0 0.063A0.031 0.031 0 0 0 0.125 0.157v0.366l0.105 -0.105a0.028 0.028 0 0 1 0.04 0.001l0.222 0.237 0.175 -0.175a0.028 0.028 0 0 1 0.04 0l0.106 0.104V0.156A0.031 0.031 0 0 0 0.782 0.125H0.157ZM0.125 0.781V0.602l0.124 -0.124L0.47 0.715l0.089 0.098H0.156a0.031 0.031 0 0 1 -0.031 -0.031Zm0.656 0.031h-0.147l-0.104 -0.115 0.158 -0.157 0.125 0.125v0.116a0.031 0.031 0 0 1 -0.031 0.031Zm-0.365 -0.468a0.053 0.053 0 1 1 0.106 0 0.053 0.053 0 0 1 -0.106 0Zm0.053 -0.109a0.109 0.109 0 1 0 0 0.219 0.109 0.109 0 0 0 0 -0.219Z" fill="#000000"/></svg>