<svg width="120" height="130" viewBox="0 0 174 116" fill="none" xmlns="http://www.w3.org/2000/svg">
<circle cx="166.139" cy="6.14542" r="6" transform="rotate(-178.592 166.139 6.14542)" fill="#004FBA" fill-opacity="0.1"/>
<circle cx="126.141" cy="6.48477" r="6" transform="rotate(-178.592 126.141 6.48477)" fill="#004FBA" fill-opacity="0.1"/>
<circle cx="86.1414" cy="6.82364" r="6" transform="rotate(-178.592 86.1414 6.82364)" fill="#004FBA" fill-opacity="0.1"/>
<circle cx="46.1453" cy="7.163" r="6" transform="rotate(-178.592 46.1453 7.163)" fill="#004FBA" fill-opacity="0.1"/>
<circle cx="166.36" cy="32.1444" r="6" transform="rotate(-178.592 166.36 32.1444)" fill="#004FBA" fill-opacity="0.1"/>
<circle cx="126.362" cy="32.4838" r="6" transform="rotate(-178.592 126.362 32.4838)" fill="#004FBA" fill-opacity="0.1"/>
<circle cx="86.3641" cy="32.8227" r="6" transform="rotate(-178.592 86.3641 32.8227)" fill="#004FBA" fill-opacity="0.1"/>
<circle cx="46.3641" cy="33.162" r="6" transform="rotate(-178.592 46.3641 33.162)" fill="#004FBA" fill-opacity="0.1"/>
<circle cx="166.794" cy="83.143" r="6" transform="rotate(-178.592 166.794 83.143)" fill="#004FBA" fill-opacity="0.1"/>
<circle cx="126.794" cy="83.4818" r="6" transform="rotate(-178.592 126.794 83.4818)" fill="#004FBA" fill-opacity="0.1"/>
<circle cx="167.012" cy="109.142" r="6" transform="rotate(-178.592 167.012 109.142)" fill="#004FBA" fill-opacity="0.1"/>
<circle cx="166.571" cy="57.144" r="6" transform="rotate(-178.592 166.571 57.144)" fill="#004FBA" fill-opacity="0.1"/>
<circle cx="126.573" cy="57.4828" r="6" transform="rotate(-178.592 126.573 57.4828)" fill="#004FBA" fill-opacity="0.1"/>
<circle cx="86.575" cy="57.8222" r="6" transform="rotate(-178.592 86.575 57.8222)" fill="#004FBA" fill-opacity="0.1"/>
<circle cx="6.14531" cy="7.50186" r="6" transform="rotate(-178.592 6.14531 7.50186)" fill="#004FBA" fill-opacity="0.1"/>
</svg>
