<svg width="453" height="171" viewBox="0 0 453 171" fill="none" xmlns="http://www.w3.org/2000/svg">
<path d="M25.8515 143L30.8375 130.4H32.4935L37.4075 143H35.9135L34.4195 139.04H28.8035L27.3095 143H25.8515ZM29.2355 137.942H34.0055L31.6115 131.66L29.2355 137.942ZM43.1234 146.762V134.216H44.4194V135.476C44.7554 135.032 45.1634 134.696 45.6434 134.468C46.1354 134.228 46.6754 134.108 47.2634 134.108C48.0314 134.108 48.7154 134.312 49.3154 134.72C49.9274 135.116 50.4134 135.656 50.7734 136.34C51.1334 137.012 51.3134 137.768 51.3134 138.608C51.3134 139.448 51.1274 140.21 50.7554 140.894C50.3954 141.578 49.9034 142.124 49.2794 142.532C48.6674 142.928 47.9714 143.126 47.1914 143.126C46.6394 143.126 46.1294 143.024 45.6614 142.82C45.1934 142.604 44.7854 142.298 44.4374 141.902V146.762H43.1234ZM46.9394 141.992C47.5274 141.992 48.0494 141.848 48.5054 141.56C48.9734 141.26 49.3394 140.858 49.6034 140.354C49.8794 139.838 50.0174 139.262 50.0174 138.626C50.0174 137.978 49.8794 137.402 49.6034 136.898C49.3394 136.394 48.9734 135.998 48.5054 135.71C48.0494 135.41 47.5274 135.26 46.9394 135.26C46.4234 135.26 45.9434 135.368 45.4994 135.584C45.0674 135.788 44.7134 136.082 44.4374 136.466V140.768C44.7254 141.152 45.0854 141.452 45.5174 141.668C45.9614 141.884 46.4354 141.992 46.9394 141.992ZM53.6176 143V130.004L54.9316 129.734V143H53.6176ZM60.3434 143.162C59.7194 143.162 59.1674 143.048 58.6874 142.82C58.2074 142.592 57.8294 142.28 57.5534 141.884C57.2894 141.476 57.1574 141.008 57.1574 140.48C57.1574 139.952 57.2954 139.496 57.5714 139.112C57.8474 138.716 58.2314 138.41 58.7234 138.194C59.2154 137.978 59.7914 137.87 60.4514 137.87C60.9554 137.87 61.4294 137.924 61.8734 138.032C62.3294 138.14 62.7494 138.314 63.1334 138.554V137.348C63.1334 136.628 62.9414 136.088 62.5574 135.728C62.1734 135.356 61.6094 135.17 60.8654 135.17C60.4574 135.17 60.0374 135.23 59.6054 135.35C59.1854 135.47 58.7174 135.662 58.2014 135.926L57.7154 134.918C58.8914 134.354 59.9954 134.072 61.0274 134.072C62.1194 134.072 62.9594 134.342 63.5474 134.882C64.1354 135.41 64.4294 136.172 64.4294 137.168V143H63.1334V141.974C62.7494 142.37 62.3234 142.67 61.8554 142.874C61.3874 143.066 60.8834 143.162 60.3434 143.162ZM58.4174 140.444C58.4174 140.96 58.6154 141.374 59.0114 141.686C59.4194 141.998 59.9534 142.154 60.6134 142.154C61.1054 142.154 61.5554 142.07 61.9634 141.902C62.3834 141.734 62.7734 141.482 63.1334 141.146V139.454C62.7614 139.238 62.3774 139.082 61.9814 138.986C61.5854 138.878 61.1414 138.824 60.6494 138.824C59.9774 138.824 59.4374 138.974 59.0294 139.274C58.6214 139.562 58.4174 139.952 58.4174 140.444ZM70.1843 143.18C69.4283 143.18 68.8523 143 68.4563 142.64C68.0723 142.268 67.8803 141.734 67.8803 141.038V135.296H66.0623V134.216H67.8803V131.804L69.1943 131.498V134.216H71.7143V135.296H69.1943V140.696C69.1943 141.164 69.2903 141.5 69.4823 141.704C69.6863 141.908 70.0163 142.01 70.4723 142.01C70.7003 142.01 70.9043 141.992 71.0843 141.956C71.2643 141.92 71.4743 141.86 71.7143 141.776V142.946C71.4743 143.03 71.2223 143.09 70.9583 143.126C70.6943 143.162 70.4363 143.18 70.1843 143.18ZM74.9308 143V135.296H72.9688V134.216H74.9308V132.38C74.9308 131.516 75.1588 130.85 75.6148 130.382C76.0708 129.914 76.7188 129.68 77.5588 129.68C77.7988 129.68 78.0148 129.692 78.2068 129.716C78.4108 129.74 78.5908 129.782 78.7468 129.842V131.03C78.5548 130.97 78.3808 130.928 78.2248 130.904C78.0688 130.88 77.8888 130.868 77.6848 130.868C77.1808 130.868 76.8148 130.994 76.5868 131.246C76.3588 131.486 76.2448 131.87 76.2448 132.398V134.216H78.7468V135.296H76.2448V143H74.9308ZM83.9958 143.144C83.1798 143.144 82.4478 142.946 81.7998 142.55C81.1518 142.154 80.6418 141.614 80.2698 140.93C79.8978 140.246 79.7118 139.472 79.7118 138.608C79.7118 137.744 79.8978 136.97 80.2698 136.286C80.6418 135.602 81.1518 135.062 81.7998 134.666C82.4478 134.27 83.1798 134.072 83.9958 134.072C84.7998 134.072 85.5198 134.27 86.1558 134.666C86.8038 135.062 87.3138 135.602 87.6858 136.286C88.0578 136.97 88.2438 137.744 88.2438 138.608C88.2438 139.472 88.0578 140.246 87.6858 140.93C87.3138 141.614 86.8038 142.154 86.1558 142.55C85.5198 142.946 84.7998 143.144 83.9958 143.144ZM83.9778 141.992C84.5538 141.992 85.0638 141.848 85.5078 141.56C85.9518 141.26 86.2998 140.852 86.5518 140.336C86.8158 139.82 86.9478 139.244 86.9478 138.608C86.9478 137.96 86.8158 137.384 86.5518 136.88C86.2998 136.364 85.9518 135.962 85.5078 135.674C85.0638 135.374 84.5538 135.224 83.9778 135.224C83.4018 135.224 82.8918 135.374 82.4478 135.674C82.0038 135.962 81.6498 136.364 81.3858 136.88C81.1338 137.384 81.0078 137.96 81.0078 138.608C81.0078 139.244 81.1338 139.82 81.3858 140.336C81.6498 140.852 82.0038 141.26 82.4478 141.56C82.8918 141.848 83.4018 141.992 83.9778 141.992ZM90.5492 143V134.216H91.8632V136.016C92.0912 135.404 92.4152 134.93 92.8352 134.594C93.2672 134.246 93.7592 134.072 94.3112 134.072C94.4672 134.072 94.6112 134.084 94.7432 134.108C94.8752 134.12 95.0072 134.15 95.1392 134.198V135.386C94.9952 135.338 94.8392 135.302 94.6712 135.278C94.5152 135.242 94.3652 135.224 94.2212 135.224C93.6812 135.224 93.2072 135.38 92.7992 135.692C92.4032 136.004 92.0912 136.442 91.8632 137.006V143H90.5492ZM96.8773 143V134.216H98.1913V135.584C98.5273 135.08 98.9113 134.702 99.3433 134.45C99.7753 134.198 100.261 134.072 100.801 134.072C101.425 134.072 101.971 134.228 102.439 134.54C102.907 134.84 103.261 135.254 103.501 135.782C103.849 135.218 104.263 134.792 104.743 134.504C105.235 134.216 105.799 134.072 106.435 134.072C107.023 134.072 107.539 134.21 107.983 134.486C108.439 134.762 108.793 135.146 109.045 135.638C109.297 136.118 109.423 136.682 109.423 137.33V143H108.109V137.654C108.109 136.886 107.917 136.28 107.533 135.836C107.149 135.392 106.621 135.17 105.949 135.17C105.493 135.17 105.079 135.284 104.707 135.512C104.347 135.74 104.029 136.088 103.753 136.556C103.777 136.676 103.795 136.802 103.807 136.934C103.819 137.066 103.825 137.198 103.825 137.33V143H102.511V137.654C102.511 136.886 102.313 136.28 101.917 135.836C101.533 135.392 101.005 135.17 100.333 135.17C99.4333 135.17 98.7193 135.602 98.1913 136.466V143H96.8773ZM119.632 143.18C118.876 143.18 118.3 143 117.904 142.64C117.52 142.268 117.328 141.734 117.328 141.038V135.296H115.51V134.216H117.328V131.804L118.642 131.498V134.216H121.162V135.296H118.642V140.696C118.642 141.164 118.738 141.5 118.93 141.704C119.134 141.908 119.464 142.01 119.92 142.01C120.148 142.01 120.352 141.992 120.532 141.956C120.712 141.92 120.922 141.86 121.162 141.776V142.946C120.922 143.03 120.67 143.09 120.406 143.126C120.142 143.162 119.884 143.18 119.632 143.18ZM123.086 143V130.004L124.4 129.734V135.638C124.736 135.11 125.138 134.72 125.606 134.468C126.074 134.204 126.602 134.072 127.19 134.072C127.826 134.072 128.378 134.21 128.846 134.486C129.326 134.75 129.698 135.128 129.962 135.62C130.238 136.1 130.376 136.664 130.376 137.312V143H129.062V137.69C129.062 136.91 128.846 136.298 128.414 135.854C127.994 135.398 127.424 135.17 126.704 135.17C126.224 135.17 125.786 135.284 125.39 135.512C124.994 135.74 124.664 136.076 124.4 136.52V143H123.086ZM135.736 143.162C135.112 143.162 134.56 143.048 134.08 142.82C133.6 142.592 133.222 142.28 132.946 141.884C132.682 141.476 132.55 141.008 132.55 140.48C132.55 139.952 132.688 139.496 132.964 139.112C133.24 138.716 133.624 138.41 134.116 138.194C134.608 137.978 135.184 137.87 135.844 137.87C136.348 137.87 136.822 137.924 137.266 138.032C137.722 138.14 138.142 138.314 138.526 138.554V137.348C138.526 136.628 138.334 136.088 137.95 135.728C137.566 135.356 137.002 135.17 136.258 135.17C135.85 135.17 135.43 135.23 134.998 135.35C134.578 135.47 134.11 135.662 133.594 135.926L133.108 134.918C134.284 134.354 135.388 134.072 136.42 134.072C137.512 134.072 138.352 134.342 138.94 134.882C139.528 135.41 139.822 136.172 139.822 137.168V143H138.526V141.974C138.142 142.37 137.716 142.67 137.248 142.874C136.78 143.066 136.276 143.162 135.736 143.162ZM133.81 140.444C133.81 140.96 134.008 141.374 134.404 141.686C134.812 141.998 135.346 142.154 136.006 142.154C136.498 142.154 136.948 142.07 137.356 141.902C137.776 141.734 138.166 141.482 138.526 141.146V139.454C138.154 139.238 137.77 139.082 137.374 138.986C136.978 138.878 136.534 138.824 136.042 138.824C135.37 138.824 134.83 138.974 134.422 139.274C134.014 139.562 133.81 139.952 133.81 140.444ZM145.577 143.18C144.821 143.18 144.245 143 143.849 142.64C143.465 142.268 143.273 141.734 143.273 141.038V135.296H141.455V134.216H143.273V131.804L144.587 131.498V134.216H147.107V135.296H144.587V140.696C144.587 141.164 144.683 141.5 144.875 141.704C145.079 141.908 145.409 142.01 145.865 142.01C146.093 142.01 146.297 141.992 146.477 141.956C146.657 141.92 146.867 141.86 147.107 141.776V142.946C146.867 143.03 146.615 143.09 146.351 143.126C146.087 143.162 145.829 143.18 145.577 143.18ZM157.193 143.18C156.377 143.18 155.639 142.982 154.979 142.586C154.319 142.178 153.797 141.632 153.413 140.948C153.029 140.252 152.837 139.472 152.837 138.608C152.837 137.744 153.017 136.97 153.377 136.286C153.749 135.602 154.247 135.062 154.871 134.666C155.495 134.27 156.191 134.072 156.959 134.072C157.739 134.072 158.429 134.27 159.029 134.666C159.641 135.05 160.121 135.578 160.469 136.25C160.829 136.91 161.009 137.66 161.009 138.5V138.896H154.115C154.163 139.496 154.325 140.036 154.601 140.516C154.889 140.984 155.261 141.356 155.717 141.632C156.185 141.896 156.695 142.028 157.247 142.028C157.703 142.028 158.141 141.95 158.561 141.794C158.993 141.626 159.359 141.404 159.659 141.128L160.487 142.01C159.983 142.406 159.461 142.7 158.921 142.892C158.381 143.084 157.805 143.18 157.193 143.18ZM154.151 137.96H159.713C159.653 137.432 159.491 136.964 159.227 136.556C158.975 136.136 158.651 135.806 158.255 135.566C157.871 135.326 157.439 135.206 156.959 135.206C156.479 135.206 156.041 135.326 155.645 135.566C155.249 135.794 154.919 136.118 154.655 136.538C154.403 136.946 154.235 137.42 154.151 137.96ZM163.252 143V134.216H164.566V135.638C164.902 135.11 165.304 134.72 165.772 134.468C166.24 134.204 166.768 134.072 167.356 134.072C167.992 134.072 168.544 134.21 169.012 134.486C169.492 134.75 169.864 135.128 170.128 135.62C170.404 136.1 170.542 136.664 170.542 137.312V143H169.228V137.69C169.228 136.91 169.012 136.298 168.58 135.854C168.16 135.398 167.59 135.17 166.87 135.17C166.39 135.17 165.952 135.284 165.556 135.512C165.16 135.74 164.83 136.076 164.566 136.52V143H163.252ZM177.126 143.144C176.31 143.144 175.572 142.946 174.912 142.55C174.264 142.142 173.748 141.596 173.364 140.912C172.98 140.216 172.788 139.448 172.788 138.608C172.788 137.756 172.98 136.988 173.364 136.304C173.748 135.62 174.264 135.08 174.912 134.684C175.572 134.276 176.31 134.072 177.126 134.072C177.774 134.072 178.392 134.192 178.98 134.432C179.568 134.672 180.078 135.008 180.51 135.44L179.664 136.358C179.352 136.01 178.974 135.74 178.53 135.548C178.086 135.356 177.636 135.26 177.18 135.26C176.604 135.26 176.082 135.41 175.614 135.71C175.158 136.01 174.792 136.412 174.516 136.916C174.24 137.42 174.102 137.984 174.102 138.608C174.102 139.232 174.24 139.796 174.516 140.3C174.792 140.804 175.158 141.206 175.614 141.506C176.082 141.806 176.604 141.956 177.18 141.956C177.636 141.956 178.086 141.86 178.53 141.668C178.974 141.464 179.352 141.194 179.664 140.858L180.51 141.776C180.078 142.208 179.568 142.544 178.98 142.784C178.392 143.024 177.774 143.144 177.126 143.144ZM185.967 143.144C185.151 143.144 184.419 142.946 183.771 142.55C183.123 142.154 182.613 141.614 182.241 140.93C181.869 140.246 181.683 139.472 181.683 138.608C181.683 137.744 181.869 136.97 182.241 136.286C182.613 135.602 183.123 135.062 183.771 134.666C184.419 134.27 185.151 134.072 185.967 134.072C186.771 134.072 187.491 134.27 188.127 134.666C188.775 135.062 189.285 135.602 189.657 136.286C190.029 136.97 190.215 137.744 190.215 138.608C190.215 139.472 190.029 140.246 189.657 140.93C189.285 141.614 188.775 142.154 188.127 142.55C187.491 142.946 186.771 143.144 185.967 143.144ZM185.949 141.992C186.525 141.992 187.035 141.848 187.479 141.56C187.923 141.26 188.271 140.852 188.523 140.336C188.787 139.82 188.919 139.244 188.919 138.608C188.919 137.96 188.787 137.384 188.523 136.88C188.271 136.364 187.923 135.962 187.479 135.674C187.035 135.374 186.525 135.224 185.949 135.224C185.373 135.224 184.863 135.374 184.419 135.674C183.975 135.962 183.621 136.364 183.357 136.88C183.105 137.384 182.979 137.96 182.979 138.608C182.979 139.244 183.105 139.82 183.357 140.336C183.621 140.852 183.975 141.26 184.419 141.56C184.863 141.848 185.373 141.992 185.949 141.992ZM192.52 143V134.216H193.834V135.584C194.17 135.08 194.554 134.702 194.986 134.45C195.418 134.198 195.904 134.072 196.444 134.072C197.068 134.072 197.614 134.228 198.082 134.54C198.55 134.84 198.904 135.254 199.144 135.782C199.492 135.218 199.906 134.792 200.386 134.504C200.878 134.216 201.442 134.072 202.078 134.072C202.666 134.072 203.182 134.21 203.626 134.486C204.082 134.762 204.436 135.146 204.688 135.638C204.94 136.118 205.066 136.682 205.066 137.33V143H203.752V137.654C203.752 136.886 203.56 136.28 203.176 135.836C202.792 135.392 202.264 135.17 201.592 135.17C201.136 135.17 200.722 135.284 200.35 135.512C199.99 135.74 199.672 136.088 199.396 136.556C199.42 136.676 199.438 136.802 199.45 136.934C199.462 137.066 199.468 137.198 199.468 137.33V143H198.154V137.654C198.154 136.886 197.956 136.28 197.56 135.836C197.176 135.392 196.648 135.17 195.976 135.17C195.076 135.17 194.362 135.602 193.834 136.466V143H192.52ZM207.725 146.762V134.216H209.021V135.476C209.357 135.032 209.765 134.696 210.245 134.468C210.737 134.228 211.277 134.108 211.865 134.108C212.633 134.108 213.317 134.312 213.917 134.72C214.529 135.116 215.015 135.656 215.375 136.34C215.735 137.012 215.915 137.768 215.915 138.608C215.915 139.448 215.729 140.21 215.357 140.894C214.997 141.578 214.505 142.124 213.881 142.532C213.269 142.928 212.573 143.126 211.793 143.126C211.241 143.126 210.731 143.024 210.263 142.82C209.795 142.604 209.387 142.298 209.039 141.902V146.762H207.725ZM211.541 141.992C212.129 141.992 212.651 141.848 213.107 141.56C213.575 141.26 213.941 140.858 214.205 140.354C214.481 139.838 214.619 139.262 214.619 138.626C214.619 137.978 214.481 137.402 214.205 136.898C213.941 136.394 213.575 135.998 213.107 135.71C212.651 135.41 212.129 135.26 211.541 135.26C211.025 135.26 210.545 135.368 210.101 135.584C209.669 135.788 209.315 136.082 209.039 136.466V140.768C209.327 141.152 209.687 141.452 210.119 141.668C210.563 141.884 211.037 141.992 211.541 141.992ZM221.025 143.162C220.401 143.162 219.849 143.048 219.369 142.82C218.889 142.592 218.511 142.28 218.235 141.884C217.971 141.476 217.839 141.008 217.839 140.48C217.839 139.952 217.977 139.496 218.253 139.112C218.529 138.716 218.913 138.41 219.405 138.194C219.897 137.978 220.473 137.87 221.133 137.87C221.637 137.87 222.111 137.924 222.555 138.032C223.011 138.14 223.431 138.314 223.815 138.554V137.348C223.815 136.628 223.623 136.088 223.239 135.728C222.855 135.356 222.291 135.17 221.547 135.17C221.139 135.17 220.719 135.23 220.287 135.35C219.867 135.47 219.399 135.662 218.883 135.926L218.397 134.918C219.573 134.354 220.677 134.072 221.709 134.072C222.801 134.072 223.641 134.342 224.229 134.882C224.817 135.41 225.111 136.172 225.111 137.168V143H223.815V141.974C223.431 142.37 223.005 142.67 222.537 142.874C222.069 143.066 221.565 143.162 221.025 143.162ZM219.099 140.444C219.099 140.96 219.297 141.374 219.693 141.686C220.101 141.998 220.635 142.154 221.295 142.154C221.787 142.154 222.237 142.07 222.645 141.902C223.065 141.734 223.455 141.482 223.815 141.146V139.454C223.443 139.238 223.059 139.082 222.663 138.986C222.267 138.878 221.823 138.824 221.331 138.824C220.659 138.824 220.119 138.974 219.711 139.274C219.303 139.562 219.099 139.952 219.099 140.444ZM230.5 143.18C229.78 143.18 229.114 143.072 228.502 142.856C227.89 142.628 227.368 142.304 226.936 141.884L227.638 141.02C228.166 141.404 228.652 141.686 229.096 141.866C229.54 142.034 229.996 142.118 230.464 142.118C231.1 142.118 231.628 141.968 232.048 141.668C232.468 141.368 232.678 140.984 232.678 140.516C232.678 140.156 232.552 139.874 232.3 139.67C232.06 139.466 231.658 139.31 231.094 139.202L229.654 138.95C228.802 138.794 228.172 138.53 227.764 138.158C227.368 137.786 227.17 137.282 227.17 136.646C227.17 136.142 227.302 135.698 227.566 135.314C227.842 134.93 228.22 134.63 228.7 134.414C229.18 134.186 229.726 134.072 230.338 134.072C230.938 134.072 231.508 134.162 232.048 134.342C232.588 134.51 233.134 134.786 233.686 135.17L233.038 136.088C232.582 135.764 232.126 135.53 231.67 135.386C231.214 135.23 230.752 135.152 230.284 135.152C229.708 135.152 229.246 135.278 228.898 135.53C228.55 135.782 228.376 136.124 228.376 136.556C228.376 136.916 228.484 137.192 228.7 137.384C228.928 137.576 229.324 137.72 229.888 137.816L231.364 138.086C232.252 138.242 232.9 138.512 233.308 138.896C233.716 139.28 233.92 139.796 233.92 140.444C233.92 140.96 233.77 141.428 233.47 141.848C233.17 142.256 232.762 142.58 232.246 142.82C231.73 143.06 231.148 143.18 230.5 143.18ZM238.638 143.18C237.918 143.18 237.252 143.072 236.64 142.856C236.028 142.628 235.506 142.304 235.074 141.884L235.776 141.02C236.304 141.404 236.79 141.686 237.234 141.866C237.678 142.034 238.134 142.118 238.602 142.118C239.238 142.118 239.766 141.968 240.186 141.668C240.606 141.368 240.816 140.984 240.816 140.516C240.816 140.156 240.69 139.874 240.438 139.67C240.198 139.466 239.796 139.31 239.232 139.202L237.792 138.95C236.94 138.794 236.31 138.53 235.902 138.158C235.506 137.786 235.308 137.282 235.308 136.646C235.308 136.142 235.44 135.698 235.704 135.314C235.98 134.93 236.358 134.63 236.838 134.414C237.318 134.186 237.864 134.072 238.476 134.072C239.076 134.072 239.646 134.162 240.186 134.342C240.726 134.51 241.272 134.786 241.824 135.17L241.176 136.088C240.72 135.764 240.264 135.53 239.808 135.386C239.352 135.23 238.89 135.152 238.422 135.152C237.846 135.152 237.384 135.278 237.036 135.53C236.688 135.782 236.514 136.124 236.514 136.556C236.514 136.916 236.622 137.192 236.838 137.384C237.066 137.576 237.462 137.72 238.026 137.816L239.502 138.086C240.39 138.242 241.038 138.512 241.446 138.896C241.854 139.28 242.058 139.796 242.058 140.444C242.058 140.96 241.908 141.428 241.608 141.848C241.308 142.256 240.9 142.58 240.384 142.82C239.868 143.06 239.286 143.18 238.638 143.18ZM248.107 143.18C247.291 143.18 246.553 142.982 245.893 142.586C245.233 142.178 244.711 141.632 244.327 140.948C243.943 140.252 243.751 139.472 243.751 138.608C243.751 137.744 243.931 136.97 244.291 136.286C244.663 135.602 245.161 135.062 245.785 134.666C246.409 134.27 247.105 134.072 247.873 134.072C248.653 134.072 249.343 134.27 249.943 134.666C250.555 135.05 251.035 135.578 251.383 136.25C251.743 136.91 251.923 137.66 251.923 138.5V138.896H245.029C245.077 139.496 245.239 140.036 245.515 140.516C245.803 140.984 246.175 141.356 246.631 141.632C247.099 141.896 247.609 142.028 248.161 142.028C248.617 142.028 249.055 141.95 249.475 141.794C249.907 141.626 250.273 141.404 250.573 141.128L251.401 142.01C250.897 142.406 250.375 142.7 249.835 142.892C249.295 143.084 248.719 143.18 248.107 143.18ZM245.065 137.96H250.627C250.567 137.432 250.405 136.964 250.141 136.556C249.889 136.136 249.565 135.806 249.169 135.566C248.785 135.326 248.353 135.206 247.873 135.206C247.393 135.206 246.955 135.326 246.559 135.566C246.163 135.794 245.833 136.118 245.569 136.538C245.317 136.946 245.149 137.42 245.065 137.96ZM256.972 143.18C256.252 143.18 255.586 143.072 254.974 142.856C254.362 142.628 253.84 142.304 253.408 141.884L254.11 141.02C254.638 141.404 255.124 141.686 255.568 141.866C256.012 142.034 256.468 142.118 256.936 142.118C257.572 142.118 258.1 141.968 258.52 141.668C258.94 141.368 259.15 140.984 259.15 140.516C259.15 140.156 259.024 139.874 258.772 139.67C258.532 139.466 258.13 139.31 257.566 139.202L256.126 138.95C255.274 138.794 254.644 138.53 254.236 138.158C253.84 137.786 253.642 137.282 253.642 136.646C253.642 136.142 253.774 135.698 254.038 135.314C254.314 134.93 254.692 134.63 255.172 134.414C255.652 134.186 256.198 134.072 256.81 134.072C257.41 134.072 257.98 134.162 258.52 134.342C259.06 134.51 259.606 134.786 260.158 135.17L259.51 136.088C259.054 135.764 258.598 135.53 258.142 135.386C257.686 135.23 257.224 135.152 256.756 135.152C256.18 135.152 255.718 135.278 255.37 135.53C255.022 135.782 254.848 136.124 254.848 136.556C254.848 136.916 254.956 137.192 255.172 137.384C255.4 137.576 255.796 137.72 256.36 137.816L257.836 138.086C258.724 138.242 259.372 138.512 259.78 138.896C260.188 139.28 260.392 139.796 260.392 140.444C260.392 140.96 260.242 141.428 259.942 141.848C259.642 142.256 259.234 142.58 258.718 142.82C258.202 143.06 257.62 143.18 256.972 143.18ZM269.312 143.162C268.688 143.162 268.136 143.048 267.656 142.82C267.176 142.592 266.798 142.28 266.522 141.884C266.258 141.476 266.126 141.008 266.126 140.48C266.126 139.952 266.264 139.496 266.54 139.112C266.816 138.716 267.2 138.41 267.692 138.194C268.184 137.978 268.76 137.87 269.42 137.87C269.924 137.87 270.398 137.924 270.842 138.032C271.298 138.14 271.718 138.314 272.102 138.554V137.348C272.102 136.628 271.91 136.088 271.526 135.728C271.142 135.356 270.578 135.17 269.834 135.17C269.426 135.17 269.006 135.23 268.574 135.35C268.154 135.47 267.686 135.662 267.17 135.926L266.684 134.918C267.86 134.354 268.964 134.072 269.996 134.072C271.088 134.072 271.928 134.342 272.516 134.882C273.104 135.41 273.398 136.172 273.398 137.168V143H272.102V141.974C271.718 142.37 271.292 142.67 270.824 142.874C270.356 143.066 269.852 143.162 269.312 143.162ZM267.386 140.444C267.386 140.96 267.584 141.374 267.98 141.686C268.388 141.998 268.922 142.154 269.582 142.154C270.074 142.154 270.524 142.07 270.932 141.902C271.352 141.734 271.742 141.482 272.102 141.146V139.454C271.73 139.238 271.346 139.082 270.95 138.986C270.554 138.878 270.11 138.824 269.618 138.824C268.946 138.824 268.406 138.974 267.998 139.274C267.59 139.562 267.386 139.952 267.386 140.444ZM276.069 143V130.004L277.383 129.734V143H276.069ZM280.077 143V130.004L281.391 129.734V143H280.077ZM291.634 143.18C290.878 143.18 290.302 143 289.906 142.64C289.522 142.268 289.33 141.734 289.33 141.038V135.296H287.512V134.216H289.33V131.804L290.644 131.498V134.216H293.164V135.296H290.644V140.696C290.644 141.164 290.74 141.5 290.932 141.704C291.136 141.908 291.466 142.01 291.922 142.01C292.15 142.01 292.354 141.992 292.534 141.956C292.714 141.92 292.924 141.86 293.164 141.776V142.946C292.924 143.03 292.672 143.09 292.408 143.126C292.144 143.162 291.886 143.18 291.634 143.18ZM295.088 143V130.004L296.402 129.734V135.638C296.738 135.11 297.14 134.72 297.608 134.468C298.076 134.204 298.604 134.072 299.192 134.072C299.828 134.072 300.38 134.21 300.848 134.486C301.328 134.75 301.7 135.128 301.964 135.62C302.24 136.1 302.378 136.664 302.378 137.312V143H301.064V137.69C301.064 136.91 300.848 136.298 300.416 135.854C299.996 135.398 299.426 135.17 298.706 135.17C298.226 135.17 297.788 135.284 297.392 135.512C296.996 135.74 296.666 136.076 296.402 136.52V143H295.088ZM308.98 143.18C308.164 143.18 307.426 142.982 306.766 142.586C306.106 142.178 305.584 141.632 305.2 140.948C304.816 140.252 304.624 139.472 304.624 138.608C304.624 137.744 304.804 136.97 305.164 136.286C305.536 135.602 306.034 135.062 306.658 134.666C307.282 134.27 307.978 134.072 308.746 134.072C309.526 134.072 310.216 134.27 310.816 134.666C311.428 135.05 311.908 135.578 312.256 136.25C312.616 136.91 312.796 137.66 312.796 138.5V138.896H305.902C305.95 139.496 306.112 140.036 306.388 140.516C306.676 140.984 307.048 141.356 307.504 141.632C307.972 141.896 308.482 142.028 309.034 142.028C309.49 142.028 309.928 141.95 310.348 141.794C310.78 141.626 311.146 141.404 311.446 141.128L312.274 142.01C311.77 142.406 311.248 142.7 310.708 142.892C310.168 143.084 309.592 143.18 308.98 143.18ZM305.938 137.96H311.5C311.44 137.432 311.278 136.964 311.014 136.556C310.762 136.136 310.438 135.806 310.042 135.566C309.658 135.326 309.226 135.206 308.746 135.206C308.266 135.206 307.828 135.326 307.432 135.566C307.036 135.794 306.706 136.118 306.442 136.538C306.19 136.946 306.022 137.42 305.938 137.96ZM323.183 143.144C322.367 143.144 321.629 142.946 320.969 142.55C320.321 142.142 319.805 141.596 319.421 140.912C319.037 140.216 318.845 139.448 318.845 138.608C318.845 137.756 319.037 136.988 319.421 136.304C319.805 135.62 320.321 135.08 320.969 134.684C321.629 134.276 322.367 134.072 323.183 134.072C323.831 134.072 324.449 134.192 325.037 134.432C325.625 134.672 326.135 135.008 326.567 135.44L325.721 136.358C325.409 136.01 325.031 135.74 324.587 135.548C324.143 135.356 323.693 135.26 323.237 135.26C322.661 135.26 322.139 135.41 321.671 135.71C321.215 136.01 320.849 136.412 320.573 136.916C320.297 137.42 320.159 137.984 320.159 138.608C320.159 139.232 320.297 139.796 320.573 140.3C320.849 140.804 321.215 141.206 321.671 141.506C322.139 141.806 322.661 141.956 323.237 141.956C323.693 141.956 324.143 141.86 324.587 141.668C325.031 141.464 325.409 141.194 325.721 140.858L326.567 141.776C326.135 142.208 325.625 142.544 325.037 142.784C324.449 143.024 323.831 143.144 323.183 143.144ZM328.399 143V134.216H329.713V136.016C329.941 135.404 330.265 134.93 330.685 134.594C331.117 134.246 331.609 134.072 332.161 134.072C332.317 134.072 332.461 134.084 332.593 134.108C332.725 134.12 332.857 134.15 332.989 134.198V135.386C332.845 135.338 332.689 135.302 332.521 135.278C332.365 135.242 332.215 135.224 332.071 135.224C331.531 135.224 331.057 135.38 330.649 135.692C330.253 136.004 329.941 136.442 329.713 137.006V143H328.399ZM338.142 143.18C337.326 143.18 336.588 142.982 335.928 142.586C335.268 142.178 334.746 141.632 334.362 140.948C333.978 140.252 333.786 139.472 333.786 138.608C333.786 137.744 333.966 136.97 334.326 136.286C334.698 135.602 335.196 135.062 335.82 134.666C336.444 134.27 337.14 134.072 337.908 134.072C338.688 134.072 339.378 134.27 339.978 134.666C340.59 135.05 341.07 135.578 341.418 136.25C341.778 136.91 341.958 137.66 341.958 138.5V138.896H335.064C335.112 139.496 335.274 140.036 335.55 140.516C335.838 140.984 336.21 141.356 336.666 141.632C337.134 141.896 337.644 142.028 338.196 142.028C338.652 142.028 339.09 141.95 339.51 141.794C339.942 141.626 340.308 141.404 340.608 141.128L341.436 142.01C340.932 142.406 340.41 142.7 339.87 142.892C339.33 143.084 338.754 143.18 338.142 143.18ZM335.1 137.96H340.662C340.602 137.432 340.44 136.964 340.176 136.556C339.924 136.136 339.6 135.806 339.204 135.566C338.82 135.326 338.388 135.206 337.908 135.206C337.428 135.206 336.99 135.326 336.594 135.566C336.198 135.794 335.868 136.118 335.604 136.538C335.352 136.946 335.184 137.42 335.1 137.96ZM346.744 143.162C346.12 143.162 345.568 143.048 345.088 142.82C344.608 142.592 344.23 142.28 343.954 141.884C343.69 141.476 343.558 141.008 343.558 140.48C343.558 139.952 343.696 139.496 343.972 139.112C344.248 138.716 344.632 138.41 345.124 138.194C345.616 137.978 346.192 137.87 346.852 137.87C347.356 137.87 347.83 137.924 348.274 138.032C348.73 138.14 349.15 138.314 349.534 138.554V137.348C349.534 136.628 349.342 136.088 348.958 135.728C348.574 135.356 348.01 135.17 347.266 135.17C346.858 135.17 346.438 135.23 346.006 135.35C345.586 135.47 345.118 135.662 344.602 135.926L344.116 134.918C345.292 134.354 346.396 134.072 347.428 134.072C348.52 134.072 349.36 134.342 349.948 134.882C350.536 135.41 350.83 136.172 350.83 137.168V143H349.534V141.974C349.15 142.37 348.724 142.67 348.256 142.874C347.788 143.066 347.284 143.162 346.744 143.162ZM344.818 140.444C344.818 140.96 345.016 141.374 345.412 141.686C345.82 141.998 346.354 142.154 347.014 142.154C347.506 142.154 347.956 142.07 348.364 141.902C348.784 141.734 349.174 141.482 349.534 141.146V139.454C349.162 139.238 348.778 139.082 348.382 138.986C347.986 138.878 347.542 138.824 347.05 138.824C346.378 138.824 345.838 138.974 345.43 139.274C345.022 139.562 344.818 139.952 344.818 140.444ZM356.585 143.18C355.829 143.18 355.253 143 354.857 142.64C354.473 142.268 354.281 141.734 354.281 141.038V135.296H352.463V134.216H354.281V131.804L355.595 131.498V134.216H358.115V135.296H355.595V140.696C355.595 141.164 355.691 141.5 355.883 141.704C356.087 141.908 356.417 142.01 356.873 142.01C357.101 142.01 357.305 141.992 357.485 141.956C357.665 141.92 357.875 141.86 358.115 141.776V142.946C357.875 143.03 357.623 143.09 357.359 143.126C357.095 143.162 356.837 143.18 356.585 143.18ZM360.021 143V134.216H361.335V143H360.021ZM360.687 132.038C360.423 132.038 360.195 131.948 360.003 131.768C359.823 131.576 359.733 131.354 359.733 131.102C359.733 130.85 359.823 130.634 360.003 130.454C360.195 130.262 360.423 130.166 360.687 130.166C360.951 130.166 361.173 130.262 361.353 130.454C361.545 130.634 361.641 130.85 361.641 131.102C361.641 131.354 361.545 131.576 361.353 131.768C361.173 131.948 360.951 132.038 360.687 132.038ZM366.55 143L362.95 134.216H364.372L367.216 141.362L370.024 134.216H371.428L367.81 143H366.55ZM376.744 143.18C375.928 143.18 375.19 142.982 374.53 142.586C373.87 142.178 373.348 141.632 372.964 140.948C372.58 140.252 372.388 139.472 372.388 138.608C372.388 137.744 372.568 136.97 372.928 136.286C373.3 135.602 373.798 135.062 374.422 134.666C375.046 134.27 375.742 134.072 376.51 134.072C377.29 134.072 377.98 134.27 378.58 134.666C379.192 135.05 379.672 135.578 380.02 136.25C380.38 136.91 380.56 137.66 380.56 138.5V138.896H373.666C373.714 139.496 373.876 140.036 374.152 140.516C374.44 140.984 374.812 141.356 375.268 141.632C375.736 141.896 376.246 142.028 376.798 142.028C377.254 142.028 377.692 141.95 378.112 141.794C378.544 141.626 378.91 141.404 379.21 141.128L380.038 142.01C379.534 142.406 379.012 142.7 378.472 142.892C377.932 143.084 377.356 143.18 376.744 143.18ZM373.702 137.96H379.264C379.204 137.432 379.042 136.964 378.778 136.556C378.526 136.136 378.202 135.806 377.806 135.566C377.422 135.326 376.99 135.206 376.51 135.206C376.03 135.206 375.592 135.326 375.196 135.566C374.8 135.794 374.47 136.118 374.206 136.538C373.954 136.946 373.786 137.42 373.702 137.96ZM390.352 143.18C389.596 143.18 389.02 143 388.624 142.64C388.24 142.268 388.048 141.734 388.048 141.038V135.296H386.23V134.216H388.048V131.804L389.362 131.498V134.216H391.882V135.296H389.362V140.696C389.362 141.164 389.458 141.5 389.65 141.704C389.854 141.908 390.184 142.01 390.64 142.01C390.868 142.01 391.072 141.992 391.252 141.956C391.432 141.92 391.642 141.86 391.882 141.776V142.946C391.642 143.03 391.39 143.09 391.126 143.126C390.862 143.162 390.604 143.18 390.352 143.18ZM397.519 143.144C396.703 143.144 395.971 142.946 395.323 142.55C394.675 142.154 394.165 141.614 393.793 140.93C393.421 140.246 393.235 139.472 393.235 138.608C393.235 137.744 393.421 136.97 393.793 136.286C394.165 135.602 394.675 135.062 395.323 134.666C395.971 134.27 396.703 134.072 397.519 134.072C398.323 134.072 399.043 134.27 399.679 134.666C400.327 135.062 400.837 135.602 401.209 136.286C401.581 136.97 401.767 137.744 401.767 138.608C401.767 139.472 401.581 140.246 401.209 140.93C400.837 141.614 400.327 142.154 399.679 142.55C399.043 142.946 398.323 143.144 397.519 143.144ZM397.501 141.992C398.077 141.992 398.587 141.848 399.031 141.56C399.475 141.26 399.823 140.852 400.075 140.336C400.339 139.82 400.471 139.244 400.471 138.608C400.471 137.96 400.339 137.384 400.075 136.88C399.823 136.364 399.475 135.962 399.031 135.674C398.587 135.374 398.077 135.224 397.501 135.224C396.925 135.224 396.415 135.374 395.971 135.674C395.527 135.962 395.173 136.364 394.909 136.88C394.657 137.384 394.531 137.96 394.531 138.608C394.531 139.244 394.657 139.82 394.909 140.336C395.173 140.852 395.527 141.26 395.971 141.56C396.415 141.848 396.925 141.992 397.501 141.992ZM407.961 143.144C407.145 143.144 406.413 142.946 405.765 142.55C405.117 142.154 404.607 141.614 404.235 140.93C403.863 140.246 403.677 139.472 403.677 138.608C403.677 137.744 403.863 136.97 404.235 136.286C404.607 135.602 405.117 135.062 405.765 134.666C406.413 134.27 407.145 134.072 407.961 134.072C408.765 134.072 409.485 134.27 410.121 134.666C410.769 135.062 411.279 135.602 411.651 136.286C412.023 136.97 412.209 137.744 412.209 138.608C412.209 139.472 412.023 140.246 411.651 140.93C411.279 141.614 410.769 142.154 410.121 142.55C409.485 142.946 408.765 143.144 407.961 143.144ZM407.943 141.992C408.519 141.992 409.029 141.848 409.473 141.56C409.917 141.26 410.265 140.852 410.517 140.336C410.781 139.82 410.913 139.244 410.913 138.608C410.913 137.96 410.781 137.384 410.517 136.88C410.265 136.364 409.917 135.962 409.473 135.674C409.029 135.374 408.519 135.224 407.943 135.224C407.367 135.224 406.857 135.374 406.413 135.674C405.969 135.962 405.615 136.364 405.351 136.88C405.099 137.384 404.973 137.96 404.973 138.608C404.973 139.244 405.099 139.82 405.351 140.336C405.615 140.852 405.969 141.26 406.413 141.56C406.857 141.848 407.367 141.992 407.943 141.992ZM414.514 143V130.004L415.828 129.734V143H414.514ZM421.24 143.18C420.52 143.18 419.854 143.072 419.242 142.856C418.63 142.628 418.108 142.304 417.676 141.884L418.378 141.02C418.906 141.404 419.392 141.686 419.836 141.866C420.28 142.034 420.736 142.118 421.204 142.118C421.84 142.118 422.368 141.968 422.788 141.668C423.208 141.368 423.418 140.984 423.418 140.516C423.418 140.156 423.292 139.874 423.04 139.67C422.8 139.466 422.398 139.31 421.834 139.202L420.394 138.95C419.542 138.794 418.912 138.53 418.504 138.158C418.108 137.786 417.91 137.282 417.91 136.646C417.91 136.142 418.042 135.698 418.306 135.314C418.582 134.93 418.96 134.63 419.44 134.414C419.92 134.186 420.466 134.072 421.078 134.072C421.678 134.072 422.248 134.162 422.788 134.342C423.328 134.51 423.874 134.786 424.426 135.17L423.778 136.088C423.322 135.764 422.866 135.53 422.41 135.386C421.954 135.23 421.492 135.152 421.024 135.152C420.448 135.152 419.986 135.278 419.638 135.53C419.29 135.782 419.116 136.124 419.116 136.556C419.116 136.916 419.224 137.192 419.44 137.384C419.668 137.576 420.064 137.72 420.628 137.816L422.104 138.086C422.992 138.242 423.64 138.512 424.048 138.896C424.456 139.28 424.66 139.796 424.66 140.444C424.66 140.96 424.51 141.428 424.21 141.848C423.91 142.256 423.502 142.58 422.986 142.82C422.47 143.06 421.888 143.18 421.24 143.18ZM100.024 170.942C99.7479 170.942 99.4659 170.9 99.1779 170.816V169.646C99.2979 169.67 99.4239 169.688 99.5559 169.7C99.6879 169.712 99.8019 169.718 99.8979 169.718C100.234 169.718 100.51 169.628 100.726 169.448C100.954 169.268 101.146 168.986 101.302 168.602L101.95 167L98.5659 158.216H100.024L102.688 165.434L105.514 158.216H106.972L102.544 168.998C102.352 169.466 102.142 169.844 101.914 170.132C101.686 170.42 101.422 170.624 101.122 170.744C100.822 170.876 100.456 170.942 100.024 170.942ZM112.235 167.144C111.419 167.144 110.687 166.946 110.039 166.55C109.391 166.154 108.881 165.614 108.509 164.93C108.137 164.246 107.951 163.472 107.951 162.608C107.951 161.744 108.137 160.97 108.509 160.286C108.881 159.602 109.391 159.062 110.039 158.666C110.687 158.27 111.419 158.072 112.235 158.072C113.039 158.072 113.759 158.27 114.395 158.666C115.043 159.062 115.553 159.602 115.925 160.286C116.297 160.97 116.483 161.744 116.483 162.608C116.483 163.472 116.297 164.246 115.925 164.93C115.553 165.614 115.043 166.154 114.395 166.55C113.759 166.946 113.039 167.144 112.235 167.144ZM112.217 165.992C112.793 165.992 113.303 165.848 113.747 165.56C114.191 165.26 114.539 164.852 114.791 164.336C115.055 163.82 115.187 163.244 115.187 162.608C115.187 161.96 115.055 161.384 114.791 160.88C114.539 160.364 114.191 159.962 113.747 159.674C113.303 159.374 112.793 159.224 112.217 159.224C111.641 159.224 111.131 159.374 110.687 159.674C110.243 159.962 109.889 160.364 109.625 160.88C109.373 161.384 109.247 161.96 109.247 162.608C109.247 163.244 109.373 163.82 109.625 164.336C109.889 164.852 110.243 165.26 110.687 165.56C111.131 165.848 111.641 165.992 112.217 165.992ZM121.92 167.144C121.296 167.144 120.744 167.006 120.264 166.73C119.784 166.454 119.406 166.07 119.13 165.578C118.866 165.086 118.734 164.522 118.734 163.886V158.216H120.066V163.508C120.066 164.288 120.276 164.906 120.696 165.362C121.116 165.818 121.686 166.046 122.406 166.046C122.898 166.046 123.336 165.932 123.72 165.704C124.116 165.476 124.446 165.146 124.71 164.714V158.216H126.024V167H124.71V165.578C124.374 166.094 123.972 166.484 123.504 166.748C123.048 167.012 122.52 167.144 121.92 167.144ZM132.921 167V158.216H134.235V159.638C134.571 159.11 134.973 158.72 135.441 158.468C135.909 158.204 136.437 158.072 137.025 158.072C137.661 158.072 138.213 158.21 138.681 158.486C139.161 158.75 139.533 159.128 139.797 159.62C140.073 160.1 140.211 160.664 140.211 161.312V167H138.897V161.69C138.897 160.91 138.681 160.298 138.249 159.854C137.829 159.398 137.259 159.17 136.539 159.17C136.059 159.17 135.621 159.284 135.225 159.512C134.829 159.74 134.499 160.076 134.235 160.52V167H132.921ZM146.813 167.18C145.997 167.18 145.259 166.982 144.599 166.586C143.939 166.178 143.417 165.632 143.033 164.948C142.649 164.252 142.457 163.472 142.457 162.608C142.457 161.744 142.637 160.97 142.997 160.286C143.369 159.602 143.867 159.062 144.491 158.666C145.115 158.27 145.811 158.072 146.579 158.072C147.359 158.072 148.049 158.27 148.649 158.666C149.261 159.05 149.741 159.578 150.089 160.25C150.449 160.91 150.629 161.66 150.629 162.5V162.896H143.735C143.783 163.496 143.945 164.036 144.221 164.516C144.509 164.984 144.881 165.356 145.337 165.632C145.805 165.896 146.315 166.028 146.867 166.028C147.323 166.028 147.761 165.95 148.181 165.794C148.613 165.626 148.979 165.404 149.279 165.128L150.107 166.01C149.603 166.406 149.081 166.7 148.541 166.892C148.001 167.084 147.425 167.18 146.813 167.18ZM143.771 161.96H149.333C149.273 161.432 149.111 160.964 148.847 160.556C148.595 160.136 148.271 159.806 147.875 159.566C147.491 159.326 147.059 159.206 146.579 159.206C146.099 159.206 145.661 159.326 145.265 159.566C144.869 159.794 144.539 160.118 144.275 160.538C144.023 160.946 143.855 161.42 143.771 161.96ZM156.832 167.18C156.016 167.18 155.278 166.982 154.618 166.586C153.958 166.178 153.436 165.632 153.052 164.948C152.668 164.252 152.476 163.472 152.476 162.608C152.476 161.744 152.656 160.97 153.016 160.286C153.388 159.602 153.886 159.062 154.51 158.666C155.134 158.27 155.83 158.072 156.598 158.072C157.378 158.072 158.068 158.27 158.668 158.666C159.28 159.05 159.76 159.578 160.108 160.25C160.468 160.91 160.648 161.66 160.648 162.5V162.896H153.754C153.802 163.496 153.964 164.036 154.24 164.516C154.528 164.984 154.9 165.356 155.356 165.632C155.824 165.896 156.334 166.028 156.886 166.028C157.342 166.028 157.78 165.95 158.2 165.794C158.632 165.626 158.998 165.404 159.298 165.128L160.126 166.01C159.622 166.406 159.1 166.7 158.56 166.892C158.02 167.084 157.444 167.18 156.832 167.18ZM153.79 161.96H159.352C159.292 161.432 159.13 160.964 158.866 160.556C158.614 160.136 158.29 159.806 157.894 159.566C157.51 159.326 157.078 159.206 156.598 159.206C156.118 159.206 155.68 159.326 155.284 159.566C154.888 159.794 154.558 160.118 154.294 160.538C154.042 160.946 153.874 161.42 153.79 161.96ZM166.546 167.126C165.79 167.126 165.106 166.928 164.494 166.532C163.882 166.124 163.396 165.584 163.036 164.912C162.676 164.228 162.496 163.466 162.496 162.626C162.496 161.774 162.676 161.012 163.036 160.34C163.408 159.656 163.906 159.116 164.53 158.72C165.154 158.312 165.85 158.108 166.618 158.108C167.158 158.108 167.662 158.216 168.13 158.432C168.598 158.636 169.006 158.936 169.354 159.332V154.004L170.668 153.734V167H169.354V165.83C169.018 166.25 168.61 166.574 168.13 166.802C167.65 167.018 167.122 167.126 166.546 167.126ZM166.87 165.974C167.386 165.974 167.86 165.872 168.292 165.668C168.724 165.464 169.078 165.176 169.354 164.804V160.448C169.066 160.076 168.7 159.788 168.256 159.584C167.824 159.368 167.362 159.26 166.87 159.26C166.282 159.26 165.754 159.404 165.286 159.692C164.83 159.98 164.464 160.376 164.188 160.88C163.924 161.384 163.792 161.96 163.792 162.608C163.792 163.244 163.924 163.82 164.188 164.336C164.464 164.84 164.83 165.242 165.286 165.542C165.754 165.83 166.282 165.974 166.87 165.974ZM178.686 167V159.296H176.724V158.216H178.686V156.38C178.686 155.516 178.914 154.85 179.37 154.382C179.826 153.914 180.474 153.68 181.314 153.68C181.554 153.68 181.77 153.692 181.962 153.716C182.166 153.74 182.346 153.782 182.502 153.842V155.03C182.31 154.97 182.136 154.928 181.98 154.904C181.824 154.88 181.644 154.868 181.44 154.868C180.936 154.868 180.57 154.994 180.342 155.246C180.114 155.486 180 155.87 180 156.398V158.216H182.502V159.296H180V167H178.686ZM187.751 167.144C186.935 167.144 186.203 166.946 185.555 166.55C184.907 166.154 184.397 165.614 184.025 164.93C183.653 164.246 183.467 163.472 183.467 162.608C183.467 161.744 183.653 160.97 184.025 160.286C184.397 159.602 184.907 159.062 185.555 158.666C186.203 158.27 186.935 158.072 187.751 158.072C188.555 158.072 189.275 158.27 189.911 158.666C190.559 159.062 191.069 159.602 191.441 160.286C191.813 160.97 191.999 161.744 191.999 162.608C191.999 163.472 191.813 164.246 191.441 164.93C191.069 165.614 190.559 166.154 189.911 166.55C189.275 166.946 188.555 167.144 187.751 167.144ZM187.733 165.992C188.309 165.992 188.819 165.848 189.263 165.56C189.707 165.26 190.055 164.852 190.307 164.336C190.571 163.82 190.703 163.244 190.703 162.608C190.703 161.96 190.571 161.384 190.307 160.88C190.055 160.364 189.707 159.962 189.263 159.674C188.819 159.374 188.309 159.224 187.733 159.224C187.157 159.224 186.647 159.374 186.203 159.674C185.759 159.962 185.405 160.364 185.141 160.88C184.889 161.384 184.763 161.96 184.763 162.608C184.763 163.244 184.889 163.82 185.141 164.336C185.405 164.852 185.759 165.26 186.203 165.56C186.647 165.848 187.157 165.992 187.733 165.992ZM194.304 167V158.216H195.618V160.016C195.846 159.404 196.17 158.93 196.59 158.594C197.022 158.246 197.514 158.072 198.066 158.072C198.222 158.072 198.366 158.084 198.498 158.108C198.63 158.12 198.762 158.15 198.894 158.198V159.386C198.75 159.338 198.594 159.302 198.426 159.278C198.27 159.242 198.12 159.224 197.976 159.224C197.436 159.224 196.962 159.38 196.554 159.692C196.158 160.004 195.846 160.442 195.618 161.006V167H194.304ZM205.211 170.942C204.935 170.942 204.653 170.9 204.365 170.816V169.646C204.485 169.67 204.611 169.688 204.743 169.7C204.875 169.712 204.989 169.718 205.085 169.718C205.421 169.718 205.697 169.628 205.913 169.448C206.141 169.268 206.333 168.986 206.489 168.602L207.137 167L203.753 158.216H205.211L207.875 165.434L210.701 158.216H212.159L207.731 168.998C207.539 169.466 207.329 169.844 207.101 170.132C206.873 170.42 206.609 170.624 206.309 170.744C206.009 170.876 205.643 170.942 205.211 170.942ZM217.423 167.144C216.607 167.144 215.875 166.946 215.227 166.55C214.579 166.154 214.069 165.614 213.697 164.93C213.325 164.246 213.139 163.472 213.139 162.608C213.139 161.744 213.325 160.97 213.697 160.286C214.069 159.602 214.579 159.062 215.227 158.666C215.875 158.27 216.607 158.072 217.423 158.072C218.227 158.072 218.947 158.27 219.583 158.666C220.231 159.062 220.741 159.602 221.113 160.286C221.485 160.97 221.671 161.744 221.671 162.608C221.671 163.472 221.485 164.246 221.113 164.93C220.741 165.614 220.231 166.154 219.583 166.55C218.947 166.946 218.227 167.144 217.423 167.144ZM217.405 165.992C217.981 165.992 218.491 165.848 218.935 165.56C219.379 165.26 219.727 164.852 219.979 164.336C220.243 163.82 220.375 163.244 220.375 162.608C220.375 161.96 220.243 161.384 219.979 160.88C219.727 160.364 219.379 159.962 218.935 159.674C218.491 159.374 217.981 159.224 217.405 159.224C216.829 159.224 216.319 159.374 215.875 159.674C215.431 159.962 215.077 160.364 214.813 160.88C214.561 161.384 214.435 161.96 214.435 162.608C214.435 163.244 214.561 163.82 214.813 164.336C215.077 164.852 215.431 165.26 215.875 165.56C216.319 165.848 216.829 165.992 217.405 165.992ZM227.108 167.144C226.484 167.144 225.932 167.006 225.452 166.73C224.972 166.454 224.594 166.07 224.318 165.578C224.054 165.086 223.922 164.522 223.922 163.886V158.216H225.254V163.508C225.254 164.288 225.464 164.906 225.884 165.362C226.304 165.818 226.874 166.046 227.594 166.046C228.086 166.046 228.524 165.932 228.908 165.704C229.304 165.476 229.634 165.146 229.898 164.714V158.216H231.212V167H229.898V165.578C229.562 166.094 229.16 166.484 228.692 166.748C228.236 167.012 227.708 167.144 227.108 167.144ZM233.908 167V158.216H235.222V160.016C235.45 159.404 235.774 158.93 236.194 158.594C236.626 158.246 237.118 158.072 237.67 158.072C237.826 158.072 237.97 158.084 238.102 158.108C238.234 158.12 238.366 158.15 238.498 158.198V159.386C238.354 159.338 238.198 159.302 238.03 159.278C237.874 159.242 237.724 159.224 237.58 159.224C237.04 159.224 236.566 159.38 236.158 159.692C235.762 160.004 235.45 160.442 235.222 161.006V167H233.908ZM244.437 170.762V158.216H245.733V159.476C246.069 159.032 246.477 158.696 246.957 158.468C247.449 158.228 247.989 158.108 248.577 158.108C249.345 158.108 250.029 158.312 250.629 158.72C251.241 159.116 251.727 159.656 252.087 160.34C252.447 161.012 252.627 161.768 252.627 162.608C252.627 163.448 252.441 164.21 252.069 164.894C251.709 165.578 251.217 166.124 250.593 166.532C249.981 166.928 249.285 167.126 248.505 167.126C247.953 167.126 247.443 167.024 246.975 166.82C246.507 166.604 246.099 166.298 245.751 165.902V170.762H244.437ZM248.253 165.992C248.841 165.992 249.363 165.848 249.819 165.56C250.287 165.26 250.653 164.858 250.917 164.354C251.193 163.838 251.331 163.262 251.331 162.626C251.331 161.978 251.193 161.402 250.917 160.898C250.653 160.394 250.287 159.998 249.819 159.71C249.363 159.41 248.841 159.26 248.253 159.26C247.737 159.26 247.257 159.368 246.813 159.584C246.381 159.788 246.027 160.082 245.751 160.466V164.768C246.039 165.152 246.399 165.452 246.831 165.668C247.275 165.884 247.749 165.992 248.253 165.992ZM254.931 167V158.216H256.245V160.016C256.473 159.404 256.797 158.93 257.217 158.594C257.649 158.246 258.141 158.072 258.693 158.072C258.849 158.072 258.993 158.084 259.125 158.108C259.257 158.12 259.389 158.15 259.521 158.198V159.386C259.377 159.338 259.221 159.302 259.053 159.278C258.897 159.242 258.747 159.224 258.603 159.224C258.063 159.224 257.589 159.38 257.181 159.692C256.785 160.004 256.473 160.442 256.245 161.006V167H254.931ZM264.674 167.18C263.858 167.18 263.12 166.982 262.46 166.586C261.8 166.178 261.278 165.632 260.894 164.948C260.51 164.252 260.318 163.472 260.318 162.608C260.318 161.744 260.498 160.97 260.858 160.286C261.23 159.602 261.728 159.062 262.352 158.666C262.976 158.27 263.672 158.072 264.44 158.072C265.22 158.072 265.91 158.27 266.51 158.666C267.122 159.05 267.602 159.578 267.95 160.25C268.31 160.91 268.49 161.66 268.49 162.5V162.896H261.596C261.644 163.496 261.806 164.036 262.082 164.516C262.37 164.984 262.742 165.356 263.198 165.632C263.666 165.896 264.176 166.028 264.728 166.028C265.184 166.028 265.622 165.95 266.042 165.794C266.474 165.626 266.84 165.404 267.14 165.128L267.968 166.01C267.464 166.406 266.942 166.7 266.402 166.892C265.862 167.084 265.286 167.18 264.674 167.18ZM261.632 161.96H267.194C267.134 161.432 266.972 160.964 266.708 160.556C266.456 160.136 266.132 159.806 265.736 159.566C265.352 159.326 264.92 159.206 264.44 159.206C263.96 159.206 263.522 159.326 263.126 159.566C262.73 159.794 262.4 160.118 262.136 160.538C261.884 160.946 261.716 161.42 261.632 161.96ZM273.54 167.18C272.82 167.18 272.154 167.072 271.542 166.856C270.93 166.628 270.408 166.304 269.976 165.884L270.678 165.02C271.206 165.404 271.692 165.686 272.136 165.866C272.58 166.034 273.036 166.118 273.504 166.118C274.14 166.118 274.668 165.968 275.088 165.668C275.508 165.368 275.718 164.984 275.718 164.516C275.718 164.156 275.592 163.874 275.34 163.67C275.1 163.466 274.698 163.31 274.134 163.202L272.694 162.95C271.842 162.794 271.212 162.53 270.804 162.158C270.408 161.786 270.21 161.282 270.21 160.646C270.21 160.142 270.342 159.698 270.606 159.314C270.882 158.93 271.26 158.63 271.74 158.414C272.22 158.186 272.766 158.072 273.378 158.072C273.978 158.072 274.548 158.162 275.088 158.342C275.628 158.51 276.174 158.786 276.726 159.17L276.078 160.088C275.622 159.764 275.166 159.53 274.71 159.386C274.254 159.23 273.792 159.152 273.324 159.152C272.748 159.152 272.286 159.278 271.938 159.53C271.59 159.782 271.416 160.124 271.416 160.556C271.416 160.916 271.524 161.192 271.74 161.384C271.968 161.576 272.364 161.72 272.928 161.816L274.404 162.086C275.292 162.242 275.94 162.512 276.348 162.896C276.756 163.28 276.96 163.796 276.96 164.444C276.96 164.96 276.81 165.428 276.51 165.848C276.21 166.256 275.802 166.58 275.286 166.82C274.77 167.06 274.188 167.18 273.54 167.18ZM283.008 167.18C282.192 167.18 281.454 166.982 280.794 166.586C280.134 166.178 279.612 165.632 279.228 164.948C278.844 164.252 278.652 163.472 278.652 162.608C278.652 161.744 278.832 160.97 279.192 160.286C279.564 159.602 280.062 159.062 280.686 158.666C281.31 158.27 282.006 158.072 282.774 158.072C283.554 158.072 284.244 158.27 284.844 158.666C285.456 159.05 285.936 159.578 286.284 160.25C286.644 160.91 286.824 161.66 286.824 162.5V162.896H279.93C279.978 163.496 280.14 164.036 280.416 164.516C280.704 164.984 281.076 165.356 281.532 165.632C282 165.896 282.51 166.028 283.062 166.028C283.518 166.028 283.956 165.95 284.376 165.794C284.808 165.626 285.174 165.404 285.474 165.128L286.302 166.01C285.798 166.406 285.276 166.7 284.736 166.892C284.196 167.084 283.62 167.18 283.008 167.18ZM279.966 161.96H285.528C285.468 161.432 285.306 160.964 285.042 160.556C284.79 160.136 284.466 159.806 284.07 159.566C283.686 159.326 283.254 159.206 282.774 159.206C282.294 159.206 281.856 159.326 281.46 159.566C281.064 159.794 280.734 160.118 280.47 160.538C280.218 160.946 280.05 161.42 279.966 161.96ZM289.068 167V158.216H290.382V159.638C290.718 159.11 291.12 158.72 291.588 158.468C292.056 158.204 292.584 158.072 293.172 158.072C293.808 158.072 294.36 158.21 294.828 158.486C295.308 158.75 295.68 159.128 295.944 159.62C296.22 160.1 296.358 160.664 296.358 161.312V167H295.044V161.69C295.044 160.91 294.828 160.298 294.396 159.854C293.976 159.398 293.406 159.17 292.686 159.17C292.206 159.17 291.768 159.284 291.372 159.512C290.976 159.74 290.646 160.076 290.382 160.52V167H289.068ZM302.084 167.18C301.328 167.18 300.752 167 300.356 166.64C299.972 166.268 299.78 165.734 299.78 165.038V159.296H297.962V158.216H299.78V155.804L301.094 155.498V158.216H303.614V159.296H301.094V164.696C301.094 165.164 301.19 165.5 301.382 165.704C301.586 165.908 301.916 166.01 302.372 166.01C302.6 166.01 302.804 165.992 302.984 165.956C303.164 165.92 303.374 165.86 303.614 165.776V166.946C303.374 167.03 303.122 167.09 302.858 167.126C302.594 167.162 302.336 167.18 302.084 167.18ZM308.256 167.162C307.632 167.162 307.08 167.048 306.6 166.82C306.12 166.592 305.742 166.28 305.466 165.884C305.202 165.476 305.07 165.008 305.07 164.48C305.07 163.952 305.208 163.496 305.484 163.112C305.76 162.716 306.144 162.41 306.636 162.194C307.128 161.978 307.704 161.87 308.364 161.87C308.868 161.87 309.342 161.924 309.786 162.032C310.242 162.14 310.662 162.314 311.046 162.554V161.348C311.046 160.628 310.854 160.088 310.47 159.728C310.086 159.356 309.522 159.17 308.778 159.17C308.37 159.17 307.95 159.23 307.518 159.35C307.098 159.47 306.63 159.662 306.114 159.926L305.628 158.918C306.804 158.354 307.908 158.072 308.94 158.072C310.032 158.072 310.872 158.342 311.46 158.882C312.048 159.41 312.342 160.172 312.342 161.168V167H311.046V165.974C310.662 166.37 310.236 166.67 309.768 166.874C309.3 167.066 308.796 167.162 308.256 167.162ZM306.33 164.444C306.33 164.96 306.528 165.374 306.924 165.686C307.332 165.998 307.866 166.154 308.526 166.154C309.018 166.154 309.468 166.07 309.876 165.902C310.296 165.734 310.686 165.482 311.046 165.146V163.454C310.674 163.238 310.29 163.082 309.894 162.986C309.498 162.878 309.054 162.824 308.562 162.824C307.89 162.824 307.35 162.974 306.942 163.274C306.534 163.562 306.33 163.952 306.33 164.444ZM318.097 167.18C317.341 167.18 316.765 167 316.369 166.64C315.985 166.268 315.793 165.734 315.793 165.038V159.296H313.975V158.216H315.793V155.804L317.107 155.498V158.216H319.627V159.296H317.107V164.696C317.107 165.164 317.203 165.5 317.395 165.704C317.599 165.908 317.929 166.01 318.385 166.01C318.613 166.01 318.817 165.992 318.997 165.956C319.177 165.92 319.387 165.86 319.627 165.776V166.946C319.387 167.03 319.135 167.09 318.871 167.126C318.607 167.162 318.349 167.18 318.097 167.18ZM321.534 167V158.216H322.848V167H321.534ZM322.2 156.038C321.936 156.038 321.708 155.948 321.516 155.768C321.336 155.576 321.246 155.354 321.246 155.102C321.246 154.85 321.336 154.634 321.516 154.454C321.708 154.262 321.936 154.166 322.2 154.166C322.464 154.166 322.686 154.262 322.866 154.454C323.058 154.634 323.154 154.85 323.154 155.102C323.154 155.354 323.058 155.576 322.866 155.768C322.686 155.948 322.464 156.038 322.2 156.038ZM329.43 167.144C328.614 167.144 327.882 166.946 327.234 166.55C326.586 166.154 326.076 165.614 325.704 164.93C325.332 164.246 325.146 163.472 325.146 162.608C325.146 161.744 325.332 160.97 325.704 160.286C326.076 159.602 326.586 159.062 327.234 158.666C327.882 158.27 328.614 158.072 329.43 158.072C330.234 158.072 330.954 158.27 331.59 158.666C332.238 159.062 332.748 159.602 333.12 160.286C333.492 160.97 333.678 161.744 333.678 162.608C333.678 163.472 333.492 164.246 333.12 164.93C332.748 165.614 332.238 166.154 331.59 166.55C330.954 166.946 330.234 167.144 329.43 167.144ZM329.412 165.992C329.988 165.992 330.498 165.848 330.942 165.56C331.386 165.26 331.734 164.852 331.986 164.336C332.25 163.82 332.382 163.244 332.382 162.608C332.382 161.96 332.25 161.384 331.986 160.88C331.734 160.364 331.386 159.962 330.942 159.674C330.498 159.374 329.988 159.224 329.412 159.224C328.836 159.224 328.326 159.374 327.882 159.674C327.438 159.962 327.084 160.364 326.82 160.88C326.568 161.384 326.442 161.96 326.442 162.608C326.442 163.244 326.568 163.82 326.82 164.336C327.084 164.852 327.438 165.26 327.882 165.56C328.326 165.848 328.836 165.992 329.412 165.992ZM335.984 167V158.216H337.298V159.638C337.634 159.11 338.036 158.72 338.504 158.468C338.972 158.204 339.5 158.072 340.088 158.072C340.724 158.072 341.276 158.21 341.744 158.486C342.224 158.75 342.596 159.128 342.86 159.62C343.136 160.1 343.274 160.664 343.274 161.312V167H341.96V161.69C341.96 160.91 341.744 160.298 341.312 159.854C340.892 159.398 340.322 159.17 339.602 159.17C339.122 159.17 338.684 159.284 338.288 159.512C337.892 159.74 337.562 160.076 337.298 160.52V167H335.984ZM348.633 167.18C347.913 167.18 347.247 167.072 346.635 166.856C346.023 166.628 345.501 166.304 345.069 165.884L345.771 165.02C346.299 165.404 346.785 165.686 347.229 165.866C347.673 166.034 348.129 166.118 348.597 166.118C349.233 166.118 349.761 165.968 350.181 165.668C350.601 165.368 350.811 164.984 350.811 164.516C350.811 164.156 350.685 163.874 350.433 163.67C350.193 163.466 349.791 163.31 349.227 163.202L347.787 162.95C346.935 162.794 346.305 162.53 345.897 162.158C345.501 161.786 345.303 161.282 345.303 160.646C345.303 160.142 345.435 159.698 345.699 159.314C345.975 158.93 346.353 158.63 346.833 158.414C347.313 158.186 347.859 158.072 348.471 158.072C349.071 158.072 349.641 158.162 350.181 158.342C350.721 158.51 351.267 158.786 351.819 159.17L351.171 160.088C350.715 159.764 350.259 159.53 349.803 159.386C349.347 159.23 348.885 159.152 348.417 159.152C347.841 159.152 347.379 159.278 347.031 159.53C346.683 159.782 346.509 160.124 346.509 160.556C346.509 160.916 346.617 161.192 346.833 161.384C347.061 161.576 347.457 161.72 348.021 161.816L349.497 162.086C350.385 162.242 351.033 162.512 351.441 162.896C351.849 163.28 352.053 163.796 352.053 164.444C352.053 164.96 351.903 165.428 351.603 165.848C351.303 166.256 350.895 166.58 350.379 166.82C349.863 167.06 349.281 167.18 348.633 167.18Z" fill="#004FBA"/>
<path d="M46.3055 38V9.4H34.5055V3H65.3055V9.4H53.5555V38H46.3055ZM66.7742 38V11.95H73.6242V14.85C74.4576 13.7167 75.4576 12.85 76.6242 12.25C77.7909 11.65 79.1076 11.35 80.5742 11.35C81.8409 11.3833 82.7909 11.5833 83.4242 11.95V17.95C82.9242 17.7167 82.3742 17.55 81.7742 17.45C81.1742 17.3167 80.5576 17.25 79.9242 17.25C78.5909 17.25 77.3742 17.5833 76.2742 18.25C75.1742 18.9167 74.2909 19.8667 73.6242 21.1V38H66.7742ZM94.752 38.45C92.8853 38.45 91.2353 38.1167 89.802 37.45C88.3686 36.75 87.252 35.8 86.452 34.6C85.652 33.4 85.252 32.0167 85.252 30.45C85.252 27.95 86.1853 26.0167 88.052 24.65C89.952 23.25 92.552 22.55 95.852 22.55C98.1186 22.55 100.252 22.9 102.252 23.6V21.7C102.252 20.2 101.785 19.0667 100.852 18.3C99.9186 17.5333 98.552 17.15 96.752 17.15C95.652 17.15 94.4686 17.3333 93.202 17.7C91.9353 18.0333 90.4686 18.5667 88.802 19.3L86.302 14.25C88.3686 13.3167 90.3353 12.6167 92.202 12.15C94.102 11.6833 96.002 11.45 97.902 11.45C101.402 11.45 104.119 12.3 106.052 14C108.019 15.6667 109.002 18.0333 109.002 21.1V38H102.252V36.15C101.185 36.95 100.035 37.5333 98.802 37.9C97.5686 38.2667 96.2186 38.45 94.752 38.45ZM91.752 30.3C91.752 31.3 92.1853 32.1 93.052 32.7C93.9186 33.2667 95.0686 33.55 96.502 33.55C97.6353 33.55 98.6853 33.4167 99.652 33.15C100.619 32.85 101.485 32.4167 102.252 31.85V28.05C101.419 27.7167 100.552 27.4667 99.652 27.3C98.752 27.1333 97.7853 27.05 96.752 27.05C95.1853 27.05 93.952 27.35 93.052 27.95C92.1853 28.5167 91.752 29.3 91.752 30.3ZM114.186 38V11.95H121.036V14.1C123.003 12.3333 125.436 11.45 128.336 11.45C130.37 11.45 132.153 11.9 133.686 12.8C135.253 13.6667 136.47 14.8833 137.336 16.45C138.203 17.9833 138.636 19.7833 138.636 21.85V38H131.786V22.85C131.786 21.15 131.303 19.8167 130.336 18.85C129.37 17.85 128.053 17.35 126.386 17.35C125.22 17.35 124.186 17.5833 123.286 18.05C122.386 18.4833 121.636 19.1167 121.036 19.95V38H114.186ZM153.575 38.5C151.175 38.5 148.958 38.2 146.925 37.6C144.892 36.9667 143.125 36.0667 141.625 34.9L145.025 30.35C146.525 31.35 147.958 32.1 149.325 32.6C150.725 33.1 152.108 33.35 153.475 33.35C155.008 33.35 156.225 33.1 157.125 32.6C158.058 32.0667 158.525 31.3833 158.525 30.55C158.525 29.8833 158.258 29.35 157.725 28.95C157.225 28.55 156.408 28.2667 155.275 28.1L150.275 27.35C147.675 26.95 145.708 26.1167 144.375 24.85C143.042 23.55 142.375 21.85 142.375 19.75C142.375 18.05 142.808 16.6 143.675 15.4C144.575 14.1667 145.825 13.2167 147.425 12.55C149.058 11.85 150.992 11.5 153.225 11.5C155.125 11.5 156.975 11.7667 158.775 12.3C160.608 12.8333 162.325 13.65 163.925 14.75L160.625 19.2C159.192 18.3 157.825 17.65 156.525 17.25C155.225 16.85 153.908 16.65 152.575 16.65C151.342 16.65 150.342 16.8833 149.575 17.35C148.842 17.8167 148.475 18.4333 148.475 19.2C148.475 19.9 148.742 20.45 149.275 20.85C149.808 21.25 150.725 21.5333 152.025 21.7L156.975 22.45C159.575 22.8167 161.558 23.65 162.925 24.95C164.292 26.2167 164.975 27.8667 164.975 29.9C164.975 31.5667 164.475 33.05 163.475 34.35C162.475 35.6167 161.125 36.6333 159.425 37.4C157.725 38.1333 155.775 38.5 153.575 38.5ZM171.897 38V17.65H166.097V11.95H171.897V9.45C171.897 6.51666 172.747 4.28333 174.447 2.75C176.147 1.18333 178.597 0.399998 181.797 0.399998C182.497 0.399998 183.214 0.433331 183.947 0.499997C184.681 0.566665 185.314 0.683332 185.847 0.849998V6.6C185.214 6.46667 184.664 6.36667 184.197 6.3C183.731 6.23333 183.214 6.2 182.647 6.2C181.347 6.2 180.364 6.48333 179.697 7.05C179.064 7.58333 178.747 8.43333 178.747 9.6V11.95H185.847V17.65H178.747V38H171.897ZM201.056 38.5C198.456 38.5 196.106 37.9 194.006 36.7C191.906 35.5 190.24 33.8833 189.006 31.85C187.773 29.8167 187.156 27.5333 187.156 25C187.156 22.4667 187.756 20.1833 188.956 18.15C190.19 16.0833 191.856 14.45 193.956 13.25C196.09 12.05 198.456 11.45 201.056 11.45C203.656 11.45 206.006 12.05 208.106 13.25C210.24 14.45 211.906 16.0833 213.106 18.15C214.34 20.1833 214.956 22.4667 214.956 25C214.956 27.5333 214.34 29.8167 213.106 31.85C211.906 33.8833 210.256 35.5 208.156 36.7C206.056 37.9 203.69 38.5 201.056 38.5ZM201.056 32.55C202.423 32.55 203.64 32.2167 204.706 31.55C205.806 30.8833 206.673 29.9833 207.306 28.85C207.973 27.6833 208.306 26.4 208.306 25C208.306 23.5667 207.973 22.2833 207.306 21.15C206.673 20.0167 205.806 19.1167 204.706 18.45C203.64 17.75 202.423 17.4 201.056 17.4C199.723 17.4 198.506 17.75 197.406 18.45C196.306 19.1167 195.44 20.0167 194.806 21.15C194.173 22.2833 193.856 23.5667 193.856 25C193.856 26.4 194.173 27.6833 194.806 28.85C195.44 29.9833 196.306 30.8833 197.406 31.55C198.506 32.2167 199.723 32.55 201.056 32.55ZM219.167 38V11.95H226.017V14.85C226.85 13.7167 227.85 12.85 229.017 12.25C230.183 11.65 231.5 11.35 232.967 11.35C234.233 11.3833 235.183 11.5833 235.817 11.95V17.95C235.317 17.7167 234.767 17.55 234.167 17.45C233.567 17.3167 232.95 17.25 232.317 17.25C230.983 17.25 229.767 17.5833 228.667 18.25C227.567 18.9167 226.683 19.8667 226.017 21.1V38H219.167ZM239.577 38V11.95H246.427V13.95C248.294 12.2833 250.56 11.45 253.227 11.45C254.927 11.45 256.444 11.8 257.777 12.5C259.11 13.1667 260.21 14.1167 261.077 15.35C262.144 14.0833 263.394 13.1167 264.827 12.45C266.294 11.7833 267.91 11.45 269.677 11.45C271.644 11.45 273.36 11.9 274.827 12.8C276.327 13.6667 277.494 14.8833 278.327 16.45C279.194 17.9833 279.627 19.7833 279.627 21.85V38H272.827V22.85C272.827 21.15 272.377 19.8167 271.477 18.85C270.577 17.85 269.377 17.35 267.877 17.35C266.844 17.35 265.894 17.5667 265.027 18C264.194 18.4333 263.477 19.0833 262.877 19.95C262.91 20.25 262.944 20.55 262.977 20.85C263.01 21.15 263.027 21.4833 263.027 21.85V38H256.177V22.85C256.177 21.15 255.727 19.8167 254.827 18.85C253.96 17.85 252.777 17.35 251.277 17.35C250.244 17.35 249.31 17.55 248.477 17.95C247.677 18.35 246.994 18.95 246.427 19.75V38H239.577ZM294.899 38V11.95H301.749V38H294.899ZM298.299 8.85C297.233 8.85 296.316 8.46667 295.549 7.7C294.783 6.93333 294.399 6.01667 294.399 4.95C294.399 3.85 294.783 2.93333 295.549 2.2C296.316 1.43333 297.233 1.05 298.299 1.05C299.399 1.05 300.316 1.43333 301.049 2.2C301.816 2.93333 302.199 3.85 302.199 4.95C302.199 6.01667 301.816 6.93333 301.049 7.7C300.316 8.46667 299.399 8.85 298.299 8.85ZM319.156 38.35C316.69 38.35 314.456 37.75 312.456 36.55C310.456 35.35 308.856 33.75 307.656 31.75C306.49 29.7167 305.906 27.45 305.906 24.95C305.906 22.45 306.49 20.2 307.656 18.2C308.856 16.1667 310.473 14.5667 312.506 13.4C314.54 12.2 316.823 11.6 319.356 11.6C320.656 11.6 321.906 11.7833 323.106 12.15C324.306 12.4833 325.423 12.9833 326.456 13.65V3L333.306 1.85V38H326.556V35.85C324.423 37.5167 321.956 38.35 319.156 38.35ZM320.256 32.5C321.523 32.5 322.673 32.3 323.706 31.9C324.773 31.4667 325.69 30.8333 326.456 30V19.85C325.69 19.0833 324.773 18.4833 323.706 18.05C322.64 17.6167 321.49 17.4 320.256 17.4C318.823 17.4 317.523 17.7333 316.356 18.4C315.223 19.0333 314.323 19.9333 313.656 21.1C312.99 22.2333 312.656 23.5167 312.656 24.95C312.656 26.3833 312.99 27.6667 313.656 28.8C314.323 29.9333 315.223 30.8333 316.356 31.5C317.523 32.1667 318.823 32.5 320.256 32.5ZM351.399 38.5C348.799 38.5 346.433 37.9 344.299 36.7C342.199 35.5 340.533 33.8833 339.299 31.85C338.066 29.8167 337.449 27.5333 337.449 25C337.449 22.4667 338.033 20.1833 339.199 18.15C340.399 16.1167 342.016 14.5 344.049 13.3C346.083 12.1 348.349 11.5 350.849 11.5C353.349 11.5 355.566 12.1167 357.499 13.35C359.433 14.5833 360.949 16.25 362.049 18.35C363.183 20.45 363.749 22.8333 363.749 25.5V27.3H344.449C344.749 28.3333 345.233 29.2667 345.899 30.1C346.599 30.9333 347.449 31.5833 348.449 32.05C349.483 32.5167 350.583 32.75 351.749 32.75C352.916 32.75 353.983 32.5667 354.949 32.2C355.949 31.8333 356.799 31.3167 357.499 30.65L361.999 34.75C360.399 36.05 358.749 37 357.049 37.6C355.383 38.2 353.499 38.5 351.399 38.5ZM344.349 22.4H356.999C356.766 21.3667 356.333 20.4667 355.699 19.7C355.099 18.9 354.366 18.2833 353.499 17.85C352.666 17.3833 351.733 17.15 350.699 17.15C349.633 17.15 348.666 17.3667 347.799 17.8C346.933 18.2333 346.199 18.85 345.599 19.65C345.033 20.4167 344.616 21.3333 344.349 22.4ZM376.1 38.45C374.233 38.45 372.583 38.1167 371.15 37.45C369.716 36.75 368.6 35.8 367.8 34.6C367 33.4 366.6 32.0167 366.6 30.45C366.6 27.95 367.533 26.0167 369.4 24.65C371.3 23.25 373.9 22.55 377.2 22.55C379.466 22.55 381.6 22.9 383.6 23.6V21.7C383.6 20.2 383.133 19.0667 382.2 18.3C381.266 17.5333 379.9 17.15 378.1 17.15C377 17.15 375.816 17.3333 374.55 17.7C373.283 18.0333 371.816 18.5667 370.15 19.3L367.65 14.25C369.716 13.3167 371.683 12.6167 373.55 12.15C375.45 11.6833 377.35 11.45 379.25 11.45C382.75 11.45 385.466 12.3 387.4 14C389.366 15.6667 390.35 18.0333 390.35 21.1V38H383.6V36.15C382.533 36.95 381.383 37.5333 380.15 37.9C378.916 38.2667 377.566 38.45 376.1 38.45ZM373.1 30.3C373.1 31.3 373.533 32.1 374.4 32.7C375.266 33.2667 376.416 33.55 377.85 33.55C378.983 33.55 380.033 33.4167 381 33.15C381.966 32.85 382.833 32.4167 383.6 31.85V28.05C382.766 27.7167 381.9 27.4667 381 27.3C380.1 27.1333 379.133 27.05 378.1 27.05C376.533 27.05 375.3 27.35 374.4 27.95C373.533 28.5167 373.1 29.3 373.1 30.3ZM405.284 38.5C402.884 38.5 400.667 38.2 398.634 37.6C396.601 36.9667 394.834 36.0667 393.334 34.9L396.734 30.35C398.234 31.35 399.667 32.1 401.034 32.6C402.434 33.1 403.817 33.35 405.184 33.35C406.717 33.35 407.934 33.1 408.834 32.6C409.767 32.0667 410.234 31.3833 410.234 30.55C410.234 29.8833 409.967 29.35 409.434 28.95C408.934 28.55 408.117 28.2667 406.984 28.1L401.984 27.35C399.384 26.95 397.417 26.1167 396.084 24.85C394.751 23.55 394.084 21.85 394.084 19.75C394.084 18.05 394.517 16.6 395.384 15.4C396.284 14.1667 397.534 13.2167 399.134 12.55C400.767 11.85 402.701 11.5 404.934 11.5C406.834 11.5 408.684 11.7667 410.484 12.3C412.317 12.8333 414.034 13.65 415.634 14.75L412.334 19.2C410.901 18.3 409.534 17.65 408.234 17.25C406.934 16.85 405.617 16.65 404.284 16.65C403.051 16.65 402.051 16.8833 401.284 17.35C400.551 17.8167 400.184 18.4333 400.184 19.2C400.184 19.9 400.451 20.45 400.984 20.85C401.517 21.25 402.434 21.5333 403.734 21.7L408.684 22.45C411.284 22.8167 413.267 23.65 414.634 24.95C416.001 26.2167 416.684 27.8667 416.684 29.9C416.684 31.5667 416.184 33.05 415.184 34.35C414.184 35.6167 412.834 36.6333 411.134 37.4C409.434 38.1333 407.484 38.5 405.284 38.5ZM0.73418 93V66.95H7.58418V93H0.73418ZM4.13418 63.85C3.06751 63.85 2.15085 63.4667 1.38418 62.7C0.617513 61.9333 0.23418 61.0167 0.23418 59.95C0.23418 58.85 0.617513 57.9333 1.38418 57.2C2.15085 56.4333 3.06751 56.05 4.13418 56.05C5.23418 56.05 6.15085 56.4333 6.88418 57.2C7.65085 57.9333 8.03418 58.85 8.03418 59.95C8.03418 61.0167 7.65085 61.9333 6.88418 62.7C6.15085 63.4667 5.23418 63.85 4.13418 63.85ZM12.9412 93V66.95H19.7912V69.1C21.7579 67.3333 24.1912 66.45 27.0912 66.45C29.1245 66.45 30.9079 66.9 32.4412 67.8C34.0079 68.6667 35.2245 69.8833 36.0912 71.45C36.9579 72.9833 37.3912 74.7833 37.3912 76.85V93H30.5412V77.85C30.5412 76.15 30.0579 74.8167 29.0912 73.85C28.1245 72.85 26.8079 72.35 25.1412 72.35C23.9745 72.35 22.9412 72.5833 22.0412 73.05C21.1412 73.4833 20.3912 74.1167 19.7912 74.95V93H12.9412ZM54.1975 93.4C51.2975 93.4 49.0975 92.75 47.5975 91.45C46.1308 90.1167 45.3975 88.1833 45.3975 85.65V72.65H40.0475V66.95H45.3975V60.3L52.2475 58.75V66.95H59.6975V72.65H52.2475V84.25C52.2475 85.45 52.5141 86.3167 53.0475 86.85C53.5808 87.35 54.5141 87.6 55.8475 87.6C56.5141 87.6 57.1141 87.5667 57.6475 87.5C58.2141 87.4 58.8308 87.2333 59.4975 87V92.65C58.7975 92.8833 57.9141 93.0667 56.8475 93.2C55.8141 93.3333 54.9308 93.4 54.1975 93.4ZM75.4459 93.5C72.8459 93.5 70.4959 92.9 68.3959 91.7C66.2959 90.5 64.6292 88.8833 63.3959 86.85C62.1626 84.8167 61.5459 82.5333 61.5459 80C61.5459 77.4667 62.1459 75.1833 63.3459 73.15C64.5792 71.0833 66.2459 69.45 68.3459 68.25C70.4792 67.05 72.8459 66.45 75.4459 66.45C78.0459 66.45 80.3959 67.05 82.4959 68.25C84.6292 69.45 86.2959 71.0833 87.4959 73.15C88.7292 75.1833 89.3459 77.4667 89.3459 80C89.3459 82.5333 88.7292 84.8167 87.4959 86.85C86.2959 88.8833 84.6459 90.5 82.5459 91.7C80.4459 92.9 78.0792 93.5 75.4459 93.5ZM75.4459 87.55C76.8126 87.55 78.0292 87.2167 79.0959 86.55C80.1959 85.8833 81.0626 84.9833 81.6959 83.85C82.3626 82.6833 82.6959 81.4 82.6959 80C82.6959 78.5667 82.3626 77.2833 81.6959 76.15C81.0626 75.0167 80.1959 74.1167 79.0959 73.45C78.0292 72.75 76.8126 72.4 75.4459 72.4C74.1126 72.4 72.8959 72.75 71.7959 73.45C70.6959 74.1167 69.8292 75.0167 69.1959 76.15C68.5626 77.2833 68.2459 78.5667 68.2459 80C68.2459 81.4 68.5626 82.6833 69.1959 83.85C69.8292 84.9833 70.6959 85.8833 71.7959 86.55C72.8959 87.2167 74.1126 87.55 75.4459 87.55ZM113.365 93.5C110.965 93.5 108.748 93.2 106.715 92.6C104.682 91.9667 102.915 91.0667 101.415 89.9L104.815 85.35C106.315 86.35 107.748 87.1 109.115 87.6C110.515 88.1 111.898 88.35 113.265 88.35C114.798 88.35 116.015 88.1 116.915 87.6C117.848 87.0667 118.315 86.3833 118.315 85.55C118.315 84.8833 118.048 84.35 117.515 83.95C117.015 83.55 116.198 83.2667 115.065 83.1L110.065 82.35C107.465 81.95 105.498 81.1167 104.165 79.85C102.832 78.55 102.165 76.85 102.165 74.75C102.165 73.05 102.598 71.6 103.465 70.4C104.365 69.1667 105.615 68.2167 107.215 67.55C108.848 66.85 110.782 66.5 113.015 66.5C114.915 66.5 116.765 66.7667 118.565 67.3C120.398 67.8333 122.115 68.65 123.715 69.75L120.415 74.2C118.982 73.3 117.615 72.65 116.315 72.25C115.015 71.85 113.698 71.65 112.365 71.65C111.132 71.65 110.132 71.8833 109.365 72.35C108.632 72.8167 108.265 73.4333 108.265 74.2C108.265 74.9 108.532 75.45 109.065 75.85C109.598 76.25 110.515 76.5333 111.815 76.7L116.765 77.45C119.365 77.8167 121.348 78.65 122.715 79.95C124.082 81.2167 124.765 82.8667 124.765 84.9C124.765 86.5667 124.265 88.05 123.265 89.35C122.265 90.6167 120.915 91.6333 119.215 92.4C117.515 93.1333 115.565 93.5 113.365 93.5ZM140.037 93.4C137.137 93.4 134.937 92.75 133.437 91.45C131.971 90.1167 131.237 88.1833 131.237 85.65V72.65H125.887V66.95H131.237V60.3L138.087 58.75V66.95H145.537V72.65H138.087V84.25C138.087 85.45 138.354 86.3167 138.887 86.85C139.421 87.35 140.354 87.6 141.687 87.6C142.354 87.6 142.954 87.5667 143.487 87.5C144.054 87.4 144.671 87.2333 145.337 87V92.65C144.637 92.8833 143.754 93.0667 142.687 93.2C141.654 93.3333 140.771 93.4 140.037 93.4ZM158.979 93.5C156.979 93.5 155.195 93.0667 153.629 92.2C152.095 91.3 150.879 90.0667 149.979 88.5C149.112 86.9333 148.679 85.1333 148.679 83.1V66.95H155.529V82.1C155.529 83.7667 156.012 85.1 156.979 86.1C157.979 87.1 159.312 87.6 160.979 87.6C162.112 87.6 163.129 87.3833 164.029 86.95C164.962 86.4833 165.729 85.8333 166.329 85V66.95H173.179V93H166.329V90.9C164.329 92.6333 161.879 93.5 158.979 93.5ZM178.517 93V66.95H185.367V69.1C187.334 67.3333 189.767 66.45 192.667 66.45C194.701 66.45 196.484 66.9 198.017 67.8C199.584 68.6667 200.801 69.8833 201.667 71.45C202.534 72.9833 202.967 74.7833 202.967 76.85V93H196.117V77.85C196.117 76.15 195.634 74.8167 194.667 73.85C193.701 72.85 192.384 72.35 190.717 72.35C189.551 72.35 188.517 72.5833 187.617 73.05C186.717 73.4833 185.967 74.1167 185.367 74.95V93H178.517ZM208.156 93V66.95H215.006V69.1C216.973 67.3333 219.406 66.45 222.306 66.45C224.339 66.45 226.123 66.9 227.656 67.8C229.223 68.6667 230.439 69.8833 231.306 71.45C232.173 72.9833 232.606 74.7833 232.606 76.85V93H225.756V77.85C225.756 76.15 225.273 74.8167 224.306 73.85C223.339 72.85 222.023 72.35 220.356 72.35C219.189 72.35 218.156 72.5833 217.256 73.05C216.356 73.4833 215.606 74.1167 215.006 74.95V93H208.156ZM237.795 93V66.95H244.645V93H237.795ZM241.195 63.85C240.128 63.85 239.211 63.4667 238.445 62.7C237.678 61.9333 237.295 61.0167 237.295 59.95C237.295 58.85 237.678 57.9333 238.445 57.2C239.211 56.4333 240.128 56.05 241.195 56.05C242.295 56.05 243.211 56.4333 243.945 57.2C244.711 57.9333 245.095 58.85 245.095 59.95C245.095 61.0167 244.711 61.9333 243.945 62.7C243.211 63.4667 242.295 63.85 241.195 63.85ZM250.002 93V66.95H256.852V69.1C258.818 67.3333 261.252 66.45 264.152 66.45C266.185 66.45 267.968 66.9 269.502 67.8C271.068 68.6667 272.285 69.8833 273.152 71.45C274.018 72.9833 274.452 74.7833 274.452 76.85V93H267.602V77.85C267.602 76.15 267.118 74.8167 266.152 73.85C265.185 72.85 263.868 72.35 262.202 72.35C261.035 72.35 260.002 72.5833 259.102 73.05C258.202 73.4833 257.452 74.1167 256.852 74.95V93H250.002ZM292.74 103.7C290.74 103.7 288.807 103.483 286.94 103.05C285.074 102.65 283.39 102.067 281.89 101.3L284.29 96C285.724 96.7 287.124 97.2167 288.49 97.55C289.857 97.8833 291.224 98.05 292.59 98.05C294.624 98.05 296.157 97.6167 297.19 96.75C298.257 95.8833 298.79 94.5833 298.79 92.85V90.8C296.657 92.3667 294.274 93.15 291.64 93.15C289.174 93.15 286.94 92.5667 284.94 91.4C282.974 90.2 281.39 88.5833 280.19 86.55C279.024 84.5167 278.44 82.2667 278.44 79.8C278.44 77.3333 279.024 75.1 280.19 73.1C281.39 71.1 283.007 69.5167 285.04 68.35C287.074 67.15 289.34 66.55 291.84 66.55C293.107 66.55 294.34 66.7333 295.54 67.1C296.74 67.4667 297.857 67.9833 298.89 68.65V66.95H305.64V92.95C305.64 96.3833 304.524 99.0333 302.29 100.9C300.09 102.767 296.907 103.7 292.74 103.7ZM292.69 87.35C293.957 87.35 295.107 87.15 296.14 86.75C297.174 86.3167 298.057 85.7167 298.79 84.95V74.75C298.057 74.0167 297.157 73.45 296.09 73.05C295.057 72.6167 293.94 72.4 292.74 72.4C291.307 72.4 290.024 72.7333 288.89 73.4C287.757 74.0333 286.857 74.9167 286.19 76.05C285.524 77.15 285.19 78.4 285.19 79.8C285.19 81.2333 285.507 82.5167 286.14 83.65C286.807 84.7833 287.707 85.6833 288.84 86.35C290.007 87.0167 291.29 87.35 292.69 87.35ZM330.797 93.5C328.397 93.5 326.18 93.2 324.147 92.6C322.113 91.9667 320.347 91.0667 318.847 89.9L322.247 85.35C323.747 86.35 325.18 87.1 326.547 87.6C327.947 88.1 329.33 88.35 330.697 88.35C332.23 88.35 333.447 88.1 334.347 87.6C335.28 87.0667 335.747 86.3833 335.747 85.55C335.747 84.8833 335.48 84.35 334.947 83.95C334.447 83.55 333.63 83.2667 332.497 83.1L327.497 82.35C324.897 81.95 322.93 81.1167 321.597 79.85C320.263 78.55 319.597 76.85 319.597 74.75C319.597 73.05 320.03 71.6 320.897 70.4C321.797 69.1667 323.047 68.2167 324.647 67.55C326.28 66.85 328.213 66.5 330.447 66.5C332.347 66.5 334.197 66.7667 335.997 67.3C337.83 67.8333 339.547 68.65 341.147 69.75L337.847 74.2C336.413 73.3 335.047 72.65 333.747 72.25C332.447 71.85 331.13 71.65 329.797 71.65C328.563 71.65 327.563 71.8833 326.797 72.35C326.063 72.8167 325.697 73.4333 325.697 74.2C325.697 74.9 325.963 75.45 326.497 75.85C327.03 76.25 327.947 76.5333 329.247 76.7L334.197 77.45C336.797 77.8167 338.78 78.65 340.147 79.95C341.513 81.2167 342.197 82.8667 342.197 84.9C342.197 86.5667 341.697 88.05 340.697 89.35C339.697 90.6167 338.347 91.6333 336.647 92.4C334.947 93.1333 332.997 93.5 330.797 93.5ZM345.607 93V58L352.457 56.85V93H345.607ZM357.814 93V66.95H364.664V93H357.814ZM361.214 63.85C360.148 63.85 359.231 63.4667 358.464 62.7C357.698 61.9333 357.314 61.0167 357.314 59.95C357.314 58.85 357.698 57.9333 358.464 57.2C359.231 56.4333 360.148 56.05 361.214 56.05C362.314 56.05 363.231 56.4333 363.964 57.2C364.731 57.9333 365.114 58.85 365.114 59.95C365.114 61.0167 364.731 61.9333 363.964 62.7C363.231 63.4667 362.314 63.85 361.214 63.85ZM382.071 93.35C379.605 93.35 377.371 92.75 375.371 91.55C373.371 90.35 371.771 88.75 370.571 86.75C369.405 84.7167 368.821 82.45 368.821 79.95C368.821 77.45 369.405 75.2 370.571 73.2C371.771 71.1667 373.388 69.5667 375.421 68.4C377.455 67.2 379.738 66.6 382.271 66.6C383.571 66.6 384.821 66.7833 386.021 67.15C387.221 67.4833 388.338 67.9833 389.371 68.65V58L396.221 56.85V93H389.471V90.85C387.338 92.5167 384.871 93.35 382.071 93.35ZM383.171 87.5C384.438 87.5 385.588 87.3 386.621 86.9C387.688 86.4667 388.605 85.8333 389.371 85V74.85C388.605 74.0833 387.688 73.4833 386.621 73.05C385.555 72.6167 384.405 72.4 383.171 72.4C381.738 72.4 380.438 72.7333 379.271 73.4C378.138 74.0333 377.238 74.9333 376.571 76.1C375.905 77.2333 375.571 78.5167 375.571 79.95C375.571 81.3833 375.905 82.6667 376.571 83.8C377.238 84.9333 378.138 85.8333 379.271 86.5C380.438 87.1667 381.738 87.5 383.171 87.5ZM414.314 93.5C411.714 93.5 409.348 92.9 407.214 91.7C405.114 90.5 403.448 88.8833 402.214 86.85C400.981 84.8167 400.364 82.5333 400.364 80C400.364 77.4667 400.948 75.1833 402.114 73.15C403.314 71.1167 404.931 69.5 406.964 68.3C408.998 67.1 411.264 66.5 413.764 66.5C416.264 66.5 418.481 67.1167 420.414 68.35C422.348 69.5833 423.864 71.25 424.964 73.35C426.098 75.45 426.664 77.8333 426.664 80.5V82.3H407.364C407.664 83.3333 408.148 84.2667 408.814 85.1C409.514 85.9333 410.364 86.5833 411.364 87.05C412.398 87.5167 413.498 87.75 414.664 87.75C415.831 87.75 416.898 87.5667 417.864 87.2C418.864 86.8333 419.714 86.3167 420.414 85.65L424.914 89.75C423.314 91.05 421.664 92 419.964 92.6C418.298 93.2 416.414 93.5 414.314 93.5ZM407.264 77.4H419.914C419.681 76.3667 419.248 75.4667 418.614 74.7C418.014 73.9 417.281 73.2833 416.414 72.85C415.581 72.3833 414.648 72.15 413.614 72.15C412.548 72.15 411.581 72.3667 410.714 72.8C409.848 73.2333 409.114 73.85 408.514 74.65C407.948 75.4167 407.531 76.3333 407.264 77.4ZM440.855 93.5C438.455 93.5 436.239 93.2 434.205 92.6C432.172 91.9667 430.405 91.0667 428.905 89.9L432.305 85.35C433.805 86.35 435.239 87.1 436.605 87.6C438.005 88.1 439.389 88.35 440.755 88.35C442.289 88.35 443.505 88.1 444.405 87.6C445.339 87.0667 445.805 86.3833 445.805 85.55C445.805 84.8833 445.539 84.35 445.005 83.95C444.505 83.55 443.689 83.2667 442.555 83.1L437.555 82.35C434.955 81.95 432.989 81.1167 431.655 79.85C430.322 78.55 429.655 76.85 429.655 74.75C429.655 73.05 430.089 71.6 430.955 70.4C431.855 69.1667 433.105 68.2167 434.705 67.55C436.339 66.85 438.272 66.5 440.505 66.5C442.405 66.5 444.255 66.7667 446.055 67.3C447.889 67.8333 449.605 68.65 451.205 69.75L447.905 74.2C446.472 73.3 445.105 72.65 443.805 72.25C442.505 71.85 441.189 71.65 439.855 71.65C438.622 71.65 437.622 71.8833 436.855 72.35C436.122 72.8167 435.755 73.4333 435.755 74.2C435.755 74.9 436.022 75.45 436.555 75.85C437.089 76.25 438.005 76.5333 439.305 76.7L444.255 77.45C446.855 77.8167 448.839 78.65 450.205 79.95C451.572 81.2167 452.255 82.8667 452.255 84.9C452.255 86.5667 451.755 88.05 450.755 89.35C449.755 90.6167 448.405 91.6333 446.705 92.4C445.005 93.1333 443.055 93.5 440.855 93.5Z" fill="#004FBA"/>
</svg>
