<svg width="1368" height="1400" viewBox="0 0 1368 1400" fill="none" xmlns="http://www.w3.org/2000/svg">
<mask id="path-1-inside-1_0_1" fill="white">
<path fillRule="evenodd" clipRule="evenodd" d="M700 1200C976.142 1200 1200 976.142 1200 700C1200 423.858 976.142 200 700 200C423.858 200 200 423.858 200 700C200 976.142 423.858 1200 700 1200ZM700 900C810.457 900 900 810.457 900 700C900 589.543 810.457 500 700 500C589.543 500 500 589.543 500 700C500 810.457 589.543 900 700 900Z"/>
</mask>
<path fillRule="evenodd" clipRule="evenodd" d="M700 1200C976.142 1200 1200 976.142 1200 700C1200 423.858 976.142 200 700 200C423.858 200 200 423.858 200 700C200 976.142 423.858 1200 700 1200ZM700 900C810.457 900 900 810.457 900 700C900 589.543 810.457 500 700 500C589.543 500 500 589.543 500 700C500 810.457 589.543 900 700 900Z" fill="white"/>
<path d="M1197 700C1197 974.486 974.486 1197 700 1197V1203C977.799 1203 1203 977.799 1203 700H1197ZM700 203C974.486 203 1197 425.514 1197 700H1203C1203 422.201 977.799 197 700 197V203ZM203 700C203 425.514 425.514 203 700 203V197C422.201 197 197 422.201 197 700H203ZM700 1197C425.514 1197 203 974.486 203 700H197C197 977.799 422.201 1203 700 1203V1197ZM897 700C897 808.8 808.8 897 700 897V903C812.114 903 903 812.114 903 700H897ZM700 503C808.8 503 897 591.2 897 700H903C903 587.886 812.114 497 700 497V503ZM503 700C503 591.2 591.2 503 700 503V497C587.886 497 497 587.886 497 700H503ZM700 897C591.2 897 503 808.8 503 700H497C497 812.114 587.886 903 700 903V897Z" fill="#686868" mask="url(#path-1-inside-1_0_1)"/>
<circle cx="1268" cy="1300" r="100" fill="#9747FF"/>
<circle cx="100" cy="100" r="100" fill="#004FBA"/>
</svg>
